<svg width="234" height="14" viewBox="0 0 234 14" fill="none" xmlns="http://www.w3.org/2000/svg">
<path d="M198.505 13.7356H225.778L228.023 10.0045H220.561L219.769 11.3252H207.42L209.467 7.89134H217.854L219.307 5.48102H210.887L212.736 2.41033H225.085L224.292 3.73105H231.755L234 0H206.727L203.425 5.48102H199.331L197.911 7.89134H202.005L198.505 13.7356ZM166.147 13.7356H193.42L195.633 10.0045H188.171L187.378 11.3252H175.029L181.798 0H174.336L166.147 13.7356ZM129.431 13.7356H137.323L141.483 11.1601H154.855L155.945 13.7356H163.902L157.596 0H142.242L140.889 2.27825H148.747L129.431 13.7356ZM153.997 8.88189H145.115L152.181 4.52349L153.997 8.88189ZM114.408 13.7356L121.177 2.41033H111.139L112.559 0H140.129L138.676 2.41033H128.639L121.87 13.7356H114.408ZM74.3239 8.05643L79.1115 0H86.5736L82.0501 7.59418C80.5974 10.0045 83.4039 11.4903 87.9604 11.5894C92.5169 11.6884 97.2715 10.0045 98.7243 7.59418L103.248 0H110.71L105.856 8.12247C103.941 11.2922 96.281 14.0327 87.1019 13.9997H82.2813C73.1022 13.9997 72.3758 11.2922 74.2579 8.12247L74.3239 8.05643ZM38.4331 13.7356H45.8953L49.3952 7.89134H54.546L59.6638 13.7356H68.2816L62.7015 7.82531C69.3382 7.49513 72.6069 5.77818 73.6965 3.96218C75.1163 1.58487 76.272 0.0330182 68.6778 0.0330182H46.6547L43.3529 5.51403H39.2586L37.8388 7.92436H41.9331L38.4331 13.7356ZM50.815 5.48102L52.664 2.41033H62.7345C68.7108 2.41033 66.7297 5.48102 60.8855 5.48102H50.815ZM0 7.89134L1.41978 5.48102H6.63665L9.93847 0H34.438C39.6548 0 38.4992 1.22167 37.0134 3.66502C36.2539 4.95273 34.0417 5.94327 31.2022 6.40553C34.471 6.86778 36.353 7.9904 35.2964 9.74036C33.8436 12.1837 33.3484 13.7356 27.339 13.7356H1.71694L5.21687 7.89134H0ZM14.0988 5.48102H24.2353C29.8814 5.48102 31.7965 2.41033 26.0513 2.41033H15.9478L14.0988 5.48102ZM12.679 7.89134L10.6319 11.3252H21.9901C28.5607 11.3252 30.5418 7.89134 24.0702 7.89134H12.679Z" fill="black"/>
</svg>
