<svg width="288" height="14" viewBox="0 0 288 14" fill="none" xmlns="http://www.w3.org/2000/svg">
<path d="M48.586 5.44C49.1708 4.5628 49.776 3.6992 50.3608 2.822C50.9456 1.9448 51.6324 1.0132 52.258 0.102L52.3192 0H70.482C72.9232 0 76.602 0.0816 78.846 1.0948C80.2672 1.7748 80.9268 2.822 79.9476 4.2296C79.084 5.4672 77.4996 6.2696 76.1056 6.7592C73.611 7.56944 71.0156 8.0272 68.3944 8.1192L70.9036 10.71L73.7188 13.6L74.052 13.94H65.5384L65.4772 13.8788C64.6 12.92 63.7228 11.9884 62.866 11.016L60.3704 8.2008H53.8696C53.1896 9.1324 52.5504 10.0572 51.9044 10.9956L49.9392 13.872L49.878 13.9672H42.6836L42.908 13.6476L44.88 10.7712C45.4648 9.90759 46.0496 9.0508 46.6548 8.2008H42.3436L42.5476 7.888C43.078 7.0856 43.6356 6.2968 44.1796 5.5012L44.2408 5.44H48.586ZM7.3984 5.44C7.9832 4.5628 8.5884 3.6992 9.17319 2.822C9.75799 1.9448 10.438 1.0132 11.0704 0.102L11.1316 0H11.2404C18.9788 0 26.7172 0 34.4556 0C36.822 0 40.6844 0.4148 41.5276 3.1008C41.678 3.77499 41.6817 4.47362 41.5386 5.14938C41.3955 5.82515 41.1088 6.46227 40.698 7.0176C39.2275 9.08069 37.2415 10.722 34.9384 11.7776C31.9113 13.2257 28.5972 13.974 25.2416 13.9672C17.4556 13.9672 9.6628 13.9672 1.8768 13.9672H1.4892L1.7068 13.6408C2.3868 12.6888 3.0192 11.7232 3.6788 10.7712C4.3384 9.81919 4.8484 9.0508 5.44 8.2008H0L0.1972 7.888C0.68 7.0788 1.2512 6.29 1.802 5.508L1.8632 5.44H7.3984ZM102.558 11.4376C102.87 12.2468 103.238 13.056 103.537 13.8584L103.591 13.9876H111.262L111.132 13.6952C110.099 11.4444 109.092 9.18 108.086 6.8952L105.067 0.0952L105.019 0H89.76L89.6988 0.0884C89.1752 0.8296 88.6516 1.5776 88.1484 2.3392L87.9376 2.6588H95.7915C92.5185 4.40866 89.2522 6.16533 85.9928 7.9288C82.4976 9.81919 78.982 11.6892 75.48 13.6L74.8 13.9876H82.8512H82.8988C84.3948 13.1444 85.893 12.3035 87.3936 11.4648L102.558 11.4376ZM201.45 2.788H190.753L190.978 2.4684C191.522 1.6728 192.073 0.884 192.623 0.0884L192.685 0H221.245L221 0.3196C220.456 1.1084 219.912 1.8972 219.388 2.6928L219.327 2.788H208.671C207.411 4.624 206.151 6.45773 204.891 8.2892C203.612 10.1524 202.327 12.0156 201.056 13.8788L200.994 13.9672H193.739L193.963 13.6408C195.241 11.7844 196.513 9.9144 197.805 8.0512C199.025 6.3104 200.24 4.556 201.45 2.788ZM220.089 8.228C219.49 9.078 218.912 9.93479 218.327 10.7916L216.369 13.6748L216.158 13.9944H244.365L244.426 13.906C244.847 13.294 245.262 12.682 245.677 12.0632C246.092 11.4444 246.513 10.8324 246.955 10.2272L247.187 9.90759H239.958L239.897 9.98919C239.611 10.3904 239.339 10.8052 239.067 11.2132H225.263C225.939 10.2113 226.619 9.21853 227.303 8.2348H236.205L236.266 8.1464C236.783 7.344 237.333 6.562 237.877 5.78L238.102 5.4536H229.214C229.826 4.57866 230.436 3.6992 231.043 2.8152H244.8C244.569 3.1484 244.337 3.4952 244.12 3.8148L243.916 4.1276H251.124L251.185 4.0392L252.436 2.2032C252.858 1.5776 253.3 0.972399 253.742 0.3604L253.973 0.034H225.76L225.699 0.1224C225.073 1.0268 224.427 1.9176 223.815 2.8424C223.203 3.7672 222.605 4.5424 222.02 5.44H217.675L217.613 5.5284C217.063 6.3172 216.519 7.106 215.988 7.9084L215.784 8.2212H220.089V8.228ZM275.726 8.1464L278.242 10.7372C279.194 11.7096 280.146 12.6888 281.105 13.6476L281.459 13.9944H272.931L272.87 13.9332C271.979 12.9676 271.082 12.0224 270.211 11.05L267.702 8.2348H261.229C260.549 9.1596 259.923 10.0844 259.284 11.0296L257.332 13.906L257.271 13.9944H250.049L250.267 13.6748L252.219 10.7916C252.803 9.92799 253.402 9.078 254.007 8.228H249.662L249.879 7.9084L251.525 5.5352L251.6 5.44H255.918C256.503 4.5628 257.121 3.706 257.706 2.8288C258.291 1.9516 258.957 1.02 259.59 0.1088L259.651 0.0136H277.814C280.248 0.0136 283.934 0.102 286.151 1.1084C287.565 1.7476 288.279 2.8288 287.3 4.2432C286.443 5.474 284.818 6.2832 283.444 6.7728C280.952 7.58242 278.359 8.04017 275.74 8.1328L275.726 8.1464ZM141.154 8.2348H135.626L135.837 7.9152C136.367 7.1332 136.891 6.3444 137.435 5.5692L137.496 5.44H150.28L150.056 5.7664C149.512 6.5348 148.988 7.3236 148.464 8.1056C147.784 9.06439 147.104 10.0096 146.499 10.982C145.894 11.9544 145.18 12.92 144.548 13.872L144.486 13.9672H144.378C136.483 13.9672 128.581 13.9672 120.686 13.9672C118.32 13.9536 114.24 13.6 113.472 10.88C113.057 9.4588 113.75 7.9424 114.566 6.8C116.193 4.76043 118.294 3.14965 120.686 2.108C123.613 0.728421 126.807 0.00878803 130.043 0C137.863 0 145.683 0 153.517 0H153.904L153.68 0.3196C153.265 0.9384 152.83 1.53 152.429 2.1624C152.028 2.7948 151.592 3.3728 151.205 3.9984L151.144 4.0936H143.936L144.146 3.774C144.364 3.4476 144.582 3.094 144.826 2.788H130.968C127.616 2.788 123.168 4.2296 121.101 7.0108C120.83 7.3189 120.629 7.68206 120.512 8.07529C120.394 8.46852 120.363 8.88251 120.421 9.2888C120.843 10.8868 123.508 11.152 124.862 11.186H139.142C139.822 10.1864 140.502 9.1868 141.182 8.2008L141.154 8.2348ZM158.032 11.2132C158.256 10.88 158.474 10.5332 158.712 10.2272L158.95 9.90759H151.708L151.647 9.99599C151.225 10.608 150.79 11.2132 150.389 11.8388C149.988 12.4644 149.559 13.0628 149.165 13.6816L148.961 13.9944H168.64C172.014 14.0551 175.38 13.6222 178.629 12.7092C180.254 12.2196 182.614 11.2744 183.613 9.83959C183.92 9.43453 184.067 8.93148 184.028 8.4252C183.729 5.7052 177.602 5.474 175.576 5.474H165.811C165.179 5.474 162.33 5.3856 162.262 4.5288C162.221 4.0392 163.248 3.5768 163.622 3.434C164.989 2.98105 166.425 2.76936 167.865 2.8084H179.792L179.112 3.7944L178.908 4.114H186.123L186.184 4.0188C186.578 3.3932 187.014 2.8016 187.408 2.1828C187.802 1.564 188.238 0.9588 188.659 0.34L188.87 0.0204H170.068C166.744 -0.0341923 163.429 0.380153 160.222 1.2512C158.624 1.7272 156.244 2.6112 155.237 4.0188C154.942 4.39042 154.792 4.85701 154.816 5.3312C155.088 8.0512 161.826 8.2416 163.839 8.2416H173.026C173.747 8.2416 176.426 8.3708 176.487 9.35C176.528 9.90079 175.59 10.37 175.168 10.54C173.762 11.0312 172.278 11.2617 170.789 11.22L158.032 11.2132ZM57.6572 2.788C57.0452 3.6584 56.44 4.5356 55.8348 5.44H67.32C68.68 5.44 72.08 5.2088 72.8688 4.0188C73.6576 2.8288 69.9176 2.8084 69.4212 2.8084L57.6572 2.788ZM16.4424 2.788C15.436 4.2296 14.4024 5.6576 13.4232 7.106C12.444 8.5544 11.5464 9.826 10.6148 11.186H24.3168C26.492 11.1562 28.6351 10.6576 30.6 9.724C32.0227 9.08319 33.2482 8.07367 34.1496 6.8C34.3726 6.49151 34.5284 6.13964 34.6069 5.76715C34.6854 5.39466 34.6848 5.00985 34.6052 4.6376C34.1292 3.0396 31.6608 2.7948 30.2736 2.7948L16.4424 2.788ZM92.0448 8.7652L95.7032 6.7252L99.8444 4.4132L100.722 6.6232C101.007 7.3032 101.286 8.058 101.572 8.772L92.0448 8.7652ZM263.16 5.44H274.652C276.012 5.44 279.412 5.2156 280.221 4.0256C281.03 2.8356 277.243 2.788 276.76 2.788H264.955C264.35 3.672 263.738 4.5492 263.16 5.44Z" fill="black"/>
</svg>
