<svg width="153" height="28" viewBox="0 0 153 28" fill="none" xmlns="http://www.w3.org/2000/svg">
<path d="M124.903 26.8787C123.954 26.0277 123.283 24.9111 122.977 23.6739C122.62 22.4086 122.443 21.0995 122.451 19.785C122.477 17.8017 122.747 15.8292 123.256 13.9121C124.089 10.3579 125.692 7.02946 127.95 4.16093C130.118 1.47184 132.539 0.00363579 135.154 0.00363579C136.109 -0.0319643 137.054 0.194429 137.889 0.658262C138.724 1.12209 139.416 1.80566 139.89 2.63483L140.043 2.88743L138.175 10.5074L137.296 9.14442C136.212 7.47097 135.149 6.81318 134.06 6.81318C132.933 6.81318 131.812 7.3973 130.634 8.78131C129.366 10.3448 128.476 12.1799 128.034 14.1437C127.756 15.1882 127.606 16.2626 127.587 17.3432C127.575 18.0567 127.678 18.7674 127.892 19.4482C128.035 19.9728 128.328 20.4445 128.734 20.8059C129.096 21.0866 129.545 21.2302 130.002 21.2111C130.618 21.1988 131.221 21.042 131.765 20.7533C132.913 20.0993 134.001 19.3456 135.017 18.501L136.543 17.1538L136.133 19.2272L134.659 25.1053L134.481 25.2526C132.344 27.0313 130.271 27.9891 128.25 27.9943C127.047 28.0273 125.872 27.6319 124.935 26.8787H124.903Z" fill="white"/>
<path d="M31.748 27.6623H27.0435L27.2592 26.7835L33.7741 0.871454L33.9109 0.345215H40.2942C41.4466 0.345215 42.9254 0.829355 43.5516 3.15533C43.9712 5.05616 43.9079 7.03182 43.3674 8.90187C42.8753 10.9899 41.9699 12.9582 40.7046 14.6905C39.4101 16.4008 37.9682 17.2691 36.4158 17.2691H34.374L31.8743 27.1255L31.7375 27.6518L31.748 27.6623ZM35.9106 11.0963H36.521C36.8894 11.0963 37.9998 11.0963 38.626 8.62823C38.9575 7.31263 38.8049 6.8969 38.747 6.80217C38.6365 6.60747 38.2208 6.49696 37.6945 6.49696H37.0946L35.9369 11.0963H35.9106Z" fill="white"/>
<path d="M50.5874 27.6632H50.0401H40.4099H39.5048L39.7258 26.7844L46.2354 0.872322L46.3722 0.34082H46.9195H56.4181H57.3233L57.1022 1.21964L55.9077 5.96632L55.7761 6.49782H55.2288H49.5297L48.5193 10.5236H53.5712H54.4763L54.2553 11.3971L53.0607 16.1491L52.9292 16.6806H52.3766H46.9721L45.7565 21.5009H51.2294H52.1345L51.9135 22.3797L50.719 27.1264L50.5874 27.6632Z" fill="white"/>
<path d="M64.9748 27.6623H60.0018V26.9519C60.0018 26.0941 60.0439 24.4943 60.1176 22.0579C60.2071 19.1793 60.0755 18.0795 59.9492 17.6638C59.8229 17.248 59.6808 17.1375 59.6756 17.1375H59.2809L56.776 27.1361L56.6392 27.6623H51.9293L52.1503 26.7835L58.6652 0.871454L58.7967 0.345215H65.1853C66.2904 0.345215 67.7481 0.808305 68.3954 3.02904C68.8557 4.88901 68.8121 6.83806 68.2691 8.67559C67.5744 11.4173 66.3641 13.5486 64.659 14.9905C64.9537 15.7009 65.1853 16.9954 65.1169 19.6161C65.0485 22.2368 65.0116 24.6417 64.9853 26.9466V27.6465L64.9748 27.6623ZM60.8175 10.9858H61.6332C61.8232 10.974 62.0083 10.9208 62.1756 10.8299C62.3429 10.739 62.4882 10.6126 62.6015 10.4595C63.0416 9.90538 63.3478 9.25704 63.4961 8.56508C63.8381 7.19159 63.6171 6.76534 63.5382 6.66535C63.4592 6.56537 63.4171 6.51274 63.054 6.51274H61.9594L60.8175 10.9858Z" fill="white"/>
<path d="M71.9053 27.9947H71.4633H70.0477H69.3373L69.3425 27.2843L69.6109 1.03546L69.6215 0.34082H70.3161H73.8629H74.5786L74.5681 1.05651L74.3629 12.5812L79.9515 0.746025L80.141 0.34082H80.5883H84.093H85.2192L84.7298 1.3512L72.0948 27.5948L71.9053 27.9947Z" fill="white"/>
<path d="M90.1869 27.6632H89.6396H80.0094H79.1043L79.3253 26.7844L85.8349 0.872322L85.9717 0.34082H86.519H96.0229H96.928L96.7018 1.21964L95.5125 5.96632L95.3756 6.49782H94.8283H89.1292L88.1188 10.5236H93.1707H94.0758L93.8548 11.3971L92.6602 16.1491L92.5287 16.6806H91.9761H86.5716L85.3613 21.5009H90.8342H91.7341L91.513 22.3797L90.3237 27.1264L90.1869 27.6632Z" fill="white"/>
<path d="M102.943 27.6632H102.39H92.4339H91.5341L91.7498 26.7844L98.2647 0.872322L98.4015 0.34082H98.9488H102.201H103.106L102.885 1.21964L97.7858 21.5009H103.585H104.49L104.269 22.3797L103.08 27.1264L102.943 27.6632Z" fill="white"/>
<path d="M110.747 27.9936C108.99 27.9936 106.679 27.22 105.653 23.5469C104.895 20.8157 104.98 17.553 105.916 13.8378C106.751 10.368 108.296 7.10873 110.452 4.26547C112.631 1.43956 114.978 0.00292969 117.43 0.00292969C119.199 0.00292969 121.519 0.787027 122.509 4.52859C123.245 7.29661 123.156 10.5435 122.24 14.1798C121.401 17.6644 119.838 20.9331 117.651 23.7732C115.462 26.5728 113.136 27.9831 110.726 27.9831L110.747 27.9936ZM116.073 6.81247C115.068 6.81247 114.062 7.44922 113.089 8.7122C111.906 10.3479 111.072 12.2088 110.637 14.1798C110.079 16.4111 109.974 18.2213 110.331 19.5475C110.731 21.0157 111.489 21.2051 112.1 21.2051C113.099 21.2051 114.099 20.5631 115.073 19.3001C116.251 17.6606 117.084 15.7986 117.52 13.8272C118.083 11.5802 118.188 9.7752 117.83 8.44908C117.436 6.99139 116.683 6.80195 116.073 6.80195V6.81247Z" fill="white"/>
<path d="M146.263 27.6632H145.71H136.08H135.18L135.401 26.7844L141.911 0.872322L142.048 0.34082H142.595H152.094H152.999L152.778 1.21964L151.583 5.96632L151.452 6.49782H150.899H145.205L144.195 10.5236H149.247H150.147L149.931 11.3971L148.736 16.1491L148.599 16.6806H148.052H142.648L141.432 21.5009H146.905H147.81L147.589 22.3797L146.395 27.1264L146.263 27.6632Z" fill="white"/>
<path fill-rule="evenodd" clip-rule="evenodd" d="M36.5158 5.79182L35.0318 11.8015H36.5474C37.8998 11.8015 38.8313 10.8016 39.3312 8.79665C39.6154 7.6705 39.6311 6.89166 39.3786 6.44962C39.126 6.00758 38.5681 5.79182 37.6946 5.79182H36.5158ZM34.4582 1.05566H40.2942C41.6168 1.05566 42.4763 1.8152 42.8728 3.33428C43.2611 5.12164 43.196 6.97775 42.6833 8.7335C42.2155 10.7282 41.3491 12.6077 40.1363 14.259C38.9839 15.7956 37.742 16.5587 36.4158 16.5587H33.8267L31.1955 26.9677H27.9381L34.4582 1.05566Z" fill="black"/>
<path fill-rule="evenodd" clip-rule="evenodd" d="M51.2295 22.2045L50.0349 26.9565H40.41L46.9196 1.04443H56.4182L55.2289 5.79111H48.9824L47.6142 11.2272H53.5712L52.3767 15.9739H46.4196L44.8567 22.2045H51.2295Z" fill="black"/>
<path fill-rule="evenodd" clip-rule="evenodd" d="M61.4069 5.79182L59.9282 11.691H61.649C61.9394 11.6812 62.224 11.6072 62.4824 11.4743C62.7408 11.3415 62.9665 11.1531 63.1435 10.9227C63.6617 10.2819 64.0222 9.52849 64.196 8.72297C64.6836 6.76887 64.3082 5.79182 63.0698 5.79182H61.4069ZM59.3493 1.05566H65.1853C66.4483 1.05566 67.2938 1.78188 67.7218 3.2343C68.1415 4.96976 68.0942 6.78538 67.585 8.49669C66.8623 11.3489 65.5817 13.4539 63.7434 14.8116C64.2521 15.408 64.4749 17.0025 64.4117 19.5951C64.3486 22.1877 64.3047 24.6435 64.2802 26.9624H60.707C60.707 26.1099 60.7456 24.4838 60.8228 22.0842C60.9 19.6845 60.8333 18.1444 60.6228 17.4638C60.4176 16.785 60.0966 16.4429 59.6703 16.4429H58.7126L56.0814 26.9677H52.8239L59.3493 1.05566Z" fill="black"/>
<path fill-rule="evenodd" clip-rule="evenodd" d="M84.0931 1.04443L71.4633 27.288H70.0478L70.3161 1.04443H73.863L73.5946 15.8476L80.5883 1.04443H84.0931Z" fill="black"/>
<path fill-rule="evenodd" clip-rule="evenodd" d="M90.8342 22.2045L89.6397 26.9565H80.0095L86.5191 1.04443H96.023L94.8284 5.79111H88.5819L87.2137 11.2272H93.1707L91.9762 15.9739H86.0192L84.4562 22.2045H90.8342Z" fill="black"/>
<path fill-rule="evenodd" clip-rule="evenodd" d="M103.585 22.2045L102.39 26.9565H92.4339L98.9488 1.04443H102.201L96.8859 22.2045H103.585Z" fill="black"/>
<path fill-rule="evenodd" clip-rule="evenodd" d="M112.1 21.9112C113.336 21.9112 114.51 21.185 115.631 19.7325C116.87 18.0213 117.745 16.0746 118.204 14.0123C118.797 11.6337 118.899 9.72171 118.509 8.27631C118.12 6.83441 117.309 6.1082 116.073 6.1082C114.836 6.1082 113.652 6.83441 112.531 8.27631C111.288 9.99139 110.41 11.9438 109.952 14.0123C109.363 16.3699 109.263 18.2766 109.653 19.7325C110.042 21.1885 110.858 21.9147 112.1 21.9112ZM117.43 0.708984C119.658 0.708984 121.125 2.04212 121.83 4.7084C122.535 7.37469 122.444 10.476 121.556 14.0123C120.753 17.3981 119.243 20.5759 117.125 23.3373C115.066 25.972 112.942 27.2893 110.752 27.2893C108.563 27.2893 107.091 25.979 106.337 23.3583C105.608 20.7377 105.697 17.6223 106.606 14.0123C107.414 10.6352 108.915 7.46316 111.015 4.69788C113.061 2.04212 115.201 0.712493 117.436 0.708984" fill="black"/>
<path fill-rule="evenodd" clip-rule="evenodd" d="M135.438 19.0537L134.017 24.7108C131.955 26.4334 130.025 27.2929 128.229 27.2894C125.906 27.2894 124.378 26.0194 123.645 23.4794C122.912 20.9394 123.019 17.8083 123.966 14.086C124.773 10.6329 126.329 7.39925 128.524 4.61373C130.628 2.0141 132.847 0.714293 135.18 0.714293C136.017 0.671862 136.849 0.863004 137.583 1.26634C138.317 1.66968 138.925 2.26931 139.338 2.99817L137.891 8.78681C136.747 7.03268 135.47 6.15561 134.06 6.15561C132.67 6.15561 131.349 6.89761 130.092 8.37108C128.755 10.0189 127.817 11.953 127.35 14.0229C126.771 16.3208 126.729 18.2188 127.224 19.7168C127.718 21.2148 128.645 21.9621 130.002 21.9586C130.727 21.947 131.438 21.7669 132.081 21.4323C133.27 20.7555 134.397 19.9754 135.449 19.1011" fill="black"/>
<path fill-rule="evenodd" clip-rule="evenodd" d="M146.905 22.2045L145.71 26.9565H136.08L142.595 1.04443H152.094L150.899 5.79111H144.653L143.29 11.2272H149.247L148.052 15.9739H142.095L140.532 22.2045H146.905Z" fill="black"/>
<path d="M0.168401 25.173L0 24.9151L1.94183 17.1847L2.79434 18.8844C3.18384 19.745 3.70393 20.5402 4.33622 21.242C4.52397 21.4347 4.74926 21.587 4.99817 21.6893C5.24708 21.7915 5.51432 21.8417 5.78338 21.8366C5.98455 21.8467 6.18568 21.816 6.37468 21.7463C6.56368 21.6767 6.73665 21.5696 6.88321 21.4314C7.25918 21.0253 7.51434 20.5223 7.61995 19.979C7.67015 19.7739 7.69663 19.5638 7.69889 19.3528C7.69666 19.1749 7.6719 18.9981 7.62521 18.8265C7.35361 18.264 6.9468 17.7777 6.44118 17.4109C5.71567 16.7968 5.06719 16.0971 4.50988 15.327C3.96043 14.4678 3.63145 13.4863 3.55212 12.4695C3.51106 12.1573 3.49173 11.8425 3.49424 11.5276C3.52461 10.3283 3.70133 9.13717 4.02048 7.98072C4.48988 5.87336 5.47743 3.91634 6.89374 2.28681C7.46273 1.59393 8.17398 1.03142 8.97931 0.637378C9.78464 0.243337 10.6652 0.0269691 11.5615 0.00292969C13.1928 0.00292969 14.7189 0.808076 16.0029 2.23945L16.2766 2.5394L14.5084 9.25948L13.6191 8.23858C12.3351 6.74406 11.251 6.13362 10.5932 6.16519C10.1954 6.15951 9.81011 6.30422 9.51441 6.5704C9.16728 6.88825 8.92656 7.30537 8.82504 7.76496C8.7795 7.93666 8.75651 8.11356 8.75663 8.2912C8.75507 8.46968 8.7817 8.64728 8.83557 8.81744C9.12134 9.36916 9.52569 9.85079 10.0196 10.2278C10.7419 10.8531 11.3899 11.5594 11.9509 12.3327C12.4965 13.1838 12.832 14.1524 12.9297 15.1586C12.9727 15.4866 12.9938 15.8171 12.9929 16.148C12.9691 17.3128 12.803 18.4703 12.4982 19.5948C12.0147 21.8188 10.9919 23.8898 9.51968 25.6255C8.16198 27.1516 6.56221 27.9989 4.82562 27.9936H4.79404C2.92589 27.9936 1.3156 26.9411 0.152614 25.173H0.168401Z" fill="white"/>
<path fill-rule="evenodd" clip-rule="evenodd" d="M15.4398 2.71379L14.1716 7.77622C12.8244 6.23434 11.6404 5.46076 10.6089 5.46076C10.0398 5.45463 9.48927 5.6632 9.06707 6.04489C8.61009 6.45338 8.29185 6.99419 8.15667 7.59203C8.02477 8.05289 8.02477 8.5415 8.15667 9.00236C8.47326 9.68165 8.95001 10.274 9.54595 10.7284C10.2243 11.3142 10.8367 11.9724 11.372 12.6913C11.8561 13.4659 12.1501 14.3441 12.2298 15.2541C12.3434 16.6591 12.2007 18.0731 11.8088 19.4272C11.3519 21.5395 10.3834 23.5074 8.98813 25.1579C7.71463 26.5612 6.32536 27.2629 4.82031 27.2629C3.19949 27.2629 1.83829 26.4279 0.736694 24.758L2.14175 19.1746C2.57082 20.1077 3.14446 20.9673 3.8415 21.7216C4.0946 21.9788 4.39707 22.1823 4.73075 22.3198C5.06444 22.4572 5.42247 22.5258 5.78333 22.5215C7.06385 22.5215 7.90232 21.7233 8.29875 20.1271C8.43566 19.624 8.43566 19.0935 8.29875 18.5904C7.99598 17.888 7.51087 17.2794 6.89369 16.8275C6.20893 16.2605 5.59417 15.614 5.06238 14.9015C4.58196 14.1344 4.29484 13.2622 4.22566 12.3598C4.11699 10.9416 4.26495 9.51549 4.66244 8.14985C5.10931 6.16188 6.0423 4.31579 7.37783 2.77694C8.62678 1.40872 10.009 0.724609 11.5246 0.724609C12.9279 0.724609 14.233 1.39293 15.4398 2.72958" fill="black"/>
<path d="M18.3816 27.9931C17.3158 28.0492 16.2631 27.7366 15.4006 27.1079C14.5381 26.4792 13.9183 25.5728 13.6454 24.541C12.9508 22.436 13.0876 19.4944 14.0612 15.5949L17.7448 0.860224L17.8817 0.333984H22.6178L22.4021 1.19702L18.6552 16.0949C18.2342 17.7683 18.1658 19.0997 18.45 20.0627C18.7342 21.0257 19.2446 21.1941 19.6972 21.1941C20.476 21.1941 21.2233 20.7363 21.9705 19.7943C22.9266 18.4509 23.5949 16.9245 23.9334 15.3108L27.5645 0.860224L27.7013 0.333984H32.4006L32.1901 1.19702L28.5064 15.9317C27.5329 19.7996 26.191 22.7728 24.5123 24.8146C22.7599 26.9196 20.7023 27.9984 18.3974 27.9984L18.3816 27.9931Z" fill="white"/>
<path fill-rule="evenodd" clip-rule="evenodd" d="M28.2486 1.04443H31.506L27.8223 15.7528C26.861 19.5382 25.57 22.4045 23.9492 24.3516C22.3284 26.2987 20.4725 27.2757 18.3816 27.2827C17.4625 27.3436 16.5512 27.0798 15.8068 26.5373C15.0624 25.9949 14.5321 25.2083 14.3085 24.3147C13.6594 22.3361 13.8015 19.4926 14.7347 15.7844L18.4184 1.0497H21.6863L17.9606 15.9318C17.508 17.7385 17.4413 19.1857 17.7606 20.2732C18.0869 21.3625 18.7289 21.9046 19.6972 21.9046C20.6654 21.9046 21.639 21.3468 22.5231 20.2364C23.5446 18.8202 24.2613 17.2075 24.628 15.5002L28.2486 1.04443Z" fill="black"/>
</svg>
