<svg width="385" height="14" viewBox="0 0 385 14" fill="none" xmlns="http://www.w3.org/2000/svg">
<path fill-rule="evenodd" clip-rule="evenodd" d="M318.691 12.6043C317.412 13.6123 315.783 13.8062 314.077 13.8062H234.328L233.049 13.7286C231.615 13.6123 230.18 13.1858 229.482 11.8289C228.784 10.472 229.017 9.58027 229.599 8.53349L229.676 8.45596C229.676 8.41719 229.676 8.37842 229.715 8.37842L223.473 11.3637L218.704 13.6123L218.394 13.7674L218.084 13.8449H211.105C209.322 13.8062 207.655 12.9532 206.608 11.5188C206.221 10.976 205.833 10.472 205.406 9.96797L204.243 8.41719C203.662 7.60303 203.041 6.82764 202.46 6.05225L200.793 3.72607L198.932 1.12851C198.777 0.895897 198.738 0.62451 198.893 0.391893C199.009 0.159275 199.242 0.00419727 199.513 0.00419727H208.818C210.873 0.0429668 212.811 1.01221 214.052 2.6793L215.835 5.12178L216.146 5.54824C216.378 5.81963 216.727 5.89717 217.037 5.78086L221.418 3.72607L228.164 0.62451C229.095 0.198045 230.103 0.00419727 231.149 0.00419727H244.253C244.641 -0.0345723 244.99 0.198045 245.068 0.58574C245.106 0.934666 244.913 1.24482 244.564 1.36113H244.525C244.215 1.47744 244.06 1.82637 244.137 2.13652C244.176 2.48545 244.486 2.71806 244.835 2.71806H260.149C261.739 2.71806 263.793 2.98945 265.111 3.95869C265.422 4.19131 265.809 4.15254 266.081 3.88115C266.856 3.10576 267.942 2.6793 269.027 2.71806H278.216C278.487 2.71806 278.72 2.87314 278.875 3.10576C278.991 3.37715 278.952 3.6873 278.758 3.88115L276.742 6.40117C276.587 6.59502 276.548 6.90517 276.665 7.13779C276.781 7.37041 277.014 7.56426 277.285 7.52549H288.8C289.032 7.52549 289.226 7.44795 289.381 7.2541L290.079 6.3624L291.32 4.85039C292.715 3.02822 294.77 2.71806 296.902 2.71806H317.722L319.04 2.7956C320.125 2.83437 321.133 3.22207 321.986 3.88115C322.258 4.11377 322.645 4.15254 322.917 3.91992C324.196 2.91191 325.863 2.71806 327.569 2.71806H347.109L348.427 2.7956C349.358 2.83437 350.249 3.14453 351.025 3.64853C351.257 3.80361 351.606 3.80361 351.839 3.64853C353.08 2.87314 354.553 2.75683 356.065 2.75683H378.202C380.567 2.75683 384.056 3.37715 384.56 6.20732C385.064 9.0375 383.514 10.1618 381.459 11.6351C379.404 13.1083 376.031 13.8449 373.434 13.8449H352.382L351.102 13.7674C350.133 13.7286 349.241 13.4185 348.427 12.9145C348.195 12.7594 347.884 12.7594 347.652 12.9145C346.45 13.6511 344.938 13.8062 343.426 13.8062H322.529C321.482 13.6898 320.397 13.4185 319.621 12.6818C319.35 12.4492 318.962 12.4492 318.691 12.6043ZM127.557 13.7286C127.014 13.8062 126.433 13.8062 125.89 13.8062H102.163C101.078 13.6898 99.9532 13.3797 99.1778 12.6431C99.0228 12.488 98.8289 12.4104 98.6351 12.4104C98.4412 12.4104 98.2474 12.5268 98.1311 12.6818L97.9372 12.9532L97.4332 13.5735C97.3169 13.7674 97.1231 13.8837 96.8904 13.8837H79.2503L78.9789 13.8062L73.9001 12.1391L68.8601 10.5107H68.7825C68.7438 10.5107 68.7438 10.5107 68.7438 10.472H68.6662L68.2785 10.2781L67.9296 10.7434L66.1462 13.0308L65.6422 13.6511C65.5259 13.8449 65.332 13.9225 65.0994 13.9225H28.6948C27.2991 13.8062 25.9034 13.3409 25.1668 12.0615C24.9342 11.6738 24.8179 11.2474 24.7791 10.8209C24.7791 10.5107 24.5465 10.2781 24.2751 10.2006C24.0037 10.123 23.6936 10.2006 23.5385 10.472C22.8406 11.3249 22.1428 12.1778 21.4837 13.0695L20.9797 13.6898C20.8634 13.8837 20.6308 14 20.3981 14H6.20849C5.93711 14 5.66572 13.8449 5.54941 13.5735C5.4331 13.3409 5.47187 13.0695 5.62695 12.8369L7.75927 10.0067L9.85283 7.33164C10.0467 7.13779 10.0854 6.82764 9.93037 6.59502C9.81406 6.32363 9.58144 6.16855 9.31006 6.16855H0.703219C0.431832 6.16855 0.199215 6.05225 0.0829063 5.81963C-0.0334023 5.58701 -0.0334023 5.31562 0.121676 5.08301L1.78877 2.52422C2.02138 2.13652 2.29277 1.74883 2.60293 1.36113C3.33955 0.469432 4.46386 -0.0345723 5.62695 0.00419727H43.0783C43.3497 0.00419727 43.6211 0.159275 43.7374 0.430662C43.8537 0.663279 43.8149 0.973436 43.6211 1.16728C42.1866 2.83437 41.2949 4.34639 39.6278 6.40117C39.434 6.63379 39.3952 6.94394 39.5503 7.17656C39.6666 7.40918 39.8992 7.56426 40.1706 7.56426H46.6451C46.8777 7.56426 47.0716 7.44795 47.1879 7.29287L48.0408 6.24609L49.5916 4.26885C50.4445 3.26084 51.6852 2.6793 53.0033 2.71806H86.1125C86.7328 2.71806 87.3531 2.71806 87.9734 2.7956C89.0978 2.95068 90.2221 3.33838 90.9199 4.19131C91.075 4.38516 91.2689 4.46269 91.5015 4.46269C91.6953 4.46269 91.8892 4.38515 92.0442 4.23008C92.8584 3.22207 94.099 2.6793 95.3784 2.75683H105.924L107.242 2.6793H129.728L130.969 2.75683C132.132 2.83437 133.295 3.14453 134.07 3.95869C134.187 4.075 134.381 4.15254 134.574 4.15254C134.768 4.15254 134.962 4.075 135.117 3.95869C135.931 3.14453 137.017 2.71806 138.18 2.71806H145.973C146.205 2.71806 146.399 2.7956 146.515 2.98945L147.019 3.60976C147.679 4.42392 148.338 5.19932 148.958 6.01348L149.423 6.59502C149.617 6.86641 149.966 6.94394 150.276 6.78887L153.455 5.39316L158.728 3.10576C159.387 2.87314 160.085 2.71806 160.783 2.75683H173.383L174.701 2.6793H195.598L196.916 2.75683C198.312 2.87314 199.746 3.33838 200.444 4.65654C201.142 5.97471 200.715 7.52549 199.785 8.68857L198.622 10.123L197.459 11.6351C196.063 13.4572 194.008 13.7674 191.876 13.7674H169.583C168.498 13.7286 167.451 13.3021 166.637 12.6043C166.482 12.488 166.288 12.4104 166.094 12.4104C165.9 12.4104 165.706 12.5268 165.59 12.7206C165.513 12.7594 165.474 12.8369 165.435 12.8757L164.931 13.5348C164.815 13.7286 164.621 13.8449 164.388 13.8449H154.618C154.347 13.8449 154.114 13.6898 153.998 13.4185C153.882 13.1858 153.882 12.9145 154.037 12.6818L154.386 12.2554L151.168 13.6511L150.858 13.7674L150.586 13.8449H145.236C145.042 13.8449 144.81 13.7286 144.693 13.5735L144.189 13.0308L142.251 10.7821C142.018 10.472 141.553 10.4332 141.282 10.6658C141.243 10.7046 141.204 10.7434 141.165 10.7821L139.537 12.9145L139.033 13.5348C138.917 13.7286 138.684 13.8449 138.451 13.8449H127.441L127.557 13.7286Z" fill="white"/>
<path fill-rule="evenodd" clip-rule="evenodd" d="M178.035 7.79689L177.26 8.76612H188.542C188.774 8.4172 189.046 8.10704 189.317 7.79689H178.035ZM299.5 8.76612H310.782L311.48 7.79689H300.237C300.004 8.10704 299.733 8.4172 299.5 8.76612ZM102.551 5.58702C103.714 4.07501 105.458 3.91993 107.242 3.91993H130.891C131.861 3.99747 133.024 4.26886 133.528 5.19933C133.915 5.97472 133.799 6.86642 133.295 7.5255L132.946 8.06827H131.667C131.861 8.84366 131.512 9.61905 131.046 10.2394L130.542 10.8984C129.379 12.4105 127.635 12.6043 125.89 12.6043H103.481L102.279 12.5268C101.31 12.4492 100.186 12.1778 99.6818 11.2861C99.1778 10.3944 99.488 9.65782 99.9145 8.9212L100.263 8.37843H101.388C101.233 7.68058 101.426 6.98273 101.853 6.43995V6.36241H101.892L102.551 5.58702ZM170.049 5.58702C171.173 4.07501 172.956 3.91993 174.701 3.91993H196.8C197.808 4.03624 198.932 4.26886 199.436 5.19933C199.94 6.1298 199.475 7.17657 198.854 7.95196L197.691 9.42521L196.528 10.8984C195.404 12.4105 193.62 12.6043 191.876 12.6043H170.901L169.7 12.5268C168.73 12.4492 167.606 12.1778 167.102 11.2474C166.598 10.3169 166.986 9.3089 167.606 8.57228L168.769 7.06026C169.157 6.59503 169.622 6.1298 170.049 5.58702ZM158.03 9.38644L156.44 10.0843L150.703 12.5655L150.47 12.6431H145.43L145.081 12.2554C144.383 11.48 143.724 10.6658 143.026 9.85167L141.669 8.22335L140.429 9.77413L138.568 12.1778L138.219 12.6431H129.845L131.318 10.7434C132.016 9.77413 132.791 8.84366 133.489 7.91319C134.187 6.98273 135.001 6.01349 135.776 5.04425C136.358 4.30763 137.25 3.88116 138.18 3.91993H145.74L146.089 4.38517C146.748 5.19933 147.407 5.97472 148.027 6.78888L149.423 8.49474L153.92 6.47872L159.193 4.19132C159.697 3.99747 160.24 3.91993 160.783 3.91993H170.979L169.467 5.85841C168.653 6.90519 167.761 7.91319 166.986 8.99874C166.21 10.0843 165.319 11.0923 164.505 12.1778L164.156 12.6431H155.549L156.983 10.7434L158.03 9.38644ZM349.745 7.79689H330.903C330.632 8.10704 330.361 8.4172 330.128 8.76612H348.97L349.435 8.14581L349.745 7.79689ZM264.297 8.06827H257.513L257.202 7.79689C256.931 7.60304 256.117 7.56427 255.807 7.56427H255.342C255.419 7.91319 255.38 8.26212 255.186 8.53351C255.186 8.61105 255.148 8.64982 255.109 8.68858L255.38 8.61105L255.574 8.53351H263.91L264.297 8.06827ZM233.863 5.12179L230.18 6.86642L222.969 10.3169L218.2 12.5268L217.968 12.6431H211.105C209.71 12.6043 208.392 11.9065 207.539 10.7821L206.376 9.23136L205.213 7.68058C204.592 6.90519 203.972 6.16856 203.429 5.3544L201.762 3.067L200.405 1.20606H208.818C210.524 1.20606 212.113 2.02022 213.083 3.41593L214.905 5.81964C215.293 6.40118 215.719 6.94396 216.146 7.48673L221.922 4.81163L228.629 1.71007C229.405 1.36114 230.296 1.16729 231.149 1.20606H242.16L237.391 3.4547L236.073 4.07501C236.732 3.9587 237.391 3.91993 238.05 3.91993H260.149C261.855 3.91993 264.956 4.30763 265.344 6.40118C265.344 6.51749 265.383 6.59503 265.383 6.71134L266.701 5.00548C267.244 4.30763 268.135 3.88116 269.027 3.91993H277.246L275.696 5.85841C275.036 6.6338 274.416 7.44796 273.796 8.26212C273.641 8.4172 273.524 8.57228 273.408 8.76612H289.614V8.95997L289.846 8.61105L291.009 7.09903C291.397 6.59503 291.824 6.09103 292.25 5.62579C293.374 4.07501 295.158 3.91993 296.902 3.91993H318.924C319.932 3.99747 321.095 4.26886 321.599 5.2381C321.948 5.93595 321.87 6.75011 321.444 7.37042L321.676 7.06026C322.064 6.55626 322.49 6.09103 322.917 5.58702C324.041 4.03624 325.825 3.88116 327.569 3.88116H348.311C349.319 3.99747 350.443 4.23009 350.947 5.16056C351.064 5.39317 351.141 5.62579 351.18 5.89718C351.335 5.62579 351.529 5.39317 351.723 5.16056H351.839C353.002 4.03624 354.553 3.91993 356.065 3.91993H378.202C379.908 3.91993 383.01 4.30763 383.397 6.40118C383.436 6.6338 383.436 6.82765 383.397 7.06026L383.242 8.06827H375.605L375.294 7.83566C375.023 7.60304 374.209 7.56427 373.86 7.56427H373.395C373.472 7.95196 373.395 8.33966 373.162 8.64982H373.123C373.24 8.61105 373.356 8.57228 373.472 8.53351H383.785L380.8 10.6658C378.9 12.0228 375.76 12.6431 373.434 12.6431H351.18C350.211 12.5655 349.048 12.2942 348.544 11.3637C348.427 11.1311 348.35 10.8984 348.311 10.6658L348.233 10.7821H348.156L348.078 10.8597C346.954 12.4105 345.171 12.6043 343.426 12.6043H323.886L322.645 12.5268C321.676 12.4492 320.552 12.1778 320.048 11.2474C319.544 10.3169 319.854 9.58028 320.281 8.88243L319.893 9.38644L318.73 10.8984C317.567 12.4105 315.822 12.6043 314.077 12.6043H260.692L261.777 11.2086C259.878 12.1778 257.319 12.6043 255.342 12.6043H233.127C232.157 12.5268 231.033 12.2554 230.49 11.3249C229.947 10.3944 230.258 9.85167 230.645 9.15382V9.07628H230.684L231.382 8.18458C231.653 7.83566 232.002 7.5255 232.351 7.29288C232.506 6.86642 232.739 6.43995 233.049 6.09103L233.708 5.27687H233.786C233.824 5.12179 233.824 5.12179 233.863 5.12179ZM36.7976 8.0295L36.2549 8.76612H47.5368L48.9713 6.98273L50.5221 5.00548C51.1424 4.26886 52.0341 3.88116 53.0033 3.91993H61.1061L59.5941 5.85841C58.8963 6.67257 58.1984 7.5255 57.5393 8.37843C56.8803 9.23136 56.1824 10.0455 55.5621 10.9372C54.399 12.4492 52.6156 12.6431 50.871 12.6431H29.9742L28.8111 12.5655C27.8419 12.488 26.7176 12.2554 26.2136 11.3249C25.7096 10.3944 26.136 9.34767 26.7176 8.57228L28.0745 6.82765L29.509 5.00548H28.0745C26.989 5.00548 26.0197 5.27687 25.3219 6.1298L22.9182 9.15382L20.5144 12.1778L20.1655 12.6431H7.17772L8.68973 10.7434L11.7138 6.90519L13.2258 5.00548H1.59491L2.758 3.18331C2.99061 2.79561 3.262 2.44669 3.53339 2.13653C4.03739 1.51622 4.81278 1.16729 5.62694 1.20606H42.0315L36.7976 8.0295ZM88.4774 10.6658C89.2141 9.73536 89.9119 8.80489 90.6485 7.91319C91.3852 7.02149 92.1605 5.97472 92.9359 5.00548C93.5563 4.30763 94.448 3.88116 95.3784 3.91993H103.52L102.008 5.85841C101.155 6.90519 100.302 7.91319 99.488 8.99874C98.6738 10.0843 97.8209 11.0923 97.0067 12.1778L96.6578 12.6431H79.3666L74.249 10.976L69.209 9.34767H69.1314C68.705 9.15382 68.3948 8.76612 68.3173 8.30089C67.852 8.84366 67.4256 9.42521 66.9991 9.96798L65.2157 12.2554L64.8668 12.7206H54.5541L55.9886 10.8209C56.7252 9.85167 57.5394 8.9212 58.276 7.95196C59.0126 6.98273 59.788 6.01349 60.5634 5.04425C61.1061 4.3464 61.9591 3.9587 62.8508 3.99747H86.1125C86.694 3.99747 87.2368 3.99747 87.8184 4.07501C88.7488 4.19132 89.7568 4.50147 90.2221 5.39317C90.6873 6.28487 90.2996 7.25411 89.7181 7.99073H89.6793L89.0202 8.80489C88.4774 9.50275 87.702 9.92921 86.8491 10.0843L87.702 10.3944L88.4774 10.6658Z" fill="black"/>
<path fill-rule="evenodd" clip-rule="evenodd" d="M89.3691 11.48H96.0375C96.8516 10.3944 97.7433 9.34765 98.5575 8.30088C99.3717 7.2541 100.225 6.16855 101.078 5.12177H95.3784C94.7969 5.083 94.2153 5.31562 93.8664 5.78086L91.579 8.61103L89.3691 11.48ZM58.6637 5.083H53.0033C52.4218 5.04423 51.8402 5.27685 51.4525 5.74209L49.9017 7.71933L48.351 9.65781C48.1183 9.89043 47.7694 9.96797 47.4593 9.9292H34.4715C34.1613 9.9292 33.9287 9.81289 34.1225 9.5415L35.8672 7.33164L37.6506 5.083H31.9514C31.3699 5.04423 30.8271 5.31562 30.4394 5.74209L29.005 7.52548L27.648 9.30888C26.0585 11.3637 28.6173 11.4412 29.9742 11.4412H50.871C51.9565 11.4412 53.6624 11.48 54.5929 10.2006L56.6089 7.64179L58.6637 5.083ZM109.878 7.52548C109.064 7.52548 109.646 6.98271 109.762 6.90517C109.995 6.67255 110.343 6.55625 110.654 6.59502H125.231C125.502 6.59502 125.735 6.71132 125.657 6.94394H132.287C133.411 5.19931 131.046 5.083 129.728 5.083H107.242C106.118 5.083 104.412 5.083 103.481 6.32363L102.822 7.13779C101.62 8.92119 104.063 9.0375 105.381 9.0375H123.215C123.874 9.0375 123.448 9.50273 123.37 9.65781H123.409C123.137 9.89043 122.827 9.96797 122.478 9.9292H107.979C107.707 9.9292 107.475 9.81289 107.63 9.61904H100.922C99.7981 11.3637 102.202 11.4412 103.481 11.4412H125.89C126.937 11.4412 128.643 11.48 129.612 10.2006C129.767 9.96797 129.922 9.77412 130.116 9.58027C131.512 7.68056 129.224 7.52548 127.635 7.52548H109.878ZM177.221 6.90517C177.454 6.67255 177.802 6.55625 178.113 6.59502H191.139C191.411 6.59502 191.643 6.75009 191.449 6.98271L190.403 8.33964C190.015 8.76611 189.666 9.19257 189.317 9.65781C189.084 9.89043 188.735 9.96797 188.425 9.9292H175.438C175.166 9.9292 174.895 9.81289 175.127 9.5415L176.174 8.22334L177.221 6.90517ZM168.537 9.30888C166.947 11.3249 169.545 11.4412 170.901 11.4412H191.876C192.923 11.4412 194.667 11.48 195.598 10.2006L196.761 8.72734C197.11 8.22334 197.536 7.7581 197.963 7.2541C199.552 5.19931 196.955 5.083 195.598 5.083H174.701C173.654 5.083 171.909 5.083 170.979 6.32363C170.553 6.82763 170.087 7.33164 169.7 7.83564L168.537 9.30888ZM39.434 2.36914H5.62693C5.16169 2.33037 4.73523 2.52421 4.46384 2.87314C4.19246 3.1833 3.95984 3.49345 3.76599 3.80361H15.707L12.6442 7.64179L9.62019 11.48H19.584L21.9877 8.41718C22.7631 7.40918 23.616 6.40117 24.4302 5.39316C25.2443 4.38515 26.4849 3.80361 28.0745 3.80361H38.2709L39.434 2.36914ZM211.105 11.48H217.696C219.247 10.7046 220.837 9.96797 222.465 9.23134L229.637 5.81963L236.887 2.36914H231.149C230.451 2.33037 229.754 2.48544 229.133 2.7956L222.426 5.85839L215.797 8.95996C215.176 8.1458 214.517 7.33164 213.936 6.51748L212.152 4.11377C211.377 3.02822 210.136 2.40791 208.818 2.36914H202.731L204.398 4.65654C204.941 5.43193 205.561 6.20732 206.143 6.98271L207.306 8.53349L208.469 10.0843C209.089 10.9372 210.059 11.4412 211.105 11.48ZM299.461 6.90517C299.694 6.67255 300.004 6.55625 300.353 6.59502H313.263C313.573 6.59502 313.845 6.75009 313.612 6.98271L312.565 8.33964L311.557 9.65781C311.286 9.89043 310.976 9.96797 310.627 9.9292H297.678C297.406 9.9292 297.135 9.81289 297.368 9.5415L298.414 8.22334L299.461 6.90517ZM290.816 9.30888C289.226 11.3249 291.824 11.4412 293.219 11.4412H314.077C315.124 11.4412 316.83 11.48 317.799 10.2006C318.148 9.69658 318.575 9.23134 318.924 8.72734L320.125 7.2541C321.715 5.19931 319.117 5.083 317.722 5.083H296.902C295.856 5.083 294.111 5.083 293.181 6.32363L291.94 7.83564C291.591 8.30088 291.165 8.80488 290.816 9.30888ZM168.537 5.12177C167.684 6.16855 166.831 7.21533 166.017 8.30088C165.202 9.38642 164.349 10.3944 163.535 11.48H157.914C158.534 10.627 159.193 9.81289 159.813 8.99873L161.752 6.51748L155.975 8.99873L150.237 11.48H145.973L143.957 9.11504C143.259 8.30088 142.638 7.52548 141.941 6.75009C141.902 6.67255 141.786 6.59502 141.669 6.59502C141.592 6.55625 141.475 6.59502 141.437 6.67255C140.778 7.44795 140.118 8.26211 139.498 9.07627L137.637 11.48H132.248C132.946 10.5107 133.721 9.58027 134.458 8.61103C135.195 7.64179 135.931 6.71132 136.707 5.78086C137.056 5.35439 137.598 5.083 138.18 5.083H145.158C145.818 5.89716 146.477 6.67255 147.097 7.48671L149.113 9.89043L154.386 7.56425L159.658 5.27685C160.007 5.16054 160.395 5.12177 160.783 5.12177H168.537ZM56.9578 11.4412H64.2852L66.0686 9.15381L67.852 6.8664C68.0847 6.59502 68.201 6.47871 68.86 6.47871H80.8011C81.2275 6.47871 81.3826 6.63379 81.2663 6.8664L80.8011 7.44795C80.4134 7.95195 79.8318 7.95195 79.134 7.95195H69.5579L69.4804 8.02949C69.4804 8.10703 69.5579 8.1458 69.5967 8.18457L74.6367 9.81289L79.7155 11.48H87.2756L81.3438 9.23134C81.2663 9.19257 81.2275 9.15381 81.2275 9.07627C81.2275 8.99873 81.2663 8.99873 81.3051 8.99873H83.9414C85.9962 8.95996 87.2756 9.07627 88.0897 8.06826C88.2836 7.7581 88.555 7.48672 88.7876 7.17656C90.5322 5.00546 86.8879 5.12177 86.1125 5.12177H62.8508C62.3468 5.083 61.8428 5.31562 61.4938 5.70332C60.7184 6.67255 59.9431 7.60302 59.2064 8.57226L56.9578 11.4412ZM263.095 11.4412H289.304C288.567 11.0923 288.528 10.3944 288.489 9.9292H271.004L272.865 7.52548C273.447 6.71132 274.106 5.93593 274.765 5.12177H269.027C268.523 5.083 267.98 5.27685 267.67 5.70332C266.895 6.67255 266.158 7.64179 265.383 8.57226C264.607 9.50273 263.871 10.5107 263.095 11.4412ZM352.382 11.48H373.434C375.992 11.48 378.667 10.7046 380.102 9.69658H373.86C372.968 10.0067 371.999 10.2006 371.03 10.2006H356.646C356.336 10.2006 356.104 10.0455 356.297 9.81289L356.995 8.92119H370.565C371.185 8.92119 371.573 8.80488 371.844 8.45595L372.232 7.91318V7.79687H357.926L358.779 6.71132C359.05 6.47871 359.36 6.40117 359.709 6.43994H373.86C374.829 6.43994 375.605 6.59502 375.992 6.90517H382.234C382.389 5.89716 380.761 5.16054 378.202 5.16054H356.065C355.096 5.16054 353.583 5.12177 352.653 6.05224C352.42 6.28486 352.227 6.55625 352.033 6.82763C351.645 7.33164 351.49 7.7581 351.568 8.02949C351.102 8.22334 350.676 8.53349 350.366 8.92119L349.707 9.73535C348.815 11.3637 351.102 11.48 352.382 11.48ZM234.328 11.48H255.342C257.9 11.48 260.653 10.7046 262.01 9.69658H255.768C254.876 10.0455 253.907 10.2006 252.938 10.2006H238.632C238.322 10.2006 238.089 10.0455 238.283 9.81289L238.981 8.92119H252.511C252.977 8.95996 253.481 8.80488 253.791 8.45595L254.178 7.91318C254.217 7.91318 254.178 7.87441 254.14 7.79687H239.911L240.725 6.71132C240.958 6.51748 241.307 6.40117 241.617 6.43994H255.807C256.776 6.43994 257.59 6.59502 257.939 6.90517H264.181C264.336 5.89716 262.708 5.16054 260.149 5.16054H238.05C237.081 5.16054 235.608 5.12177 234.639 6.05224C234.406 6.28486 234.212 6.55625 234.018 6.82763C233.592 7.33164 233.437 7.7581 233.475 8.02949C233.01 8.22334 232.623 8.53349 232.351 8.92119L231.653 9.77412C230.762 11.3637 233.049 11.48 234.328 11.48ZM321.482 9.30888C319.893 11.3249 322.49 11.4412 323.886 11.4412H343.426C344.511 11.4412 346.217 11.48 347.148 10.2006L347.342 9.9292H328.345C328.073 9.9292 327.802 9.81289 327.996 9.5415L329.004 8.22334C329.353 7.79687 329.702 7.33164 330.089 6.90517C330.322 6.67255 330.671 6.55625 330.981 6.59502H349.9C350.482 5.19931 348.311 5.083 347.109 5.083H327.569C326.484 5.083 324.739 5.083 323.847 6.32363L322.607 7.83564C322.258 8.30088 321.831 8.80488 321.482 9.30888Z" fill="white"/>
</svg>
