<svg width="251" height="25" viewBox="0 0 251 25" fill="none" xmlns="http://www.w3.org/2000/svg">
<path d="M42.6217 4.73142C43.1304 3.96848 43.6567 3.21736 44.1654 2.45442C44.674 1.69148 45.2713 0.881226 45.8154 0.0887141L45.8687 0H61.6657C63.7889 0 66.9885 0.0709713 68.9402 0.952198C70.1763 1.54362 70.75 2.45442 69.8983 3.67868C69.1472 4.75507 67.7692 5.45296 66.5568 5.87879C64.3872 6.58349 62.1298 6.98163 59.85 7.06164L62.0324 9.31498L64.4809 11.8285L64.7707 12.1243H57.366L57.3128 12.071C56.5498 11.2371 55.7869 10.4269 55.0417 9.58112L52.8712 7.13261H47.2171C46.6257 7.94287 46.0697 8.74721 45.5079 9.56338L43.7987 12.0651L43.7454 12.1479H37.4881L37.6833 11.8699L39.3984 9.36821C39.9071 8.61709 40.4157 7.8719 40.9421 7.13261H37.1924L37.3699 6.86056C37.8312 6.16267 38.3161 5.47662 38.7893 4.78465L38.8425 4.73142H42.6217ZM6.79899 4.73142C7.30761 3.96848 7.83398 3.21736 8.34261 2.45442C8.85124 1.69148 9.44266 0.881226 9.99269 0.0887141L10.0459 0H10.1405C16.871 0 23.6014 0 30.3319 0C32.39 0 35.7493 0.36077 36.4827 2.69691C36.6135 3.28328 36.6168 3.89091 36.4923 4.47866C36.3678 5.0664 36.1185 5.62053 35.7612 6.10353C34.4822 7.89789 32.7549 9.32539 30.7518 10.2435C28.119 11.503 25.2366 12.1538 22.318 12.1479C15.5462 12.1479 8.76844 12.1479 1.9966 12.1479H1.65948L1.84874 11.864C2.44017 11.036 2.99019 10.1962 3.56388 9.36821C4.13756 8.54021 4.58113 7.8719 5.09567 7.13261H0.364258L0.535772 6.86056C0.955685 6.15676 1.45248 5.4707 1.93154 4.79056L1.98477 4.73142H6.79899ZM89.5633 9.9478C89.8354 10.6516 90.1547 11.3554 90.415 12.0533L90.4623 12.1657H97.1336L97.0212 11.9113C96.1222 9.95372 95.2469 7.98427 94.3716 5.99707L91.7457 0.0827998L91.7043 0H78.4326L78.3794 0.0768855C77.924 0.721541 77.4686 1.37211 77.031 2.03451L76.8476 2.31248H83.6786C80.8319 3.83442 77.991 5.36227 75.1561 6.89604C72.1162 8.54021 69.0585 10.1666 66.0127 11.8285L65.4212 12.1657H72.4237H72.4651C73.7663 11.4323 75.0694 10.7009 76.3745 9.97146L89.5633 9.9478ZM175.575 2.42485H166.271L166.467 2.14688C166.94 1.45491 167.419 0.768855 167.898 0.0768855L167.951 0H192.791L192.578 0.277971C192.105 0.964026 191.632 1.65008 191.176 2.34205L191.123 2.42485H181.856C180.759 4.0217 179.663 5.61659 178.567 7.2095C177.455 8.83001 176.337 10.4505 175.232 12.071L175.178 12.1479H168.868L169.063 11.864C170.175 10.2494 171.281 8.62301 172.405 7.0025C173.465 5.48844 174.522 3.96256 175.575 2.42485ZM191.786 7.15627C191.265 7.89555 190.762 8.64075 190.254 9.38595L188.55 11.8936L188.367 12.1716H212.9L212.953 12.0947C213.319 11.5624 213.68 11.0301 214.041 10.4919C214.402 9.95372 214.768 9.42143 215.153 8.89506L215.354 8.61709H209.067L209.014 8.68806C208.765 9.03701 208.529 9.39778 208.292 9.75263H196.286C196.874 8.88126 197.465 8.01778 198.061 7.16218H205.802L205.856 7.0853C206.305 6.38741 206.784 5.70727 207.257 5.02713L207.452 4.74325H199.723C200.255 3.98228 200.785 3.21736 201.313 2.44851H213.278C213.077 2.73831 212.876 3.03994 212.687 3.31791L212.509 3.58996H218.778L218.832 3.51308L219.92 1.91622C220.286 1.37211 220.671 0.845741 221.055 0.313456L221.256 0.0295714H196.718L196.665 0.106457C196.121 0.893055 195.559 1.66782 195.027 2.47217C194.494 3.27651 193.974 3.95073 193.465 4.73142H189.686L189.633 4.8083C189.154 5.49436 188.681 6.18041 188.219 6.8783L188.042 7.15035H191.786V7.15627ZM240.176 7.0853L242.364 9.33863C243.192 10.1844 244.02 11.036 244.854 11.8699L245.162 12.1716H237.745L237.692 12.1183C236.917 11.2785 236.137 10.4564 235.38 9.61069L233.197 7.16218H227.567C226.975 7.96652 226.431 8.77086 225.875 9.59295L224.178 12.0947L224.125 12.1716H217.844L218.033 11.8936L219.731 9.38595C220.239 8.63484 220.76 7.89555 221.286 7.15627H217.507L217.696 6.8783L219.127 4.81422L219.192 4.73142H222.948C223.456 3.96848 223.995 3.22328 224.503 2.46034C225.012 1.6974 225.592 0.887141 226.142 0.0946283L226.195 0.0118285H241.992C244.109 0.0118285 247.315 0.0887141 249.243 0.964026C250.473 1.51997 251.094 2.46034 250.242 3.69051C249.497 4.76099 248.084 5.46479 246.889 5.89061C244.721 6.59478 242.466 6.99291 240.188 7.07347L240.176 7.0853ZM123.133 7.16218H118.324L118.508 6.88421C118.969 6.20407 119.424 5.51802 119.898 4.84379L119.951 4.73142H131.07L130.874 5.0153C130.401 5.68361 129.946 6.36967 129.491 7.04981C128.899 7.88372 128.308 8.70581 127.781 9.55155C127.255 10.3973 126.634 11.2371 126.084 12.0651L126.031 12.1479H125.936C119.07 12.1479 112.197 12.1479 105.331 12.1479C103.273 12.1361 99.724 11.8285 99.0557 9.46283C98.6949 8.22675 99.2982 6.90787 100.008 5.91427C101.423 4.14037 103.25 2.7394 105.331 1.83342C107.876 0.633541 110.655 0.00764336 113.469 0C120.27 0 127.072 0 133.885 0H134.222L134.027 0.277971C133.666 0.816169 133.288 1.33071 132.939 1.88074C132.59 2.43077 132.211 2.93348 131.874 3.47759L131.821 3.56039H125.552L125.735 3.28242C125.924 2.99854 126.113 2.69099 126.326 2.42485H114.273C111.357 2.42485 107.489 3.67868 105.692 6.09761C105.456 6.36559 105.281 6.68144 105.179 7.02345C105.077 7.36547 105.05 7.72553 105.1 8.07889C105.467 9.46875 107.785 9.69941 108.962 9.72898H121.382C121.974 8.85958 122.565 7.99018 123.156 7.13261L123.133 7.16218ZM137.812 9.75263C138.007 9.46283 138.196 9.16121 138.403 8.89506L138.61 8.61709H132.312L132.258 8.69398C131.892 9.22626 131.513 9.75263 131.164 10.2967C130.815 10.8409 130.443 11.3613 130.1 11.8995L129.922 12.1716H147.038C149.973 12.2244 152.9 11.8478 155.726 11.0538C157.14 10.6279 159.192 9.80586 160.061 8.55795C160.328 8.20565 160.456 7.76812 160.422 7.32778C160.162 4.96207 154.833 4.76099 153.071 4.76099H144.578C144.028 4.76099 141.55 4.6841 141.491 3.9389C141.455 3.51308 142.348 3.11091 142.673 2.98671C143.863 2.59275 145.112 2.40864 146.364 2.44259H156.738L156.146 3.30016L155.969 3.57813H162.244L162.297 3.49533C162.64 2.95122 163.019 2.43668 163.362 1.89848C163.705 1.36028 164.083 0.833912 164.45 0.295714L164.633 0.0177428H148.28C145.389 -0.0297387 142.506 0.330637 139.716 1.08823C138.326 1.50222 136.256 2.27108 135.381 3.49533C135.124 3.81855 134.994 4.22437 135.014 4.63679C135.251 7.0025 141.112 7.1681 142.863 7.1681H150.853C151.48 7.1681 153.81 7.28047 153.863 8.13212C153.899 8.61118 153.083 9.01926 152.716 9.16712C151.493 9.59437 150.202 9.7948 148.907 9.75855L137.812 9.75263ZM50.5114 2.42485C49.9791 3.18188 49.4527 3.94482 48.9263 4.73142H58.9155C60.0984 4.73142 63.0555 4.53033 63.7416 3.49533C64.4276 2.46034 61.1748 2.44259 60.7431 2.44259L50.5114 2.42485ZM14.665 2.42485C13.7897 3.67868 12.8907 4.92067 12.039 6.18041C11.1874 7.44015 10.4067 8.54612 9.59644 9.72898H21.5137C23.4055 9.70309 25.2695 9.26937 26.9785 8.45741C28.2159 7.90007 29.2818 7.02205 30.0657 5.91427C30.2597 5.64596 30.3952 5.33993 30.4635 5.01596C30.5317 4.69199 30.5312 4.3573 30.462 4.03353C30.048 2.64368 27.9011 2.43077 26.6946 2.43077L14.665 2.42485ZM80.4198 7.6235L83.6017 5.84921L87.2035 3.83836L87.9664 5.7605C88.2148 6.35193 88.4573 7.00841 88.7057 7.62941L80.4198 7.6235ZM229.247 4.73142H239.242C240.425 4.73142 243.382 4.53625 244.085 3.50125C244.789 2.46625 241.495 2.42485 241.075 2.42485H230.808C230.282 3.19371 229.749 3.95665 229.247 4.73142Z" fill="#F0F0F0"/>
<path d="M168.519 15.5137H167.076C166.864 15.5265 166.66 15.5959 166.484 15.7148C166.285 15.8325 166.12 15.9995 166.005 16.1997L162.457 22.3801C162.393 22.4835 162.358 22.6019 162.356 22.7232C162.356 22.9479 162.486 23.0662 162.752 23.0662H164.189C164.401 23.0534 164.605 22.9839 164.781 22.8651C164.978 22.7457 165.143 22.5791 165.26 22.3801L168.838 16.1997C168.898 16.0949 168.932 15.9774 168.939 15.8567C168.921 15.626 168.779 15.5137 168.519 15.5137Z" fill="#F0F0F0"/>
<path d="M214.556 15.5137H213.112C212.9 15.5244 212.696 15.594 212.521 15.7148C212.322 15.8325 212.157 15.9995 212.042 16.1997L208.464 22.3801C208.403 22.4847 208.369 22.6024 208.363 22.7232C208.363 22.9479 208.499 23.0662 208.765 23.0662H210.209C210.42 23.0534 210.624 22.9839 210.8 22.8651C210.997 22.7457 211.162 22.5791 211.279 22.3801L214.828 16.1997C214.89 16.0961 214.925 15.9778 214.928 15.8567C214.94 15.626 214.816 15.5137 214.556 15.5137Z" fill="#F0F0F0"/>
<path d="M145.435 13.4844L138.758 24.9995H216.59L223.273 13.4844H145.435ZM152.84 18.0857C152.526 18.0857 152.373 17.9556 152.373 17.6894C152.379 17.5478 152.42 17.4098 152.491 17.2873L152.958 16.4888C153.028 16.368 153.066 16.2319 153.071 16.0926C153.071 15.8264 152.923 15.6904 152.621 15.6904C152.371 15.6996 152.129 15.7796 151.923 15.9211C151.684 16.0707 151.481 16.2729 151.332 16.5125L147.629 22.8762C147.497 23.1194 147.304 23.3234 147.068 23.4677C146.865 23.6065 146.627 23.6863 146.382 23.6983H142.395C142.082 23.6983 141.928 23.5682 141.928 23.3021C141.932 23.16 141.973 23.0214 142.046 22.8999L146.186 15.7081C146.328 15.4623 146.532 15.2583 146.778 15.1167C146.986 14.9759 147.23 14.8961 147.482 14.8861H158.671C158.973 14.8861 159.121 15.0162 159.121 15.2882C159.117 15.4285 159.076 15.5652 159.003 15.6845L158.074 17.2813C157.944 17.526 157.75 17.7305 157.512 17.8728C157.309 18.0116 157.072 18.0914 156.826 18.1034L152.84 18.0857ZM169.364 23.4499C169.16 23.5898 168.92 23.6696 168.672 23.6806H157.483C157.175 23.6806 157.021 23.5505 157.021 23.2843C157.025 23.1431 157.064 23.005 157.134 22.8822L161.274 15.6904C161.406 15.4497 161.598 15.2464 161.83 15.099C162.04 14.958 162.286 14.8782 162.539 14.8683H173.729C174.025 14.8683 174.179 14.9984 174.179 15.2705C174.172 15.4102 174.132 15.5463 174.06 15.6667L169.92 22.8585C169.793 23.1029 169.6 23.3075 169.364 23.4499V23.4499ZM183.257 15.6904C183.007 15.6996 182.765 15.7796 182.559 15.9211C182.318 16.0682 182.115 16.271 181.968 16.5125L181.039 18.1034C180.969 18.2263 180.928 18.3641 180.921 18.5056C180.921 18.7776 181.075 18.9137 181.388 18.9137H186.983C187.291 18.9137 187.444 19.0438 187.444 19.3099C187.439 19.4534 187.394 19.5926 187.314 19.7121L185.481 22.8822C185.353 23.1266 185.161 23.3312 184.925 23.4736C184.72 23.6134 184.481 23.6933 184.233 23.7042H173.061C172.747 23.7042 172.594 23.5741 172.594 23.308C172.598 23.1667 172.636 23.0287 172.706 22.9058L173.652 21.2912C173.783 21.0493 173.975 20.8455 174.208 20.6998C174.419 20.5588 174.665 20.479 174.918 20.4691H178.916C179.212 20.4691 179.365 20.5992 179.365 20.8654C179.36 21.0071 179.319 21.1452 179.247 21.2676L178.78 22.066C178.709 22.1886 178.668 22.3265 178.662 22.4682C178.662 22.7343 178.815 22.8644 179.111 22.8644C179.365 22.8555 179.611 22.7756 179.821 22.6338C180.068 22.4941 180.273 22.2896 180.412 22.0423L181.341 20.4455C181.413 20.3232 181.453 20.185 181.459 20.0433C181.459 19.7772 181.299 19.647 180.992 19.647H175.397C175.095 19.647 174.947 19.511 174.947 19.2449C174.954 19.1051 174.995 18.9691 175.066 18.8486L176.911 15.649C177.044 15.4083 177.235 15.205 177.467 15.0576C177.678 14.9174 177.923 14.8377 178.177 14.8269H189.366C189.668 14.8269 189.816 14.957 189.816 15.2291C189.809 15.3688 189.769 15.5049 189.698 15.6253L188.769 17.2222C188.629 17.4695 188.425 17.6739 188.178 17.8136C187.973 17.9535 187.733 18.0333 187.486 18.0443H183.494C183.18 18.0443 183.026 17.9142 183.026 17.648C183.03 17.506 183.071 17.3673 183.145 17.2459L183.606 16.4474C183.68 16.3281 183.721 16.1914 183.724 16.0512C183.707 15.8264 183.559 15.6904 183.257 15.6904V15.6904ZM198.492 15.6904C198.242 15.6986 198 15.7787 197.794 15.9211C197.552 16.0669 197.349 16.27 197.203 16.5125L196.274 18.1034C196.201 18.2251 196.16 18.3636 196.156 18.5056C196.156 18.7776 196.31 18.9137 196.623 18.9137H202.212C202.526 18.9137 202.679 19.0438 202.679 19.3099C202.674 19.4534 202.629 19.5926 202.549 19.7121L200.698 22.9058C200.571 23.1502 200.378 23.3548 200.142 23.4972C199.938 23.6371 199.698 23.717 199.45 23.7279H188.284C187.977 23.7279 187.823 23.5978 187.823 23.3316C187.827 23.1904 187.865 23.0523 187.935 22.9295L188.87 21.3326C189.001 21.0907 189.192 20.8869 189.426 20.7412C189.636 20.5994 189.882 20.5194 190.135 20.5105H194.127C194.429 20.5105 194.577 20.6406 194.577 20.9068C194.574 21.0481 194.535 21.1864 194.465 21.309L193.997 22.1074C193.926 22.23 193.886 22.3679 193.879 22.5096C193.879 22.7757 194.033 22.9058 194.329 22.9058C194.582 22.8969 194.828 22.817 195.038 22.6752C195.274 22.5328 195.467 22.3281 195.594 22.0837L196.529 20.4869C196.601 20.3646 196.641 20.2264 196.647 20.0847C196.647 19.8186 196.487 19.6884 196.18 19.6884H190.585C190.283 19.6884 190.135 19.5524 190.135 19.2863C190.139 19.146 190.18 19.0093 190.254 18.89L192.099 15.6904C192.232 15.4497 192.423 15.2464 192.655 15.099C192.866 14.958 193.111 14.8782 193.365 14.8683H204.554C204.85 14.8683 205.004 14.9984 205.004 15.2705C204.997 15.4102 204.957 15.5463 204.886 15.6667L203.951 17.2636C203.824 17.508 203.631 17.7126 203.395 17.855C203.19 17.9949 202.951 18.0747 202.703 18.0857H198.711C198.398 18.0857 198.244 17.9556 198.244 17.6894C198.248 17.5482 198.286 17.4101 198.356 17.2873L198.823 16.4888C198.895 16.3684 198.935 16.2323 198.942 16.0926C198.942 15.8264 198.794 15.6904 198.492 15.6904V15.6904ZM215.957 22.8822C215.828 23.1254 215.636 23.3296 215.401 23.4736C215.196 23.6134 214.957 23.6933 214.709 23.7042H203.519C203.212 23.7042 203.052 23.5741 203.052 23.308C203.059 23.1664 203.099 23.0284 203.17 22.9058L207.31 15.7141C207.441 15.4722 207.633 15.2684 207.866 15.1226C208.077 14.9808 208.323 14.9009 208.576 14.892H219.784C220.079 14.892 220.233 15.0221 220.233 15.2941C220.227 15.4339 220.186 15.5699 220.115 15.6904L215.957 22.8822Z" fill="#F0F0F0"/>
</svg>
