<svg width="229" height="30" viewBox="0 0 229 30" fill="none" xmlns="http://www.w3.org/2000/svg">
<path d="M193.808 13.42H220.436L222.628 9.77469H215.343L214.569 11.0651H202.512L204.511 7.71007H212.699L214.118 5.35511H205.897L207.702 2.35496H219.759L218.985 3.64535H226.271L228.463 0H201.835L198.612 5.35511H194.614L193.228 7.71007H197.225L193.808 13.42ZM162.216 13.42H188.844L191.004 9.77469H183.718L182.945 11.0651H170.888L177.496 0H170.211L162.216 13.42ZM126.369 13.42H134.073L138.135 10.9038H151.191L152.255 13.42H160.024L153.867 0H138.877L137.555 2.22592H145.227L126.369 13.42ZM150.353 8.67786H141.681L148.58 4.41958L150.353 8.67786ZM111.701 13.42L118.309 2.35496H108.509L109.896 0H136.813L135.395 2.35496H125.595L118.986 13.42H111.701ZM72.5653 7.87137L77.2397 0H84.5252L80.1087 7.41973C78.6903 9.77469 81.4305 11.2264 85.8791 11.3232C90.3278 11.4199 94.97 9.77469 96.3884 7.41973L100.805 0H108.09L103.352 7.93589C101.482 11.0328 94.0029 13.7104 85.041 13.6781H80.3344C71.3725 13.6781 70.6633 11.0328 72.5008 7.93589L72.5653 7.87137ZM37.5238 13.42H44.8093L48.2264 7.71007H53.2554L58.2521 13.42H66.6659L61.2179 7.64555C67.6975 7.32295 70.889 5.64545 71.9528 3.87117C73.339 1.54847 74.4673 0.0322597 67.0528 0.0322597H45.5508L42.3271 5.38737H38.3297L36.9435 7.74233H40.9409L37.5238 13.42ZM49.6126 5.35511L51.4179 2.35496H61.2501C67.085 2.35496 65.1508 5.35511 59.4449 5.35511H49.6126ZM0 7.71007L1.38619 5.35511H6.47962L9.70331 0H33.6231C38.7165 0 37.5882 1.19361 36.1376 3.58083C35.3961 4.83896 33.2363 5.80675 30.4639 6.25838C33.6553 6.71002 35.4928 7.80685 34.4613 9.51661C33.0428 11.9038 32.5593 13.42 26.6922 13.42H1.67632L5.09343 7.71007H0ZM13.7652 5.35511H23.6619C29.1744 5.35511 31.0442 2.35496 25.4349 2.35496H15.5704L13.7652 5.35511ZM12.379 7.71007L10.3803 11.0651H21.4698C27.8849 11.0651 29.8192 7.71007 23.5007 7.71007H12.379Z" fill="white"/>
<path fill-rule="evenodd" clip-rule="evenodd" d="M183.332 23.838C182.913 24.4832 182.494 25.1285 182.042 25.7414C181.687 26.2787 181.24 26.7483 180.72 27.1285H187.619L183.332 23.838ZM206.284 29.9996H213.312L208.057 24.8703C214.311 24.5477 217.342 23.0638 218.373 21.483C219.405 19.9023 217.116 18.0312 209.992 18.0312H204.511C204.488 18.3661 204.377 18.6889 204.189 18.9669C203.857 19.4164 203.454 19.8086 202.996 20.1281H203.899C209.476 20.1281 207.703 22.8057 202.19 22.8057H196.871L206.284 29.9996Z" fill="white"/>
<path fill-rule="evenodd" clip-rule="evenodd" d="M190.037 27.5162H197.064L192.358 22.3547C198.612 22.0321 201.674 20.5481 202.706 18.9674C204.027 16.8705 201.416 15.5156 194.292 15.5156H169.437C169.634 15.9064 169.723 16.3428 169.695 16.7796C169.667 17.2164 169.522 17.6377 169.276 17.9996L165.698 23.258C165.351 23.7928 164.902 24.2534 164.376 24.6129H173.918L178.431 17.6125H188.167C193.776 17.6125 191.971 20.3223 186.458 20.2901H180.559L190.037 27.5162Z" fill="white"/>
</svg>
