<svg width="153" height="36" viewBox="0 0 153 36" fill="none" xmlns="http://www.w3.org/2000/svg">
<path fill-rule="evenodd" clip-rule="evenodd" d="M46.9141 1.35858C47.41 1.91613 48.097 2.74215 48.9094 3.77467C49.3432 4.33149 49.3526 5.05781 48.9333 5.62287L45.092 10.708L41.7585 15.122C40.9842 16.1533 39.6564 16.7738 38.2338 16.7689H33.0424L44.172 30.3104C38.7502 30.3148 33.6621 28.048 30.5214 24.2288L25.7959 18.4829C24.9235 17.4053 23.5003 16.7605 21.9785 16.7534H19.553H16.4107C16.4107 13.7477 19.2232 11.3079 22.7013 11.2966H33.4546C34.8697 11.2973 36.1892 10.6796 36.9614 9.65485L39.799 5.89649H24.5951C22.9625 5.89845 21.4351 6.59316 20.5089 7.75502L11.1296 19.5825C9.57258 21.5366 7.00492 22.7058 4.25949 22.711H0L9.95872 10.1505L14.033 4.82783C14.3465 4.41184 14.6981 4.01822 15.0844 3.65076C16.9654 1.60359 19.8258 0.411398 22.8507 0.413822H44.7037C45.571 0.412588 46.3889 0.762185 46.9141 1.35858ZM63.2891 4.088C63.3575 3.98337 63.3092 3.93106 63.1442 3.93106L58.7194 3.97291C55.9494 4.00523 53.3792 5.22867 51.8618 7.23714L44.2436 17.3594C43.8586 17.8654 43.873 18.5246 44.2798 19.0177L47.2498 22.6376C47.5797 23.0382 48.1126 23.276 48.6805 23.2758H68.2029C69.1216 23.2823 69.9829 22.8895 70.4968 22.2296L84.381 4.088C84.4494 3.98337 84.4072 3.93106 84.2543 3.93106L81.3869 3.96245C77.6248 4.00936 74.1359 5.67399 72.0784 8.40368L65.9392 16.4282C65.2784 17.2904 64.1635 17.8088 62.9692 17.8093H52.9544L63.2891 4.088ZM132.182 4.0881C132.25 3.98345 132.208 3.93113 132.058 3.93113H128.385C125.24 3.91998 122.304 5.31901 120.588 7.64624L109.036 23.2759H109.438H109.504L113.479 23.2026C116.379 23.1525 119.063 21.8378 120.648 19.6916L122.324 17.4834C122.996 16.5721 124.144 16.0228 125.375 16.0236H135.346L130.062 23.1189C129.983 23.2236 130.024 23.2759 130.186 23.2759H134.398C137.106 23.2774 139.632 22.0734 141.117 20.0736L152.972 4.1038C153.039 3.99915 152.991 3.94682 152.829 3.94682H149.731C146.248 3.98296 143.015 5.55369 141.117 8.13287L140.524 8.96485C139.654 10.1505 138.166 10.8687 136.567 10.8747L127.117 10.9428L132.182 4.0881ZM73.862 23.2754L75.5603 21.0418C77.1655 18.9332 79.8596 17.6904 82.7202 17.7387H98.3714C98.9011 17.7482 99.4001 17.5182 99.6969 17.1276L100.549 15.8685H86.7972C85.9155 15.8685 85.6138 15.6525 85.022 14.8886L83.0279 12.4337C82.7882 11.8972 82.8802 11.2881 83.2705 10.827L87.2943 5.51148C87.9925 4.71073 89.6967 3.93106 91.6435 3.93106H117.828L117.366 4.53162C115.459 7.05226 112.246 8.5399 108.833 8.48267H93.8506C93.4109 8.47407 92.9956 8.66193 92.7441 8.98314L91.2056 10.8059L104.957 10.8322C105.633 10.9224 106.22 11.2943 106.537 11.8332L108.833 14.6147C109.077 15.0453 109.002 15.5647 108.644 15.9265L104.099 21.9847C103.473 22.8077 102.423 23.2932 101.306 23.2754H73.862ZM97.2362 28.9914L97.2372 28.9901C97.6447 28.4821 98.0519 27.9745 98.4571 27.4636H98.4393C98.5064 27.326 98.4953 27.1705 98.409 27.0404C98.3226 26.9103 98.1703 26.8196 97.9943 26.7933H83.5769C82.958 26.785 82.3783 27.0445 82.0462 27.4784C80.9703 28.8288 79.8984 30.1809 78.8305 31.5346L75.6207 35.5859H90.9873C91.6072 35.597 92.1893 35.3393 92.524 34.9057C92.9844 34.3217 93.4449 33.7483 93.9047 33.1757L93.9061 33.174L93.9063 33.1738C94.4354 32.5148 94.9638 31.8568 95.4905 31.1847C96.0695 30.4458 96.6526 29.7189 97.235 28.9929L97.2352 28.9927L97.2359 28.9918L97.236 28.9916L97.2362 28.9914ZM88.3995 28.543H90.5236C90.6144 28.5581 90.6925 28.6058 90.7371 28.6733C90.7817 28.7407 90.7882 28.8211 90.7549 28.8929L88.9216 31.2093C88.3125 31.9814 87.7034 32.7552 87.0942 33.5307C86.9506 33.7193 86.6984 33.8315 86.4297 33.8264H83.5759L85.5042 31.4015L87.4265 28.9717C87.6406 28.6994 88.008 28.5375 88.3995 28.543ZM117.785 27.4636L114.811 31.1847L111.838 34.9058C111.502 35.3393 110.919 35.597 110.298 35.5859H94.9661L98.1775 31.5297C98.5341 31.0799 98.8899 30.6301 99.2458 30.1804C99.9584 29.2797 100.671 28.379 101.389 27.4783C101.721 27.0459 102.299 26.7867 102.917 26.7933H117.333C117.511 26.8182 117.665 26.9085 117.753 27.0388C117.84 27.169 117.852 27.3252 117.785 27.4636ZM109.848 28.5429H107.725C107.333 28.5363 106.966 28.6987 106.755 28.9717C106.107 29.78 105.459 30.5932 104.822 31.3966L104.737 31.5038L104.732 31.5112L104.727 31.5169L104.727 31.5174C104.121 32.2819 103.506 33.0586 102.902 33.8264H105.756C106.025 33.8316 106.278 33.7193 106.422 33.5307L108.254 31.2093L110.086 28.8929C110.115 28.8203 110.105 28.7409 110.06 28.6742C110.015 28.6076 109.938 28.5599 109.848 28.5429ZM132.409 31.1847L135.384 27.4636H135.372C135.439 27.3252 135.427 27.169 135.339 27.0388C135.251 26.9085 135.097 26.8182 134.92 26.7933H120.508C119.89 26.7867 119.311 27.0459 118.979 27.4784C117.904 28.8288 116.831 30.1793 115.76 31.5297L112.553 35.586H127.898C128.518 35.5954 129.099 35.3379 129.433 34.9059C130.433 33.6671 131.425 32.4267 132.409 31.1847ZM125.319 28.5429H127.437C127.53 28.5556 127.612 28.6023 127.659 28.6701C127.706 28.7378 127.714 28.8196 127.681 28.8929L125.854 31.2093C125.239 31.9815 124.628 32.7553 124.021 33.5307C123.876 33.7179 123.624 33.8297 123.355 33.8264H120.499C120.772 33.4794 121.048 33.1323 121.324 32.7848C121.69 32.3231 122.058 31.8607 122.421 31.3966L124.343 28.9717C124.557 28.6994 124.926 28.5374 125.319 28.5429ZM78.6404 26.7932H72.6662C72.4512 26.7963 72.2403 26.8454 72.0519 26.9361L69.9271 27.9219C69.6228 28.0648 69.6115 28.5429 69.9271 28.5429H71.5616C71.6482 28.5596 71.7225 28.6081 71.7656 28.6759C71.8088 28.7438 71.8165 28.8246 71.787 28.8978L66.8273 35.5862H72.0181C72.6051 35.5917 73.1535 35.3305 73.4665 34.8961L76.2846 31.1749L79.1026 27.4536C79.1625 27.312 79.1449 27.1541 79.0547 27.0253C78.9646 26.8965 78.8119 26.811 78.6404 26.7932Z" fill="black"/>
</svg>
