<svg width="263" height="30" viewBox="0 0 263 30" fill="none" xmlns="http://www.w3.org/2000/svg">
<path fill-rule="evenodd" clip-rule="evenodd" d="M17.8821 8.69083L15.6149 12.4726H28.1944C35.5081 12.4726 37.6656 8.69083 30.4982 8.69083H17.8821ZM19.4911 6.03631H30.6811C36.9343 6.03631 39.0552 2.65452 32.7289 2.65452H21.5024L19.4911 6.03631ZM3.83984 8.69083L5.44885 6.03631H11.2267L14.8469 0H41.9807C47.7951 0 46.4786 1.34544 44.8696 4.03633C44.0285 5.4545 41.5419 6.5454 38.397 7.05448C42.0173 7.56357 44.1017 8.79992 42.9681 10.7272C41.3225 13.4181 40.8105 15.1271 34.1551 15.1271H5.77797L9.61765 8.69083H3.83984ZM60.1552 6.03631L62.203 2.65452H73.3198C79.9387 2.65452 77.7446 6.03631 71.3086 6.03631H60.1552ZM46.4421 15.1271H54.7065L58.5462 8.69083H64.2509L69.9556 15.1271H79.4633L73.2833 8.61811C80.6701 8.21811 84.2538 6.36358 85.4606 4.3636C87.033 1.74544 88.3129 0.0363633 79.9022 0.0363633H55.511L51.8907 6.07267H47.3563L45.7473 8.7272H50.2817L46.4421 15.1271ZM86.1554 8.87265L91.4943 0H99.7588L94.7124 8.36356C93.1399 11.0181 96.2117 12.6544 101.295 12.7635C106.378 12.8726 111.57 11.0181 113.179 8.36356L118.189 0H126.454L121.078 8.94538C118.994 12.4363 110.473 15.418 100.344 15.418H95.0049C84.8389 15.418 83.9978 12.4363 86.1188 8.94538L86.1554 8.87265ZM130.549 15.1271L138.046 2.65452H126.929L128.538 0H159.036L157.427 2.65452H146.31L138.85 15.1271H130.549ZM174.395 9.78173H164.595L172.42 4.98177L174.395 9.78173ZM147.188 15.1271H155.928L160.536 12.2908H175.382L176.589 15.1271H185.365L178.381 0H161.413L159.914 2.50907H168.617L147.188 15.1271ZM187.852 15.1271H218.058L220.544 11.0181H212.28L211.402 12.4726H197.726L205.222 0H196.958L187.852 15.1271ZM223.726 15.1271H253.931L256.381 11.0181H248.117L247.239 12.4726H233.563L235.83 8.69083H245.155L246.727 6.03631H237.402L239.487 2.65452H253.127L252.249 4.10905H260.514L263 0H232.795L229.174 6.03631H224.64L223.031 8.69083H227.565L223.726 15.1271Z" fill="#000"/>
<path fill-rule="evenodd" clip-rule="evenodd" d="M23.9889 20.1825H21.612C21.4291 20.1671 21.2453 20.1993 21.0786 20.2758C20.912 20.3523 20.7682 20.4705 20.6612 20.6188C20.1492 21.4188 19.6373 22.2552 19.0888 23.0552L17.5529 25.4915H20.6978C20.8237 25.5075 20.9517 25.4888 21.0678 25.4375C21.1838 25.3862 21.2835 25.3043 21.356 25.2006L22.8553 22.8733C23.3307 22.0733 23.8061 21.3097 24.318 20.5461C24.3912 20.437 24.1718 20.1825 23.9889 20.1825ZM32.5094 19.0916L30.0959 22.837L27.7189 26.5824C27.5378 26.8098 27.3025 26.9888 27.0343 27.1031C26.7662 27.2173 26.4736 27.2634 26.183 27.2369H9.17871C10.0564 25.8915 10.934 24.546 11.7751 23.1642L14.3714 19.0916C14.664 18.6552 15.1759 18.437 15.9073 18.437H31.8511C32.2168 18.437 32.6191 18.8734 32.5094 19.0916" fill="#000"/>
<path fill-rule="evenodd" clip-rule="evenodd" d="M43.9182 20.1814H41.5778C41.3949 20.1661 41.2112 20.1983 41.0445 20.2747C40.8779 20.3512 40.734 20.4694 40.6271 20.6178L39.0546 23.0541C38.5792 23.8541 38.0307 24.6905 37.5188 25.4904H40.6636C40.7942 25.4991 40.925 25.4772 41.0457 25.4267C41.1663 25.3762 41.2734 25.2984 41.3584 25.1995C41.8338 24.3995 42.3092 23.6359 42.8212 22.8723C43.3331 22.1087 43.8085 21.3087 44.2839 20.545C44.357 20.4359 44.1376 20.1814 43.9182 20.1814V20.1814ZM52.4387 19.0905L50.0617 22.8359C49.2572 24.0723 48.4527 25.3086 47.6848 26.5813C47.5036 26.8088 47.2684 26.9877 47.0002 27.102C46.732 27.2163 46.4394 27.2623 46.1489 27.2359H29.1812L31.7775 23.1632C32.6186 21.8178 33.4962 20.4723 34.3373 19.0905C34.5184 18.8631 34.7537 18.6841 35.0219 18.5698C35.2901 18.4556 35.5826 18.4095 35.8732 18.436H51.7804C52.1461 18.436 52.5849 18.8723 52.4387 19.0905" fill="#000"/>
<path fill-rule="evenodd" clip-rule="evenodd" d="M63.9216 20.1814H61.5813C61.3984 20.1661 61.2146 20.1983 61.0479 20.2747C60.8813 20.3512 60.7374 20.4694 60.6305 20.6178C60.1185 21.4178 59.57 22.2541 59.0946 23.0541L57.5222 25.4904H60.6671C60.7976 25.4991 60.9285 25.4772 61.0491 25.4267C61.1697 25.3762 61.2768 25.2984 61.3619 25.1995C61.8372 24.3995 62.3126 23.6359 62.8246 22.8723C63.3366 22.1087 63.8119 21.3087 64.2873 20.545C64.3605 20.4359 64.1411 20.1814 63.9216 20.1814V20.1814ZM72.4421 19.0905L70.0651 22.8359C69.2606 24.0723 68.4561 25.3086 67.6882 26.5813C67.5071 26.8088 67.2718 26.9877 67.0036 27.102C66.7354 27.2163 66.4429 27.2623 66.1523 27.2359H49.1846L51.7809 23.1632C52.622 21.8178 53.4996 20.4723 54.3407 19.0905C54.5219 18.8631 54.7571 18.6841 55.0253 18.5698C55.2935 18.4556 55.5861 18.4095 55.8766 18.436H71.7839C72.1495 18.436 72.5884 18.8723 72.4421 19.0905" fill="#000"/>
<path fill-rule="evenodd" clip-rule="evenodd" d="M11.6653 18.4363H4.71733C4.48909 18.4288 4.26265 18.4788 4.0591 18.5817L1.79185 19.5635C1.72658 19.597 1.67443 19.6512 1.64369 19.7175C1.61295 19.7838 1.60539 19.8584 1.6222 19.9294C1.63902 20.0005 1.67925 20.0639 1.73649 20.1097C1.79374 20.1554 1.86471 20.1807 1.93813 20.1817H3.83968C4.02253 20.1817 4.24194 20.4363 4.20537 20.5454L0 27.2726H6.03379C6.76516 27.2726 7.31369 27.018 7.56966 26.5817L9.94661 22.8362C10.7511 21.5999 11.5556 20.3635 12.3236 19.0908C12.5064 18.8726 12.031 18.4363 11.6653 18.4363" fill="#000"/>
<path fill-rule="evenodd" clip-rule="evenodd" d="M235.354 27.6C237.183 25.5637 242.814 23.5273 246.764 23.5273C249.872 23.5273 250.494 24.8728 249.287 26.1455C248.08 27.4182 242.814 30 238.097 30C234.769 30 234.331 28.7273 235.354 27.6ZM246.362 24.1455C243.07 24.1455 238.463 27.5273 237.658 28.4C236.854 29.2727 237.585 29.5273 238.646 29.5273C241.681 29.5273 245.886 26.5091 247.056 25.2364C248.227 23.9637 247.166 24.1455 246.362 24.1455" fill="#000"/>
<path fill-rule="evenodd" clip-rule="evenodd" d="M176.297 24.3635C176.516 24.3635 176.553 24.6544 176.333 24.7999L171.726 27.8908C171.104 28.3635 170.702 28.6544 170.519 28.8362C170.336 29.018 170.556 29.2362 170.811 29.2362C171.067 29.2362 171.506 29.1635 174.761 28.218L174.359 28.6907C170.811 29.818 169.532 29.9998 168.691 29.9998C166.972 29.9998 167.63 29.0907 167.923 28.7998C168.873 27.7453 171.872 25.7453 174.066 24.3271L176.297 24.3635Z" fill="#000"/>
<path fill-rule="evenodd" clip-rule="evenodd" d="M185.475 28.6177C182.659 29.4177 180.538 29.9995 178.308 29.9995C176.077 29.9995 174.944 29.5268 176.187 28.1813C178.052 26.1086 183.647 24.145 187.779 24.145C190.193 24.145 190.046 25.0541 189.644 25.5268C188.035 27.2359 181.416 28.0359 178.71 28.3632C177.942 29.1268 178.783 29.345 179.99 29.345C181.197 29.345 182.367 29.1632 185.439 28.2904L185.475 28.6177ZM187.852 25.3086C188.035 25.0541 188.108 24.7268 186.975 24.7268C184.451 24.7268 180.502 26.7995 179.185 27.8904C186.316 26.945 187.633 25.5268 187.852 25.3086" fill="#000"/>
<path fill-rule="evenodd" clip-rule="evenodd" d="M153.88 28.6177C151.064 29.4177 148.943 29.9995 146.713 29.9995C144.482 29.9995 143.348 29.5268 144.592 28.1813C146.457 26.1086 152.015 24.145 156.184 24.145C158.561 24.145 158.451 25.0541 158.012 25.5268C156.44 27.2359 149.821 28.0359 147.115 28.3632C146.347 29.1268 147.188 29.345 148.395 29.345C149.601 29.345 150.735 29.1632 153.843 28.2904L153.88 28.6177ZM156.257 25.3086C156.44 25.0541 156.476 24.7268 155.379 24.7268C152.856 24.7268 148.87 26.7995 147.554 27.8904C154.721 26.945 156.038 25.5268 156.257 25.3086" fill="#000"/>
<path fill-rule="evenodd" clip-rule="evenodd" d="M165.399 24.2545L160.535 27.6C165.509 25.1636 168.398 24.3273 170.153 24.2545C174.395 24.1091 169.677 25.2 167.52 25.3454C166.167 25.4545 162.364 27.1636 157.72 29.9272H154.575L162.729 24.2545H165.399Z" fill="#000"/>
<path fill-rule="evenodd" clip-rule="evenodd" d="M231.259 23.6359L225.847 27.3449C231.369 24.6177 234.587 23.7086 236.561 23.6359C241.242 23.4541 236.013 24.6904 233.599 24.8359C232.1 24.945 227.858 26.8722 222.702 29.9631H219.228L228.297 23.6359H231.259Z" fill="#000"/>
<path fill-rule="evenodd" clip-rule="evenodd" d="M216.339 27.6722C213.45 28.7268 209.208 29.9995 205.112 29.9995C200.066 29.9995 198.932 27.9268 201.236 25.3814C205.185 20.9814 215.644 17.5996 221.897 17.5996C225.554 17.5996 228.26 19.3087 225.517 22.3268C224.091 23.8541 221.239 25.8541 216.339 27.6722V27.6722ZM223.506 19.4178C223.031 18.7269 221.714 18.4723 220.398 18.4723C213.523 18.4723 207.27 22.5814 204.052 26.1086C202.077 28.3268 202.626 29.5631 205.514 29.5631C211.951 29.5631 219.776 25.1995 222.409 22.3268C223.14 21.4905 224.055 20.2905 223.506 19.4178" fill="#000"/>
<path fill-rule="evenodd" clip-rule="evenodd" d="M125.064 28.4361C127.566 29.1162 130.15 29.4466 132.743 29.4179C135.742 29.4179 140.606 28.9452 141.63 27.4906C142.141 26.727 141.227 26.0361 139.765 25.0907L138.156 24.1816C137.058 23.4907 135.852 22.8361 136.51 21.8543C137.9 19.818 144.811 18.1816 150.113 18.1816C153.405 18.1816 154.026 19.018 153.624 19.6362C153.222 20.2543 150.333 21.4907 148.248 22.0725L146.347 21.6725C149.016 21.018 151.649 20.1453 152.161 19.3816C152.673 18.618 152.052 18.6907 149.784 18.6907C146.018 18.6907 139.874 19.7816 138.814 21.3816C138.375 22.0362 138.96 22.2907 140.13 22.9452L141.959 23.9998C143.312 24.727 144.957 25.8543 144.116 27.127C143.275 28.3997 139.765 29.9634 131.646 29.9634C127.441 29.9634 123.967 29.4543 123.089 29.1997L125.064 28.4361Z" fill="#000"/>
<path fill-rule="evenodd" clip-rule="evenodd" d="M177.247 23.4182H175.638C175.309 23.4182 175.455 23.1273 176.004 22.7637C176.464 22.4489 176.988 22.238 177.539 22.1455H179.148C179.478 22.1455 179.295 22.4364 178.783 22.7637C178.331 23.1016 177.804 23.3261 177.247 23.4182" fill="#000"/>
</svg>
