<svg width="251" height="25" viewBox="0 0 251 25" fill="none" xmlns="http://www.w3.org/2000/svg">
<path d="M42.2575 4.73142C42.7661 3.96848 43.2925 3.21736 43.8011 2.45442C44.3097 1.69148 44.9071 0.881226 45.4512 0.0887141L45.5044 0H61.3014C63.4246 0 66.6243 0.0709713 68.576 0.952198C69.8121 1.54362 70.3857 2.45442 69.5341 3.67868C68.783 4.75507 67.405 5.45296 66.1925 5.87879C64.0229 6.58349 61.7655 6.98163 59.4857 7.06164L61.6681 9.31498L64.1166 11.8285L64.4064 12.1243H57.0017L56.9485 12.071C56.1856 11.2371 55.4226 10.4269 54.6774 9.58112L52.5069 7.13261H46.8529C46.2614 7.94287 45.7055 8.74721 45.1436 9.56338L43.4344 12.0651L43.3812 12.1479H37.1239L37.3191 11.8699L39.0342 9.36821C39.5428 8.61709 40.0514 7.8719 40.5778 7.13261H36.8282L37.0056 6.86056C37.4669 6.16267 37.9519 5.47662 38.425 4.78465L38.4782 4.73142H42.2575ZM6.43473 4.73142C6.94336 3.96848 7.46972 3.21736 7.97835 2.45442C8.48698 1.69148 9.07841 0.881226 9.62843 0.0887141L9.68166 0H9.77629C16.5067 0 23.2372 0 29.9676 0C32.0258 0 35.3851 0.36077 36.1185 2.69691C36.2492 3.28328 36.2525 3.89091 36.128 4.47866C36.0035 5.0664 35.7542 5.62053 35.3969 6.10353C34.1179 7.89789 32.3907 9.32539 30.3875 10.2435C27.7547 11.503 24.8723 12.1538 21.9538 12.1479C15.1819 12.1479 8.40418 12.1479 1.63234 12.1479H1.29523L1.48448 11.864C2.07591 11.036 2.62594 10.1962 3.19962 9.36821C3.77331 8.54021 4.21688 7.8719 4.73142 7.13261H0L0.171514 6.86056C0.591427 6.15676 1.08823 5.4707 1.56728 4.79056L1.62051 4.73142H6.43473ZM89.199 9.9478C89.4711 10.6516 89.7905 11.3554 90.0507 12.0533L90.098 12.1657H96.7693L96.6569 11.9113C95.758 9.95372 94.8827 7.98427 94.0073 5.99707L91.3814 0.0827998L91.34 0H78.0684L78.0152 0.0768855C77.5598 0.721541 77.1044 1.37211 76.6667 2.03451L76.4834 2.31248H83.3143C80.4676 3.83442 77.6268 5.36227 74.7919 6.89604C71.7519 8.54021 68.6943 10.1666 65.6484 11.8285L65.057 12.1657H72.1009C73.402 11.4323 74.7051 10.7009 76.0102 9.97146L89.199 9.9478ZM175.21 2.42485H165.907L166.102 2.14688C166.575 1.45491 167.054 0.768855 167.534 0.0768855L167.587 0H192.427L192.214 0.277971C191.741 0.964026 191.268 1.65008 190.812 2.34205L190.759 2.42485H181.491C180.395 4.0217 179.299 5.61659 178.203 7.2095C177.091 8.83001 175.973 10.4505 174.867 12.071L174.814 12.1479H168.504L168.699 11.864C169.811 10.2494 170.917 8.62301 172.04 7.0025C173.101 5.48844 174.158 3.96256 175.21 2.42485ZM191.421 7.15627C190.901 7.89555 190.398 8.64075 189.89 9.38595L188.186 11.8936L188.003 12.1716H212.535L212.589 12.0947C212.955 11.5624 213.316 11.0301 213.677 10.4919C214.037 9.95372 214.404 9.42143 214.789 8.89506L214.99 8.61709H208.703L208.65 8.68806C208.401 9.03701 208.165 9.39778 207.928 9.75263H195.922C196.51 8.88126 197.101 8.01778 197.696 7.16218H205.438L205.491 7.0853C205.941 6.38741 206.42 5.70727 206.893 5.02713L207.088 4.74325H199.358C199.891 3.98228 200.421 3.21736 200.949 2.44851H212.914C212.713 2.73831 212.512 3.03994 212.322 3.31791L212.145 3.58996H218.414L218.467 3.51308L219.556 1.91622C219.922 1.37211 220.307 0.845741 220.691 0.313456L220.892 0.0295714H196.354L196.301 0.106457C195.756 0.893055 195.195 1.66782 194.662 2.47217C194.13 3.27651 193.61 3.95073 193.101 4.73142H189.322L189.269 4.8083C188.789 5.49436 188.316 6.18041 187.855 6.8783L187.678 7.15035H191.421V7.15627ZM239.812 7.0853L242 9.33863C242.828 10.1844 243.656 11.036 244.49 11.8699L244.798 12.1716H237.381L237.328 12.1183C236.553 11.2785 235.772 10.4564 235.015 9.61069L232.833 7.16218H227.203C226.611 7.96652 226.067 8.77086 225.511 9.59295L223.814 12.0947L223.761 12.1716H217.48L217.669 11.8936L219.366 9.38595C219.875 8.63484 220.395 7.89555 220.922 7.15627H217.142L217.332 6.8783L218.763 4.81422L218.828 4.73142H222.584C223.092 3.96848 223.63 3.22328 224.139 2.46034C224.648 1.6974 225.227 0.887141 225.777 0.0946283L225.831 0.0118285H241.628C243.745 0.0118285 246.95 0.0887141 248.878 0.964026C250.109 1.51997 250.73 2.46034 249.878 3.69051C249.133 4.76099 247.719 5.46479 246.525 5.89061C244.357 6.59478 242.101 6.99291 239.824 7.07347L239.812 7.0853ZM122.768 7.16218H117.96L118.143 6.88421C118.605 6.20407 119.06 5.51802 119.533 4.84379L119.587 4.73142H130.705L130.51 5.0153C130.037 5.68361 129.582 6.36967 129.126 7.04981C128.535 7.88372 127.943 8.70581 127.417 9.55155C126.891 10.3973 126.27 11.2371 125.72 12.0651L125.666 12.1479H125.572C118.705 12.1479 111.833 12.1479 104.966 12.1479C102.908 12.1361 99.3598 11.8285 98.6914 9.46283C98.3307 8.22675 98.9339 6.90787 99.6436 5.91427C101.059 4.14037 102.886 2.7394 104.966 1.83342C107.512 0.633541 110.29 0.00764336 113.105 0C119.906 0 126.707 0 133.521 0H133.858L133.663 0.277971C133.302 0.816169 132.923 1.33071 132.574 1.88074C132.225 2.43077 131.847 2.93348 131.51 3.47759L131.457 3.56039H125.187L125.371 3.28242C125.56 2.99854 125.749 2.69099 125.962 2.42485H113.909C110.993 2.42485 107.125 3.67868 105.327 6.09761C105.091 6.36559 104.917 6.68144 104.814 7.02345C104.712 7.36547 104.686 7.72553 104.736 8.07889C105.103 9.46875 107.421 9.69941 108.598 9.72898H121.018C121.609 8.85958 122.201 7.99018 122.792 7.13261L122.768 7.16218ZM137.448 9.75263C137.643 9.46283 137.832 9.16121 138.039 8.89506L138.246 8.61709H131.947L131.894 8.69398C131.527 9.22626 131.149 9.75263 130.8 10.2967C130.451 10.8409 130.078 11.3613 129.735 11.8995L129.558 12.1716H146.674C149.609 12.2244 152.536 11.8478 155.362 11.0538C156.776 10.6279 158.828 9.80586 159.697 8.55795C159.963 8.20565 160.092 7.76812 160.058 7.32778C159.798 4.96207 154.469 4.76099 152.706 4.76099H144.214C143.664 4.76099 141.185 4.6841 141.126 3.9389C141.091 3.51308 141.984 3.11091 142.309 2.98671C143.499 2.59275 144.747 2.40864 146 2.44259H156.373L155.782 3.30016L155.604 3.57813H161.88L161.933 3.49533C162.276 2.95122 162.654 2.43668 162.997 1.89848C163.34 1.36028 163.719 0.833912 164.086 0.295714L164.269 0.0177428H147.916C145.025 -0.0297387 142.142 0.330637 139.352 1.08823C137.962 1.50222 135.892 2.27108 135.017 3.49533C134.76 3.81855 134.63 4.22437 134.65 4.63679C134.887 7.0025 140.748 7.1681 142.498 7.1681H150.489C151.116 7.1681 153.446 7.28047 153.499 8.13212C153.534 8.61118 152.718 9.01926 152.352 9.16712C151.129 9.59437 149.838 9.7948 148.543 9.75855L137.448 9.75263ZM50.1471 2.42485C49.6148 3.18188 49.0885 3.94482 48.5621 4.73142H58.5513C59.7341 4.73142 62.6913 4.53033 63.3773 3.49533C64.0634 2.46034 60.8105 2.44259 60.3788 2.44259L50.1471 2.42485ZM14.3007 2.42485C13.4254 3.67868 12.5264 4.92067 11.6748 6.18041C10.8231 7.44015 10.0424 8.54612 9.23218 9.72898H21.1494C23.0413 9.70309 24.9053 9.26937 26.6142 8.45741C27.8516 7.90007 28.9175 7.02205 29.7015 5.91427C29.8954 5.64596 30.0309 5.33993 30.0992 5.01596C30.1675 4.69199 30.167 4.3573 30.0977 4.03353C29.6837 2.64368 27.5368 2.43077 26.3303 2.43077L14.3007 2.42485ZM80.0556 7.6235L86.8392 3.83836L87.6022 5.7605C87.8506 6.35193 88.0931 7.00841 88.3415 7.62941L80.0556 7.6235ZM228.882 4.73142H238.877C240.06 4.73142 243.017 4.53625 243.721 3.50125C244.425 2.46625 241.131 2.42485 240.711 2.42485H230.444C229.917 3.19371 229.385 3.95665 228.882 4.73142Z" fill="black"/>
<path d="M168.154 15.5117H166.711C166.5 15.5245 166.295 15.594 166.12 15.7128C165.921 15.8306 165.756 15.9976 165.641 16.1978L162.092 22.3782C162.029 22.4815 161.994 22.6 161.992 22.7212C161.992 22.946 162.122 23.0642 162.388 23.0642H163.825C164.037 23.0514 164.241 22.982 164.417 22.8632C164.614 22.7438 164.779 22.5771 164.896 22.3782L168.474 16.1978C168.534 16.0929 168.568 15.9754 168.574 15.8547C168.557 15.6241 168.415 15.5117 168.154 15.5117Z" fill="black"/>
<path d="M214.191 15.5117H212.748C212.536 15.5224 212.331 15.5921 212.157 15.7128C211.958 15.8306 211.793 15.9976 211.678 16.1978L208.1 22.3782C208.039 22.4828 208.004 22.6004 207.999 22.7212C207.999 22.946 208.135 23.0642 208.401 23.0642H209.844C210.056 23.0514 210.26 22.982 210.436 22.8632C210.633 22.7438 210.798 22.5771 210.915 22.3782L214.463 16.1978C214.526 16.0941 214.561 15.9759 214.564 15.8547C214.576 15.6241 214.451 15.5117 214.191 15.5117Z" fill="black"/>
<path d="M145.071 13.4844L138.394 24.9995H216.226L222.909 13.4844H145.071ZM152.476 18.0857C152.162 18.0857 152.008 17.9556 152.008 17.6894C152.015 17.5478 152.056 17.4098 152.127 17.2873L152.594 16.4888C152.664 16.368 152.702 16.2319 152.706 16.0926C152.706 15.8264 152.558 15.6904 152.257 15.6904C152.007 15.6996 151.765 15.7796 151.559 15.9211C151.319 16.0707 151.117 16.2729 150.968 16.5125L147.265 22.8762C147.133 23.1194 146.939 23.3234 146.703 23.4677C146.5 23.6065 146.263 23.6863 146.017 23.6983H142.031C141.718 23.6983 141.564 23.5682 141.564 23.3021C141.568 23.16 141.608 23.0214 141.682 22.8999L145.822 15.7081C145.964 15.4623 146.168 15.2583 146.414 15.1167C146.622 14.9759 146.866 14.8961 147.117 14.8861H158.307C158.609 14.8861 158.757 15.0162 158.757 15.2882C158.753 15.4285 158.712 15.5652 158.638 15.6845L157.71 17.2813C157.58 17.526 157.386 17.7305 157.148 17.8728C156.945 18.0116 156.707 18.0914 156.462 18.1034L152.476 18.0857ZM169 23.4499C168.795 23.5898 168.556 23.6696 168.308 23.6806H157.118C156.811 23.6806 156.657 23.5505 156.657 23.2843C156.661 23.1431 156.7 23.005 156.769 22.8822L160.909 15.6904C161.042 15.4497 161.233 15.2464 161.465 15.099C161.676 14.958 161.922 14.8782 162.175 14.8683H173.365C173.661 14.8683 173.814 14.9984 173.814 15.2705C173.808 15.4102 173.767 15.5463 173.696 15.6667L169.556 22.8585C169.429 23.1029 169.236 23.3075 169 23.4499ZM182.893 15.6904C182.643 15.6996 182.401 15.7796 182.195 15.9211C181.953 16.0682 181.751 16.271 181.603 16.5125L180.675 18.1034C180.604 18.2263 180.564 18.3641 180.557 18.5056C180.557 18.7776 180.71 18.9137 181.024 18.9137H186.619C186.926 18.9137 187.08 19.0438 187.08 19.3099C187.075 19.4534 187.029 19.5926 186.95 19.7121L185.117 22.8822C184.989 23.1266 184.797 23.3312 184.561 23.4736C184.356 23.6134 184.116 23.6933 183.869 23.7042H172.697C172.383 23.7042 172.229 23.5741 172.229 23.308C172.233 23.1667 172.272 23.0287 172.342 22.9058L173.288 21.2912C173.419 21.0493 173.611 20.8455 173.844 20.6998C174.055 20.5588 174.3 20.479 174.554 20.4691H178.552C178.847 20.4691 179.001 20.5992 179.001 20.8654C178.995 21.0071 178.955 21.1452 178.883 21.2676L178.416 22.066C178.344 22.1886 178.304 22.3265 178.297 22.4682C178.297 22.7343 178.451 22.8644 178.747 22.8644C179 22.8555 179.246 22.7756 179.457 22.6338C179.704 22.4941 179.908 22.2896 180.048 22.0423L180.977 20.4455C181.048 20.3232 181.089 20.185 181.095 20.0433C181.095 19.7772 180.935 19.647 180.628 19.647H175.033C174.731 19.647 174.583 19.511 174.583 19.2449C174.59 19.1051 174.63 18.9691 174.702 18.8486L176.547 15.649C176.68 15.4083 176.871 15.205 177.103 15.0576C177.314 14.9174 177.559 14.8377 177.812 14.8269H189.002C189.304 14.8269 189.452 14.957 189.452 15.2291C189.445 15.3688 189.405 15.5049 189.333 15.6253L188.405 17.2222C188.265 17.4695 188.061 17.6739 187.813 17.8136C187.609 17.9535 187.369 18.0333 187.121 18.0443H183.129C182.816 18.0443 182.662 17.9142 182.662 17.648C182.666 17.506 182.707 17.3673 182.78 17.2459L183.242 16.4474C183.316 16.3281 183.356 16.1914 183.36 16.0512C183.342 15.8264 183.194 15.6904 182.893 15.6904ZM198.128 15.6904C197.878 15.6986 197.636 15.7787 197.43 15.9211C197.188 16.0669 196.985 16.27 196.839 16.5125L195.91 18.1034C195.837 18.2251 195.796 18.3636 195.792 18.5056C195.792 18.7776 195.946 18.9137 196.259 18.9137H201.848C202.161 18.9137 202.315 19.0438 202.315 19.3099C202.31 19.4534 202.265 19.5926 202.185 19.7121L200.334 22.9058C200.206 23.1502 200.014 23.3548 199.778 23.4972C199.573 23.6371 199.334 23.717 199.086 23.7279H187.92C187.612 23.7279 187.459 23.5978 187.459 23.3316C187.463 23.1904 187.501 23.0523 187.571 22.9295L188.505 21.3326C188.636 21.0907 188.828 20.8869 189.061 20.7412C189.272 20.5994 189.518 20.5194 189.771 20.5105H193.763C194.065 20.5105 194.213 20.6406 194.213 20.9068C194.209 21.0481 194.171 21.1864 194.1 21.309L193.633 22.1074C193.562 22.23 193.521 22.3679 193.515 22.5096C193.515 22.7757 193.669 22.9058 193.964 22.9058C194.218 22.8969 194.464 22.817 194.674 22.6752C194.91 22.5328 195.102 22.3281 195.23 22.0837L196.164 20.4869C196.236 20.3646 196.277 20.2264 196.283 20.0847C196.283 19.8186 196.123 19.6884 195.815 19.6884H190.221C189.919 19.6884 189.771 19.5524 189.771 19.2863C189.775 19.146 189.816 19.0093 189.889 18.89L191.735 15.6904C191.867 15.4497 192.059 15.2464 192.291 15.099C192.501 14.958 192.747 14.8782 193 14.8683H204.19C204.486 14.8683 204.64 14.9984 204.64 15.2705C204.633 15.4102 204.592 15.5463 204.521 15.6667L203.587 17.2636C203.459 17.508 203.267 17.7126 203.031 17.855C202.826 17.9949 202.587 18.0747 202.339 18.0857H198.347C198.033 18.0857 197.88 17.9556 197.88 17.6894C197.884 17.5482 197.922 17.4101 197.992 17.2873L198.459 16.4888C198.53 16.3684 198.571 16.2323 198.577 16.0926C198.577 15.8264 198.43 15.6904 198.128 15.6904ZM215.593 22.8822C215.464 23.1254 215.272 23.3296 215.037 23.4736C214.832 23.6134 214.593 23.6933 214.345 23.7042H203.155C202.848 23.7042 202.688 23.5741 202.688 23.308C202.694 23.1664 202.735 23.0284 202.806 22.9058L206.946 15.7141C207.077 15.4722 207.269 15.2684 207.502 15.1226C207.712 14.9808 207.958 14.9009 208.212 14.892H219.419C219.715 14.892 219.869 15.0221 219.869 15.2941C219.862 15.4339 219.822 15.5699 219.751 15.6904L215.593 22.8822Z" fill="black"/>
</svg>
