<svg width="123" height="24" viewBox="0 0 123 24" fill="none" xmlns="http://www.w3.org/2000/svg">
<path fill-rule="evenodd" clip-rule="evenodd" d="M32.5178 6.0181L34.3723 4.1852C35.0839 3.45204 36.4855 2.99921 37.9518 2.99921H65.7903C67.4076 2.99921 68.8955 2.50324 69.6718 1.72696L71.3322 0.0234375H17.7684C15.8708 0.0234375 14.1026 0.605653 13.1969 1.53289L0 14.967H20.8951C22.6201 14.967 24.2159 14.4279 25.0353 13.6085L28.5286 10.0505C29.1755 9.40358 30.4261 8.99387 31.7847 8.99387H54.9008C56.7121 8.99387 58.3941 8.43322 59.2782 7.54911L60.766 6.03966L32.5178 6.0181Z" fill="#000"/>
<path fill-rule="evenodd" clip-rule="evenodd" d="M76.0759 0C75.1876 0.0375216 74.3503 0.425155 73.747 1.07818L71.9141 2.99733H99.6232L97.5747 5.08899C97.0378 5.66721 96.2931 6.0085 95.5046 6.03779H70.3184C69.8796 6.05125 69.4479 6.15156 69.0482 6.33292C68.6484 6.51429 68.2886 6.7731 67.9895 7.0944L66.1566 9.01356H93.607L91.6879 10.9974C91.1465 11.5849 90.3943 11.9338 89.5962 11.9678H64.5394C64.1006 11.9812 63.6689 12.0815 63.2691 12.2629C62.8694 12.4443 62.5096 12.7031 62.2105 13.0244L60.3345 14.9435H105.92C107.045 14.9401 108.123 14.4903 108.917 13.6928L120.691 1.5957L122.243 0H76.0759Z" fill="#000"/>
<path fill-rule="evenodd" clip-rule="evenodd" d="M51.9468 23.9778L58.5452 17.1638C58.6825 17.022 58.8466 16.9089 59.028 16.8312C59.2094 16.7534 59.4045 16.7126 59.6018 16.7109H70.9874C71.0438 16.7182 71.0973 16.7401 71.1425 16.7746C71.1876 16.8091 71.223 16.8549 71.2448 16.9074C71.2667 16.9598 71.2743 17.0171 71.267 17.0735C71.2597 17.1299 71.2376 17.1833 71.203 17.2285L70.2973 18.1557H64.3242C64.011 18.1632 63.7115 18.2861 63.4833 18.5007L62.4267 19.622H71.2461C71.3064 19.6266 71.3642 19.648 71.4129 19.6838C71.4617 19.7196 71.4994 19.7683 71.5219 19.8244C71.5443 19.8805 71.5506 19.9418 71.54 20.0013C71.5293 20.0609 71.5023 20.1162 71.4618 20.1611L68.2488 23.4603C68.0896 23.6268 67.899 23.7601 67.6881 23.8526C67.4772 23.9452 67.25 23.995 67.0197 23.9994L51.9468 23.9778ZM59.5803 22.5331H62.4267C62.6769 22.5273 62.9156 22.4272 63.0951 22.2528L63.8499 21.4549C63.8773 21.4223 63.8955 21.383 63.9025 21.3409C63.9095 21.2989 63.905 21.2558 63.8896 21.216C63.8741 21.1763 63.8483 21.1415 63.8147 21.1152C63.7812 21.089 63.7412 21.0722 63.6989 21.0668H61.4779C61.3248 21.0641 61.1728 21.0934 61.0317 21.1528C60.8906 21.2122 60.7635 21.3004 60.6584 21.4118L59.5803 22.5331Z" fill="#000"/>
<path fill-rule="evenodd" clip-rule="evenodd" d="M88.6046 17.25L82.5883 23.4388C82.4296 23.6043 82.2386 23.7356 82.0273 23.8246C81.8159 23.9135 81.5885 23.9584 81.3592 23.9563H75.7743L81.0142 18.5654C81.0423 18.5314 81.0604 18.4902 81.0664 18.4465C81.0724 18.4028 81.0661 18.3582 81.0482 18.3179C81.0302 18.2776 81.0014 18.243 80.9649 18.2182C80.9285 18.1933 80.8858 18.1792 80.8417 18.1773H78.6206C78.476 18.1752 78.3325 18.2028 78.1989 18.2584C78.0654 18.3141 77.9447 18.3965 77.8444 18.5007L77.219 19.1476H71.0303L72.9494 17.1638C73.2347 16.8761 73.6225 16.7133 74.0276 16.7109H88.3889C88.4492 16.7155 88.507 16.7369 88.5557 16.7727C88.6044 16.8085 88.6422 16.8572 88.6646 16.9133C88.6871 16.9695 88.6934 17.0308 88.6827 17.0903C88.6721 17.1498 88.645 17.2051 88.6046 17.25V17.25Z" fill="#000"/>
<path fill-rule="evenodd" clip-rule="evenodd" d="M106.136 17.2519L105.23 18.1791H96.4325C96.0676 18.182 95.7187 18.3294 95.4621 18.5888L94.9015 19.1279H103.548C103.609 19.1325 103.667 19.1539 103.715 19.1897C103.764 19.2255 103.802 19.2742 103.824 19.3303C103.847 19.3864 103.853 19.4477 103.842 19.5073C103.832 19.5668 103.805 19.6221 103.764 19.667L100.098 23.4406C99.938 23.6042 99.7468 23.7341 99.5358 23.823C99.3247 23.9118 99.0981 23.9578 98.8692 23.9582H83.9688L85.8017 22.0606C85.9579 21.8977 86.1454 21.7679 86.3528 21.679C86.5603 21.5901 86.7835 21.5439 87.0092 21.543H92.012C92.0483 21.5499 92.0823 21.5661 92.1106 21.5899C92.1389 21.6138 92.1606 21.6445 92.1736 21.6792C92.1866 21.7138 92.1905 21.7513 92.1848 21.7879C92.1792 21.8244 92.1642 21.8589 92.1413 21.8881L91.5376 22.535H94.2761C94.5666 22.5297 94.8442 22.4141 95.0524 22.2115L96.2384 20.9824C96.2659 20.9498 96.2841 20.9104 96.291 20.8684C96.298 20.8264 96.2936 20.7832 96.2781 20.7435C96.2627 20.7038 96.2368 20.669 96.2033 20.6427C96.1697 20.6165 96.1297 20.5997 96.0875 20.5942H87.2464L90.5456 17.1872C90.6829 17.0454 90.847 16.9324 91.0284 16.8546C91.2098 16.7769 91.4049 16.736 91.6022 16.7344H105.92C105.977 16.7416 106.03 16.7636 106.076 16.7981C106.121 16.8325 106.156 16.8783 106.178 16.9308C106.2 16.9833 106.207 17.0406 106.2 17.097C106.193 17.1533 106.171 17.2068 106.136 17.2519Z" fill="#000"/>
</svg>
