<svg width="128" height="30" viewBox="0 0 128 30" fill="none" xmlns="http://www.w3.org/2000/svg">
<path fill-rule="evenodd" clip-rule="evenodd" d="M30.0557 4.27154L28.8091 9.3199H30.0823C31.2184 9.3199 32.0008 8.47998 32.4208 6.79572C32.6595 5.8497 32.6727 5.19545 32.4605 4.82412C32.2484 4.45278 31.7798 4.27154 31.0459 4.27154H30.0557ZM28.3273 0.292969H33.2297C34.3408 0.292969 35.0628 0.931013 35.3958 2.2071C35.722 3.70856 35.6673 5.26777 35.2367 6.74267C34.8437 8.41829 34.1159 9.99715 33.0971 11.3843C32.129 12.6752 31.0857 13.3161 29.9717 13.3161H27.7968L25.5865 22.0602H22.8501L28.3273 0.292969Z" fill="black"/>
<path fill-rule="evenodd" clip-rule="evenodd" d="M42.416 18.0586L41.4125 22.0504H33.3271L38.7955 0.283203H46.7747L45.7756 4.27061H40.5284L39.379 8.83713H44.3831L43.3797 12.8245H38.3755L37.0626 18.0586H42.416Z" fill="black"/>
<path fill-rule="evenodd" clip-rule="evenodd" d="M50.9654 4.27154L49.7232 9.22707H51.1688C51.4127 9.21882 51.6518 9.15668 51.8688 9.04509C52.0859 8.9335 52.2756 8.77523 52.4242 8.58165C52.8596 8.04343 53.1624 7.4105 53.3084 6.73383C53.718 5.0923 53.4027 4.27154 52.3623 4.27154H50.9654ZM49.237 0.292969H54.1394C55.2004 0.292969 55.9106 0.903017 56.2702 2.12311C56.6227 3.58097 56.5831 5.10617 56.1552 6.54374C55.5481 8.93972 54.4725 10.708 52.9282 11.8485C53.3555 12.3495 53.5426 13.689 53.4896 15.8669C53.4366 18.0448 53.3997 20.1077 53.3791 22.0557H50.3775C50.3775 21.3396 50.4099 19.9736 50.4747 17.9578C50.5396 15.942 50.4836 14.6482 50.3068 14.0765C50.1343 13.5062 49.8647 13.2189 49.5066 13.2189H48.7021L46.4917 22.0602H43.7554L49.237 0.292969Z" fill="black"/>
<path fill-rule="evenodd" clip-rule="evenodd" d="M70.0228 0.283203L59.4133 22.3289H58.2241L58.4496 0.283203H61.4291L61.2036 12.7184L67.0786 0.283203H70.0228Z" fill="black"/>
<path fill-rule="evenodd" clip-rule="evenodd" d="M75.6855 18.0586L74.682 22.0504H66.5923L72.0606 0.283203H80.0443L79.0408 4.27061H73.7935L72.6441 8.83713H77.6483L76.6448 12.8245H71.6407L70.3277 18.0586H75.6855Z" fill="black"/>
<path fill-rule="evenodd" clip-rule="evenodd" d="M86.3971 18.0586L85.3936 22.0504H77.0298L82.5025 0.283203H85.2345L80.7696 18.0586H86.3971Z" fill="black"/>
<path fill-rule="evenodd" clip-rule="evenodd" d="M93.5494 17.8127C94.5883 17.8127 95.5741 17.2026 96.5157 15.9825C97.5565 14.545 98.2921 12.9097 98.6774 11.1773C99.1754 9.17918 99.2609 7.57302 98.9338 6.35882C98.6066 5.14757 97.9259 4.53752 96.887 4.53752C95.8482 4.53752 94.8535 5.14757 93.9119 6.35882C92.8673 7.79956 92.13 9.43967 91.7458 11.1773C91.2507 13.1578 91.1667 14.7595 91.4938 15.9825C91.821 17.2056 92.5062 17.8156 93.5494 17.8127ZM98.0275 0.00195312C99.8989 0.00195312 101.131 1.12185 101.723 3.36163C102.316 5.60142 102.239 8.20665 101.493 11.1773C100.818 14.0215 99.55 16.691 97.7711 19.0107C96.0412 21.2239 94.2568 22.3306 92.4178 22.3306C90.5788 22.3306 89.3425 21.2298 88.7089 19.0284C88.0959 16.8269 88.171 14.2099 88.9343 11.1773C89.613 8.3404 90.8746 5.67574 92.6388 3.35279C94.357 1.12185 96.1547 0.00490021 98.032 0.00195312" fill="black"/>
<path fill-rule="evenodd" clip-rule="evenodd" d="M113.155 15.4108L111.961 20.163C110.229 21.61 108.608 22.332 107.099 22.3291C105.148 22.3291 103.864 21.2622 103.248 19.1285C102.632 16.9948 102.722 14.3646 103.518 11.2377C104.196 8.33693 105.503 5.62051 107.346 3.28056C109.115 1.09677 110.979 0.00486998 112.938 0.00486998C113.641 -0.0307744 114.34 0.129793 114.957 0.468614C115.573 0.807435 116.084 1.31115 116.431 1.92342L115.215 6.78612C114.254 5.31258 113.181 4.5758 111.997 4.5758C110.83 4.5758 109.72 5.19911 108.664 6.43689C107.541 7.82109 106.752 9.44587 106.36 11.1846C105.874 13.115 105.839 14.7094 106.254 15.9678C106.67 17.2262 107.448 17.8539 108.588 17.851C109.197 17.8413 109.795 17.6899 110.335 17.4089C111.333 16.8403 112.28 16.185 113.164 15.4506" fill="black"/>
<path fill-rule="evenodd" clip-rule="evenodd" d="M122.788 18.0586L121.784 22.0504H113.694L119.167 0.283203H127.146L126.143 4.27061H120.896L119.751 8.83713H124.755L123.751 12.8245H118.747L117.434 18.0586H122.788Z" fill="black"/>
<path fill-rule="evenodd" clip-rule="evenodd" d="M64.8285 25.3622C64.2539 24.8185 63.3962 24.5444 62.2425 24.5444C61.1782 24.5202 60.1297 24.8043 59.2232 25.3622C58.4751 25.7736 57.9146 26.4576 57.6583 27.2719C57.5566 27.6133 57.5573 27.977 57.6602 28.318C57.7631 28.659 57.9638 28.9623 58.2374 29.1905C58.8268 29.7298 59.6903 29.9995 60.8279 29.9995C61.8822 30.0209 62.9207 29.7402 63.8206 29.1905C64.5762 28.7794 65.1434 28.0919 65.4032 27.2719C65.499 26.9319 65.4958 26.5716 65.394 26.2334C65.2922 25.8951 65.0961 25.5929 64.8285 25.3622ZM63.6659 27.2719C63.5344 27.7635 63.2175 28.1849 62.7818 28.4478C62.2818 28.752 61.7047 28.9055 61.1196 28.8899C60.6032 28.9316 60.0904 28.7734 59.6873 28.4478C59.5324 28.2996 59.4234 28.1099 59.3732 27.9014C59.3231 27.6929 59.3339 27.4744 59.4044 27.2719C59.5329 26.7789 59.8506 26.3564 60.2885 26.096C60.7902 25.7919 61.3687 25.6385 61.9551 25.654C62.4702 25.6124 62.9815 25.7707 63.383 26.096C63.5374 26.2446 63.6462 26.4343 63.6963 26.6426C63.7464 26.851 63.7359 27.0694 63.6659 27.2719Z" fill="black"/>
<path fill-rule="evenodd" clip-rule="evenodd" d="M71.0307 24.6094L70.7788 25.5863H69.1962L68.0689 29.9274H66.3847L67.5119 25.5863H65.6597L65.9161 24.6094H71.0307Z" fill="black"/>
<path fill-rule="evenodd" clip-rule="evenodd" d="M77.1001 24.6094L76.8481 25.5863H75.2655L74.1383 29.9274H72.454L73.5812 25.5863H71.729L71.981 24.6094H77.1001Z" fill="black"/>
<path fill-rule="evenodd" clip-rule="evenodd" d="M113.69 24.6094L113.438 25.5863H111.855L110.728 29.9274H109.044L110.171 25.5863H108.319L108.571 24.6094H113.69Z" fill="black"/>
<path fill-rule="evenodd" clip-rule="evenodd" d="M84.3589 25.3622C83.7872 24.8199 82.9266 24.5473 81.7773 24.5444C80.7145 24.5206 79.6675 24.8046 78.7624 25.3622C78.0133 25.7734 77.4513 26.4573 77.1931 27.2719C77.0937 27.6138 77.0959 27.9773 77.1995 28.3179C77.3031 28.6586 77.5036 28.9618 77.7766 29.1904C78.366 29.7298 79.228 29.9994 80.3627 29.9994C81.4184 30.0207 82.4582 29.74 83.3599 29.1904C84.1206 28.7834 84.6918 28.0947 84.9513 27.2719C85.0493 26.932 85.0472 26.5711 84.9453 26.2324C84.8434 25.8936 84.6459 25.5915 84.3766 25.3622H84.3589ZM83.183 27.2719C83.0523 27.7639 82.7352 28.1856 82.2989 28.4478C81.7989 28.752 81.2218 28.9055 80.6367 28.8898C80.1191 28.9305 79.6053 28.7724 79.2 28.4478C79.046 28.2989 78.9376 28.1092 78.8875 27.901C78.8374 27.6927 78.8477 27.4745 78.9171 27.2719C79.0465 26.7793 79.364 26.3571 79.8012 26.096C80.3026 25.7912 80.8813 25.6377 81.4678 25.6539C81.9828 25.6129 82.494 25.7711 82.8957 26.096C83.0503 26.2444 83.1588 26.4343 83.2082 26.6429C83.2576 26.8515 83.2458 27.0699 83.1742 27.2719" fill="black"/>
<path fill-rule="evenodd" clip-rule="evenodd" d="M92.188 28.3102L91.8874 29.4684C90.996 29.8132 90.0493 29.993 89.0936 29.9988C87.8912 29.9988 87.007 29.738 86.4412 29.2164C86.1674 28.9867 85.9675 28.6812 85.8669 28.3382C85.7662 27.9953 85.7691 27.6303 85.8754 27.289C86.0023 26.8723 86.2117 26.4854 86.4912 26.1512C86.7707 25.8171 87.1145 25.5425 87.5022 25.3439C88.4593 24.7925 89.5499 24.5157 90.6541 24.5438C91.4557 24.5087 92.2538 24.6696 92.9793 25.0124L92.6743 26.1971C91.9988 25.8432 91.2487 25.6553 90.4861 25.6489C89.8307 25.6306 89.1817 25.783 88.6029 26.091C88.3636 26.2065 88.1511 26.3708 87.979 26.5733C87.8069 26.7758 87.6792 27.0121 87.6038 27.2669C87.5368 27.4759 87.5366 27.7006 87.6032 27.9097C87.6697 28.1188 87.7997 28.3021 87.9752 28.4339C88.4459 28.7631 89.016 28.9192 89.5887 28.876C89.9362 28.8762 90.2829 28.8406 90.6231 28.7699C91.1527 28.638 91.675 28.4787 92.188 28.2925" fill="black"/>
<path fill-rule="evenodd" clip-rule="evenodd" d="M98.3678 28.9549L98.1114 29.9274H93.1294L94.5086 24.6094H99.4288L99.1724 25.5863H95.9409L95.6492 26.7003H98.7348L98.4828 27.6773H95.3972L95.0656 28.9549H98.3678Z" fill="black"/>
<path fill-rule="evenodd" clip-rule="evenodd" d="M107.191 24.6094L105.812 29.9274H104.389L101.98 26.5191L101.095 29.9274H99.4111L100.79 24.6094H102.338L104.663 27.863L105.507 24.6094H107.191Z" fill="black"/>
<path fill-rule="evenodd" clip-rule="evenodd" d="M120.781 25.3623C120.206 24.82 119.344 24.5474 118.195 24.5444C117.13 24.5198 116.082 24.8038 115.175 25.3623C114.426 25.7735 113.864 26.4574 113.606 27.272C113.507 27.6139 113.509 27.9774 113.613 28.318C113.716 28.6587 113.917 28.9619 114.19 29.1905C114.779 29.7298 115.641 29.9995 116.776 29.9995C117.831 30.0208 118.871 29.7401 119.773 29.1905C120.529 28.7808 121.095 28.0925 121.351 27.272C121.449 26.9325 121.447 26.572 121.346 26.2334C121.245 25.8948 121.049 25.5925 120.781 25.3623ZM119.614 27.272C119.485 27.7648 119.167 28.1871 118.73 28.4479C118.23 28.7521 117.653 28.9056 117.068 28.8899C116.551 28.9317 116.038 28.7734 115.635 28.4479C115.48 28.3001 115.37 28.1107 115.319 27.9022C115.268 27.6937 115.278 27.4749 115.348 27.272C115.479 26.7802 115.796 26.3586 116.232 26.0961C116.733 25.7913 117.312 25.6378 117.899 25.654C118.414 25.613 118.925 25.7712 119.326 26.0961C119.481 26.2445 119.59 26.4344 119.639 26.643C119.688 26.8516 119.677 27.07 119.605 27.272" fill="black"/>
<path fill-rule="evenodd" clip-rule="evenodd" d="M12.3512 1.68467L11.2859 5.93732C10.1542 4.64207 9.15955 3.99224 8.2931 3.99224C7.81501 3.98709 7.35253 4.16229 6.99786 4.48293C6.61398 4.82608 6.34665 5.28038 6.23309 5.7826C6.12229 6.16973 6.12229 6.58019 6.23309 6.96733C6.49904 7.53796 6.89953 8.03553 7.40014 8.41729C7.97002 8.90938 8.48439 9.4623 8.93409 10.0662C9.34078 10.7169 9.5877 11.4546 9.65466 12.219C9.7501 13.3993 9.63027 14.5871 9.30101 15.7246C8.91726 17.4991 8.10361 19.1522 6.93155 20.5387C5.86175 21.7175 4.69471 22.3069 3.43041 22.3069C2.06885 22.3069 0.925385 21.6055 0 20.2027L1.18031 15.5124C1.54074 16.2963 2.02262 17.0184 2.60817 17.652C2.82078 17.8681 3.07487 18.039 3.35518 18.1545C3.63549 18.27 3.93624 18.3276 4.23938 18.3239C5.31507 18.3239 6.01942 17.6535 6.35245 16.3125C6.46745 15.89 6.46745 15.4443 6.35245 15.0217C6.0981 14.4317 5.69059 13.9204 5.17214 13.5408C4.59691 13.0645 4.08048 12.5214 3.63376 11.9229C3.23018 11.2785 2.98899 10.5458 2.93088 9.78769C2.83959 8.59638 2.96388 7.39838 3.29779 6.25118C3.67318 4.58121 4.45693 3.03042 5.57884 1.73772C6.628 0.588354 7.78915 0.0136719 9.06229 0.0136719C10.2411 0.0136719 11.3374 0.575092 12.3512 1.69793" fill="black"/>
<path fill-rule="evenodd" clip-rule="evenodd" d="M23.1112 0.283203H25.8475L22.7531 12.6389C21.9456 15.8188 20.8611 18.2265 19.4995 19.8622C18.1379 21.4978 16.5789 22.3186 14.8225 22.3245C14.0504 22.3756 13.2849 22.154 12.6596 21.6983C12.0342 21.2426 11.5888 20.5818 11.4009 19.8312C10.8557 18.1691 10.975 15.7805 11.759 12.6654L14.8534 0.287624H17.5986L14.4688 12.7892C14.0886 14.3069 14.0326 15.5226 14.3008 16.4362C14.5749 17.3513 15.1142 17.8066 15.9276 17.8066C16.741 17.8066 17.5588 17.338 18.3015 16.4052C19.1596 15.2156 19.7617 13.8608 20.0698 12.4267L23.1112 0.283203Z" fill="black"/>
</svg>
