<svg width="384" height="23" viewBox="0 0 384 23" fill="none" xmlns="http://www.w3.org/2000/svg">
<path fill-rule="evenodd" clip-rule="evenodd" d="M325.853 20.7976C325.891 20.7976 326.046 20.7976 326.007 20.9136C325.969 21.0295 325.196 21.8798 324.809 22.073C324.423 22.2663 324.075 22.2276 323.34 22.2276H313.021C312.867 22.4982 312.944 22.9619 313.601 22.9619H326.819C327.824 22.9619 329.215 22.8074 330.027 21.7638L330.413 21.2614C330.838 20.7203 330.491 20.3338 330.027 20.3338H319.205C319.166 20.3338 319.128 20.3338 319.128 20.2565C319.128 20.2179 319.128 20.1792 319.205 20.1792C319.514 19.7155 319.901 19.329 320.365 19.0198C320.828 18.8652 321.331 18.8265 321.833 18.8652H332.655C332.809 18.5946 332.693 18.1309 332.075 18.1309H318.355C317.35 18.1309 315.959 18.2855 315.147 19.329L314.761 19.7928C314.181 20.5657 314.876 20.759 315.379 20.7976H325.853Z" fill="black"/>
<path fill-rule="evenodd" clip-rule="evenodd" d="M296.209 18.1309C295.204 18.1309 293.813 18.2855 293.001 19.329L292.422 20.0633L291.996 20.643L291.494 21.2614L290.798 22.1117C290.566 22.3822 290.605 22.9619 291.339 22.9619H304.751C305.755 22.9619 307.147 22.8074 307.92 21.7638L308.499 21.0295L308.963 20.4498L309.427 19.8314L310.161 18.9811C310.355 18.7106 310.316 18.1309 309.582 18.1309H305.91L305.253 18.9425L304.635 19.7541L303.978 20.6044L303.321 21.416C302.895 21.9571 302.509 22.2276 301.504 22.2276H295.784C295.707 22.2276 295.707 22.1117 295.745 22.073L296.518 21.1068C296.75 20.759 297.059 20.4498 297.291 20.1019L298.064 19.1357L298.876 18.1309H296.209Z" fill="black"/>
<path fill-rule="evenodd" clip-rule="evenodd" d="M273.87 18.1309C272.865 18.1309 271.474 18.2855 270.662 19.329L270.082 20.0633L269.619 20.643L269.155 21.2614L268.459 22.1117C268.266 22.4209 268.305 22.9619 269 22.9619H286.817C287.281 23.0392 287.706 22.7301 287.822 22.2663H273.484C273.329 22.2663 273.329 22.189 273.368 22.1117L274.914 20.1406L276.498 18.1695H273.87" fill="black"/>
<path fill-rule="evenodd" clip-rule="evenodd" d="M348.578 20.7976C348.617 20.7976 348.771 20.7976 348.694 20.9136C348.385 21.3773 347.998 21.7638 347.534 22.073C347.032 22.2276 346.53 22.2663 346.027 22.2276H335.708C335.553 22.4982 335.669 22.9619 336.326 22.9619H349.544C350.51 22.9619 351.94 22.8074 352.713 21.7638C352.868 21.6092 352.984 21.4546 353.1 21.2614C353.564 20.7203 353.216 20.3338 352.752 20.3338H341.892C341.814 20.3338 341.776 20.2565 341.814 20.1792C342.124 19.7155 342.51 19.329 342.974 19.0198C343.322 18.8652 343.747 18.8652 344.52 18.8652H355.342C355.496 18.5946 355.38 18.1309 354.723 18.1309H341.003C339.998 18.1309 338.607 18.2855 337.795 19.329L337.409 19.7928C336.829 20.5657 337.524 20.759 338.027 20.7976H348.578Z" fill="black"/>
<path fill-rule="evenodd" clip-rule="evenodd" d="M365.892 19.6768C366.318 19.1357 366.704 18.8652 367.709 18.8652H373.197C373.274 18.8652 373.274 18.9811 373.236 19.0198C372.888 19.4063 372.579 19.7928 372.308 20.2179C371.999 20.6044 371.651 20.9909 371.342 21.416C371.033 21.8411 370.453 22.2276 369.448 22.2276H364.076C363.999 22.2276 363.999 22.1117 364.037 22.073L364.965 20.8749L365.892 19.6768ZM364.424 18.1309C363.458 18.1309 362.066 18.2855 361.293 19.329L360.714 20.0633L360.25 20.643L359.786 21.2614L359.129 22.1117C358.897 22.3822 358.936 22.9619 359.67 22.9619H372.811C373.815 22.9619 375.207 22.8074 375.98 21.7638L376.559 21.0295L376.985 20.4498L377.487 19.8314L378.144 18.9811C378.376 18.7106 378.337 18.1309 377.603 18.1309H364.424Z" fill="black"/>
<path fill-rule="evenodd" clip-rule="evenodd" d="M255.783 21.4145C255.357 21.9942 254.932 22.2647 253.58 22.2647H246.855C246.739 22.2647 246.739 22.1488 246.777 22.1488L248.555 19.7912C249.019 19.1728 249.405 18.9023 250.758 18.9023H257.483C257.522 18.8636 257.56 18.9023 257.599 18.9409C257.638 18.9796 257.599 19.0182 257.56 19.0569L255.783 21.4145ZM246.352 18.168C245.077 18.168 243.338 18.3612 242.565 19.3661L240.439 22.1874C240.207 22.458 240.4 22.9991 241.328 22.9991H257.986C259.261 22.9991 261.039 22.8445 261.812 21.8009L263.937 19.0182C264.131 18.7477 263.937 18.168 263.01 18.168H246.352Z" fill="black"/>
<path fill-rule="evenodd" clip-rule="evenodd" d="M232.864 21.4145C232.439 21.9942 232.014 22.2647 230.7 22.2647H223.975C223.859 22.2647 223.859 22.1488 223.897 22.1488L225.675 19.7912C226.1 19.1728 226.526 18.9023 227.878 18.9023H234.603C234.642 18.8636 234.68 18.9023 234.719 18.9409C234.758 18.9796 234.719 19.0182 234.68 19.0569L232.864 21.4145ZM223.472 18.168C222.197 18.168 220.458 18.3612 219.646 19.3661L217.52 22.1874C217.327 22.458 217.52 22.9991 218.448 22.9991H235.106C236.381 22.9991 238.12 22.8445 238.893 21.8009L241.019 19.0182C241.251 18.7477 241.057 18.168 240.13 18.168H223.472Z" fill="black"/>
<path fill-rule="evenodd" clip-rule="evenodd" d="M202.602 20.3709C202.486 20.3709 202.447 20.2936 202.486 20.255C203.181 19.3274 203.375 18.9023 205.075 18.9023H211.723C211.8 18.9023 211.8 19.0182 211.8 19.0569L210.911 20.2163C210.834 20.3323 210.679 20.3709 210.563 20.3709H202.602ZM202.254 20.8347H210.254C210.331 20.8347 210.37 20.912 210.331 20.9893C209.636 21.9169 209.481 22.2647 207.78 22.2647H201.133C201.056 22.2647 201.017 22.1488 201.056 22.1488L201.945 20.9893C202.022 20.8734 202.138 20.8347 202.254 20.8347ZM200.669 18.168C199.394 18.168 197.616 18.3612 196.843 19.3661L196.263 20.1391C196.147 20.2936 196.263 20.5642 196.766 20.5642C196.263 20.5642 195.761 20.7961 195.452 21.2212L194.717 22.1874C194.524 22.458 194.717 22.9991 195.645 22.9991H212.186C213.462 22.9991 215.24 22.8445 216.013 21.8009L216.592 21.0666C216.67 20.912 216.592 20.6028 216.09 20.6028C216.592 20.6028 216.94 20.5642 217.211 20.2163L218.138 19.0182C218.332 18.7477 218.138 18.168 217.211 18.168H200.669Z" fill="black"/>
<path fill-rule="evenodd" clip-rule="evenodd" d="M317.698 12.565C316.422 13.5699 314.799 13.7631 313.099 13.7631H233.598L232.323 13.6858C230.893 13.5699 229.463 13.1447 228.767 11.792C228.071 10.4393 228.303 9.55042 228.883 8.5069L228.96 8.4296C228.96 8.39095 228.96 8.35231 228.999 8.35231L222.777 11.3283L218.023 13.5699L217.714 13.7245L217.404 13.8018H210.448C208.67 13.7631 207.008 12.9129 205.964 11.4829C205.578 10.9418 205.191 10.4393 204.766 9.9369L203.607 8.39095C203.027 7.57933 202.409 6.80636 201.829 6.03338L200.167 3.71446L198.312 1.125C198.157 0.893104 198.119 0.622564 198.273 0.390671C198.389 0.158779 198.621 0.00418419 198.892 0.00418419H208.167C210.216 0.0428329 212.148 1.00905 213.385 2.67094L215.163 5.10581L215.472 5.53095C215.704 5.80149 216.052 5.87879 216.361 5.76284L220.728 3.71446L227.453 0.622564C228.381 0.197428 229.385 0.00418419 230.429 0.00418419H243.492C243.879 -0.0344645 244.227 0.197428 244.304 0.583915C244.342 0.931753 244.149 1.24094 243.801 1.35689H243.763C243.454 1.47284 243.299 1.82067 243.376 2.12986C243.415 2.4777 243.724 2.70959 244.072 2.70959H259.338C260.923 2.70959 262.971 2.98013 264.285 3.94635C264.594 4.17824 264.981 4.1396 265.251 3.86905C266.024 3.09608 267.107 2.67094 268.189 2.70959H277.348C277.619 2.70959 277.851 2.86419 278.005 3.09608C278.121 3.36662 278.083 3.67581 277.89 3.86905L275.88 6.38122C275.725 6.57446 275.687 6.88365 275.803 7.11555C275.918 7.34744 276.15 7.54068 276.421 7.50203H287.9C288.131 7.50203 288.325 7.42474 288.479 7.23149L289.175 6.34257L290.412 4.83527C291.803 3.01878 293.851 2.70959 295.977 2.70959H316.732L318.046 2.78689C319.128 2.82554 320.133 3.21203 320.983 3.86905C321.253 4.10095 321.64 4.1396 321.91 3.9077C323.186 2.90284 324.848 2.70959 326.548 2.70959H346.027L347.341 2.78689C348.269 2.82554 349.158 3.13473 349.931 3.63716C350.163 3.79176 350.51 3.79176 350.742 3.63716C351.979 2.86419 353.448 2.74824 354.955 2.74824H377.023C379.381 2.74824 382.859 3.36662 383.362 6.18798C383.864 9.00933 382.318 10.1301 380.27 11.5988C378.222 13.0674 374.859 13.8018 372.27 13.8018H351.283L350.008 13.7245C349.042 13.6858 348.153 13.3766 347.341 12.8742C347.109 12.7196 346.8 12.7196 346.568 12.8742C345.37 13.6085 343.863 13.7631 342.356 13.7631H321.524C320.48 13.6472 319.398 13.3766 318.625 12.6423C318.355 12.4104 317.968 12.4104 317.698 12.565ZM127.16 13.6858C126.619 13.7631 126.039 13.7631 125.498 13.7631H101.845C100.763 13.6472 99.6417 13.338 98.8687 12.6037C98.7141 12.4491 98.5209 12.3718 98.3277 12.3718C98.1344 12.3718 97.9412 12.4877 97.8252 12.6423L97.632 12.9129L97.1295 13.5312C97.0136 13.7245 96.8204 13.8404 96.5885 13.8404H79.0033L78.7328 13.7631L73.6698 12.1012L68.6455 10.478H68.5682C68.5295 10.478 68.5295 10.478 68.5295 10.4393H68.4522L68.0657 10.2461L67.7179 10.7099L65.94 12.9901L65.4376 13.6085C65.3217 13.8018 65.1284 13.8791 64.8965 13.8791H28.6054C27.214 13.7631 25.8227 13.2993 25.0884 12.0239C24.8565 11.6374 24.7405 11.2123 24.7019 10.7872C24.7019 10.478 24.47 10.2461 24.1994 10.1688C23.9289 10.0915 23.6197 10.1688 23.4651 10.4393C22.7694 11.2896 22.0738 12.1399 21.4167 13.0288L20.9143 13.6472C20.7984 13.8404 20.5665 13.9564 20.3346 13.9564H6.18914C5.9186 13.9564 5.64806 13.8018 5.53212 13.5312C5.41617 13.2993 5.45482 13.0288 5.60941 12.7969L7.73509 9.97555L9.82212 7.30879C10.0154 7.11555 10.054 6.80636 9.89942 6.57446C9.78347 6.30392 9.55158 6.14933 9.28104 6.14933H0.701027C0.430486 6.14933 0.198594 6.03338 0.0826479 5.80149C-0.0332982 5.5696 -0.0332982 5.29906 0.121297 5.06716L1.78319 2.51635C2.01508 2.12986 2.28562 1.74338 2.59481 1.35689C3.32914 0.467969 4.44995 -0.0344645 5.60941 0.00418419H42.9441C43.2146 0.00418419 43.4851 0.158779 43.6011 0.42932C43.717 0.661212 43.6784 0.970402 43.4851 1.16365C42.0551 2.82554 41.1662 4.33284 39.5043 6.38122C39.3111 6.61311 39.2724 6.9223 39.427 7.15419C39.543 7.38609 39.7749 7.54068 40.0454 7.54068H46.4997C46.7316 7.54068 46.9249 7.42474 47.0408 7.27014L47.8911 6.22663L49.437 4.25554C50.2873 3.25068 51.5241 2.67094 52.8381 2.70959H85.8441C86.4625 2.70959 87.0809 2.70959 87.6993 2.78689C88.8201 2.94149 89.9409 3.32797 90.6366 4.17824C90.7912 4.37149 90.9844 4.44879 91.2163 4.44879C91.4095 4.44879 91.6028 4.37149 91.7574 4.21689C92.569 3.21203 93.8058 2.67094 95.0812 2.74824H105.594L106.908 2.67094H129.324L130.561 2.74824C131.72 2.82554 132.88 3.13473 133.653 3.94635C133.769 4.0623 133.962 4.1396 134.155 4.1396C134.348 4.1396 134.542 4.0623 134.696 3.94635C135.508 3.13473 136.59 2.70959 137.749 2.70959H145.518C145.75 2.70959 145.943 2.78689 146.059 2.98013L146.561 3.59851C147.218 4.41014 147.875 5.18311 148.494 5.99473L148.957 6.57446C149.151 6.84501 149.499 6.9223 149.808 6.76771L152.977 5.37635L158.233 3.09608C158.89 2.86419 159.586 2.70959 160.282 2.74824H172.842L174.156 2.67094H194.988L196.302 2.74824C197.693 2.86419 199.123 3.32797 199.819 4.64203C200.515 5.95609 200.09 7.50203 199.162 8.66149L198.003 10.0915L196.843 11.5988C195.452 13.4153 193.403 13.7245 191.278 13.7245H169.055C167.973 13.6858 166.929 13.2607 166.117 12.565C165.963 12.4491 165.77 12.3718 165.576 12.3718C165.383 12.3718 165.19 12.4877 165.074 12.681C164.997 12.7196 164.958 12.7969 164.919 12.8356L164.417 13.4926C164.301 13.6858 164.108 13.8018 163.876 13.8018H154.136C153.866 13.8018 153.634 13.6472 153.518 13.3766C153.402 13.1447 153.402 12.8742 153.557 12.6423L153.905 12.2172L150.697 13.6085L150.387 13.7245L150.117 13.8018H144.783C144.59 13.8018 144.358 13.6858 144.242 13.5312L143.74 12.9901L141.807 10.7485C141.576 10.4393 141.112 10.4007 140.841 10.6326C140.803 10.6712 140.764 10.7099 140.725 10.7485L139.102 12.8742L138.6 13.4926C138.484 13.6858 138.252 13.8018 138.02 13.8018H127.044L127.16 13.6858Z" fill="#F0F0F0"/>
<path fill-rule="evenodd" clip-rule="evenodd" d="M177.48 7.77242L176.707 8.73864H187.954C188.186 8.3908 188.456 8.08161 188.727 7.77242H177.48ZM298.567 8.73864H309.813L310.509 7.77242H299.301C299.069 8.08161 298.798 8.3908 298.567 8.73864ZM102.231 5.56945C103.391 4.06215 105.13 3.90755 106.908 3.90755H130.483C131.449 3.98485 132.609 4.25539 133.111 5.18296C133.498 5.95593 133.382 6.84485 132.879 7.50188L132.532 8.04296H131.256C131.449 8.81594 131.102 9.58891 130.638 10.2073L130.135 10.8643C128.976 12.3716 127.237 12.5649 125.498 12.5649H103.159L101.961 12.4876C100.994 12.4103 99.8735 12.1397 99.3711 11.2508C98.8686 10.3619 99.1778 9.62756 99.603 8.89324L99.9508 8.35215H101.072C100.917 7.65648 101.11 6.9608 101.535 6.41972V6.34242H101.574L102.231 5.56945ZM169.518 5.56945C170.639 4.06215 172.417 3.90755 174.156 3.90755H196.186C197.191 4.0235 198.312 4.25539 198.814 5.18296C199.317 6.11053 198.853 7.15404 198.234 7.92702L197.075 9.39567L195.916 10.8643C194.795 12.3716 193.017 12.5649 191.278 12.5649H170.369L169.171 12.4876C168.204 12.4103 167.084 12.1397 166.581 11.2122C166.079 10.2846 166.465 9.27972 167.084 8.5454L168.243 7.0381C168.63 6.57431 169.093 6.11053 169.518 5.56945ZM157.537 9.35702L155.953 10.0527L150.233 12.5262L150.001 12.6035H144.977L144.629 12.217C143.933 11.444 143.276 10.6324 142.58 9.8208L141.228 8.19756L139.991 9.74351L138.136 12.1397L137.788 12.6035H129.44L130.908 10.7097C131.604 9.74351 132.377 8.81594 133.073 7.88837C133.768 6.9608 134.58 5.99458 135.353 5.02836C135.933 4.29404 136.822 3.8689 137.749 3.90755H145.286L145.634 4.37134C146.291 5.18296 146.948 5.95593 147.566 6.76756L148.957 8.4681L153.441 6.45837L158.697 4.17809C159.199 3.98485 159.74 3.90755 160.281 3.90755H170.446L168.939 5.83999C168.127 6.8835 167.238 7.88837 166.465 8.97053C165.692 10.0527 164.803 11.0576 163.992 12.1397L163.644 12.6035H155.064L156.494 10.7097L157.537 9.35702ZM348.655 7.77242H329.872C329.601 8.08161 329.331 8.3908 329.099 8.73864H347.882L348.346 8.12026L348.655 7.77242ZM263.473 8.04296H256.71L256.401 7.77242C256.13 7.57918 255.319 7.54053 255.009 7.54053H254.546C254.623 7.88837 254.584 8.23621 254.391 8.50675C254.391 8.58405 254.352 8.62269 254.314 8.66134L254.584 8.58405L254.778 8.50675H263.087L263.473 8.04296ZM233.134 5.10566L229.463 6.84485L222.274 10.2846L217.52 12.4876L217.288 12.6035H210.447C209.056 12.5649 207.742 11.8692 206.892 10.7484L205.732 9.20243L204.573 7.65648C203.954 6.8835 203.336 6.14918 202.795 5.33755L201.133 3.05728L199.78 1.20214H208.167C209.868 1.20214 211.452 2.01377 212.419 3.40512L214.235 5.80134C214.622 6.38107 215.047 6.92215 215.472 7.46323L221.23 4.79647L227.917 1.70458C228.69 1.35674 229.579 1.16349 230.429 1.20214H241.405L236.651 3.44377L235.337 4.06215C235.994 3.9462 236.651 3.90755 237.308 3.90755H259.338C261.039 3.90755 264.131 4.29404 264.517 6.38107C264.517 6.49702 264.556 6.57431 264.556 6.69026L265.87 4.98972C266.411 4.29404 267.3 3.8689 268.189 3.90755H276.382L274.836 5.83999C274.179 6.61296 273.561 7.42458 272.942 8.23621C272.788 8.3908 272.672 8.5454 272.556 8.73864H288.711V8.93188L288.943 8.58405L290.102 7.07675C290.489 6.57431 290.914 6.07188 291.339 5.6081C292.46 4.06215 294.238 3.90755 295.977 3.90755H317.93C318.934 3.98485 320.094 4.25539 320.596 5.22161C320.944 5.91728 320.867 6.72891 320.442 7.34729L320.674 7.0381C321.06 6.53566 321.485 6.07188 321.91 5.56945C323.031 4.0235 324.809 3.8689 326.548 3.8689H347.225C348.23 3.98485 349.351 4.21674 349.853 5.14431C349.969 5.3762 350.047 5.6081 350.085 5.87864C350.24 5.6081 350.433 5.3762 350.626 5.14431H350.742C351.902 4.0235 353.448 3.90755 354.955 3.90755H377.023C378.724 3.90755 381.816 4.29404 382.202 6.38107C382.241 6.61296 382.241 6.80621 382.202 7.0381L382.048 8.04296H374.434L374.125 7.81107C373.854 7.57918 373.043 7.54053 372.695 7.54053H372.231C372.308 7.92702 372.231 8.3135 371.999 8.62269H371.96C372.076 8.58405 372.192 8.5454 372.308 8.50675H382.589L379.613 10.6324C377.719 11.9851 374.589 12.6035 372.27 12.6035H350.085C349.119 12.5262 347.96 12.2557 347.457 11.3281C347.341 11.0962 347.264 10.8643 347.225 10.6324L347.148 10.7484H347.071L346.993 10.8257C345.873 12.3716 344.095 12.5649 342.355 12.5649H322.877L321.64 12.4876C320.674 12.4103 319.553 12.1397 319.05 11.2122C318.548 10.2846 318.857 9.55026 319.282 8.85459L318.896 9.35702L317.736 10.8643C316.577 12.3716 314.838 12.5649 313.098 12.5649H259.879L260.961 11.1735C259.068 12.1397 256.517 12.5649 254.546 12.5649H232.4C231.434 12.4876 230.313 12.217 229.772 11.2895C229.231 10.3619 229.54 9.8208 229.926 9.12513V9.04783H229.965L230.661 8.15891C230.931 7.81107 231.279 7.50188 231.627 7.26999C231.782 6.84485 232.013 6.41972 232.323 6.07188L232.98 5.26026H233.057C233.096 5.10566 233.096 5.10566 233.134 5.10566ZM36.6829 8.00432L36.1418 8.73864H47.3886L48.8186 6.9608L50.3645 4.98972C50.9829 4.25539 51.8718 3.8689 52.838 3.90755H60.9156L59.4083 5.83999C58.7126 6.65161 58.017 7.50188 57.3599 8.35215C56.7029 9.20243 56.0072 10.014 55.3888 10.903C54.2294 12.4103 52.4515 12.6035 50.7123 12.6035H29.8807L28.7212 12.5262C27.755 12.4489 26.6342 12.217 26.1318 11.2895C25.6293 10.3619 26.0545 9.31837 26.6342 8.5454L27.9869 6.80621L29.4169 4.98972H27.9869C26.9047 4.98972 25.9385 5.26026 25.2429 6.11053L22.8466 9.12513L20.4504 12.1397L20.1026 12.6035H7.15526L8.66256 10.7097L11.6772 6.8835L13.1845 4.98972H1.58984L2.74931 3.17323C2.9812 2.78674 3.25174 2.4389 3.52228 2.12971C4.02471 1.51133 4.79769 1.16349 5.60931 1.20214H41.9004L36.6829 8.00432ZM88.2016 10.6324C88.9359 9.70486 89.6316 8.77729 90.3659 7.88837C91.1003 6.99945 91.8732 5.95593 92.6462 4.98972C93.2646 4.29404 94.1535 3.8689 95.0811 3.90755H103.197L101.69 5.83999C100.84 6.8835 99.9894 7.88837 99.1778 8.97053C98.3662 10.0527 97.5159 11.0576 96.7043 12.1397L96.3565 12.6035H79.1191L74.0175 10.9416L68.9932 9.31837H68.9159C68.4908 9.12513 68.1816 8.73864 68.1043 8.27486C67.6405 8.81594 67.2153 9.39567 66.7902 9.93675L65.0124 12.217L64.6645 12.6808H54.384L55.814 10.787C56.5483 9.8208 57.3599 8.89324 58.0943 7.92702C58.8286 6.9608 59.6015 5.99458 60.3745 5.02836C60.9156 4.33269 61.7659 3.9462 62.6548 3.98485H85.844C86.4238 3.98485 86.9648 3.98485 87.5446 4.06215C88.4721 4.17809 89.477 4.48728 89.9408 5.3762C90.4046 6.26512 90.0181 7.23134 89.4383 7.96567H89.3997L88.7427 8.77729C88.2016 9.47297 87.4286 9.8981 86.5783 10.0527L87.4286 10.3619L88.2016 10.6324Z" fill="black"/>
<path fill-rule="evenodd" clip-rule="evenodd" d="M89.0902 11.4438H95.7378C96.5494 10.3616 97.4384 9.31807 98.25 8.27456C99.0616 7.23104 99.9119 6.14888 100.762 5.10536H95.0808C94.5011 5.06671 93.9213 5.29861 93.5735 5.76239L91.2932 8.58375L89.0902 11.4438ZM58.4805 5.06671H52.8378C52.258 5.02807 51.6783 5.25996 51.2918 5.72374L49.7459 7.69483L48.1999 9.62726C47.968 9.85915 47.6202 9.93645 47.311 9.8978H34.3637C34.0545 9.8978 33.8226 9.78186 34.0158 9.51132L35.755 7.30834L37.5329 5.06671H31.8515C31.2718 5.02807 30.7307 5.29861 30.3442 5.72374L28.9142 7.50158L27.5615 9.27942C25.9769 11.3278 28.5277 11.4051 29.8804 11.4051H50.7121C51.7942 11.4051 53.4948 11.4438 54.4224 10.1683L56.4321 7.61753L58.4805 5.06671ZM109.535 7.50158C108.724 7.50158 109.304 6.9605 109.419 6.8832C109.651 6.65131 109.999 6.53537 110.308 6.57401H124.84C125.111 6.57401 125.343 6.68996 125.265 6.92185H131.874C132.995 5.18266 130.638 5.06671 129.324 5.06671H106.907C105.786 5.06671 104.086 5.06671 103.158 6.30347L102.501 7.1151C101.303 8.89294 103.738 9.00888 105.052 9.00888H122.831C123.488 9.00888 123.062 9.47267 122.985 9.62726H123.024C122.753 9.85915 122.444 9.93645 122.096 9.8978H107.642C107.371 9.8978 107.139 9.78186 107.294 9.58861H100.608C99.4867 11.3278 101.883 11.4051 103.158 11.4051H125.497C126.541 11.4051 128.241 11.4438 129.208 10.1683C129.362 9.93645 129.517 9.74321 129.71 9.54996C131.101 7.65618 128.821 7.50158 127.237 7.50158H109.535ZM176.668 6.8832C176.9 6.65131 177.248 6.53537 177.557 6.57401H190.543C190.814 6.57401 191.046 6.72861 190.852 6.9605L189.809 8.31321C189.422 8.73834 189.074 9.16348 188.727 9.62726C188.495 9.85915 188.147 9.93645 187.838 9.8978H174.89C174.62 9.8978 174.349 9.78186 174.581 9.51132L175.625 8.19726L176.668 6.8832ZM168.011 9.27942C166.426 11.2892 169.016 11.4051 170.368 11.4051H191.277C192.321 11.4051 194.06 11.4438 194.988 10.1683L196.147 8.69969C196.495 8.19726 196.92 7.73348 197.345 7.23104C198.93 5.18266 196.34 5.06671 194.988 5.06671H174.156C173.113 5.06671 171.373 5.06671 170.446 6.30347C170.021 6.80591 169.557 7.30834 169.17 7.81077L168.011 9.27942ZM39.3107 2.36131H5.60904C5.14526 2.32266 4.72012 2.5159 4.44958 2.86374C4.17904 3.17293 3.94715 3.48212 3.75391 3.79131H15.6577L12.6045 7.61753L9.58986 11.4438H19.5226L21.9188 8.3905C22.6918 7.38564 23.542 6.38077 24.3537 5.3759C25.1653 4.37104 26.402 3.79131 27.9866 3.79131H38.1513L39.3107 2.36131ZM210.447 11.4438H217.017C218.563 10.6708 220.148 9.93645 221.771 9.20213L228.921 5.80104L236.149 2.36131H230.429C229.733 2.32266 229.037 2.47725 228.419 2.78644L221.733 5.83969L215.124 8.93159C214.505 8.11996 213.848 7.30834 213.269 6.49672L211.491 4.1005C210.718 3.01833 209.481 2.39995 208.167 2.36131H202.099L203.761 4.64158C204.302 5.41455 204.92 6.18753 205.5 6.9605L206.66 8.50645L207.819 10.0524C208.437 10.9027 209.404 11.4051 210.447 11.4438ZM298.528 6.8832C298.759 6.65131 299.069 6.53537 299.417 6.57401H312.286C312.596 6.57401 312.866 6.72861 312.634 6.9605L311.591 8.31321L310.586 9.62726C310.315 9.85915 310.006 9.93645 309.658 9.8978H296.75C296.479 9.8978 296.209 9.78186 296.441 9.51132L297.484 8.19726L298.528 6.8832ZM289.909 9.27942C288.324 11.2892 290.914 11.4051 292.305 11.4051H313.098C314.142 11.4051 315.842 11.4438 316.808 10.1683C317.156 9.66591 317.581 9.20213 317.929 8.69969L319.127 7.23104C320.712 5.18266 318.122 5.06671 316.731 5.06671H295.977C294.933 5.06671 293.194 5.06671 292.266 6.30347L291.03 7.81077C290.682 8.27456 290.257 8.77699 289.909 9.27942ZM168.011 5.10536C167.161 6.14888 166.31 7.19239 165.499 8.27456C164.687 9.35672 163.837 10.3616 163.025 11.4438H157.421C158.04 10.5935 158.697 9.78186 159.315 8.97023L161.247 6.49672L155.489 8.97023L149.769 11.4438H145.517L143.508 9.08618C142.812 8.27456 142.194 7.50158 141.498 6.72861C141.459 6.65131 141.343 6.57401 141.227 6.57401C141.15 6.53537 141.034 6.57401 140.995 6.65131C140.338 7.42429 139.681 8.23591 139.063 9.04753L137.208 11.4438H131.836C132.531 10.4775 133.304 9.54996 134.039 8.58375C134.773 7.61753 135.507 6.68996 136.28 5.76239C136.628 5.33726 137.169 5.06671 137.749 5.06671H144.706C145.363 5.87834 146.02 6.65131 146.638 7.46293L148.648 9.85915L153.904 7.54023L159.16 5.25996C159.508 5.14401 159.895 5.10536 160.281 5.10536H168.011ZM56.7799 11.4051H64.0845L65.8624 9.12483L67.6402 6.84456C67.8721 6.57401 67.9881 6.45807 68.6451 6.45807H80.5489C80.974 6.45807 81.1286 6.61266 81.0127 6.84456L80.5489 7.42429C80.1624 7.92672 79.5827 7.92672 78.887 7.92672H69.3408L69.2635 8.00402C69.2635 8.08131 69.3408 8.11996 69.3794 8.15861L74.4037 9.78186L79.4667 11.4438H87.0032L81.09 9.20213C81.0127 9.16348 80.974 9.12483 80.974 9.04753C80.974 8.97023 81.0127 8.97023 81.0513 8.97023H83.6794C85.7278 8.93159 87.0032 9.04753 87.8148 8.04266C88.0081 7.73348 88.2786 7.46293 88.5105 7.15374C90.2497 4.98942 86.6167 5.10536 85.8438 5.10536H62.6545C62.1521 5.06671 61.6497 5.29861 61.3018 5.68509C60.5289 6.65131 59.7559 7.57888 59.0216 8.5451L56.7799 11.4051ZM262.275 11.4051H288.402C287.667 11.0573 287.629 10.3616 287.59 9.8978H270.159L272.015 7.50158C272.594 6.68996 273.251 5.91699 273.908 5.10536H268.188C267.686 5.06671 267.145 5.25996 266.836 5.68509C266.063 6.65131 265.328 7.61753 264.555 8.5451C263.782 9.47267 263.048 10.4775 262.275 11.4051ZM351.283 11.4438H372.269C374.82 11.4438 377.487 10.6708 378.917 9.66591H372.694C371.806 9.9751 370.839 10.1683 369.873 10.1683H355.534C355.225 10.1683 354.993 10.0137 355.187 9.78186L355.882 8.89294H369.409C370.028 8.89294 370.414 8.77699 370.685 8.42915L371.071 7.88807V7.77212H356.81L357.66 6.68996C357.931 6.45807 358.24 6.38077 358.588 6.41942H372.694C373.661 6.41942 374.434 6.57401 374.82 6.8832H381.043C381.197 5.87834 379.574 5.14401 377.023 5.14401H354.955C353.988 5.14401 352.481 5.10536 351.554 6.03293C351.322 6.26482 351.128 6.53537 350.935 6.80591C350.549 7.30834 350.394 7.73348 350.471 8.00402C350.008 8.19726 349.583 8.50645 349.273 8.89294L348.616 9.70456C347.727 11.3278 350.008 11.4438 351.283 11.4438ZM233.598 11.4438H254.545C257.096 11.4438 259.84 10.6708 261.193 9.66591H254.97C254.082 10.0137 253.115 10.1683 252.149 10.1683H237.888C237.579 10.1683 237.347 10.0137 237.54 9.78186L238.236 8.89294H251.724C252.188 8.93159 252.69 8.77699 252.999 8.42915L253.386 7.88807C253.425 7.88807 253.386 7.84942 253.347 7.77212H239.163L239.975 6.68996C240.207 6.49672 240.555 6.38077 240.864 6.41942H255.009C255.975 6.41942 256.787 6.57401 257.135 6.8832H263.357C263.512 5.87834 261.889 5.14401 259.338 5.14401H237.308C236.342 5.14401 234.873 5.10536 233.907 6.03293C233.675 6.26482 233.482 6.53537 233.289 6.80591C232.863 7.30834 232.709 7.73348 232.747 8.00402C232.284 8.19726 231.897 8.50645 231.627 8.89294L230.931 9.74321C230.042 11.3278 232.322 11.4438 233.598 11.4438ZM320.48 9.27942C318.895 11.2892 321.485 11.4051 322.876 11.4051H342.355C343.437 11.4051 345.138 11.4438 346.065 10.1683L346.259 9.8978H327.321C327.05 9.8978 326.78 9.78186 326.973 9.51132L327.978 8.19726C328.326 7.77212 328.674 7.30834 329.06 6.8832C329.292 6.65131 329.64 6.53537 329.949 6.57401H348.81C349.389 5.18266 347.225 5.06671 346.027 5.06671H326.548C325.466 5.06671 323.727 5.06671 322.838 6.30347L321.601 7.81077C321.253 8.27456 320.828 8.77699 320.48 9.27942Z" fill="#F0F0F0"/>
</svg>
