<svg width="304" height="30" viewBox="0 0 304 30" fill="none" xmlns="http://www.w3.org/2000/svg">
<path d="M90.9779 29.9994H48.8659C48.7926 30.0022 48.7198 29.9852 48.6553 29.9502C48.5908 29.9152 48.5369 29.8634 48.4994 29.8004C48.4608 29.7335 48.4404 29.6576 48.4404 29.5804C48.4404 29.5032 48.4608 29.4274 48.4994 29.3605L54.9507 18.5838C55.304 18.0495 55.7784 17.606 56.3352 17.2894C56.892 16.9728 57.5156 16.7919 58.1555 16.7615H98.4556C98.7212 16.7361 98.9887 16.7842 99.2288 16.9006C99.4689 17.017 99.6724 17.1971 99.8171 17.4213C99.9327 17.6615 99.981 17.9286 99.957 18.1941C99.9331 18.4596 99.8377 18.7137 99.6809 18.9294L94.1198 28.1875C93.7698 28.71 93.3045 29.1451 92.7598 29.4592C92.215 29.7733 91.6054 29.9581 90.9779 29.9994ZM49.3267 29.3291H90.9779C91.5002 29.2971 92.0084 29.1465 92.4639 28.8889C92.9193 28.6312 93.3101 28.2731 93.6066 27.8419L99.1259 18.5942C99.2165 18.479 99.2765 18.3427 99.3003 18.1981C99.3241 18.0534 99.311 17.9051 99.262 17.7669C99.1703 17.6528 99.051 17.5641 98.9154 17.5091C98.7797 17.4541 98.6323 17.4347 98.487 17.4527H58.1555C57.635 17.4862 57.1288 17.6375 56.6753 17.8951C56.2218 18.1527 55.8326 18.51 55.5372 18.9399L49.3267 29.3291Z" fill="#F0F0F0"/>
<path d="M43.4618 29.9977H1.10896L0.983281 29.8511C0.954856 29.7998 0.939941 29.7421 0.939941 29.6835C0.939941 29.6249 0.954856 29.5672 0.983281 29.5159C0.983281 29.5159 0.983282 29.4426 2.03058 27.7565L3.46538 25.3686C3.82013 24.8251 4.28149 24.3592 4.82155 23.9991C5.3616 23.6391 5.96911 23.3924 6.60729 23.274L8.34581 23.0436C8.38982 23.0381 8.43448 23.0413 8.47725 23.0531C8.52001 23.0649 8.56004 23.0849 8.59505 23.1122C8.63006 23.1394 8.65937 23.1732 8.68129 23.2118C8.70322 23.2504 8.71733 23.2929 8.72283 23.3369C8.72833 23.3809 8.72511 23.4255 8.71335 23.4683C8.70159 23.5111 8.68153 23.5511 8.6543 23.5861C8.62707 23.6211 8.59321 23.6504 8.55465 23.6724C8.5161 23.6943 8.4736 23.7084 8.42959 23.7139L6.58634 23.9757C5.52488 24.196 4.59013 24.8191 3.97856 25.7142L2.54376 28.1126L1.82112 29.3274H43.4618C43.9823 29.2939 44.4884 29.1426 44.942 28.885C45.3955 28.6274 45.7847 28.2702 46.0801 27.8403L47.5463 25.3791C47.6563 25.2309 47.7297 25.0587 47.7606 24.8768C47.7916 24.6948 47.7791 24.5081 47.7243 24.3318C47.6779 24.2384 47.6083 24.1585 47.5221 24.0998C47.4359 24.0411 47.336 24.0056 47.2321 23.9967L45.6821 23.7348C45.6378 23.7285 45.5953 23.7133 45.557 23.6903C45.5187 23.6672 45.4854 23.6368 45.459 23.6007C45.4327 23.5646 45.4138 23.5235 45.4036 23.48C45.3933 23.4365 45.3919 23.3914 45.3993 23.3473C45.4147 23.2571 45.4652 23.1767 45.5398 23.1237C45.6144 23.0707 45.707 23.0494 45.7973 23.0646L47.3368 23.3264C47.5599 23.3427 47.7746 23.4183 47.9587 23.5454C48.1428 23.6724 48.2896 23.8463 48.3841 24.049C48.4915 24.3272 48.5286 24.6276 48.4921 24.9236C48.4555 25.2196 48.3465 25.5019 48.1747 25.7457L46.7084 28.2068C46.3469 28.7403 45.8643 29.1806 45.3 29.4919C44.7358 29.8031 44.1059 29.9765 43.4618 29.9977Z" fill="#F0F0F0"/>
<path d="M8.38777 23.7255L6.7854 23.4637C6.5635 23.4432 6.3506 23.366 6.16718 23.2394C5.98377 23.1128 5.836 22.9412 5.7381 22.741C5.63341 22.4623 5.59777 22.1624 5.63425 21.867C5.67073 21.5715 5.77823 21.2893 5.94756 21.0444L7.42426 18.5832C7.78041 18.0422 8.26107 17.5943 8.82595 17.2772C9.39083 16.9602 10.0235 16.7831 10.6709 16.7609H50.9605C51.2313 16.7081 51.5118 16.7408 51.7631 16.8544C52.0145 16.9681 52.2243 17.157 52.3635 17.3952C52.5027 17.6333 52.5644 17.9089 52.5401 18.1837C52.5158 18.4584 52.4067 18.7189 52.2278 18.9289L50.7616 21.39C50.4139 21.9268 49.9624 22.3886 49.4336 22.7483C48.9048 23.108 48.3094 23.3584 47.6825 23.4846L45.8288 23.736C45.7399 23.7485 45.6497 23.7251 45.578 23.6711C45.5063 23.6171 45.459 23.5368 45.4465 23.448C45.434 23.3591 45.4573 23.2689 45.5113 23.1972C45.5654 23.1255 45.6456 23.0782 45.7345 23.0657L47.5882 22.8143C48.6317 22.5715 49.5424 21.9381 50.1332 21.0444L51.6099 18.5832C51.6987 18.467 51.7569 18.3303 51.7788 18.1857C51.8008 18.0411 51.7859 17.8932 51.7355 17.7559C51.6438 17.6418 51.5245 17.5531 51.3889 17.4981C51.2532 17.4431 51.1058 17.4237 50.9605 17.4417H10.6709C10.1486 17.4737 9.64037 17.6242 9.1849 17.8819C8.72942 18.1396 8.33863 18.4976 8.04216 18.9289L6.57594 21.39C6.46595 21.5383 6.3925 21.7104 6.36156 21.8923C6.33063 22.0743 6.34308 22.261 6.3979 22.4373C6.44769 22.5311 6.51939 22.6115 6.60691 22.6717C6.69443 22.7319 6.79518 22.77 6.90061 22.7829L8.44014 23.0447C8.48438 23.0511 8.52691 23.0663 8.56521 23.0893C8.60351 23.1123 8.63682 23.1428 8.66317 23.1789C8.68952 23.215 8.70837 23.256 8.71863 23.2995C8.72889 23.343 8.73035 23.3882 8.72291 23.4322C8.71058 23.5128 8.67019 23.5864 8.60887 23.64C8.54754 23.6937 8.46924 23.724 8.38777 23.7255Z" fill="#F0F0F0"/>
<path d="M34.633 19.9037C34.9576 19.9037 35.0938 19.9979 35.1252 20.0503C35.1566 20.1027 35.1252 20.2702 35.01 20.4902C34.746 20.8619 34.4019 21.1697 34.0032 21.3908C33.6044 21.612 33.1611 21.7408 32.7059 21.7679H21.7616C21.8559 21.6003 21.9606 21.4013 22.0968 21.1814C22.3597 20.8085 22.7035 20.4999 23.1025 20.2787C23.5015 20.0574 23.9453 19.9292 24.4008 19.9037H34.633ZM34.633 19.2334H24.4008C23.8281 19.2595 23.2692 19.4178 22.7677 19.6957C22.2663 19.9737 21.8359 20.3639 21.5103 20.8358C21.1601 21.3287 20.8881 21.8727 20.7039 22.4486H32.7059C33.2789 22.4181 33.8372 22.257 34.3382 21.9774C34.8393 21.6978 35.2697 21.3073 35.5965 20.8358C36.1201 19.956 35.6907 19.2334 34.633 19.2334Z" fill="#F0F0F0"/>
<path d="M31.6068 25.004C31.9315 25.004 32.0676 25.0982 32.099 25.1506C32.1305 25.203 32.099 25.3705 31.9838 25.58C31.7198 25.9518 31.3758 26.2596 30.977 26.4807C30.5782 26.7018 30.1349 26.8307 29.6798 26.8577H18.7145C18.8088 26.6901 18.9135 26.4912 19.0497 26.2817C19.3137 25.9099 19.6577 25.6021 20.0565 25.381C20.4553 25.1599 20.8986 25.031 21.3537 25.004H31.5859H31.6068ZM31.5859 24.3232H21.3747C20.8025 24.3517 20.2444 24.511 19.7433 24.7888C19.2422 25.0665 18.8115 25.4554 18.4841 25.9256C18.1324 26.4191 17.857 26.9629 17.6672 27.5385H29.6798C30.2534 27.5111 30.8129 27.3513 31.3144 27.0715C31.8159 26.7916 32.2458 26.3994 32.5703 25.9256C33.094 25.0459 32.6646 24.3232 31.6068 24.3232H31.5859Z" fill="#F0F0F0"/>
<path d="M81.7617 19.9037C81.8478 19.8936 81.935 19.9014 82.0179 19.9266C82.1008 19.9518 82.1776 19.994 82.2435 20.0503C82.2678 20.2245 82.2227 20.4013 82.1178 20.5425L79.1749 25.4963C78.9093 25.8756 78.5632 26.1915 78.1612 26.4215C77.7593 26.6514 77.3115 26.7897 76.8499 26.8263H65.8428L66.2512 26.1351L69.1627 21.2337C69.4327 20.8492 69.7854 20.53 70.1951 20.2998C70.6047 20.0697 71.0607 19.9343 71.5296 19.9037H81.7617ZM81.7617 19.2334H71.5296C70.9441 19.2733 70.376 19.4494 69.8706 19.7476C69.3651 20.0458 68.9363 20.4578 68.6181 20.951L65.7066 25.8523L64.7117 27.5385H76.8499C77.4299 27.5056 77.9944 27.3392 78.4994 27.0521C79.0045 26.7651 79.4364 26.3652 79.7614 25.8838L82.7043 20.951C83.2384 20.0398 82.8195 19.2962 81.7617 19.2962V19.2334Z" fill="#F0F0F0"/>
<path d="M138.462 29.999H96.3713C96.298 30.0018 96.2252 29.9848 96.1607 29.9498C96.0962 29.9148 96.0423 29.863 96.0047 29.8C95.9661 29.7331 95.9458 29.6573 95.9458 29.58C95.9458 29.5028 95.9661 29.427 96.0047 29.3601L102.498 18.5834C102.846 18.0579 103.31 17.6199 103.855 17.3038C104.4 16.9876 105.011 16.8019 105.64 16.7611H145.961C146.228 16.7193 146.502 16.76 146.746 16.8779C146.989 16.9958 147.191 17.1851 147.324 17.4207C147.458 17.6563 147.516 17.9269 147.491 18.1964C147.466 18.4659 147.36 18.7215 147.186 18.929L141.667 28.1871C141.312 28.7189 140.837 29.1599 140.28 29.4746C139.724 29.7893 139.101 29.9689 138.462 29.999ZM96.8426 29.3287H138.462C138.983 29.2952 139.489 29.1439 139.942 28.8863C140.396 28.6286 140.785 28.2714 141.081 27.8415L146.61 18.5939C146.699 18.4777 146.757 18.3409 146.779 18.1963C146.801 18.0517 146.786 17.9038 146.736 17.7665C146.644 17.6524 146.525 17.5637 146.389 17.5087C146.254 17.4537 146.106 17.4343 145.961 17.4523H105.64C105.118 17.4843 104.609 17.6348 104.154 17.8925C103.698 18.1502 103.308 18.5082 103.011 18.9395L96.8426 29.3287Z" fill="#F0F0F0"/>
<path d="M129.267 19.9037C129.353 19.8936 129.44 19.9014 129.523 19.9266C129.606 19.9518 129.683 19.994 129.749 20.0503C129.749 20.1236 129.749 20.3016 129.623 20.5425L126.68 25.4963C126.415 25.8756 126.069 26.1915 125.667 26.4215C125.265 26.6514 124.817 26.7897 124.355 26.8263H113.39L113.799 26.1351L116.71 21.2337C116.976 20.8544 117.322 20.5385 117.724 20.3085C118.126 20.0786 118.573 19.9403 119.035 19.9037H129.267ZM129.267 19.2334H119.035C118.448 19.2718 117.878 19.4471 117.37 19.7453C116.863 20.0436 116.432 20.4565 116.113 20.951L113.202 25.8523L112.154 27.5385H124.261C124.841 27.5056 125.406 27.3392 125.911 27.0521C126.416 26.7651 126.848 26.3652 127.173 25.8838L130.21 20.951C130.754 20.0398 130.325 19.2962 129.267 19.2962V19.2334Z" fill="#F0F0F0"/>
<path d="M58.5115 5.54481L60.3233 2.87419C60.9308 1.93162 61.6534 1.05189 62.2399 0.0988447L62.3027 0.00458764H80.8714C83.3744 0.00458764 87.1552 0.0883718 89.4278 1.1252C90.8836 1.785 91.5224 2.89514 90.5589 4.32994C89.5321 5.55901 88.1662 6.45867 86.6315 6.91677C84.0815 7.74846 81.4263 8.21391 78.7454 8.29921L81.3008 10.9489L84.1913 13.9337L84.5265 14.2898H75.8234L75.7606 14.2165C74.8704 13.232 73.9697 12.258 73.0899 11.2735L70.5345 8.38299H63.8842C63.2139 9.32556 62.5436 10.2786 61.8838 11.2421L59.873 14.1955L59.8102 14.2898H52.4791L52.7095 13.9546L54.7203 11.0117C55.3172 10.1425 55.9142 9.26273 56.5321 8.39347H52.1334L52.3429 8.0688C52.8875 7.25191 53.4531 6.44549 54.0081 5.62859L54.071 5.54481H58.5115ZM16.3786 5.54481C16.986 4.6546 17.6039 3.7644 18.2009 2.87419C18.7979 1.98399 19.4681 1.05189 20.1175 0.0988447L20.1803 0.00458764H20.2955C28.2026 0.00458764 36.1202 0.00458764 44.0378 0.00458764C46.4571 0.00458764 50.4054 0.423508 51.2642 3.14649C51.4192 3.83509 51.4236 4.54906 51.2772 5.23954C51.1308 5.93002 50.837 6.58074 50.4159 7.14718C48.9158 9.2635 46.8812 10.944 44.5196 12.0171C41.4275 13.4994 38.0411 14.2654 34.6121 14.2583C26.6421 14.2583 18.6827 14.2583 10.7127 14.2583H10.3357L10.5661 13.9232L12.5769 10.9803L14.3678 8.38299H8.79614L8.99513 8.0688C9.51878 7.23096 10.0424 6.42454 10.6394 5.62859L10.7022 5.53434H16.3577L16.3786 5.54481ZM113.704 11.682C114.018 12.5094 114.364 13.3367 114.752 14.1536V14.2898H122.596L122.46 13.9861C121.412 11.6925 120.365 9.37793 119.318 7.06339C118.27 4.74886 117.223 2.4448 116.176 0.130264V0.00458764H100.592L100.54 0.0988447C99.9951 0.852901 99.4924 1.61743 98.9478 2.39243L98.7383 2.7171H106.771L96.7485 8.11069C93.1667 10.0482 89.564 11.9543 85.9822 13.8918L85.2596 14.2898H93.4914C95.0204 13.431 96.5495 12.5617 98.089 11.7134L113.704 11.682ZM214.842 2.85325H203.877L204.107 2.52858C204.662 1.71169 205.228 0.905266 205.793 0.0988447L205.846 0.00458764H235.045L234.825 0.329251C234.27 1.13567 233.714 1.94209 233.17 2.75899L233.107 2.85325H222.194L218.34 8.47725C217.031 10.3833 215.711 12.2894 214.413 14.1955L214.35 14.2898H206.935L207.155 13.9546C208.464 12.059 209.763 10.1425 211.082 8.23637L214.821 2.85325H214.842ZM233.872 8.38299C233.264 9.25225 232.667 10.132 232.07 11.0117C231.473 11.8915 230.74 12.9702 230.07 13.9546L229.85 14.2793H258.703L258.766 14.185L260.044 12.2999C260.473 11.6715 260.902 11.0431 261.353 10.4252L261.594 10.0901H254.2L254.137 10.1844C253.844 10.5928 253.561 11.0117 253.289 11.4306H239.171C239.862 10.3833 240.564 9.39888 241.266 8.39347H250.367L250.429 8.29921C250.964 7.48231 251.529 6.67589 252.084 5.87994L252.262 5.55528H243.172L245.036 2.85325H259.112C258.871 3.18838 258.63 3.52352 258.41 3.90055L258.232 4.19379H265.615L265.668 4.09953L266.924 2.21439C267.354 1.58601 267.804 0.957631 268.254 0.339724L268.495 0.00458764H239.695L239.632 0.0988447C238.982 1.02047 238.323 1.93162 237.705 2.87419C237.087 3.81676 236.469 4.64413 235.872 5.54481H231.431L231.369 5.62859C230.803 6.43501 230.248 7.24144 229.703 8.0688L229.494 8.38299H233.893H233.872ZM290.771 8.29921L293.348 10.9489C294.322 11.9962 295.296 12.9492 296.28 13.9232L296.636 14.2793H287.87L287.808 14.2165C286.907 13.232 285.985 12.2685 285.095 11.2631L282.571 8.38299H275.952C275.282 9.32556 274.612 10.2786 273.962 11.2421C273.313 12.2056 272.622 13.2006 271.962 14.185L271.899 14.2793H264.516L264.736 13.9546L266.736 11.0012C267.333 10.1215 267.951 9.25225 268.558 8.38299H264.118L264.348 8.05833C264.903 7.24144 265.469 6.43501 266.024 5.62859L266.087 5.53434H270.506C271.103 4.64413 271.742 3.7644 272.328 2.86372C272.915 1.96304 273.617 1.05189 274.255 0.0988447L274.318 0.00458764H292.897C295.39 0.00458764 299.181 0.0988448 301.422 1.1252C302.868 1.785 303.601 2.88466 302.595 4.32994C301.565 5.55932 300.195 6.45882 298.658 6.91677C296.108 7.74929 293.452 8.21476 290.771 8.29921ZM153.156 8.38299H147.532L147.752 8.05833C148.286 7.25191 148.799 6.44549 149.386 5.64954V5.56575H162.446L162.215 5.90089C161.65 6.68637 161.168 7.49279 160.581 8.28874C159.922 9.2732 159.23 10.2367 158.581 11.2317C157.932 12.2266 157.251 13.1901 156.602 14.185L156.539 14.2793H156.424C148.349 14.2793 140.274 14.2793 132.2 14.2793C129.812 14.2793 125.623 13.8708 124.868 11.1374C124.732 10.399 124.763 9.6394 124.959 8.91447C125.154 8.18954 125.51 7.51766 126 6.94819C127.648 4.8632 129.785 3.2159 132.221 2.15155C135.225 0.75612 138.501 0.0409161 141.814 0.0569527C149.826 0.0569527 157.827 0.0569527 165.828 0.0569527H166.226L166.006 0.392089C165.577 1.01 165.127 1.6279 164.718 2.26676C164.31 2.90561 163.87 3.50257 163.472 4.1519L163.409 4.24616H156.078L156.298 3.92149C156.518 3.57588 156.738 3.24075 156.968 2.87419H142.735C139.3 2.87419 134.755 4.35089 132.65 7.19954C132.371 7.51298 132.164 7.88329 132.043 8.28478C131.922 8.68626 131.89 9.10931 131.948 9.52455C132.388 11.1583 135.09 11.4306 136.494 11.4621H151.082C151.774 10.4148 152.454 9.41982 153.177 8.41441L153.156 8.38299ZM170.416 11.4202C170.636 11.085 170.866 10.7499 171.107 10.4252L171.348 10.0901H163.943L163.88 10.1844C163.451 10.8127 163.001 11.4306 162.592 12.0695C162.184 12.7083 161.744 13.3158 161.346 13.9546L161.137 14.2793H181.234C184.683 14.3387 188.123 13.8977 191.445 12.9702C193.111 12.457 195.519 11.4935 196.546 10.0273C196.857 9.61239 197.01 9.0996 196.975 8.58198C196.661 5.79616 190.398 5.56575 188.324 5.56575H178.365C177.715 5.56575 174.804 5.4715 174.741 4.59176C174.741 4.08906 175.788 3.61777 176.134 3.48163C177.53 3.01492 178.998 2.79519 180.47 2.8323H192.671L191.99 3.8796L191.781 4.20426H199.112L199.174 4.11001C199.572 3.47115 200.023 2.86372 200.431 2.22486C200.84 1.58601 201.28 0.968104 201.698 0.350197L201.992 0.00458764H182.721C179.328 -0.0494187 175.943 0.373636 172.667 1.26135C171.034 1.74311 168.593 2.68568 167.567 4.09953C167.263 4.47403 167.11 4.94827 167.138 5.42961C167.431 8.2259 174.291 8.38299 176.354 8.38299H185.78C186.513 8.38299 189.236 8.50867 189.319 9.51408C189.319 10.0796 188.398 10.5614 187.968 10.7289C186.529 11.2322 185.009 11.4631 183.486 11.4097L170.416 11.4202ZM67.7801 2.84277C67.1517 3.74345 66.5338 4.63366 65.9159 5.54481H77.6562C79.0386 5.54481 82.4947 5.30393 83.3325 4.09953C84.1704 2.89514 80.3163 2.85325 79.8031 2.85325L67.7801 2.84277ZM25.6367 2.84277C24.5894 4.30899 23.5421 5.76474 22.5472 7.25191C21.5523 8.73908 20.6306 10.0377 19.6776 11.4411H33.6591C35.8771 11.4075 38.0623 10.9005 40.0685 9.95394C41.5336 9.2966 42.7957 8.25869 43.7236 6.94819C43.9493 6.63175 44.1076 6.27233 44.1887 5.89221C44.2697 5.51209 44.2719 5.11937 44.1949 4.73839C43.7027 3.1046 41.1787 2.85325 39.7544 2.85325L25.6367 2.84277ZM102.928 8.96948L106.666 6.87488L110.856 4.50798L111.746 6.77015C112.039 7.50326 112.332 8.23637 112.615 8.96948H102.928ZM277.89 5.55528H289.672C291.044 5.55528 294.542 5.32488 295.369 4.11001C296.196 2.89514 292.332 2.86372 291.808 2.86372H279.764L277.89 5.55528Z" fill="#F0F0F0"/>
<path d="M213.292 17.2098H224.32H238.584C238.011 17.3232 237.472 17.5725 237.015 17.937C236.557 18.3015 236.194 18.7704 235.956 19.3044H214.276C214.157 19.3154 214.043 19.3594 213.946 19.4315C213.85 19.5037 213.776 19.601 213.732 19.7129C213.501 20.2889 213.177 20.8649 212.946 21.4409C212.852 21.6608 212.946 21.8389 213.177 21.8389H226.855C229.441 21.8389 231.117 22.0274 231.861 22.4149C232.604 22.8024 232.761 23.5355 232.321 24.5828C232.102 25.1169 231.829 25.6301 231.599 26.1747C231.395 26.6673 231.087 27.1102 230.697 27.4734C230.306 27.8366 229.843 28.1116 229.337 28.2798C227.557 28.7643 225.713 28.9727 223.87 28.8977H212.925C209.27 28.8977 204.903 28.8977 201.248 28.8977C201.531 28.1541 202.023 27.421 202.295 26.6774H223C223.119 26.6662 223.232 26.6233 223.327 26.5533C223.423 26.4832 223.499 26.3886 223.545 26.2794L224.299 24.4257C224.393 24.2058 224.299 24.0277 224.09 24.0277L210.37 24.0906C208.676 24.222 206.973 24.0264 205.353 23.5146C204.599 23.1166 204.432 22.394 204.84 21.3257C205.008 20.8858 205.228 20.4564 205.395 20.0271C205.605 19.5071 205.925 19.0391 206.334 18.6556C206.743 18.2722 207.23 17.9825 207.762 17.8068C209.562 17.3168 211.428 17.1119 213.292 17.1993" fill="#F0F0F0"/>
<path d="M274.8 17.2325H296.406C296.071 17.9132 295.746 18.5939 295.422 19.2747H275.586C275.467 19.2873 275.353 19.3306 275.256 19.4003C275.158 19.4701 275.081 19.5639 275.031 19.6727L274.256 21.3902C274.161 21.6102 274.256 21.7882 274.444 21.7882H287.755C290.269 21.7882 291.892 21.9663 292.604 22.3642C293.317 22.7622 293.421 23.4639 292.919 24.4588L292.165 26.0298C291.928 26.5183 291.598 26.9551 291.191 27.3146C290.785 27.6742 290.311 27.9495 289.798 28.1244C288.046 28.5872 286.235 28.7849 284.425 28.7109L269.019 28.8365H262.233L263.217 26.522H269.281H283.755C283.872 26.5076 283.984 26.4648 284.08 26.3973C284.177 26.3297 284.256 26.2395 284.31 26.1345C284.593 25.5271 284.844 25.0872 285.127 24.4379C285.231 24.2179 285.127 24.0399 284.949 24.0399H271.679C269.155 24.0399 267.49 23.8619 266.82 23.4744C266.15 23.0869 265.982 22.3642 266.453 21.3065C266.652 20.8771 266.841 20.4477 267.04 20.0287C267.252 19.5142 267.571 19.0504 267.975 18.6677C268.38 18.2851 268.86 17.9923 269.386 17.8085C271.148 17.3271 272.975 17.1222 274.8 17.201" fill="#F0F0F0"/>
<path fill-rule="evenodd" clip-rule="evenodd" d="M263.636 27.1385L263.154 28.2801H269.019L284.404 28.2173C286.146 28.2866 287.889 28.0996 289.577 27.6622C290.02 27.5121 290.428 27.2731 290.776 26.9597C291.124 26.6464 291.403 26.2653 291.598 25.8399L292.353 24.2689C292.562 23.8291 292.824 23.2216 292.29 22.9179C291.41 22.4361 288.729 22.4152 287.734 22.4152H274.423C274.276 22.4134 274.133 22.3737 274.006 22.3C273.88 22.2262 273.774 22.1209 273.7 21.9944C273.627 21.8678 273.587 21.7243 273.585 21.5778C273.583 21.4313 273.619 21.2868 273.69 21.1584C273.951 20.5929 274.203 20.0169 274.465 19.4513C274.568 19.2398 274.725 19.059 274.919 18.9267C275.114 18.7945 275.34 18.7154 275.575 18.6973H295.034C295.159 18.425 295.295 18.1422 295.432 17.8699H274.8C273.036 17.7909 271.27 17.9816 269.563 18.4355C269.117 18.5899 268.708 18.8366 268.363 19.1596C268.019 19.4826 267.746 19.8747 267.563 20.3101C267.374 20.729 267.175 21.1584 266.987 21.5878C266.798 22.0172 266.537 22.6351 267.081 22.9703C267.992 23.4625 270.632 23.473 271.658 23.473H284.917C285.064 23.4716 285.21 23.5094 285.338 23.5824C285.467 23.6554 285.574 23.761 285.648 23.8886C285.722 24.0162 285.762 24.1612 285.762 24.3089C285.762 24.4566 285.724 24.6018 285.65 24.7297C285.388 25.2953 285.105 25.8504 284.833 26.4264C284.732 26.6358 284.577 26.8143 284.383 26.9433C284.19 27.0722 283.965 27.1469 283.733 27.1595H269.26H263.604" fill="#F0F0F0"/>
<path d="M269.637 17.1795C267.542 17.6612 266.945 18.4677 266.579 19.2741H244.366C244.138 19.3036 243.922 19.3914 243.739 19.5291C243.555 19.6667 243.41 19.8494 243.318 20.0596C242.491 21.9866 241.433 23.8194 240.606 25.7569C240.417 26.1758 240.606 26.5214 241.014 26.5214L262.641 26.469L261.594 28.8045H246.827H235.181C233.756 28.8045 233.086 27.5268 233.756 26.0501C234.615 24.0184 235.725 21.9657 236.626 19.8396C236.95 19.0878 237.47 18.4366 238.131 17.954C238.792 17.4714 239.571 17.175 240.386 17.0957H252.032L269.637 17.1795Z" fill="#F0F0F0"/>
<path d="M213.292 17.2098H224.32H238.584C238.011 17.3232 237.472 17.5725 237.015 17.937C236.557 18.3015 236.194 18.7704 235.956 19.3044H214.276C214.157 19.3154 214.043 19.3594 213.946 19.4315C213.85 19.5037 213.776 19.601 213.732 19.7129C213.501 20.2889 213.177 20.8649 212.946 21.4409C212.852 21.6608 212.946 21.8389 213.177 21.8389H226.855C229.441 21.8389 231.117 22.0274 231.861 22.4149C232.604 22.8024 232.761 23.5355 232.321 24.5828C232.102 25.1169 231.829 25.6301 231.599 26.1747C231.395 26.6673 231.087 27.1102 230.697 27.4734C230.306 27.8366 229.843 28.1116 229.337 28.2798C227.557 28.7643 225.713 28.9727 223.87 28.8977H212.925C209.27 28.8977 204.903 28.8977 201.248 28.8977C201.531 28.1541 202.023 27.421 202.295 26.6774H223C223.119 26.6662 223.232 26.6233 223.327 26.5533C223.423 26.4832 223.499 26.3886 223.545 26.2794L224.299 24.4257C224.393 24.2058 224.299 24.0277 224.09 24.0277L210.37 24.0906C208.676 24.222 206.973 24.0264 205.353 23.5146C204.599 23.1166 204.432 22.394 204.84 21.3257C205.008 20.8858 205.228 20.4564 205.395 20.0271C205.605 19.5071 205.925 19.0391 206.334 18.6556C206.743 18.2722 207.23 17.9825 207.762 17.8068C209.562 17.3168 211.428 17.1119 213.292 17.1993" fill="#F0F0F0"/>
<path fill-rule="evenodd" clip-rule="evenodd" d="M202.704 27.3711C202.547 27.7063 202.368 28.0414 202.201 28.3661H212.925H223.87C225.634 28.4259 227.397 28.2319 229.106 27.79C229.539 27.6439 229.934 27.4051 230.265 27.0904C230.596 26.7756 230.855 26.3925 231.023 25.9677C231.253 25.4336 231.515 24.9204 231.745 24.3758C231.976 23.8312 232.143 23.2762 231.557 22.9725C230.614 22.4802 227.902 22.4593 226.844 22.4593H213.156C213.008 22.4635 212.862 22.4295 212.731 22.3606C212.6 22.2917 212.489 22.1901 212.409 22.0659C212.329 21.9416 212.283 21.7987 212.274 21.6512C212.265 21.5036 212.295 21.3563 212.36 21.2235C212.59 20.637 212.915 20.0924 213.145 19.4954C213.237 19.2738 213.39 19.083 213.587 18.9457C213.784 18.8083 214.016 18.7302 214.255 18.7204H235.557C235.735 18.4011 235.958 18.1084 236.217 17.8512C232.248 17.8512 228.279 17.8512 224.309 17.8512H213.292C211.5 17.7753 209.707 17.9659 207.972 18.4167C207.526 18.5652 207.118 18.8089 206.777 19.1308C206.435 19.4527 206.167 19.8452 205.992 20.2809C205.825 20.7312 205.605 21.1502 205.437 21.59C205.27 22.0299 205.081 22.7106 205.657 23.0143C206.621 23.5171 209.323 23.538 210.401 23.5275H224.09C224.236 23.5251 224.381 23.5605 224.511 23.6302C224.64 23.6999 224.749 23.8016 224.828 23.9255C224.907 24.0495 224.953 24.1917 224.961 24.3383C224.969 24.485 224.94 24.6314 224.875 24.7633C224.613 25.3812 224.362 25.9992 224.11 26.6171C224.017 26.8357 223.865 27.0241 223.671 27.161C223.477 27.2979 223.248 27.3779 223.011 27.3921H202.704" fill="#F0F0F0"/>
</svg>
