<svg width="260" height="40" viewBox="0 0 260 40" fill="none" xmlns="http://www.w3.org/2000/svg">
<path d="M231.719 33.0487H236.821C238.097 33.0499 239.349 32.6829 240.435 31.9891C241.52 31.2953 242.396 30.3024 242.963 29.1223C245.627 22.9382 239.265 23.2818 239.265 23.2818H208.534C208.354 24.918 207.779 26.4813 206.86 27.8278C205.942 29.1744 204.709 30.2609 203.277 30.9873L202.177 32.9137C204.258 33.564 206.791 34.3125 209.872 35.1775L210.413 35.3248L215.259 26.7848H231.808C231.808 26.7848 234.591 26.7848 234.002 28.2143C233.883 28.4965 233.473 29.4904 231.748 29.5027H222.882C222.882 29.5027 207.802 29.5027 228.056 39.9997H246.252C220.545 32.8033 231.701 33.061 231.701 33.061" fill="#F0F0F0"/>
<path fill-rule="evenodd" clip-rule="evenodd" d="M160.856 33.0063H168.187L174.729 21.5338H193.549C194.12 21.5396 194.689 21.6137 195.244 21.7546C195.647 21.8295 196.03 21.9947 196.364 22.2385C196.699 22.4822 196.978 22.7987 197.182 23.1657C197.317 23.459 197.387 23.7797 197.387 24.1044C197.387 24.429 197.317 24.7497 197.182 25.043C196.51 26.632 195.113 27.2946 193.477 27.2946H183.809C183.059 27.2946 178.546 27.4111 179.503 28.8835C179.953 29.5056 180.483 30.0609 181.079 30.5338C182.164 31.4312 183.306 32.2511 184.498 32.9879C186.211 34.0553 187.983 35.0369 189.773 35.9695H199.662L199.418 35.8958C197.479 35.2823 195.523 34.6136 193.632 33.8468C192.596 33.4542 191.6 32.9569 190.659 32.3621C189.886 31.8283 189.196 31.0185 189.47 29.9817C189.916 28.4479 192.151 28.3743 193.436 28.3989H198.984C200.531 28.4286 202.027 27.8266 203.146 26.724C203.673 26.2171 204.11 25.6191 204.437 24.9571C204.782 24.1596 205.198 22.9326 204.966 22.0491C204.905 21.829 204.798 21.6251 204.653 21.4514C204.509 21.2778 204.329 21.1384 204.127 21.043C203.372 20.6846 202.544 20.5164 201.713 20.5522H167.973L160.856 33.0063ZM158.477 34.405H168.955L175.496 22.9326H193.543C193.543 22.9326 196.581 22.9326 195.921 24.4847C195.785 24.7976 195.327 25.8835 193.46 25.8958H183.791C183.791 25.8958 167.343 25.8958 189.434 37.3376H209.313C181.275 29.4909 193.436 29.7731 193.436 29.7731H199.002C200.396 29.7733 201.762 29.3712 202.946 28.6123C204.131 27.8534 205.086 26.768 205.703 25.4786C208.605 18.7301 201.666 19.1043 201.666 19.1043H167.177L158.477 34.405Z" fill="#F0F0F0"/>
<path fill-rule="evenodd" clip-rule="evenodd" d="M5.50635 21.0127L6.4994 20.571C6.75007 20.4632 7.01871 20.407 7.29027 20.4054C11.5003 20.4054 15.7104 20.4054 19.9204 20.4054H20.2177L20.0691 20.6446C17.7619 24.4422 15.7698 28.43 13.4626 32.2275C13.1118 32.841 12.2733 32.9515 11.6371 32.9515H2.05745L7.4092 23.749C7.58445 23.3737 7.61106 22.9427 7.48338 22.5476C7.35571 22.1524 7.0838 21.8241 6.72536 21.6324C6.4025 21.4109 6.02485 21.2895 5.63717 21.2827H4.82847L5.50635 21.0127ZM0 34.1049H11.6609C12.6896 34.1049 13.8729 33.8226 14.4557 32.8779C16.9056 28.7735 19.0701 24.5404 21.5438 20.4667C21.7697 20.117 21.181 19.6078 20.9491 19.4544C20.7546 19.3332 20.5339 19.2636 20.3069 19.252H7.2427C6.80749 19.25 6.37648 19.3397 5.97612 19.5158L1.81365 21.3563C1.71254 21.4283 1.63553 21.5308 1.59319 21.6498C1.55085 21.7688 1.54526 21.8983 1.5772 22.0207C1.60913 22.1431 1.67702 22.2523 1.77154 22.3333C1.86605 22.4142 1.98255 22.463 2.10502 22.4729H5.39337C5.63013 22.4333 5.8729 22.4765 6.08315 22.5956C6.58265 22.9269 6.4221 23.1232 6.1783 23.5281C4.09706 27.0312 2.07529 30.5895 0 34.1049Z" fill="#F0F0F0"/>
<path fill-rule="evenodd" clip-rule="evenodd" d="M50.0333 23.5093V23.5706L47.0957 28.902C46.8614 29.27 46.549 29.5782 46.1823 29.8035C45.8156 30.0289 45.4041 30.1653 44.9788 30.2026H34.4894L37.5577 24.5768C37.7937 24.2103 38.1065 23.9032 38.4728 23.6781C38.8392 23.453 39.2499 23.3156 39.6747 23.2761H49.8549H49.9203H50.1522L50.0333 23.5093ZM32.7055 31.2885L32.8125 31.4234H44.9907C45.6156 31.3833 46.222 31.1891 46.759 30.8571C47.296 30.5251 47.748 30.065 48.0769 29.5155L50.9906 24.178C51.1333 23.964 51.2217 23.7166 51.2477 23.4583C51.2736 23.2 51.2364 22.9391 51.1393 22.6995C51.0047 22.4817 50.8151 22.3061 50.5908 22.1915C50.3665 22.0769 50.1162 22.0276 49.8668 22.0491H39.6806C39.0536 22.0821 38.4433 22.2698 37.9011 22.5964C37.359 22.9231 36.9006 23.3792 36.5647 23.9265L32.9969 30.4664L32.6995 31.0124C32.6781 31.0553 32.6674 31.103 32.6684 31.1512C32.6694 31.1994 32.6822 31.2466 32.7055 31.2885V31.2885ZM18.0179 32.8161L23.9643 22.0307C24.2275 21.608 24.5829 21.2548 25.0021 20.9991C25.4213 20.7434 25.8927 20.5925 26.3785 20.5583L66.4929 20.589C66.6032 20.5882 66.7132 20.6026 66.8199 20.632C66.9173 20.6565 67.0034 20.715 67.0637 20.7976C67.1529 20.9694 67.0221 21.27 66.9388 21.4111L61.4741 31.3621C61.2151 31.7812 60.8656 32.1327 60.4529 32.3892C60.0403 32.6457 59.5757 32.8002 59.0956 32.8406L18.0179 32.8161ZM68.0151 20.178C67.8551 19.903 67.624 19.6793 67.3479 19.532C67.0717 19.3847 66.7613 19.3194 66.4512 19.3436L26.331 19.3252C25.647 19.3646 24.9825 19.5743 24.3943 19.9365C23.8061 20.2987 23.3117 20.8026 22.9534 21.405L16.5908 32.994C16.5293 33.1074 16.4971 33.2352 16.4971 33.3652C16.4971 33.4951 16.5293 33.6229 16.5908 33.7363C16.6306 33.8128 16.6848 33.8804 16.7501 33.9352C16.8154 33.99 16.8906 34.0308 16.9714 34.0554C17.031 34.075 17.0931 34.0853 17.1557 34.086H59.0539C59.7355 34.0511 60.3989 33.8472 60.9879 33.4916C61.5769 33.136 62.0741 32.6391 62.4374 32.0431L67.8843 22.086C68.0611 21.8088 68.1655 21.4891 68.1874 21.1581C68.2093 20.827 68.1479 20.4958 68.0092 20.1964L68.0151 20.178Z" fill="#F0F0F0"/>
<path fill-rule="evenodd" clip-rule="evenodd" d="M97.8241 23.4471C97.8273 23.4674 97.8273 23.4881 97.8241 23.5084L94.9104 28.8459C94.6727 29.2175 94.3556 29.5279 93.9834 29.7534C93.6113 29.9788 93.1941 30.1133 92.7637 30.1465H82.2684L85.3367 24.5391C85.5718 24.1731 85.8835 23.8662 86.2488 23.6411C86.6142 23.416 87.0239 23.2784 87.4477 23.2385H97.6338H97.6992H97.9252L97.8241 23.4471ZM80.4904 31.2876L80.5974 31.4165H92.7756C93.4002 31.3754 94.0063 31.1807 94.5431 30.8488C95.08 30.5169 95.5321 30.0573 95.8618 29.5085L98.7755 24.171C98.9185 23.9486 99.0049 23.6927 99.0267 23.4268C99.0485 23.1608 99.0051 22.8935 98.9004 22.6495C98.7671 22.4302 98.5778 22.2529 98.3534 22.1371C98.1289 22.0214 97.8779 21.9715 97.6279 21.9931H87.4417C86.8178 22.034 86.2123 22.2279 85.6755 22.5587C85.1388 22.8894 84.6863 23.3475 84.3556 23.8949L81.4656 29.1465C81.1386 29.76 80.8115 30.3735 80.4785 30.987C80.454 31.0308 80.4411 31.0806 80.4411 31.1312C80.4411 31.1818 80.454 31.2315 80.4785 31.2754L80.4904 31.2876ZM65.7969 32.8091L71.7433 22.0238C72.003 21.6053 72.3526 21.2542 72.7651 20.9978C73.1777 20.7414 73.6419 20.5865 74.1218 20.5452L114.236 20.582C114.349 20.5808 114.461 20.5953 114.569 20.625C114.666 20.6472 114.751 20.7064 114.807 20.7906C114.896 20.9563 114.771 21.2569 114.688 21.4041L109.223 31.3551C108.961 31.7775 108.606 32.131 108.188 32.3876C107.77 32.6442 107.3 32.7969 106.815 32.8336L65.7969 32.8091ZM115.8 20.171C115.64 19.8953 115.409 19.6709 115.133 19.5225C114.857 19.3741 114.547 19.3076 114.236 19.3305L74.1218 19.2998C73.4439 19.3397 72.7851 19.5466 72.2006 19.9031C71.6161 20.2596 71.1228 20.7554 70.7621 21.3489L64.3816 32.9379C64.3202 33.0503 64.2878 33.1771 64.2878 33.306C64.2878 33.435 64.3202 33.5618 64.3816 33.6741C64.4181 33.7527 64.4704 33.8223 64.535 33.8783C64.5996 33.9344 64.675 33.9756 64.7563 33.9993C64.8194 34.0087 64.8834 34.0087 64.9465 33.9993L106.845 34.0361C107.529 33.9978 108.194 33.7884 108.782 33.4261C109.371 33.0638 109.865 32.5594 110.222 31.9563L115.687 22.0053C115.859 21.7303 115.959 21.4145 115.979 21.088C115.999 20.7615 115.937 20.4352 115.8 20.1403V20.171ZM145.122 23.5207C145.114 23.5423 145.104 23.5629 145.092 23.582L142.184 28.9195C141.948 29.286 141.635 29.5931 141.269 29.8182C140.903 30.0433 140.492 30.1807 140.067 30.2201H129.566L132.634 24.5391C132.869 24.1717 133.182 23.8639 133.548 23.6387C133.915 23.4135 134.326 23.2766 134.751 23.2385H144.997H145.223L145.122 23.5207ZM127.788 31.2876L127.895 31.4165H140.073C140.697 31.376 141.303 31.1823 141.84 30.8515C142.377 30.5207 142.829 30.0623 143.159 29.5146L146.073 24.1771C146.219 23.955 146.307 23.6977 146.329 23.4302C146.351 23.1627 146.306 22.8938 146.198 22.6495C146.063 22.4318 145.874 22.2562 145.649 22.1415C145.425 22.0269 145.175 21.9777 144.925 21.9992H134.739C134.113 22.0423 133.506 22.2397 132.969 22.5749C132.432 22.9101 131.981 23.3733 131.653 23.9256L128.085 30.4717L127.788 31.0115C127.765 31.0546 127.752 31.1032 127.752 31.1527C127.752 31.2021 127.765 31.2507 127.788 31.2938V31.2876ZM113.1 32.8214L119.047 22.036C119.307 21.6179 119.657 21.2671 120.069 21.0107C120.481 20.7543 120.946 20.5993 121.425 20.5575L161.546 20.5882C161.656 20.5874 161.766 20.6018 161.873 20.6311C161.969 20.6539 162.054 20.713 162.11 20.7967C162.2 20.9685 162.075 21.2691 161.992 21.4103L156.527 31.3612C156.265 31.7843 155.911 32.1383 155.493 32.395C155.074 32.6517 154.604 32.804 154.119 32.8398L113.1 32.8214ZM163.098 20.1771C162.938 19.9021 162.706 19.6785 162.43 19.5311C162.154 19.3838 161.844 19.3186 161.534 19.3428L121.419 19.3059C120.735 19.3453 120.071 19.5551 119.483 19.9173C118.894 20.2795 118.4 20.7833 118.042 21.3857L111.679 32.9748C111.618 33.0882 111.585 33.216 111.585 33.3459C111.585 33.4759 111.618 33.6037 111.679 33.7171C111.719 33.7936 111.773 33.8612 111.838 33.9159C111.904 33.9707 111.979 34.0115 112.06 34.0361C112.119 34.0557 112.182 34.0661 112.244 34.0668L154.142 34.1036C154.827 34.0642 155.492 33.8544 156.082 33.4923C156.671 33.1301 157.166 32.6263 157.526 32.0238L162.967 22.0851C163.149 21.8068 163.257 21.4841 163.28 21.1492C163.303 20.8143 163.24 20.479 163.098 20.1771Z" fill="#F0F0F0"/>
<path d="M22.216 8.74853L20.0158 12.5584H32.2297C39.3 12.5584 41.4109 8.75466 34.4477 8.75466L22.216 8.74853ZM23.7859 6.08593H34.6261C40.7033 6.08593 42.7548 2.66873 36.6063 2.66873H25.7363L23.7859 6.08593ZM8.60474 8.74853L10.1448 6.08593H15.7404L19.2607 0H45.5853C51.2165 0 49.9499 1.35584 48.3801 4.06751C47.5714 5.47857 45.1928 6.59514 42.1126 7.10435C45.6269 7.61355 47.6546 8.87123 46.5367 10.7854C44.9669 13.5032 44.4436 15.1964 37.9918 15.2026H10.4541L14.2003 8.73012L8.60474 8.74853ZM63.2104 6.08593L65.1905 2.67487H75.9951C82.4232 2.67487 80.2944 6.09207 74.0209 6.09207L63.2104 6.08593ZM49.9024 15.221H57.9241L61.6643 8.74853H67.1945L72.7127 15.221H81.9593L75.9535 8.67491C83.0892 8.2884 86.5975 6.39882 87.763 4.3804C89.2853 1.74234 90.5281 0.0368101 82.4113 0.0368101L58.7149 0L55.1947 6.08593H50.7943L49.2542 8.75466H53.6486L49.9024 15.221ZM88.4409 8.92645L93.6083 0H101.624L96.7539 8.40497C95.2079 11.0798 98.2049 12.7302 103.123 12.8529C108.248 12.7302 113.101 11.0798 114.659 8.40497L119.523 0H127.538L122.323 9.01233C120.284 12.5277 112.036 15.5339 102.189 15.5339H97.0096C87.1505 15.5339 86.3537 12.5277 88.3814 9.01233L88.4409 8.92645ZM131.522 15.221L138.795 2.66873H128.002L129.548 0H159.143L157.58 2.66873H146.811L139.544 15.221H131.522ZM174.051 9.81602H164.537L172.124 4.98163L174.051 9.81602ZM147.655 15.1964H156.14L160.612 12.3375H174.996L176.156 15.2026H184.689L177.91 0H161.445L159.988 2.52149H168.432L147.655 15.1964ZM187.109 15.1964H216.407L218.786 11.0553H210.788L209.937 12.5277H196.665L203.961 0H195.916L187.109 15.1964ZM221.89 15.1964H251.193L253.572 11.0614H245.586L244.73 12.5338H231.446L233.652 8.73012H242.672L244.212 6.06753H235.18L237.172 2.64419H250.42L249.57 4.11659H257.586L260 0H230.72L227.152 6.0798H222.758L221.218 8.74853H225.612L221.89 15.1964Z" fill="#F0F0F0"/>
</svg>
