<svg width="1309" height="660" viewBox="0 0 1309 660" fill="none" xmlns="http://www.w3.org/2000/svg">
<path d="M1059.19 421.476L1058.98 422.13H1059.67H1307.54L1189.47 513.424H1029.16H1028.8L1028.69 513.77L981.717 659.5H840.2L887.731 514.079L887.945 513.424H887.255H566.968H566.797L566.662 513.529L378.471 659.5H204.371L390.885 514.318L392.034 513.424H390.578H1.46166L353.796 240.421L295.276 421.476L295.065 422.13H295.752H510.603H510.774L510.909 422.025L1053.87 0.5H1195.58L1059.19 421.476ZM917.096 422.13H917.459L917.571 421.784L995.157 182.75L995.659 181.203L994.374 182.201L686.686 421.235L685.534 422.13H686.993H917.096Z" stroke="#CECECE"/>
</svg>
