<svg width="123" height="24" viewBox="0 0 123 24" fill="none" xmlns="http://www.w3.org/2000/svg">
<path fill-rule="evenodd" clip-rule="evenodd" d="M32.8668 6.02117L34.7228 4.18673C35.435 3.45296 36.8378 2.99974 38.3054 2.99974H66.1672C67.7858 2.99974 69.275 2.50337 70.0519 1.72643L71.7137 0.0214844H18.105C16.2058 0.0214844 14.4361 0.604187 13.5297 1.5322L0.321777 14.9775H21.2343C22.9609 14.9775 24.5579 14.438 25.378 13.6179L28.8742 10.0569C29.5217 9.40948 30.7734 8.99943 32.133 8.99943H55.2685C57.0814 8.99943 58.7647 8.43831 59.6496 7.55346L61.1387 6.04275L32.8668 6.02117Z" fill="#F0F0F0"/>
<path fill-rule="evenodd" clip-rule="evenodd" d="M76.4616 0C75.5768 0.0431632 74.7351 0.431632 74.1308 1.07908L72.2964 2.99984H100.029L97.9785 5.09326C97.4389 5.67596 96.7051 6.02126 95.9066 6.04285H70.6993C69.8145 6.06443 68.9728 6.4529 68.3685 7.10034L66.5341 9.02111H94.0074L92.0867 11.0066C91.5471 11.5893 90.7918 11.9346 89.9933 11.9778H64.9154C64.0306 11.9994 63.1889 12.3878 62.5846 13.0353L60.707 14.956H106.331C107.453 14.956 108.532 14.5028 109.33 13.7043L121.114 1.59704L122.668 0H76.4616V0Z" fill="#F0F0F0"/>
<path fill-rule="evenodd" clip-rule="evenodd" d="M73.0947 17.2874L67.1382 23.4381C66.7497 23.8266 66.2317 24.0208 65.6922 23.9992H51.7505L58.2034 17.2874C58.5919 16.8989 59.1098 16.7046 59.6494 16.7262H72.7494C73.0515 16.7262 73.2889 17.0931 73.0947 17.2874ZM59.0667 22.5533H61.678C61.9154 22.5533 62.1312 22.4669 62.3039 22.2943L63.1672 21.4094C63.2535 21.3015 63.124 21.1073 62.9729 21.1073H61.0522C60.7068 21.0857 60.3615 21.2152 60.1241 21.4742L59.0667 22.5533ZM61.8723 19.6397H64.5268C64.7642 19.6397 64.98 19.5534 65.1527 19.4023L66.0375 18.4743C66.1454 18.388 66.0159 18.1722 65.8649 18.1722H63.8362C63.4909 18.1506 63.1672 18.2801 62.9298 18.5175L61.8723 19.6397Z" fill="#F0F0F0"/>
<path fill-rule="evenodd" clip-rule="evenodd" d="M89.5834 17.2658L83.6268 23.4381C83.2384 23.805 82.7204 24.0208 82.1809 23.9992H68.2607L74.7352 17.2874C75.1237 16.8989 75.6417 16.7046 76.1812 16.7262H89.2381C89.5402 16.7262 89.7776 17.0931 89.5834 17.2658ZM82.3104 18.1722H80.3896C80.0443 18.1722 79.7206 18.2801 79.4832 18.5175L75.5985 22.5317H78.1667C78.4041 22.5317 78.6415 22.4454 78.8141 22.2727L82.5046 18.4312C82.5909 18.3664 82.4614 18.1722 82.3104 18.1722Z" fill="#F0F0F0"/>
<path fill-rule="evenodd" clip-rule="evenodd" d="M106.05 17.2658L100.093 23.4381C99.7047 23.805 99.1867 24.0208 98.6472 23.9992H84.7271L91.2015 17.2874C91.59 16.8989 92.108 16.7046 92.6475 16.7262H105.704C106.006 16.7262 106.244 17.0931 106.05 17.2658ZM98.7767 18.1722H96.8559C96.5106 18.1722 96.1869 18.2801 95.9279 18.5175L92.0648 22.5317H94.633C94.8704 22.5533 95.1078 22.4454 95.2589 22.2727L98.9709 18.4312C99.0572 18.3664 98.9277 18.1722 98.7767 18.1722Z" fill="#F0F0F0"/>
</svg>
