<svg width="249" height="30" viewBox="0 0 249 30" fill="none" xmlns="http://www.w3.org/2000/svg">
<path d="M13.4664 8.39008L11.2808 12.0422H23.3724C30.3665 12.0422 32.4605 8.39713 25.5651 8.39713L13.4664 8.39008ZM14.9964 5.83781H25.7484C31.7625 5.83781 33.7859 2.55933 27.7014 2.55933H16.9564L14.9964 5.83781ZM0 8.39008L1.52291 5.83781H7.05049L10.5757 0H36.592C42.1619 0 40.8928 1.30434 39.3558 3.90597C38.545 5.25262 36.169 6.34544 33.1373 6.81077C36.6132 7.29726 38.6226 8.50994 37.5157 10.336C35.9645 12.9376 35.4499 14.5663 29.0551 14.5663H1.83313L5.54169 8.36188L0 8.39008ZM54.0279 5.83781L55.9879 2.55933H66.6765C73.0219 2.55933 70.9068 5.83781 64.7235 5.83781H54.0279ZM40.8928 14.5945H48.7894L52.4979 8.39008H57.9691L63.4544 14.5945H72.62L66.6835 8.31958C73.734 7.9459 77.2099 6.13393 78.3662 4.20914C79.8327 1.67802 81.0806 0.0423029 73.0008 0.0423029L49.579 0L46.0961 5.83781H41.7459L40.1878 8.39008H44.5379L40.8928 14.5945ZM78.9655 8.5593L84.0982 0H92.03L87.2075 8.05871C85.6846 10.6251 88.6176 12.2044 93.5177 12.289C98.5799 12.1691 103.388 10.5898 104.925 8.05871L109.741 0H117.673L112.512 8.6439C110.495 12.014 102.338 14.8977 92.5941 14.8977H87.4684C77.7175 14.8977 76.8926 12.014 78.9373 8.6439L78.9655 8.5593ZM121.593 14.5945L128.784 2.55933H118.131L119.654 0H148.935L147.412 2.55933H136.737L129.546 14.5945H121.593ZM163.663 9.43356H154.265L161.766 4.80138L163.663 9.43356ZM137.576 14.5945H145.945L150.366 11.8519H164.601L165.75 14.5945H174.211L167.498 0H151.212L149.767 2.41832H158.128L137.576 14.5945ZM176.608 14.5945H205.592L207.989 10.6251H200.029L199.19 12.0352H186.055L193.247 0H185.315L176.608 14.5945ZM211.021 14.5945H240.013L242.382 10.6321H234.443L233.604 12.0422H220.469L222.647 8.39713H231.58L233.103 5.84486H224.163L226.13 2.56638H239.244L238.398 3.97648H246.33L248.72 0H219.729L216.246 5.83076H211.895L210.373 8.39008H214.723L211.021 14.5945Z" fill="black"/>
<path d="M173.647 18.6904H171.926C171.673 18.7025 171.429 18.7856 171.221 18.9302C170.984 19.0705 170.788 19.2697 170.65 19.5083L166.42 26.8761C166.348 27.0007 166.306 27.141 166.3 27.285C166.3 27.5529 166.462 27.6939 166.779 27.6939H168.5C168.752 27.6786 168.996 27.5958 169.205 27.4542C169.44 27.3119 169.636 27.1132 169.776 26.8761L174.006 19.5083C174.078 19.3836 174.12 19.2433 174.126 19.0994C174.105 18.8244 173.95 18.6904 173.647 18.6904Z" fill="black"/>
<path d="M228.527 18.6904H226.8C226.547 18.7021 226.303 18.7852 226.095 18.9302C225.855 19.0664 225.657 19.2665 225.524 19.5083L221.244 26.8761C221.172 27.0007 221.131 27.141 221.124 27.285C221.124 27.5529 221.287 27.6939 221.604 27.6939H223.324C223.576 27.6786 223.82 27.5958 224.029 27.4542C224.268 27.3159 224.465 27.1163 224.6 26.8761L228.866 19.5083C228.938 19.3836 228.979 19.2433 228.986 19.0994C228.986 18.8244 228.831 18.6904 228.527 18.6904Z" fill="black"/>
<path d="M146.128 16.2725L138.19 29.9998H230.939L238.906 16.2725H146.128ZM154.956 21.7648C154.582 21.7648 154.399 21.6026 154.399 21.2854C154.403 21.117 154.449 20.9524 154.533 20.8059L155.09 19.8541C155.175 19.7105 155.223 19.5483 155.231 19.3817C155.231 19.0645 155.054 18.9023 154.695 18.9023C154.396 18.9117 154.106 19.0099 153.863 19.1843C153.576 19.3458 153.334 19.5759 153.158 19.8541L148.765 27.4968C148.609 27.7848 148.38 28.0276 148.103 28.2019C147.859 28.3686 147.573 28.4638 147.278 28.4769H142.526C142.159 28.4769 141.969 28.3218 141.969 28.0045C141.976 27.8357 142.025 27.6712 142.11 27.525L147.045 18.9517C147.206 18.6758 147.434 18.4453 147.708 18.2819C147.957 18.1078 148.25 18.0098 148.554 17.9998H161.893C162.246 17.9998 162.429 18.162 162.429 18.4793C162.421 18.6459 162.373 18.808 162.288 18.9517L161.174 20.8553C161.022 21.1467 160.793 21.3906 160.512 21.5603C160.268 21.7285 159.982 21.8261 159.687 21.8424L154.956 21.7648ZM174.655 28.1525C174.41 28.3173 174.125 28.4123 173.83 28.4275H160.49C160.117 28.4275 159.933 28.2724 159.933 27.9551C159.936 27.7958 159.974 27.6391 160.046 27.4968L164.982 18.9234C165.14 18.646 165.369 18.4151 165.644 18.2537C165.893 18.0796 166.187 17.9816 166.49 17.9716H179.823C180.182 17.9716 180.359 18.1338 180.359 18.4511C180.354 18.6172 180.308 18.7794 180.225 18.9234L175.289 27.4968C175.136 27.7652 174.918 27.9907 174.655 28.1525ZM191.216 18.9023C190.915 18.9124 190.624 19.0104 190.377 19.1843C190.104 19.3514 189.875 19.581 189.708 19.8541L188.601 21.7507C188.512 21.8955 188.461 22.0604 188.453 22.2301C188.453 22.5545 188.643 22.7166 189.01 22.7166H195.679C196.053 22.7166 196.236 22.8717 196.236 23.189C196.227 23.3606 196.171 23.5263 196.074 23.6684L193.889 27.4968C193.734 27.7868 193.506 28.0302 193.226 28.2019C192.981 28.3666 192.696 28.4617 192.401 28.4769H179.082C178.709 28.4769 178.526 28.3218 178.526 28.0045C178.533 27.8357 178.582 27.6712 178.667 27.525L179.78 25.6214C179.937 25.333 180.165 25.0901 180.443 24.9164C180.694 24.7473 180.987 24.652 181.289 24.6414H186.048C186.408 24.6414 186.584 24.7965 186.584 25.1208C186.58 25.288 186.531 25.451 186.443 25.5932L185.893 26.545C185.805 26.6898 185.757 26.8551 185.752 27.0245C185.752 27.3417 185.929 27.4968 186.288 27.4968C186.59 27.4851 186.883 27.3899 187.134 27.2219C187.414 27.0502 187.643 26.8068 187.797 26.5168L188.911 24.6132C188.995 24.4671 189.041 24.3023 189.045 24.1338C189.045 23.8165 188.862 23.6614 188.488 23.6614H181.825C181.466 23.6614 181.289 23.4992 181.289 23.1819C181.294 23.0159 181.34 22.8536 181.423 22.7096L183.63 18.8952C183.789 18.6178 184.017 18.3869 184.293 18.2255C184.542 18.0514 184.835 17.9534 185.139 17.9434H198.471C198.831 17.9434 199.007 18.1056 199.007 18.4229C199.002 18.589 198.956 18.7512 198.873 18.8952L197.759 20.7989C197.605 21.0888 197.376 21.3322 197.096 21.5039C196.853 21.6721 196.567 21.7697 196.272 21.7859H191.505C191.139 21.7859 190.948 21.6238 190.948 21.3065C190.956 21.1377 191.005 20.9732 191.089 20.8271L191.646 19.8753C191.731 19.7317 191.78 19.5695 191.787 19.4029C191.773 19.0363 191.569 18.9023 191.216 18.9023ZM209.378 18.9023C209.077 18.9116 208.785 19.0097 208.539 19.1843C208.256 19.3498 208.014 19.5791 207.834 19.8541L206.727 21.7507C206.643 21.8972 206.595 22.0614 206.586 22.2301C206.586 22.5545 206.777 22.7166 207.143 22.7166H213.813C214.18 22.7166 214.37 22.8717 214.37 23.189C214.361 23.3606 214.305 23.5263 214.208 23.6684L212.036 27.4968C211.882 27.7885 211.65 28.0323 211.367 28.2019C211.125 28.3674 210.842 28.4625 210.549 28.4769H197.209C196.836 28.4769 196.652 28.3218 196.652 28.0045C196.66 27.8357 196.708 27.6712 196.793 27.525L197.9 25.6214C198.059 25.3328 198.29 25.0899 198.57 24.9164C198.819 24.7485 199.109 24.6533 199.409 24.6414H204.175C204.535 24.6414 204.711 24.7965 204.711 25.1208C204.703 25.2874 204.655 25.4496 204.57 25.5932L204.013 26.545C203.93 26.6915 203.884 26.8561 203.879 27.0245C203.879 27.3417 204.055 27.4968 204.415 27.4968C204.717 27.484 205.009 27.3889 205.261 27.2219C205.541 27.0502 205.77 26.8068 205.924 26.5168L207.038 24.6132C207.122 24.4671 207.168 24.3023 207.172 24.1338C207.172 23.8165 206.988 23.6614 206.615 23.6614H199.945C199.592 23.6614 199.409 23.4992 199.409 23.1819C199.417 23.0153 199.465 22.8532 199.55 22.7096L201.757 18.8952C201.915 18.6178 202.144 18.3869 202.42 18.2255C202.666 18.0527 202.958 17.9548 203.259 17.9434H216.598C216.958 17.9434 217.134 18.1056 217.134 18.4229C217.129 18.589 217.083 18.7512 217 18.8952L215.886 20.7989C215.732 21.0888 215.503 21.3322 215.223 21.5039C214.979 21.6702 214.694 21.7676 214.398 21.7859H209.632C209.266 21.7859 209.075 21.6238 209.075 21.3065C209.083 21.1377 209.131 20.9732 209.216 20.8271L209.773 19.8753C209.858 19.7317 209.907 19.5695 209.914 19.4029C209.914 19.0363 209.731 18.9023 209.4 18.9023H209.378ZM230.199 27.4968C230.044 27.7885 229.812 28.0323 229.529 28.2019C229.285 28.3686 228.999 28.4638 228.704 28.4769H215.371C214.998 28.4769 214.814 28.3218 214.814 28.0045C214.819 27.8351 214.867 27.6699 214.955 27.525L219.891 18.9517C220.052 18.674 220.283 18.4431 220.561 18.2819C220.807 18.1091 221.099 18.0112 221.4 17.9998H234.781C235.141 17.9998 235.317 18.162 235.317 18.4793C235.309 18.6459 235.261 18.808 235.176 18.9517L230.199 27.4968Z" fill="black"/>
</svg>
