<svg width="242" height="30" viewBox="0 0 242 30" fill="none" xmlns="http://www.w3.org/2000/svg">
<path fill-rule="evenodd" clip-rule="evenodd" d="M221.017 4.55239H230.686C231.823 4.55239 234.702 4.37467 235.378 3.37941C236.053 2.38416 232.889 2.34861 232.463 2.34861H222.546L221.017 4.55239ZM77.3099 7.36043H85.3075C85.0942 6.75617 84.8454 6.15191 84.5966 5.54764C84.3478 4.94338 84.1345 4.33912 83.8857 3.69931L80.4023 5.65428L77.3099 7.36043ZM13.8269 2.34861L11.2677 5.97418L8.92174 9.38648H20.4383C22.251 9.35094 24.0638 8.95994 25.6989 8.17796C26.8008 7.60924 28.0093 6.79171 28.6846 5.68982C29.0756 5.15665 29.2178 4.51684 29.0756 3.87704C28.6846 2.56188 26.5875 2.34861 25.4501 2.34861H13.8269ZM48.4475 2.34861L46.9191 4.55239H56.5518C57.6892 4.55239 60.5328 4.37467 61.2437 3.37941C61.9546 2.38416 58.7555 2.34861 58.329 2.34861H48.4475ZM132.76 9.38648H143.459C144.703 9.42203 145.947 9.2443 147.12 8.81776C147.511 8.67559 148.293 8.28459 148.257 7.82251C148.222 7.36043 145.947 6.89835 145.343 6.89835H137.629C135.923 6.89835 130.272 6.75617 130.058 4.44576C130.023 4.05476 130.165 3.66377 130.414 3.37941C131.231 2.20643 133.257 1.42445 134.573 1.03346C137.274 0.287015 140.046 -0.0328878 142.855 0.00265704H158.672L158.494 0.287015C158.139 0.784642 157.748 1.28227 157.428 1.81544C157.108 2.34861 156.717 2.84624 156.397 3.37941V3.4505H150.283L150.461 3.16614L151.03 2.34861H141.006C139.798 2.31307 138.589 2.49079 137.452 2.88178C137.132 2.98842 136.279 3.37941 136.314 3.80595C136.35 4.23249 138.731 4.58793 139.264 4.58793H147.44C149.146 4.58793 154.3 4.76566 154.549 7.04052C154.584 7.46706 154.478 7.8936 154.193 8.24905C153.376 9.45757 151.385 10.2396 150.035 10.6661C147.298 11.4125 144.49 11.768 141.646 11.7324H125.118L125.295 11.4836C125.615 10.9505 126.006 10.4528 126.326 9.91965C126.646 9.38648 127.037 8.88885 127.393 8.35568V8.28459H133.471L133.293 8.56895L132.76 9.38648ZM118.577 6.89835H113.921L114.099 6.61399L115.449 4.65902V4.58793H126.184L126.006 4.83675C125.544 5.5121 125.082 6.15191 124.656 6.82726L123.056 9.2443L121.421 11.6613V11.7324H121.314C114.667 11.7324 108.056 11.768 101.409 11.7324C99.4543 11.7324 96.0065 11.4125 95.3667 9.13767C95.0112 7.92914 95.5799 6.64953 96.2908 5.68982C97.4994 3.98367 99.4899 2.63297 101.374 1.74435C103.826 0.606918 106.528 0.00265704 109.229 0.00265704H129.276L129.099 0.287015L128.032 1.81544C127.712 2.34861 127.357 2.84624 127.002 3.37941V3.4505H120.888L121.066 3.16614L121.634 2.34861H110.011C107.203 2.34861 103.471 3.55714 101.729 5.90309C101.338 6.40072 100.983 7.14716 101.16 7.78697C101.516 9.13767 103.755 9.35094 104.893 9.38648H116.871L118.577 6.89835ZM231.61 6.82726L233.707 8.99549L236.124 11.4481L236.408 11.7324H229.264L229.193 11.6613L226.953 9.2443L224.856 6.89835H219.418L217.783 9.2443L216.148 11.6613V11.7324H210.034L210.212 11.4481C210.781 10.6661 211.314 9.84856 211.847 9.03103L213.34 6.89835H209.714L209.892 6.61399L211.278 4.62348V4.55239H214.904L216.432 2.34861L218.032 0.0737466L218.103 0.00265704H233.352C235.378 0.00265704 238.47 0.0737465 240.354 0.926821C241.527 1.45999 242.131 2.38416 241.314 3.55714C240.496 4.73011 239.216 5.26329 238.079 5.68982C235.982 6.36517 233.814 6.72062 231.61 6.82726ZM184.868 6.89835H181.243L181.421 6.61399L182.807 4.62348V4.55239H186.468C186.93 3.80595 187.463 3.09505 187.961 2.34861L189.56 0.0737466L189.631 0.00265704H213.34L213.127 0.287015C212.771 0.784642 212.38 1.28227 212.025 1.81544L210.994 3.37941L210.923 3.4505H204.88L205.058 3.16614L205.627 2.34861H194.075L192.546 4.55239H200.011L199.833 4.83675C199.371 5.47655 198.909 6.15191 198.482 6.82726L198.411 6.89835H190.947L189.205 9.38648H200.828L201.503 8.35568L201.574 8.28459H207.617L207.439 8.56895L206.373 10.0974L205.307 11.6613V11.7324H181.563L181.74 11.4481C182.309 10.6661 182.842 9.84856 183.376 9.03103L184.868 6.89835ZM169.229 2.34861H160.236L160.414 2.06425L161.8 0.0737466V0.00265704H185.793L185.615 0.287015C185.153 0.926822 184.691 1.60217 184.264 2.27752L184.193 2.34861H175.271L172.108 6.96944L168.873 11.6613V11.7324H162.724L162.937 11.4481L166.136 6.75617L169.229 2.34861ZM86.1606 9.59975H73.4L69.5967 11.6969H62.8076L63.4119 11.377L72.227 6.61399L80.4734 2.24198H73.8621L74.0398 1.95762L75.3549 0.0737466V0.00265704H88.1866V0.109291C89.0397 1.99317 89.8928 3.91258 90.7103 5.79646L93.2695 11.4836L93.3762 11.7324H87.0136V11.6258C86.6937 10.9505 86.4094 10.2751 86.1606 9.59975ZM6.22034 4.55239L7.71322 2.34861L9.31273 0.0737466V0.00265704H28.8979C30.8884 0.00265704 34.1585 0.358105 34.8339 2.59743C35.1893 3.73486 34.7628 4.94338 34.1585 5.90309C33.0567 7.64479 31.1372 8.99549 29.3245 9.88411C26.8008 11.0926 24.0283 11.7324 21.2202 11.7324C14.68 11.768 8.13976 11.7324 1.59952 11.7324H1.24407L1.45734 11.4481L3.0924 9.03103L4.58528 6.89835H0L0.177724 6.61399C0.604261 5.93864 1.06634 5.29883 1.52843 4.62348V4.55239H6.22034ZM40.8054 4.55239L42.2983 2.34861L43.8978 0.0737466L43.9689 0.00265704H59.2176C61.2437 0.00265704 64.3716 0.0737465 66.2199 0.926821C67.4285 1.45999 67.9616 2.38416 67.1441 3.55714C66.3266 4.73011 65.1181 5.26329 63.9451 5.68982C61.8479 6.36517 59.6442 6.72062 57.4404 6.82726L59.5731 8.99549L61.919 11.4481L62.2034 11.7324H55.0589V11.6613C54.3124 10.8794 53.566 10.0618 52.8551 9.2443L50.758 6.89835H45.2485L43.6135 9.2443L41.9429 11.6613V11.7324H35.9002L36.078 11.4481C36.6467 10.6661 37.1798 9.84856 37.7486 9.03103L39.2059 6.89835H35.5803L35.7581 6.61399C36.1846 5.93864 36.6467 5.29883 37.1088 4.62348L37.1799 4.55239H40.8054Z" fill="black"/>
<path fill-rule="evenodd" clip-rule="evenodd" d="M196.762 23.324C196.343 23.9692 195.924 24.6144 195.473 25.2273C195.118 25.7646 194.67 26.2344 194.151 26.6145H201.05L196.762 23.324ZM219.715 29.4856H226.743L221.488 24.3563C227.742 24.0337 230.772 22.5498 231.804 20.9691C232.835 19.3883 230.546 17.5173 223.422 17.5173H217.942C217.919 17.8521 217.807 18.1749 217.619 18.4528C217.288 18.9024 216.885 19.2947 216.427 19.6142H217.329C222.906 19.6142 221.133 22.2917 215.621 22.2917H210.302L219.715 29.4856Z" fill="black"/>
<path fill-rule="evenodd" clip-rule="evenodd" d="M203.467 27.0023H210.495L205.788 21.8407C212.042 21.5181 215.105 20.0342 216.136 18.4535C217.458 16.3566 214.847 15.0017 207.722 15.0017H182.868C183.065 15.3924 183.154 15.8288 183.126 16.2657C183.097 16.7025 182.953 17.1237 182.707 17.4857L179.128 22.744C178.782 23.2789 178.333 23.7394 177.807 24.0989H187.349L191.862 17.0985H201.597C207.207 17.0985 205.401 19.8084 199.889 19.7761H193.99L203.467 27.0023Z" fill="black"/>
</svg>
