<svg width="270" height="29" viewBox="0 0 270 29" fill="none" xmlns="http://www.w3.org/2000/svg">
<path d="M45.616 5.0876L47.2784 2.6372C47.8358 1.77235 48.4988 0.965153 49.037 0.0906943L49.0946 0.00420936H66.1322C68.4288 0.00420936 71.8978 0.0810849 73.9831 1.03242C75.3188 1.63781 75.9049 2.65641 75.0209 3.97291C74.0787 5.10063 72.8255 5.92611 71.4173 6.34644C69.0776 7.10955 66.6413 7.53662 64.1814 7.61488L66.5261 10.0461L69.1783 12.7848L69.4858 13.1115H61.5004L61.4427 13.0442C60.6259 12.1409 59.7995 11.2473 58.9923 10.344L56.6476 7.69176H50.5456C49.9306 8.55661 49.3156 9.43107 48.7102 10.3151L46.8652 13.025L46.8076 13.1115H40.081L40.2924 12.804L42.1374 10.1037C42.6851 9.30614 43.2329 8.49895 43.7998 7.70137H39.7639L39.956 7.40348C40.4557 6.65394 40.9746 5.91401 41.4839 5.16448L41.5416 5.0876H45.616ZM6.95723 5.0876C7.51458 4.2708 8.08154 3.454 8.62928 2.6372C9.17701 1.82039 9.79202 0.965153 10.3878 0.0906943L10.4455 0.00420936H10.5512C17.8063 0.00420936 25.071 0.00420936 32.3358 0.00420936C34.5555 0.00420936 38.1783 0.388587 38.9663 2.88704C39.1085 3.51887 39.1126 4.17396 38.9782 4.8075C38.8439 5.44105 38.5743 6.03811 38.1879 6.55785C36.8116 8.49966 34.9447 10.0416 32.7778 11.0262C29.9407 12.3863 26.8335 13.0892 23.6873 13.0827C16.3745 13.0827 9.07131 13.0827 1.75853 13.0827H1.41259L1.624 12.7752L3.46901 10.0749L5.11222 7.69176H0L0.182579 7.40348C0.663051 6.63472 1.14352 5.89479 1.69126 5.16448L1.74892 5.07799H6.93801L6.95723 5.0876ZM96.2577 10.7187C96.546 11.4779 96.8631 12.237 97.2187 12.9866V13.1115H104.416L104.291 12.8328C103.33 10.7283 102.369 8.60466 101.408 6.48097C100.447 4.35728 99.4865 2.24321 98.5256 0.119523V0.00420936H84.2267L84.1787 0.0906943C83.679 0.782574 83.2177 1.48406 82.718 2.19516L82.5259 2.49305H89.8963L80.7001 7.44191C77.4136 9.21966 74.108 10.9686 70.8216 12.7463L70.1585 13.1115H77.7115C79.1145 12.3235 80.5175 11.5259 81.9301 10.7476L96.2577 10.7187ZM189.056 2.61798H178.995L179.206 2.32008C179.716 1.57055 180.235 0.830621 180.754 0.0906943L180.802 0.00420936H207.593L207.391 0.302102C206.882 1.04203 206.372 1.78196 205.873 2.53149L205.815 2.61798H195.802L192.266 7.77824C191.064 9.52716 189.854 11.2761 188.662 13.025L188.604 13.1115H181.801L182.003 12.804C183.204 11.0647 184.396 9.30614 185.606 7.55723L189.037 2.61798H189.056ZM206.516 7.69176C205.959 8.48934 205.411 9.29653 204.864 10.1037C204.316 10.9109 203.643 11.9007 203.028 12.804L202.826 13.1019H229.3L229.358 13.0154L230.53 11.2857C230.924 10.7091 231.318 10.1326 231.732 9.5656L231.953 9.2581H225.168L225.111 9.34458C224.842 9.71935 224.582 10.1037 224.332 10.4881H211.379C212.013 9.52716 212.657 8.62387 213.301 7.70137H221.651L221.709 7.61488C222.199 6.86535 222.718 6.12542 223.227 5.3951L223.391 5.09721H215.05L216.76 2.61798H229.675C229.454 2.92548 229.233 3.23298 229.031 3.57892L228.868 3.84798H235.643L235.691 3.7615L236.844 2.0318C237.238 1.45523 237.651 0.878668 238.064 0.311711L238.285 0.00420936H211.859L211.802 0.0906943C211.206 0.936325 210.6 1.77235 210.033 2.6372C209.467 3.50204 208.9 4.26119 208.352 5.0876H204.277L204.22 5.16448C203.701 5.9044 203.192 6.64433 202.692 7.40348L202.5 7.69176H206.536H206.516ZM258.725 7.61488L261.088 10.0461C261.982 11.007 262.876 11.8815 263.779 12.7752L264.106 13.1019H256.063L256.005 13.0442C255.179 12.1409 254.333 11.2569 253.516 10.3344L251.2 7.69176H245.127C244.512 8.55661 243.897 9.43107 243.301 10.3151C242.706 11.1992 242.071 12.1121 241.466 13.0154L241.408 13.1019H234.634L236.671 10.0941C237.219 9.28693 237.786 8.48934 238.343 7.69176H234.269L234.48 7.39387C234.989 6.64433 235.508 5.9044 236.017 5.16448L236.075 5.07799H240.13C240.678 4.26119 241.264 3.454 241.802 2.62759C242.34 1.80117 242.984 0.965153 243.57 0.0906943L243.628 0.00420936H260.675C262.962 0.00420936 266.441 0.0906944 268.497 1.03242C269.823 1.63781 270.496 2.6468 269.574 3.97291C268.628 5.10091 267.371 5.92625 265.96 6.34644C263.621 7.11031 261.184 7.5374 258.725 7.61488ZM132.456 7.69176H127.296L127.498 7.39387C127.988 6.65394 128.459 5.91401 128.997 5.1837V5.10682H140.98L140.769 5.41432C140.25 6.13503 139.808 6.87496 139.27 7.60527C138.664 8.50856 138.03 9.39263 137.434 10.3055C136.838 11.2184 136.214 12.1025 135.618 13.0154L135.56 13.1019H135.455C128.046 13.1019 120.637 13.1019 113.228 13.1019C111.037 13.1019 107.193 12.7271 106.501 10.219C106.376 9.54151 106.405 8.84457 106.584 8.17941C106.764 7.51425 107.09 6.89778 107.539 6.37527C109.052 4.4622 111.012 2.95073 113.247 1.97414C116.004 0.693773 119.01 0.0375423 122.049 0.0522565C129.401 0.0522565 136.742 0.0522565 144.084 0.0522565H144.449L144.247 0.359759C143.853 0.926715 143.44 1.49367 143.065 2.07985C142.691 2.66602 142.287 3.21376 141.922 3.80955L141.864 3.89603H135.138L135.339 3.59814C135.541 3.28103 135.743 2.97353 135.954 2.6372H122.895C119.743 2.6372 115.573 3.99213 113.641 6.60589C113.386 6.89349 113.196 7.23326 113.084 7.60164C112.973 7.97002 112.944 8.35818 112.997 8.73919C113.401 10.2383 115.88 10.4881 117.168 10.5169H130.554C131.188 9.55599 131.813 8.64309 132.476 7.72059L132.456 7.69176ZM148.293 10.4785C148.495 10.171 148.706 9.86349 148.927 9.5656L149.148 9.2581H142.354L142.297 9.34458C141.903 9.92115 141.489 10.4881 141.115 11.0743C140.74 11.6605 140.336 12.2178 139.971 12.804L139.779 13.1019H158.219C161.384 13.1563 164.54 12.7517 167.589 11.9007C169.116 11.4298 171.327 10.5458 172.268 9.20044C172.554 8.81978 172.694 8.34927 172.662 7.87434C172.374 5.31823 166.628 5.10682 164.725 5.10682H155.586C154.991 5.10682 152.319 5.02034 152.262 4.21314C152.262 3.75189 153.222 3.31947 153.54 3.19454C154.821 2.76632 156.167 2.56471 157.518 2.59876H168.713L168.088 3.5597L167.896 3.85759H174.623L174.68 3.77111C175.046 3.18493 175.459 2.62759 175.833 2.04141C176.208 1.45523 176.612 0.888278 176.996 0.321321L177.265 0.00420936H159.584C156.47 -0.0453438 153.365 0.342827 150.359 1.15734C148.86 1.59938 146.621 2.46423 145.679 3.7615C145.4 4.10511 145.26 4.54025 145.285 4.9819C145.554 7.54762 151.848 7.69176 153.741 7.69176H162.39C163.063 7.69176 165.561 7.80707 165.638 8.72958C165.638 9.24849 164.792 9.69052 164.398 9.84427C163.078 10.3061 161.683 10.5179 160.285 10.4689L148.293 10.4785ZM54.1204 2.60837C53.5438 3.43478 52.9768 4.25158 52.4099 5.0876H63.1821C64.4505 5.0876 67.6216 4.86658 68.3904 3.7615C69.1591 2.65641 65.6229 2.61798 65.152 2.61798L54.1204 2.60837ZM15.452 2.60837C14.491 3.95369 13.5301 5.2894 12.6172 6.65394C11.7043 8.01848 10.8587 9.21005 9.98421 10.4977H22.8128C24.8479 10.4669 26.853 10.0017 28.6938 9.13317C30.038 8.53003 31.1961 7.5777 32.0475 6.37527C32.2545 6.08492 32.3998 5.75514 32.4742 5.40636C32.5485 5.05758 32.5505 4.69724 32.4799 4.34767C32.0283 2.8486 29.7124 2.61798 28.4055 2.61798L15.452 2.60837ZM86.3696 8.22989L89.8002 6.308L93.644 4.13627L94.4608 6.21191C94.7298 6.88457 94.9989 7.55723 95.2584 8.22989H86.3696ZM246.905 5.09721H257.716C258.974 5.09721 262.184 4.8858 262.943 3.77111C263.702 2.65641 260.156 2.62759 259.676 2.62759H248.625L246.905 5.09721Z" fill="black"/>
<path d="M187.634 15.7894H210.841C210.314 15.8934 209.82 16.1222 209.401 16.4566C208.981 16.791 208.648 17.2213 208.429 17.7112H188.537C188.427 17.7213 188.322 17.7617 188.234 17.8279C188.146 17.8941 188.078 17.9834 188.037 18.086C187.826 18.6145 187.528 19.1431 187.317 19.6716C187.23 19.8734 187.317 20.0367 187.528 20.0367H200.078C202.452 20.0367 203.989 20.2097 204.671 20.5652C205.354 20.9208 205.498 21.5935 205.094 22.5544C204.892 23.0445 204.643 23.5153 204.431 24.015C204.244 24.467 203.962 24.8734 203.604 25.2066C203.245 25.5399 202.82 25.7922 202.356 25.9465C200.722 26.3911 199.031 26.5823 197.339 26.5135H187.298C183.944 26.5135 179.937 26.5135 176.583 26.5135C176.842 25.8312 177.294 25.1586 177.544 24.4763H196.542C196.65 24.466 196.754 24.4267 196.842 24.3624C196.93 24.2981 196.999 24.2113 197.042 24.1111L197.733 22.4103C197.82 22.2085 197.733 22.0451 197.541 22.0451L184.953 22.1028C183.399 22.2233 181.836 22.0439 180.35 21.5742C179.658 21.2091 179.504 20.546 179.879 19.5659C180.033 19.1623 180.235 18.7683 180.388 18.3743C180.58 17.8972 180.874 17.4678 181.249 17.116C181.624 16.7641 182.072 16.4983 182.56 16.3371C184.212 15.8875 185.924 15.6995 187.634 15.7797" fill="black"/>
<path d="M244.07 15.8096H263.895C263.587 16.4342 263.289 17.0588 262.991 17.6834H244.791C244.682 17.6949 244.577 17.7347 244.488 17.7987C244.399 17.8627 244.328 17.9488 244.282 18.0486L243.571 19.6245C243.484 19.8263 243.571 19.9897 243.744 19.9897H255.957C258.263 19.9897 259.753 20.153 260.406 20.5182C261.06 20.8833 261.156 21.5272 260.695 22.4401L260.003 23.8815C259.786 24.3297 259.483 24.7305 259.11 25.0604C258.737 25.3903 258.302 25.6429 257.831 25.8034C256.224 26.2281 254.562 26.4094 252.901 26.3415L238.766 26.4568H232.539L233.442 24.3331H252.286C252.394 24.32 252.496 24.2807 252.585 24.2187C252.674 24.1567 252.746 24.0739 252.796 23.9776C253.055 23.4202 253.286 23.0166 253.545 22.4209C253.641 22.2191 253.545 22.0557 253.382 22.0557H241.207C238.891 22.0557 237.363 21.8923 236.748 21.5368C236.133 21.1812 235.979 20.5182 236.412 19.5476C236.594 19.1536 236.767 18.7597 236.95 18.3753C237.145 17.9032 237.437 17.4776 237.808 17.1265C238.179 16.7754 238.62 16.5067 239.102 16.3381C240.719 15.8964 242.395 15.7084 244.07 15.7807" fill="black"/>
<path fill-rule="evenodd" clip-rule="evenodd" d="M233.826 24.8999L233.384 25.9473H238.766L252.882 25.8897C254.481 25.9533 256.08 25.7817 257.629 25.3804C258.036 25.2427 258.41 25.0234 258.729 24.7358C259.048 24.4483 259.305 24.0986 259.484 23.7083L260.175 22.2669C260.368 21.8633 260.608 21.306 260.118 21.0273C259.311 20.5852 256.851 20.566 255.938 20.566H243.724C243.59 20.5644 243.458 20.528 243.342 20.4603C243.226 20.3926 243.129 20.296 243.061 20.1799C242.993 20.0638 242.957 19.9321 242.955 19.7977C242.954 19.6633 242.987 19.5307 243.051 19.4129C243.292 18.894 243.522 18.3655 243.762 17.8466C243.857 17.6525 244.001 17.4866 244.18 17.3652C244.358 17.2438 244.566 17.1713 244.781 17.1547H262.635C262.751 16.9048 262.876 16.6454 263.001 16.3955H244.07C242.451 16.323 240.831 16.498 239.265 16.9144C238.856 17.0561 238.481 17.2825 238.164 17.5789C237.848 17.8753 237.598 18.235 237.43 18.6345C237.257 19.0189 237.074 19.4129 236.901 19.8069C236.728 20.2009 236.488 20.7678 236.988 21.0753C237.824 21.527 240.245 21.5366 241.187 21.5366H253.353C253.488 21.5354 253.622 21.57 253.74 21.637C253.857 21.7039 253.955 21.8009 254.024 21.9179C254.092 22.035 254.128 22.1681 254.128 22.3036C254.129 22.4391 254.093 22.5723 254.025 22.6897C253.785 23.2086 253.526 23.7179 253.276 24.2464C253.183 24.4386 253.041 24.6024 252.863 24.7207C252.686 24.839 252.48 24.9076 252.267 24.9191H233.798" fill="black"/>
<path d="M239.333 15.7647C237.411 16.2068 236.863 16.9467 236.527 17.6866H216.145C215.936 17.7137 215.738 17.7943 215.57 17.9205C215.402 18.0468 215.269 18.2145 215.184 18.4073C214.425 20.1754 213.455 21.8571 212.695 23.6348C212.522 24.0192 212.695 24.3363 213.07 24.3363L232.914 24.2883L231.953 26.4312H207.718C206.411 26.4312 205.796 25.2588 206.411 23.9039C207.199 22.0397 208.217 20.1562 209.044 18.2055C209.341 17.5157 209.818 16.9182 210.425 16.4754C211.032 16.0325 211.746 15.7606 212.494 15.6878H223.179L239.333 15.7647Z" fill="black"/>
<path d="M187.634 15.7894H210.841C210.314 15.8934 209.82 16.1222 209.401 16.4566C208.981 16.791 208.648 17.2213 208.429 17.7112H188.537C188.427 17.7213 188.322 17.7617 188.234 17.8279C188.146 17.8941 188.078 17.9834 188.037 18.086C187.826 18.6145 187.528 19.1431 187.317 19.6716C187.23 19.8734 187.317 20.0367 187.528 20.0367H200.078C202.452 20.0367 203.989 20.2097 204.671 20.5652C205.354 20.9208 205.498 21.5935 205.094 22.5544C204.892 23.0445 204.643 23.5153 204.431 24.015C204.244 24.467 203.962 24.8734 203.604 25.2066C203.245 25.5399 202.82 25.7922 202.356 25.9465C200.722 26.3911 199.031 26.5823 197.339 26.5135H187.298C183.944 26.5135 179.937 26.5135 176.583 26.5135C176.842 25.8312 177.294 25.1586 177.544 24.4763H196.542C196.65 24.466 196.754 24.4267 196.842 24.3624C196.93 24.2981 196.999 24.2113 197.042 24.1111L197.733 22.4103C197.82 22.2085 197.733 22.0451 197.541 22.0451L184.953 22.1028C183.399 22.2233 181.836 22.0439 180.35 21.5742C179.658 21.2091 179.504 20.546 179.879 19.5659C180.033 19.1623 180.235 18.7683 180.388 18.3743C180.58 17.8972 180.874 17.4678 181.249 17.116C181.624 16.7641 182.072 16.4983 182.56 16.3371C184.212 15.8875 185.924 15.6995 187.634 15.7797" fill="black"/>
<path fill-rule="evenodd" clip-rule="evenodd" d="M177.919 25.117C177.774 25.4245 177.611 25.732 177.457 26.0299H197.339C198.958 26.0848 200.576 25.9069 202.144 25.5014C202.541 25.3673 202.904 25.1482 203.208 24.8594C203.512 24.5706 203.749 24.2191 203.903 23.8294C204.114 23.3393 204.354 22.8684 204.566 22.3687C204.777 21.869 204.931 21.3597 204.393 21.0811C203.528 20.6294 201.039 20.6102 200.068 20.6102H187.509C187.373 20.6141 187.239 20.5829 187.119 20.5196C186.999 20.4564 186.897 20.3633 186.824 20.2492C186.75 20.1352 186.708 20.0041 186.7 19.8687C186.692 19.7333 186.719 19.5981 186.779 19.4763C186.99 18.9382 187.288 18.4385 187.499 17.8907C187.583 17.6873 187.724 17.5123 187.905 17.3863C188.085 17.2603 188.298 17.1886 188.518 17.1796H208.063C208.227 16.8866 208.431 16.6181 208.669 16.382C205.027 16.382 201.385 16.382 197.743 16.382H187.634C185.99 16.3125 184.345 16.4874 182.752 16.901C182.344 17.0372 181.969 17.2608 181.656 17.5562C181.342 17.8516 181.097 18.2116 180.936 18.6114C180.782 19.0246 180.58 19.409 180.427 19.8126C180.273 20.2162 180.1 20.8408 180.629 21.1195C181.513 21.5808 183.992 21.6 184.982 21.5904H197.541C197.676 21.5882 197.809 21.6206 197.928 21.6845C198.046 21.7485 198.147 21.8418 198.219 21.9556C198.291 22.0693 198.333 22.1997 198.341 22.3343C198.348 22.4689 198.321 22.6032 198.262 22.7243C198.022 23.2912 197.791 23.8582 197.56 24.4251C197.475 24.6258 197.335 24.7986 197.157 24.9242C196.979 25.0499 196.769 25.1233 196.551 25.1362H177.919" fill="black"/>
<path fill-rule="evenodd" clip-rule="evenodd" d="M139.558 23.2349C139.173 23.8269 138.789 24.4189 138.375 24.9813C138.049 25.4743 137.638 25.9053 137.162 26.2541H143.492L139.558 23.2349ZM160.618 28.8885H167.066L162.245 24.1821C167.983 23.8861 170.763 22.5246 171.71 21.0742C172.656 19.6238 170.556 17.907 164.019 17.907H158.991C158.97 18.2142 158.868 18.5104 158.695 18.7654C158.391 19.1779 158.021 19.5378 157.601 19.831H158.429C163.546 19.831 161.919 22.2878 156.861 22.2878H151.981L160.618 28.8885Z" fill="black"/>
<path fill-rule="evenodd" clip-rule="evenodd" d="M145.71 26.6093H152.158L147.84 21.8734C153.578 21.5774 156.388 20.2158 157.334 18.7654C158.547 16.8414 156.151 15.5982 149.614 15.5982H126.809C126.99 15.9568 127.072 16.3572 127.046 16.758C127.02 17.1588 126.887 17.5453 126.661 17.8774L123.378 22.7022C123.06 23.1929 122.648 23.6155 122.165 23.9454H130.921L135.062 17.5222H143.994C149.141 17.5222 147.485 20.0086 142.427 19.979H137.014L145.71 26.6093Z" fill="black"/>
</svg>
