<svg width="249" height="30" viewBox="0 0 249 30" fill="none" xmlns="http://www.w3.org/2000/svg">
<path fill-rule="evenodd" clip-rule="evenodd" d="M42.0192 4.68785C42.5243 3.93123 43.0477 3.18074 43.5531 2.42322C44.0814 1.63164 44.6507 0.861166 45.1928 0.0787972L45.2458 0.00223981H45.3355C50.5425 0.00223981 55.7474 0.0004039 60.9515 0.0004039C63.0627 0.0004039 66.2673 0.0730398 68.1861 0.945347C69.4189 1.50753 69.9852 2.44343 69.138 3.66033C68.3912 4.72803 67.0199 5.41458 65.8176 5.84532C63.7165 6.59496 61.375 6.88895 59.1476 7.01534C59.8692 7.76312 60.5936 8.5107 61.3163 9.2571C62.1296 10.0985 62.943 10.9399 63.7554 11.7793L64.0424 12.078H56.6784L56.6274 12.0194C55.8722 11.1889 55.1094 10.3655 54.3679 9.52738C53.6483 8.71686 52.9276 7.90447 52.2101 7.09407C50.3349 7.09587 48.4622 7.0959 46.5882 7.0959C46.0162 7.89722 45.4468 8.69786 44.889 9.51115C44.3246 10.3424 43.7554 11.1716 43.1892 12L43.1353 12.0786H36.9137L37.104 11.8007C37.6724 10.9714 38.2406 10.1431 38.8076 9.31467C39.3131 8.57032 39.8193 7.82954 40.3397 7.0959H36.6168L36.8003 6.82066C37.2566 6.12715 37.7351 5.44639 38.2075 4.76154L38.2602 4.68495H38.3511C39.5741 4.68495 40.7962 4.68785 42.0192 4.68785ZM6.39707 4.68902C6.90253 3.93343 7.42676 3.18092 7.93305 2.4234C8.46426 1.62978 9.02651 0.859304 9.57678 0.0789808L9.62762 0.0024234H9.7202C16.4123 0.0024234 23.1018 0.0261261 29.7969 0.0024234C31.8452 -0.00491601 35.1835 0.360998 35.91 2.68344C36.2728 3.84782 35.8232 5.08676 35.1955 6.06952C34.0551 7.85257 32.0923 9.26503 30.2115 10.1861C27.6179 11.457 24.7106 12.07 21.83 12.0788C15.0948 12.1029 8.35579 12.0788 1.62261 12.0788H1.28578L1.4751 11.8009C2.04414 10.9716 2.61235 10.1413 3.17953 9.31485C3.68703 8.57051 4.19519 7.82969 4.71346 7.09605H0L0.169349 6.82492C0.607066 6.12046 1.08238 5.44246 1.561 4.76459L1.61166 4.68902H6.39707ZM88.6952 9.87422C88.9635 10.5778 89.2533 11.2726 89.5415 11.9683L89.5873 12.0788H96.2246L96.1081 11.8288C95.2161 9.87997 94.3448 7.92351 93.4746 5.96773C92.6046 4.01413 91.7324 2.06153 90.8681 0.106777L90.8212 0.000367182H77.6292L77.5753 0.0759332C77.1227 0.721019 76.6715 1.3656 76.2358 2.0235L76.0556 2.29669H82.8503C80.0215 3.8139 77.1965 5.33381 74.3727 6.85782C71.3447 8.49252 68.3048 10.1102 65.2755 11.7461L64.6604 12.0788H71.6226L71.6627 12.0551C72.9553 11.3263 74.252 10.5957 75.5489 9.87628C79.9327 9.87628 84.3114 9.87422 88.6952 9.87422ZM174.22 2.41044C171.247 2.41044 168.275 2.40746 165.306 2.40746H164.967L165.16 2.13307C165.634 1.44738 166.11 0.763722 166.586 0.0788707L166.636 0.000257027H191.33L191.134 0.278177C190.665 0.958937 190.197 1.64072 189.742 2.33153L189.687 2.41033H189.594C186.551 2.41033 183.508 2.40732 180.46 2.40732C179.372 3.9951 178.287 5.57968 177.198 7.16559C176.087 8.77744 174.978 10.3844 173.876 11.9999L173.823 12.0777H173.729C171.783 12.0777 169.836 12.0783 167.886 12.0783H167.552L167.741 11.8004C168.852 10.1915 169.949 8.57206 171.065 6.96515C172.119 5.44896 173.172 3.93343 174.22 2.41044ZM190.335 7.09028C189.824 7.82374 189.317 8.56642 188.813 9.30806C188.25 10.1372 187.686 10.9695 187.121 11.8009L186.935 12.078H187.27C195.259 12.078 203.248 12.07 211.242 12.07H211.332L211.383 11.9944C211.746 11.4661 212.106 10.9308 212.467 10.4034C212.83 9.86807 213.193 9.334 213.57 8.81266L213.773 8.53147H207.521L207.468 8.6063C207.219 8.95318 206.984 9.30804 206.75 9.66665H194.815C195.396 8.80445 195.991 7.94636 196.584 7.09403H204.286L204.337 7.01527C204.789 6.32187 205.26 5.64472 205.731 4.96926L205.925 4.68902H198.231C198.759 3.93138 199.284 3.16985 199.815 2.40758H211.709C211.505 2.69135 211.305 2.97952 211.116 3.26858L210.936 3.54481H217.171L217.226 3.46499C217.587 2.93787 217.946 2.40348 218.306 1.87432C218.671 1.33698 219.05 0.808652 219.434 0.284125L219.637 0.0024234H219.29C211.303 0.0024234 203.316 0.000587491 195.326 0.000587491H195.234L195.182 0.0792379C194.64 0.859561 194.079 1.63205 193.554 2.42362C193.05 3.18524 192.512 3.92754 192.005 4.68825C190.784 4.68825 189.561 4.68524 188.34 4.68524H188.246L188.195 4.76184C187.723 5.4426 187.25 6.12264 186.795 6.81604L186.613 7.09039L190.335 7.09028ZM238.455 7.01527C239.18 7.761 239.904 8.50861 240.632 9.25416C241.455 10.0984 242.274 10.9446 243.11 11.776L243.411 12.078H236.036L235.983 12.0193C235.216 11.1888 234.438 10.3696 233.683 9.52613C232.962 8.7129 232.239 7.90359 231.513 7.09234C229.649 7.09414 227.779 7.09414 225.916 7.09414C225.349 7.89564 224.785 8.69493 224.233 9.50943C223.671 10.3387 223.104 11.1669 222.546 12.0003L222.493 12.0781H222.397C220.46 12.0781 218.521 12.0787 216.58 12.0787H216.248L216.435 11.8007C216.997 10.9715 217.56 10.1391 218.123 9.30979C218.63 8.56628 219.148 7.8296 219.668 7.09392H215.911L216.103 6.81578C216.576 6.13213 217.052 5.44932 217.526 4.76242L217.577 4.68789H217.67C218.883 4.68789 220.095 4.6891 221.31 4.6891C221.816 3.92941 222.354 3.18981 222.859 2.42928C223.383 1.63391 223.944 0.861423 224.483 0.0790543L224.537 0.00414916H224.629C229.836 0.00414916 235.039 0.000550773 240.244 0.000550773C242.351 0.000550773 245.539 0.0761108 247.457 0.948357C248.679 1.50477 249.297 2.43759 248.449 3.66128C247.712 4.72405 246.305 5.4198 245.117 5.84543C243.018 6.59507 240.68 6.88887 238.455 7.01527ZM122.076 7.09403H117.292L117.476 6.81916C117.932 6.13924 118.388 5.4556 118.856 4.78868L118.909 4.7119H119.004C120.587 4.7119 122.177 4.7107 123.765 4.7119H129.946L129.751 4.99298C129.281 5.6599 128.831 6.33981 128.374 7.01732C127.812 7.84866 127.228 8.66514 126.678 9.50634C126.135 10.3456 125.554 11.1588 125.008 11.9993L124.957 12.0788H124.863C118.032 12.0788 111.202 12.1029 104.372 12.0788C102.35 12.07 98.8174 11.7372 98.1325 9.39479C97.7758 8.16357 98.3706 6.85391 99.0803 5.86893C100.352 4.11403 102.4 2.72436 104.344 1.81325C106.864 0.625173 109.676 -0.00494814 112.46 0.00407572C119.23 0.0260939 125.999 0.00407572 132.768 0.00407572H133.099L132.912 0.281261C132.552 0.808676 132.176 1.32808 131.83 1.86903C131.49 2.40757 131.108 2.91964 130.772 3.46179L130.721 3.54176H124.478L124.659 3.26774C124.848 2.98036 125.037 2.69656 125.233 2.41044H113.267C110.363 2.41044 106.518 3.66026 104.73 6.06746C104.332 6.60769 103.964 7.34543 104.147 8.03317C104.512 9.4196 106.812 9.6438 107.983 9.67484C112.098 9.67484 116.211 9.67484 120.329 9.67484C120.905 8.81264 121.485 7.94636 122.076 7.09403ZM136.672 9.66665C136.859 9.38084 137.054 9.09762 137.255 8.81674L137.457 8.53948H131.2L131.148 8.61534C130.783 9.14654 130.405 9.67075 130.062 10.213C129.717 10.751 129.341 11.2697 128.999 11.805L128.828 12.078H129.15C134.707 12.078 140.266 12.0786 145.821 12.0786C148.697 12.0786 151.697 11.8107 154.457 10.9693C155.861 10.5426 157.903 9.72527 158.767 8.4884C159.016 8.12841 159.179 7.70602 159.132 7.26536C158.867 4.91001 153.574 4.71066 151.818 4.71168C149.011 4.71956 146.202 4.71527 143.394 4.71954C142.85 4.71954 140.387 4.64006 140.327 3.90131C140.29 3.47466 141.183 3.07901 141.506 2.9564C142.636 2.53162 143.981 2.41022 145.177 2.41022C148.616 2.41443 152.052 2.41202 155.488 2.41202C155.292 2.69609 155.103 2.98313 154.914 3.26726L154.734 3.54125H160.977L161.028 3.46131C161.368 2.92121 161.743 2.4071 162.087 1.86855C162.43 1.3276 162.805 0.808162 163.168 0.280747L163.353 0.00359838H163.019C157.706 0.00359838 152.392 0 147.079 0C144.241 0 141.293 0.264177 138.564 1.06736C137.183 1.47319 135.122 2.26564 134.254 3.46142C134.015 3.78947 133.849 4.17729 133.891 4.59389C134.122 6.95134 139.953 7.11401 141.693 7.10787C144.341 7.10667 146.99 7.10486 149.639 7.10486C150.259 7.10005 152.555 7.21261 152.627 8.06001C152.667 8.53936 151.854 8.94302 151.487 9.09047C150.346 9.55315 148.925 9.67064 147.701 9.6686C144.024 9.66679 140.347 9.66846 136.672 9.66665ZM49.8638 2.41044C49.3325 3.16688 48.8042 3.92356 48.2877 4.68902C51.6019 4.68902 54.9173 4.68543 58.2304 4.68543C59.3955 4.68543 62.32 4.489 63.0317 3.46209C63.7206 2.46447 60.4761 2.41077 60.0484 2.41077L49.8638 2.41044ZM14.2176 2.40746C13.3476 3.65234 12.4604 4.88521 11.6069 6.14031C10.8037 7.32328 9.98845 8.49448 9.181 9.67679C13.1311 9.67679 17.0813 9.67495 21.0285 9.67495C22.8863 9.62893 24.7725 9.23141 26.4447 8.41493C27.6021 7.84877 28.843 6.97666 29.5297 5.86907C29.8707 5.32903 30.121 4.64042 29.9305 4.00243C29.516 2.61961 27.3838 2.40769 26.1838 2.40769L14.2176 2.40746ZM79.5996 7.5786C80.6574 6.9894 81.7129 6.40037 82.7664 5.8122C83.9637 5.14527 85.1577 4.47662 86.3481 3.81054C86.5999 4.44763 86.8532 5.08665 87.1065 5.72169C87.3525 6.34259 87.595 6.96144 87.84 7.5815C85.0919 7.5815 82.3469 7.5786 79.5996 7.5786ZM227.561 4.6927C230.881 4.68909 234.202 4.68789 237.524 4.68789C238.683 4.68789 241.634 4.4925 242.341 3.46895C242.998 2.45617 239.767 2.41239 239.325 2.41239C235.932 2.41419 232.536 2.41418 229.143 2.41418C228.615 3.1746 228.088 3.93331 227.561 4.6927Z" fill="black"/>
<path d="M137.169 17.3498L98.0511 17.354C96.7811 17.351 96.4086 17.9093 96.4086 17.9093C96.4086 17.9093 91.2969 26.608 90.4516 27.9385C90.085 28.5108 90.7686 29.384 91.6051 29.4129C92.3326 29.4339 92.8926 29.4456 92.8926 29.4456C92.8926 29.4456 129.175 29.5015 131.272 29.4228C132.593 29.375 132.97 29.1329 133.226 28.8475C133.675 28.3442 134.898 26.4225 135.163 25.947C135.377 25.5423 134.11 25.5395 134.11 25.5395L120.917 25.4746L119.319 27.8259L106.717 27.7852L112.079 18.9468L125.249 18.9028L123.807 21.0838L138.363 21.1347C139.161 19.9556 139.967 18.7075 140.058 18.323C140.291 17.3569 137.169 17.3498 137.169 17.3498Z" fill="black"/>
<path d="M60.4675 23.9368L56.6048 29.397H42.3264C42.3264 29.397 41.543 29.3988 41.1482 28.8686C40.8483 28.472 41.3138 27.8051 41.3138 27.8051L48.1774 18.032C48.1774 18.032 48.4527 17.6671 48.8664 17.4947C49.276 17.3173 49.9488 17.3821 49.9488 17.3821H87.93C90.0273 17.3821 92.3327 18.266 92.4345 19.4612C92.4732 19.9148 91.4435 21.7919 90.1968 22.5035C90.0681 22.5761 89.5299 22.974 88.2501 23.1232C86.1757 23.3645 83.2036 23.3457 82.5146 23.3457L80.6137 23.2929C80.6137 23.2929 84.1901 23.572 86.4709 24.188C87.2352 24.3972 87.7717 24.7274 88.0937 24.9813C88.4665 25.2574 88.6397 25.5875 88.4313 26.2442C88.3049 26.6588 87.8772 27.2531 87.5471 27.7721C87.0539 28.5528 86.5157 29.4219 86.5157 29.4219L84.5061 29.414L70.5675 29.3371L73.0725 25.5735C73.0725 25.5735 73.3256 25.2117 73.3476 24.8858C73.3616 24.6194 73.3884 24.2768 72.7424 24.0434C72.2124 23.8489 60.4675 23.9368 60.4675 23.9368ZM74.4381 22.5142C74.6682 22.5142 75.4039 22.5234 76.1116 22.0299C76.4862 21.7678 76.8312 21.2056 77.1324 20.7819C78.0024 19.561 77.6724 18.9309 76.6697 18.9309H63.8256L61.3415 22.4794L74.4381 22.5142Z" fill="black"/>
<path d="M156.303 17.0494C160.06 17.0462 163.786 17.0425 167.535 17.0392C171.276 17.036 178.307 17.0024 182.047 17C180.397 17.4507 179.671 18.5366 179.377 19.294C172.497 19.3032 164.218 19.3264 157.312 19.3342C157.088 19.3342 156.842 19.5338 156.753 19.7771C156.518 20.4132 156.183 21.0474 155.95 21.6801C155.862 21.9222 155.961 22.1208 156.185 22.1193C160.813 22.1114 165.485 22.1023 170.115 22.0928C172.745 22.0883 174.446 22.3003 175.208 22.7341C175.97 23.165 176.126 23.9605 175.677 25.117C175.449 25.7034 175.171 26.2902 174.944 26.8737C174.494 28.0298 173.724 28.8232 172.636 29.246C171.538 29.6752 169.689 29.9115 167.069 29.9215C163.353 29.9343 159.637 29.9517 155.93 29.9666C152.215 29.9817 147.772 29.9839 144.047 30C144.338 29.1909 144.835 28.3769 145.128 27.5641C151.98 27.5468 159.341 27.5331 166.195 27.5121C166.408 27.5121 166.656 27.3151 166.747 27.0753C167.004 26.3976 167.263 25.7184 167.522 25.0372C167.614 24.7976 167.517 24.6015 167.302 24.6015C162.691 24.613 157.979 24.6234 153.36 24.6348C150.736 24.6418 149.027 24.4287 148.255 23.9951C147.489 23.5663 147.314 22.7614 147.738 21.5894C147.909 21.111 148.132 20.6334 148.304 20.1551C148.73 18.9713 149.593 18.1574 150.678 17.7157C151.788 17.2765 153.67 17.0507 156.303 17.0494Z" fill="black"/>
<path d="M218.914 17.0198C222.619 17.0165 226.315 17.013 230.003 17.0105C233.682 17.0073 237.368 17.0035 241.047 17C240.71 17.7658 240.376 18.5253 240.04 19.2853C233.272 19.2932 226.504 19.3029 219.719 19.3121C219.509 19.3134 219.251 19.5123 219.149 19.7568C218.882 20.3937 218.614 21.0308 218.346 21.6662C218.243 21.9085 218.334 22.1076 218.541 22.1076C223.097 22.0983 227.636 22.089 232.173 22.0807C234.752 22.0748 236.418 22.2868 237.146 22.7222C237.866 23.1541 237.982 23.9526 237.469 25.1136C237.21 25.7015 236.952 26.289 236.692 26.8757C236.18 28.037 235.365 28.8319 234.273 29.2557C233.171 29.6865 231.328 29.9088 228.769 29.9181C223.521 29.937 218.254 29.9602 213.005 29.9824C211.879 29.9877 209.361 29.9944 206.047 30L207.062 27.4167C209.995 27.4128 212.235 27.4093 213.274 27.4071C218.221 27.3954 223.159 27.3849 228.099 27.3695C228.305 27.3688 228.563 27.1708 228.668 26.9296C228.961 26.2507 229.213 25.7157 229.508 25.0344C229.613 24.7931 229.525 24.5941 229.317 24.5954C224.781 24.6056 220.261 24.6176 215.723 24.6278C213.143 24.6352 211.484 24.4218 210.749 23.9865C210.018 23.5557 209.892 22.7504 210.377 21.5726C210.576 21.0938 210.771 20.6141 210.972 20.1351C211.468 18.9469 212.26 18.1321 213.365 17.6894C214.481 17.2481 216.335 17.0222 218.914 17.0198Z" fill="black"/>
<path fill-rule="evenodd" clip-rule="evenodd" d="M207.529 27.8377L207.047 29C209.048 28.9969 211.048 28.9944 213.048 28.9856C218.292 28.9646 223.535 28.9424 228.778 28.9235C230.303 28.9192 232.619 28.8692 234.065 28.3355C235.01 27.9868 235.693 27.3477 236.129 26.4123C236.387 25.8571 236.645 25.3021 236.904 24.7468C237.118 24.2889 237.387 23.6344 236.841 23.3246C235.936 22.8105 233.202 22.7949 232.178 22.797C227.645 22.8061 223.111 22.8137 218.576 22.8227C217.886 22.824 217.543 22.1227 217.819 21.5011C218.086 20.8997 218.353 20.299 218.62 19.6975C218.814 19.2608 219.277 18.9069 219.75 18.9056C226.379 18.8969 233.008 18.8891 239.637 18.8803C239.774 18.5873 239.911 18.2932 240.047 18C236.703 18.0025 233.357 18.0044 230.011 18.0079C226.324 18.011 222.636 18.0145 218.949 18.0166C217.415 18.0179 215.075 18.0644 213.623 18.6103C212.665 18.971 212.008 19.631 211.585 20.5866C211.386 21.0378 211.191 21.4902 210.993 21.9412C210.784 22.4212 210.537 23.0858 211.095 23.399C212.017 23.9152 214.723 23.9306 215.762 23.9274C220.284 23.9175 224.805 23.9064 229.326 23.8965C230.021 23.894 230.361 24.5998 230.077 25.2212C229.802 25.8217 229.511 26.4132 229.237 27.0125C229.041 27.4429 228.58 27.7921 228.113 27.7934C223.182 27.8079 218.253 27.8188 213.322 27.8289C211.39 27.8333 209.461 27.8354 207.529 27.8377Z" fill="black"/>
<path d="M214.047 17C211.9 17.5307 211.292 18.4219 210.914 19.3417C204.592 19.3496 194.507 19.3671 188.158 19.3753C187.742 19.3753 187.248 19.7645 187.059 20.243C186.211 22.3794 185.122 24.4047 184.276 26.5411C184.089 27.0128 184.275 27.3965 184.697 27.3952L206.851 27.335L205.806 29.9187C201.189 29.9348 194.195 29.9486 190.68 29.9605C187.166 29.9706 183.387 29.9835 178.752 30C177.296 30.0058 176.656 28.5885 177.294 26.9479C178.171 24.7026 179.313 22.4307 180.23 20.0798C180.882 18.4112 182.616 17.0453 184.089 17.044C188.786 17.0408 192.402 17.044 196.01 17.0358L214.047 17Z" fill="black"/>
<path d="M156.303 17.0494C160.06 17.0462 163.786 17.0425 167.535 17.0392C171.276 17.036 178.307 17.0024 182.047 17C180.397 17.4507 179.671 18.5366 179.377 19.294C172.497 19.3032 164.218 19.3264 157.312 19.3342C157.088 19.3342 156.842 19.5338 156.753 19.7771C156.518 20.4132 156.183 21.0474 155.95 21.6801C155.862 21.9222 155.961 22.1208 156.185 22.1193C160.813 22.1114 165.485 22.1023 170.115 22.0928C172.745 22.0883 174.446 22.3003 175.208 22.7341C175.97 23.165 176.126 23.9605 175.677 25.117C175.449 25.7034 175.171 26.2902 174.944 26.8737C174.494 28.0298 173.724 28.8232 172.636 29.246C171.538 29.6752 169.689 29.9115 167.069 29.9215C163.353 29.9343 159.637 29.9517 155.93 29.9666C152.215 29.9817 147.772 29.9839 144.047 30C144.338 29.1909 144.835 28.3769 145.128 27.5641C151.98 27.5468 159.341 27.5331 166.195 27.5121C166.408 27.5121 166.656 27.3151 166.747 27.0753C167.004 26.3976 167.263 25.7184 167.522 25.0372C167.614 24.7976 167.517 24.6015 167.302 24.6015C162.691 24.613 157.979 24.6234 153.36 24.6348C150.736 24.6418 149.027 24.4287 148.255 23.9951C147.489 23.5663 147.314 22.7614 147.738 21.5894C147.909 21.111 148.132 20.6334 148.304 20.1551C148.73 18.9713 149.593 18.1574 150.678 17.7157C151.788 17.2765 153.67 17.0507 156.303 17.0494Z" fill="black"/>
<path fill-rule="evenodd" clip-rule="evenodd" d="M145.573 27.9607C145.411 28.3139 145.224 28.6554 145.047 29C148.722 28.9871 152.398 28.985 156.073 28.973C159.824 28.9587 163.574 28.9415 167.324 28.9308C168.888 28.9253 171.256 28.8697 172.739 28.3302C173.676 27.9877 174.321 27.367 174.707 26.4404C174.939 25.8804 175.215 25.3411 175.448 24.7822C175.666 24.2568 175.853 23.6469 175.258 23.3328C174.28 22.815 171.499 22.7999 170.404 22.8021C165.713 22.8108 161.024 22.8185 156.333 22.8261C155.647 22.8285 155.273 22.1736 155.518 21.5515C155.76 20.9394 156.088 20.3674 156.327 19.7563C156.507 19.2995 156.978 18.9443 157.471 18.9429C164.77 18.9353 172.069 18.9158 179.369 18.9061C179.554 18.5658 179.783 18.2646 180.047 18C175.965 18.01 171.882 18.0307 167.799 18.0339L156.452 18.0439C154.901 18.0445 152.451 18.0852 150.984 18.6341C150.053 18.9834 149.317 19.6269 148.952 20.5728C148.775 21.0307 148.556 21.4689 148.378 21.9257C148.17 22.4648 148.008 23.0958 148.608 23.4111C149.6 23.9309 152.37 23.9471 153.478 23.9438C158.172 23.9329 162.866 23.9221 167.561 23.9111C168.244 23.9086 168.611 24.5722 168.358 25.1891C168.098 25.8304 167.837 26.471 167.577 27.1123C167.395 27.5573 166.93 27.9117 166.445 27.9129C159.489 27.9323 152.531 27.9452 145.573 27.9607Z" fill="black"/>
<path fill-rule="evenodd" clip-rule="evenodd" d="M42.0192 4.68785C42.5243 3.93123 43.0477 3.18074 43.5531 2.42322C44.0814 1.63164 44.6507 0.861166 45.1928 0.0787972L45.2458 0.00223981H45.3355C50.5425 0.00223981 55.7474 0.0004039 60.9515 0.0004039C63.0627 0.0004039 66.2673 0.0730398 68.1861 0.945347C69.4189 1.50753 69.9852 2.44343 69.138 3.66033C68.3912 4.72803 67.0199 5.41458 65.8176 5.84532C63.7165 6.59496 61.375 6.88895 59.1476 7.01534C59.8692 7.76312 60.5936 8.5107 61.3163 9.2571C62.1296 10.0985 62.943 10.9399 63.7554 11.7793L64.0424 12.078H56.6784L56.6274 12.0194C55.8722 11.1889 55.1094 10.3655 54.3679 9.52738C53.6483 8.71686 52.9276 7.90447 52.2101 7.09407C50.3349 7.09587 48.4622 7.0959 46.5882 7.0959C46.0162 7.89722 45.4468 8.69786 44.889 9.51115C44.3246 10.3424 43.7554 11.1716 43.1892 12L43.1353 12.0786H36.9137L37.104 11.8007C37.6724 10.9714 38.2406 10.1431 38.8076 9.31467C39.3131 8.57032 39.8193 7.82954 40.3397 7.0959H36.6168L36.8003 6.82066C37.2566 6.12715 37.7351 5.44639 38.2075 4.76154L38.2602 4.68495H38.3511C39.5741 4.68495 40.7962 4.68785 42.0192 4.68785ZM6.39707 4.68902C6.90253 3.93343 7.42676 3.18092 7.93305 2.4234C8.46426 1.62978 9.02651 0.859304 9.57678 0.0789808L9.62762 0.0024234H9.7202C16.4123 0.0024234 23.1018 0.0261261 29.7969 0.0024234C31.8452 -0.00491601 35.1835 0.360998 35.91 2.68344C36.2728 3.84782 35.8232 5.08676 35.1955 6.06952C34.0551 7.85257 32.0923 9.26503 30.2115 10.1861C27.6179 11.457 24.7106 12.07 21.83 12.0788C15.0948 12.1029 8.35579 12.0788 1.62261 12.0788H1.28578L1.4751 11.8009C2.04414 10.9716 2.61235 10.1413 3.17953 9.31485C3.68703 8.57051 4.19519 7.82969 4.71346 7.09605H0L0.169349 6.82492C0.607066 6.12046 1.08238 5.44246 1.561 4.76459L1.61166 4.68902H6.39707ZM88.6952 9.87422C88.9635 10.5778 89.2533 11.2726 89.5415 11.9683L89.5873 12.0788H96.2246L96.1081 11.8288C95.2161 9.87997 94.3448 7.92351 93.4746 5.96773C92.6046 4.01413 91.7324 2.06153 90.8681 0.106777L90.8212 0.000367182H77.6292L77.5753 0.0759332C77.1227 0.721019 76.6715 1.3656 76.2358 2.0235L76.0556 2.29669H82.8503C80.0215 3.8139 77.1965 5.33381 74.3727 6.85782C71.3447 8.49252 68.3048 10.1102 65.2755 11.7461L64.6604 12.0788H71.6226L71.6627 12.0551C72.9553 11.3263 74.252 10.5957 75.5489 9.87628C79.9327 9.87628 84.3114 9.87422 88.6952 9.87422ZM174.22 2.41044C171.247 2.41044 168.275 2.40746 165.306 2.40746H164.967L165.16 2.13307C165.634 1.44738 166.11 0.763722 166.586 0.0788707L166.636 0.000257027H191.33L191.134 0.278177C190.665 0.958937 190.197 1.64072 189.742 2.33153L189.687 2.41033H189.594C186.551 2.41033 183.508 2.40732 180.46 2.40732C179.372 3.9951 178.287 5.57968 177.198 7.16559C176.087 8.77744 174.978 10.3844 173.876 11.9999L173.823 12.0777H173.729C171.783 12.0777 169.836 12.0783 167.886 12.0783H167.552L167.741 11.8004C168.852 10.1915 169.949 8.57206 171.065 6.96515C172.119 5.44896 173.172 3.93343 174.22 2.41044ZM190.335 7.09028C189.824 7.82374 189.317 8.56642 188.813 9.30806C188.25 10.1372 187.686 10.9695 187.121 11.8009L186.935 12.078H187.27C195.259 12.078 203.248 12.07 211.242 12.07H211.332L211.383 11.9944C211.746 11.4661 212.106 10.9308 212.467 10.4034C212.83 9.86807 213.193 9.334 213.57 8.81266L213.773 8.53147H207.521L207.468 8.6063C207.219 8.95318 206.984 9.30804 206.75 9.66665H194.815C195.396 8.80445 195.991 7.94636 196.584 7.09403H204.286L204.337 7.01527C204.789 6.32187 205.26 5.64472 205.731 4.96926L205.925 4.68902H198.231C198.759 3.93138 199.284 3.16985 199.815 2.40758H211.709C211.505 2.69135 211.305 2.97952 211.116 3.26858L210.936 3.54481H217.171L217.226 3.46499C217.587 2.93787 217.946 2.40348 218.306 1.87432C218.671 1.33698 219.05 0.808652 219.434 0.284125L219.637 0.0024234H219.29C211.303 0.0024234 203.316 0.000587491 195.326 0.000587491H195.234L195.182 0.0792379C194.64 0.859561 194.079 1.63205 193.554 2.42362C193.05 3.18524 192.512 3.92754 192.005 4.68825C190.784 4.68825 189.561 4.68524 188.34 4.68524H188.246L188.195 4.76184C187.723 5.4426 187.25 6.12264 186.795 6.81604L186.613 7.09039L190.335 7.09028ZM238.455 7.01527C239.18 7.761 239.904 8.50861 240.632 9.25416C241.455 10.0984 242.274 10.9446 243.11 11.776L243.411 12.078H236.036L235.983 12.0193C235.216 11.1888 234.438 10.3696 233.683 9.52613C232.962 8.7129 232.239 7.90359 231.513 7.09234C229.649 7.09414 227.779 7.09414 225.916 7.09414C225.349 7.89564 224.785 8.69493 224.233 9.50943C223.671 10.3387 223.104 11.1669 222.546 12.0003L222.493 12.0781H222.397C220.46 12.0781 218.521 12.0787 216.58 12.0787H216.248L216.435 11.8007C216.997 10.9715 217.56 10.1391 218.123 9.30979C218.63 8.56628 219.148 7.8296 219.668 7.09392H215.911L216.103 6.81578C216.576 6.13213 217.052 5.44932 217.526 4.76242L217.577 4.68789H217.67C218.883 4.68789 220.095 4.6891 221.31 4.6891C221.816 3.92941 222.354 3.18981 222.859 2.42928C223.383 1.63391 223.944 0.861423 224.483 0.0790543L224.537 0.00414916H224.629C229.836 0.00414916 235.039 0.000550773 240.244 0.000550773C242.351 0.000550773 245.539 0.0761108 247.457 0.948357C248.679 1.50477 249.297 2.43759 248.449 3.66128C247.712 4.72405 246.305 5.4198 245.117 5.84543C243.018 6.59507 240.68 6.88887 238.455 7.01527ZM122.076 7.09403H117.292L117.476 6.81916C117.932 6.13924 118.388 5.4556 118.856 4.78868L118.909 4.7119H119.004C120.587 4.7119 122.177 4.7107 123.765 4.7119H129.946L129.751 4.99298C129.281 5.6599 128.831 6.33981 128.374 7.01732C127.812 7.84866 127.228 8.66514 126.678 9.50634C126.135 10.3456 125.554 11.1588 125.008 11.9993L124.957 12.0788H124.863C118.032 12.0788 111.202 12.1029 104.372 12.0788C102.35 12.07 98.8174 11.7372 98.1325 9.39479C97.7758 8.16357 98.3706 6.85391 99.0803 5.86893C100.352 4.11403 102.4 2.72436 104.344 1.81325C106.864 0.625173 109.676 -0.00494814 112.46 0.00407572C119.23 0.0260939 125.999 0.00407572 132.768 0.00407572H133.099L132.912 0.281261C132.552 0.808676 132.176 1.32808 131.83 1.86903C131.49 2.40757 131.108 2.91964 130.772 3.46179L130.721 3.54176H124.478L124.659 3.26774C124.848 2.98036 125.037 2.69656 125.233 2.41044H113.267C110.363 2.41044 106.518 3.66026 104.73 6.06746C104.332 6.60769 103.964 7.34543 104.147 8.03317C104.512 9.4196 106.812 9.6438 107.983 9.67484C112.098 9.67484 116.211 9.67484 120.329 9.67484C120.905 8.81264 121.485 7.94636 122.076 7.09403ZM136.672 9.66665C136.859 9.38084 137.054 9.09762 137.255 8.81674L137.457 8.53948H131.2L131.148 8.61534C130.783 9.14654 130.405 9.67075 130.062 10.213C129.717 10.751 129.341 11.2697 128.999 11.805L128.828 12.078H129.15C134.707 12.078 140.266 12.0786 145.821 12.0786C148.697 12.0786 151.697 11.8107 154.457 10.9693C155.861 10.5426 157.903 9.72527 158.767 8.4884C159.016 8.12841 159.179 7.70602 159.132 7.26536C158.867 4.91001 153.574 4.71066 151.818 4.71168C149.011 4.71956 146.202 4.71527 143.394 4.71954C142.85 4.71954 140.387 4.64006 140.327 3.90131C140.29 3.47466 141.183 3.07901 141.506 2.9564C142.636 2.53162 143.981 2.41022 145.177 2.41022C148.616 2.41443 152.052 2.41202 155.488 2.41202C155.292 2.69609 155.103 2.98313 154.914 3.26726L154.734 3.54125H160.977L161.028 3.46131C161.368 2.92121 161.743 2.4071 162.087 1.86855C162.43 1.3276 162.805 0.808162 163.168 0.280747L163.353 0.00359838H163.019C157.706 0.00359838 152.392 0 147.079 0C144.241 0 141.293 0.264177 138.564 1.06736C137.183 1.47319 135.122 2.26564 134.254 3.46142C134.015 3.78947 133.849 4.17729 133.891 4.59389C134.122 6.95134 139.953 7.11401 141.693 7.10787C144.341 7.10667 146.99 7.10486 149.639 7.10486C150.259 7.10005 152.555 7.21261 152.627 8.06001C152.667 8.53936 151.854 8.94302 151.487 9.09047C150.346 9.55315 148.925 9.67064 147.701 9.6686C144.024 9.66679 140.347 9.66846 136.672 9.66665ZM49.8638 2.41044C49.3325 3.16688 48.8042 3.92356 48.2877 4.68902C51.6019 4.68902 54.9173 4.68543 58.2304 4.68543C59.3955 4.68543 62.32 4.489 63.0317 3.46209C63.7206 2.46447 60.4761 2.41077 60.0484 2.41077L49.8638 2.41044ZM14.2176 2.40746C13.3476 3.65234 12.4604 4.88521 11.6069 6.14031C10.8037 7.32328 9.98845 8.49448 9.181 9.67679C13.1311 9.67679 17.0813 9.67495 21.0285 9.67495C22.8863 9.62893 24.7725 9.23141 26.4447 8.41493C27.6021 7.84877 28.843 6.97666 29.5297 5.86907C29.8707 5.32903 30.121 4.64042 29.9305 4.00243C29.516 2.61961 27.3838 2.40769 26.1838 2.40769L14.2176 2.40746ZM79.5996 7.5786C80.6574 6.9894 81.7129 6.40037 82.7664 5.8122C83.9637 5.14527 85.1577 4.47662 86.3481 3.81054C86.5999 4.44763 86.8532 5.08665 87.1065 5.72169C87.3525 6.34259 87.595 6.96144 87.84 7.5815C85.0919 7.5815 82.3469 7.5786 79.5996 7.5786ZM227.561 4.6927C230.881 4.68909 234.202 4.68789 237.524 4.68789C238.683 4.68789 241.634 4.4925 242.341 3.46895C242.998 2.45617 239.767 2.41239 239.325 2.41239C235.932 2.41419 232.536 2.41418 229.143 2.41418C228.615 3.1746 228.088 3.93331 227.561 4.6927Z" fill="black"/>
<path d="M156.303 17.0494C160.06 17.0462 163.786 17.0425 167.535 17.0392C171.276 17.036 178.307 17.0024 182.047 17C180.397 17.4507 179.671 18.5366 179.377 19.294C172.497 19.3032 164.218 19.3264 157.312 19.3342C157.088 19.3342 156.842 19.5338 156.753 19.7771C156.518 20.4132 156.183 21.0474 155.95 21.6801C155.862 21.9222 155.961 22.1208 156.185 22.1193C160.813 22.1114 165.485 22.1023 170.115 22.0928C172.745 22.0883 174.446 22.3003 175.208 22.7341C175.97 23.165 176.126 23.9605 175.677 25.117C175.449 25.7034 175.171 26.2902 174.944 26.8737C174.494 28.0298 173.724 28.8232 172.636 29.246C171.538 29.6752 169.689 29.9115 167.069 29.9215C163.353 29.9343 159.637 29.9517 155.93 29.9666C152.215 29.9817 147.772 29.9839 144.047 30C144.338 29.1909 144.835 28.3769 145.128 27.5641C151.98 27.5468 159.341 27.5331 166.195 27.5121C166.408 27.5121 166.656 27.3151 166.747 27.0753C167.004 26.3976 167.263 25.7184 167.522 25.0372C167.614 24.7976 167.517 24.6015 167.302 24.6015C162.691 24.613 157.979 24.6234 153.36 24.6348C150.736 24.6418 149.027 24.4287 148.255 23.9951C147.489 23.5663 147.314 22.7614 147.738 21.5894C147.909 21.111 148.132 20.6334 148.304 20.1551C148.73 18.9713 149.593 18.1574 150.678 17.7157C151.788 17.2765 153.67 17.0507 156.303 17.0494Z" fill="black"/>
<path d="M218.914 17.0198C222.619 17.0165 226.315 17.013 230.003 17.0105C233.682 17.0073 237.368 17.0035 241.047 17C240.71 17.7658 240.376 18.5253 240.04 19.2853C233.272 19.2932 226.504 19.3029 219.719 19.3121C219.509 19.3134 219.251 19.5123 219.149 19.7568C218.882 20.3937 218.614 21.0308 218.346 21.6662C218.243 21.9085 218.334 22.1076 218.541 22.1076C223.097 22.0983 227.636 22.089 232.173 22.0807C234.752 22.0748 236.418 22.2868 237.146 22.7222C237.866 23.1541 237.982 23.9526 237.469 25.1136C237.21 25.7015 236.952 26.289 236.692 26.8757C236.18 28.037 235.365 28.8319 234.273 29.2557C233.171 29.6865 231.328 29.9088 228.769 29.9181C223.521 29.937 218.254 29.9602 213.005 29.9824C211.879 29.9877 209.361 29.9944 206.047 30L207.062 27.4167C209.995 27.4128 212.235 27.4093 213.274 27.4071C218.221 27.3954 223.159 27.3849 228.099 27.3695C228.305 27.3688 228.563 27.1708 228.668 26.9296C228.961 26.2507 229.213 25.7157 229.508 25.0344C229.613 24.7931 229.525 24.5941 229.317 24.5954C224.781 24.6056 220.261 24.6176 215.723 24.6278C213.143 24.6352 211.484 24.4218 210.749 23.9865C210.018 23.5557 209.892 22.7504 210.377 21.5726C210.576 21.0938 210.771 20.6141 210.972 20.1351C211.468 18.9469 212.26 18.1321 213.365 17.6894C214.481 17.2481 216.335 17.0222 218.914 17.0198Z" fill="black"/>
<path fill-rule="evenodd" clip-rule="evenodd" d="M207.529 27.8377L207.047 29C209.048 28.9969 211.048 28.9944 213.048 28.9856C218.292 28.9646 223.535 28.9424 228.778 28.9235C230.303 28.9192 232.619 28.8692 234.065 28.3355C235.01 27.9868 235.693 27.3477 236.129 26.4123C236.387 25.8571 236.645 25.3021 236.904 24.7468C237.118 24.2889 237.387 23.6344 236.841 23.3246C235.936 22.8105 233.202 22.7949 232.178 22.797C227.645 22.8061 223.111 22.8137 218.576 22.8227C217.886 22.824 217.543 22.1227 217.819 21.5011C218.086 20.8997 218.353 20.299 218.62 19.6975C218.814 19.2608 219.277 18.9069 219.75 18.9056C226.379 18.8969 233.008 18.8891 239.637 18.8803C239.774 18.5873 239.911 18.2932 240.047 18C236.703 18.0025 233.357 18.0044 230.011 18.0079C226.324 18.011 222.636 18.0145 218.949 18.0166C217.415 18.0179 215.075 18.0644 213.623 18.6103C212.665 18.971 212.008 19.631 211.585 20.5866C211.386 21.0378 211.191 21.4902 210.993 21.9412C210.784 22.4212 210.537 23.0858 211.095 23.399C212.017 23.9152 214.723 23.9306 215.762 23.9274C220.284 23.9175 224.805 23.9064 229.326 23.8965C230.021 23.894 230.361 24.5998 230.077 25.2212C229.802 25.8217 229.511 26.4132 229.237 27.0125C229.041 27.4429 228.58 27.7921 228.113 27.7934C223.182 27.8079 218.253 27.8188 213.322 27.8289C211.39 27.8333 209.461 27.8354 207.529 27.8377Z" fill="black"/>
<path d="M214.047 17C211.9 17.5307 211.292 18.4219 210.914 19.3417C204.592 19.3496 194.507 19.3671 188.158 19.3753C187.742 19.3753 187.248 19.7645 187.059 20.243C186.211 22.3794 185.122 24.4047 184.276 26.5411C184.089 27.0128 184.275 27.3965 184.697 27.3952L206.851 27.335L205.806 29.9187C201.189 29.9348 194.195 29.9486 190.68 29.9605C187.166 29.9706 183.387 29.9835 178.752 30C177.296 30.0058 176.656 28.5885 177.294 26.9479C178.171 24.7026 179.313 22.4307 180.23 20.0798C180.882 18.4112 182.616 17.0453 184.089 17.044C188.786 17.0408 192.402 17.044 196.01 17.0358L214.047 17Z" fill="black"/>
<path d="M156.303 17.0494C160.06 17.0462 163.786 17.0425 167.535 17.0392C171.276 17.036 178.307 17.0024 182.047 17C180.397 17.4507 179.671 18.5366 179.377 19.294C172.497 19.3032 164.218 19.3264 157.312 19.3342C157.088 19.3342 156.842 19.5338 156.753 19.7771C156.518 20.4132 156.183 21.0474 155.95 21.6801C155.862 21.9222 155.961 22.1208 156.185 22.1193C160.813 22.1114 165.485 22.1023 170.115 22.0928C172.745 22.0883 174.446 22.3003 175.208 22.7341C175.97 23.165 176.126 23.9605 175.677 25.117C175.449 25.7034 175.171 26.2902 174.944 26.8737C174.494 28.0298 173.724 28.8232 172.636 29.246C171.538 29.6752 169.689 29.9115 167.069 29.9215C163.353 29.9343 159.637 29.9517 155.93 29.9666C152.215 29.9817 147.772 29.9839 144.047 30C144.338 29.1909 144.835 28.3769 145.128 27.5641C151.98 27.5468 159.341 27.5331 166.195 27.5121C166.408 27.5121 166.656 27.3151 166.747 27.0753C167.004 26.3976 167.263 25.7184 167.522 25.0372C167.614 24.7976 167.517 24.6015 167.302 24.6015C162.691 24.613 157.979 24.6234 153.36 24.6348C150.736 24.6418 149.027 24.4287 148.255 23.9951C147.489 23.5663 147.314 22.7614 147.738 21.5894C147.909 21.111 148.132 20.6334 148.304 20.1551C148.73 18.9713 149.593 18.1574 150.678 17.7157C151.788 17.2765 153.67 17.0507 156.303 17.0494Z" fill="black"/>
<path fill-rule="evenodd" clip-rule="evenodd" d="M145.573 27.9607C145.411 28.3139 145.224 28.6554 145.047 29C148.722 28.9871 152.398 28.985 156.073 28.973C159.824 28.9587 163.574 28.9415 167.324 28.9308C168.888 28.9253 171.256 28.8697 172.739 28.3302C173.676 27.9877 174.321 27.367 174.707 26.4404C174.939 25.8804 175.215 25.3411 175.448 24.7822C175.666 24.2568 175.853 23.6469 175.258 23.3328C174.28 22.815 171.499 22.7999 170.404 22.8021C165.713 22.8108 161.024 22.8185 156.333 22.8261C155.647 22.8285 155.273 22.1736 155.518 21.5515C155.76 20.9394 156.088 20.3674 156.327 19.7563C156.507 19.2995 156.978 18.9443 157.471 18.9429C164.77 18.9353 172.069 18.9158 179.369 18.9061C179.554 18.5658 179.783 18.2646 180.047 18C175.965 18.01 171.882 18.0307 167.799 18.0339L156.452 18.0439C154.901 18.0445 152.451 18.0852 150.984 18.6341C150.053 18.9834 149.317 19.6269 148.952 20.5728C148.775 21.0307 148.556 21.4689 148.378 21.9257C148.17 22.4648 148.008 23.0958 148.608 23.4111C149.6 23.9309 152.37 23.9471 153.478 23.9438C158.172 23.9329 162.866 23.9221 167.561 23.9111C168.244 23.9086 168.611 24.5722 168.358 25.1891C168.098 25.8304 167.837 26.471 167.577 27.1123C167.395 27.5573 166.93 27.9117 166.445 27.9129C159.489 27.9323 152.531 27.9452 145.573 27.9607Z" fill="black"/>
</svg>
