<svg width="162" height="29" viewBox="0 0 162 29" fill="none" xmlns="http://www.w3.org/2000/svg">
<path d="M23.8678 15.541H14.9412C14.7562 15.541 14.5943 15.6104 14.4787 15.7491C14.4787 15.7491 11.8886 18.9868 11.4954 19.403C11.1023 19.8193 11.3335 19.7731 11.426 19.8656C11.5185 19.9349 11.6573 19.9812 11.7729 19.9581C11.7729 19.9581 20.237 19.9812 20.7227 19.9581C20.9308 19.9581 21.1158 19.8887 21.2546 19.7268L21.4396 19.5187L22.1333 18.6861C22.249 18.5243 21.9483 18.5243 21.9483 18.5243H18.9188L18.2019 19.3799H15.3574L16.4444 17.9924H20.8152L21.1852 17.5067H16.7913L17.9244 16.1423H20.9077L20.237 16.9517H23.5672C23.8678 16.6279 24.1222 16.281 24.3766 15.911C24.5847 15.5641 23.8678 15.5641 23.8678 15.5641" fill="#000"/>
<path d="M68.0845 16.3967H65.1244L62.6268 20.0043H58.9267L61.563 16.3967H58.1404L58.8342 15.541H68.7783L68.0845 16.3967Z" fill="#000"/>
<path d="M74.9067 16.9054L73.5885 18.5011L72.8716 19.3568H69.819L72.4554 16.1192H75.5774L74.9067 16.9054ZM78.8381 15.541H69.4721C69.2871 15.541 69.1252 15.6104 69.0096 15.7491C69.0096 15.7491 66.3964 18.9868 66.0032 19.403C65.6101 19.8193 65.8414 19.7731 65.9339 19.8656C66.0264 19.9349 66.142 19.9812 66.2576 19.9581C66.2576 19.9581 75.323 19.9812 75.8086 19.9581C76.0168 19.9581 76.2018 19.8887 76.3405 19.7268C76.4099 19.6574 76.4793 19.5881 76.5255 19.5187L78.5375 16.9286C78.9075 16.4892 79.2775 16.0267 79.37 15.8879C79.4625 15.7491 78.8381 15.541 78.8381 15.541Z" fill="#000"/>
<path d="M8.55839 17.4135C8.72027 17.4135 8.88215 17.3441 9.0209 17.2516C9.15966 17.1129 9.29842 16.951 9.41405 16.7891C9.80719 16.3497 9.80719 16.1185 9.57593 16.1185H6.63893L5.55202 17.4135H8.55839ZM5.13575 17.9454L3.47068 19.9342H0.186801C0.0942974 19.9342 0.0017937 19.8417 0.0017937 19.7492C-0.0213322 19.5874 0.186801 19.3561 0.186801 19.3561L2.31439 16.8122L3.17005 15.7716C3.23942 15.7022 3.3088 15.6328 3.4013 15.5866C3.49381 15.5403 3.58631 15.5172 3.67882 15.5403H12.3973C12.8598 15.5403 13.2761 15.8641 13.1373 16.3035C12.8829 16.7429 12.5592 17.1129 12.166 17.4135C12.0041 17.5292 11.8191 17.6217 11.6341 17.6448C11.1947 17.7142 10.7322 17.7373 10.2928 17.7142H9.85344C10.2697 17.7604 10.686 17.876 11.0791 18.0379C11.1947 18.0842 11.2872 18.1998 11.3335 18.3154C11.3797 18.4311 11.3797 18.5467 11.241 18.778C11.1022 18.9861 10.9635 19.1711 10.8016 19.333L10.3391 19.9574H6.68519L7.79523 18.5929C7.86461 18.5236 7.91086 18.4311 7.95711 18.3386C8.00336 18.2461 8.07274 18.1073 7.95711 18.0379C7.84148 17.9685 5.13575 17.9454 5.13575 17.9454Z" fill="#000"/>
<path d="M30.6437 17.3911C31.0369 17.3217 31.3606 17.0905 31.5688 16.7436C31.8925 16.2579 31.9157 16.1654 31.6844 16.1654H28.7937L27.7761 17.4142L30.6437 17.3911ZM27.4061 17.8999L25.7179 19.9349H22.434C22.3415 19.9349 22.249 19.8424 22.249 19.7499C22.249 19.6112 22.2953 19.4724 22.3878 19.3799L25.2554 15.8185L25.4867 15.6335C25.5792 15.5873 25.6717 15.5641 25.7873 15.541H34.5289C34.8758 15.541 35.1995 15.6335 35.3383 15.8879C35.3845 16.0035 35.4077 16.1423 35.3614 16.281C35.292 16.6973 34.4826 17.7611 33.9276 17.8536C33.4651 17.8999 33.0026 17.923 32.5401 17.8999H27.4061Z" fill="#000"/>
<path d="M38.7376 17.4146H42.3222L42.9928 16.6283C43.0853 16.5127 43.1778 16.3971 43.0853 16.2814C42.9928 16.1658 42.8309 16.1658 42.669 16.1658H40.1252C39.8708 16.1658 39.6395 16.3046 39.5008 16.5127L38.7376 17.4146ZM36.6563 19.9585H33.4649C33.4649 19.9585 33.2105 19.9816 33.2337 19.7966C33.2568 19.6578 33.303 19.5191 33.4187 19.4266L35.4769 16.9058C35.7775 16.5127 36.2632 15.9346 36.8876 15.6802C37.512 15.4258 38.1364 15.4258 38.807 15.4258H45.3285C45.9992 15.4258 46.4386 15.4952 46.6236 15.7958C46.8086 16.0964 46.7161 16.4664 46.4386 16.8596L43.9641 19.9585H40.2871L41.929 17.9234H38.3676L36.6563 19.9585Z" fill="#000"/>
<path d="M53.3996 17.4135C53.5615 17.4135 53.7234 17.3441 53.8621 17.2516C54.0009 17.1129 54.1396 16.951 54.2784 16.7891C54.6484 16.3497 54.6484 16.1185 54.4403 16.1185H51.4802L50.3932 17.4135H53.3996V17.4135ZM50.0001 17.9454L48.3119 19.9342H45.0512C44.9355 19.9342 44.8661 19.8649 44.843 19.7492C44.8661 19.6105 44.9355 19.4717 45.028 19.3561L47.1556 16.8122L48.0113 15.7716C48.0806 15.7022 48.15 15.6328 48.2425 15.5866C48.335 15.5403 48.4275 15.5172 48.52 15.5403H57.2385C57.7242 15.5403 58.1173 15.8641 57.9785 16.3035C57.7242 16.7197 57.4004 17.1129 57.0304 17.4135C56.8685 17.5292 56.6835 17.6217 56.4754 17.6448C56.036 17.7142 55.5734 17.7373 55.1341 17.7142H54.7178C55.1341 17.7604 55.5272 17.876 55.9203 18.0379C56.036 18.0842 56.1285 18.1998 56.1747 18.3154C56.221 18.4311 56.221 18.5467 56.0822 18.778C55.9435 18.963 55.8047 19.148 55.666 19.333L55.1803 19.9574H51.5264L52.6596 18.5929L52.8215 18.3386C52.8446 18.2461 52.914 18.1073 52.7983 18.0379C52.6827 17.9685 50.0001 17.9454 50.0001 17.9454Z" fill="#000"/>
<path d="M134.872 16.3503H131.195C130.987 16.3503 130.802 16.3735 130.455 16.7435C130.293 16.9285 130.154 17.1135 130.062 17.3447C130.062 17.4372 130.178 17.4835 130.247 17.4835H137.023C137.578 17.4835 137.971 17.6916 137.902 17.9691C137.74 18.2698 137.532 18.5473 137.3 18.8017C136.884 19.3104 136.63 19.5648 136.167 19.7267C135.705 19.8886 134.895 19.9117 134.34 19.9117H123.425C123.425 19.9117 123.17 19.9348 123.101 19.8423C123.032 19.7498 123.147 19.588 123.147 19.588L123.91 18.686H128.536L128.027 19.1717H131.912C132.074 19.1717 132.236 19.1254 132.375 19.0098C132.606 18.8248 132.791 18.5935 132.953 18.3623C133.161 18.1079 133.091 17.9691 132.883 17.9691H125.969C125.691 17.9923 125.414 17.946 125.159 17.8535C124.997 17.7841 124.882 17.6685 124.905 17.5297C124.928 17.391 125.437 16.8128 125.576 16.651C125.714 16.4891 126.015 16.0497 126.362 15.8878C127.056 15.5872 127.819 15.6334 128.374 15.6334H138.827C139.035 15.6565 139.22 15.6797 139.428 15.7259C139.52 15.7722 139.613 15.8647 139.59 15.9572L139.497 16.1191L138.78 16.9747H134.502L135.011 16.3272L134.872 16.3503Z" fill="#000"/>
<path d="M95.0493 15.6802H83.3245C83.1163 15.657 82.9313 15.7264 82.7694 15.8652C82.7694 15.8652 80.3412 19.0103 79.9712 19.4034C79.8556 19.4959 79.8324 19.6347 79.9018 19.7503C79.9249 19.7966 79.9712 19.8197 80.0174 19.8428C80.1562 19.9122 80.3181 19.9585 80.48 19.9353H92.2511C92.6442 19.9122 92.783 19.8197 92.8755 19.7272C92.9448 19.6578 93.0142 19.5884 93.0605 19.4959C93.0605 19.4959 93.6155 18.8484 93.708 18.7097C93.8005 18.5709 93.4305 18.5478 93.4305 18.5478H89.4528L88.7822 19.3803H84.9664L87.4177 16.2352H91.326L90.7016 17.0215H95.0724C95.4193 16.6052 95.7662 16.1658 95.8356 16.0502C95.905 15.9345 95.0493 15.7033 95.0493 15.6802Z" fill="#000"/>
<path d="M104.924 16.9983L103.629 18.5247L102.935 19.3572H98.9346L101.455 16.2352H105.549L104.924 16.9983ZM109.688 15.6802H97.3852C97.177 15.657 96.992 15.7264 96.8301 15.8652C96.8301 15.8652 94.3094 19.0103 93.9163 19.4034C93.8006 19.4959 93.7775 19.6347 93.8469 19.7503C93.87 19.7966 93.9163 19.8197 93.9625 19.8428C94.1013 19.9122 94.2632 19.9585 94.425 19.9353H106.959C107.376 19.9122 107.514 19.8197 107.607 19.7272C107.676 19.6578 107.746 19.5884 107.792 19.4959L109.711 16.9983C110.058 16.5821 110.405 16.1427 110.474 16.0271C110.544 15.9114 109.688 15.6802 109.688 15.6802Z" fill="#000"/>
<path d="M152.795 15.6802H141.07C140.885 15.657 140.677 15.7264 140.538 15.8652C140.538 15.8652 138.11 19.0103 137.717 19.4034C137.601 19.4959 137.578 19.6347 137.647 19.7503C137.67 19.7966 137.717 19.8197 137.763 19.8428C137.902 19.9122 138.063 19.9585 138.225 19.9353H149.996C150.228 19.9585 150.459 19.866 150.644 19.7272L150.806 19.4959L151.476 18.7097C151.569 18.5478 151.176 18.5478 151.176 18.5478H147.221L146.528 19.3803H142.758L143.799 18.039H149.511L149.881 17.5765H144.053L144.978 16.2583H149.071L148.447 17.0446H152.841C153.118 16.744 153.35 16.4202 153.581 16.0733C153.743 15.7264 152.795 15.7264 152.795 15.7264" fill="#000"/>
<path d="M119.216 17.4828C119.401 17.4828 119.586 17.4366 119.748 17.3209C119.91 17.1822 120.048 17.0434 120.164 16.8815C120.534 16.4421 120.488 16.234 120.187 16.234H116.302L115.261 17.4828H119.216ZM114.868 17.9916L113.249 19.911H108.948C108.809 19.911 108.694 19.8417 108.624 19.726C108.578 19.5873 108.763 19.356 108.763 19.356L110.821 16.9047L111.677 15.9103C111.746 15.8177 111.839 15.7715 111.931 15.7252C112.024 15.679 112.139 15.6559 112.255 15.679H123.725C124.35 15.679 124.974 16.0028 124.905 16.419C124.835 16.8353 124.396 17.2284 123.957 17.4828C123.772 17.5984 123.563 17.6909 123.332 17.7141C122.685 17.7835 121.783 17.7835 121.575 17.7835H121.02C121.598 17.8297 122.153 17.9453 122.708 18.1072C122.87 18.1535 123.008 18.246 123.124 18.3847C123.217 18.4772 123.24 18.5929 123.124 18.8241C123.008 19.0091 122.87 19.1941 122.731 19.356C122.5 19.6335 122.268 19.9573 122.268 19.9573H117.458L118.545 18.6391C118.615 18.5697 118.661 18.4772 118.684 18.3847C118.707 18.2922 118.753 18.1766 118.568 18.1072C118.383 18.0378 114.868 17.9916 114.868 17.9916Z" fill="#000"/>
<path d="M159.016 3.51562H129.299C128.327 3.51562 127.981 3.93189 127.981 3.93189C127.981 3.93189 123.055 10.5459 122.245 11.5634C121.898 11.9797 122.315 12.6504 122.939 12.6735H123.934C123.934 12.6735 151.477 12.7197 153.072 12.6504C154.09 12.6272 154.414 12.4422 154.622 12.2341C154.76 12.0953 154.899 11.9335 154.992 11.7485C154.992 11.7485 156.24 10.3146 156.449 10.014C156.657 9.71337 155.709 9.71337 155.709 9.71337L145.695 9.69025L144.192 11.4709H134.618L139.752 4.7413H149.765L148.424 6.40637H159.455C160.056 5.73571 160.588 5.01881 161.097 4.27878C161.374 3.53875 159.016 3.53875 159.016 3.53875" fill="#000"/>
<path d="M110.035 7.42279C110.498 7.44592 110.96 7.33029 111.353 7.0759C111.677 6.86777 112.001 6.42838 112.278 6.12774C113.088 5.17958 112.926 4.71706 112.163 4.71706H102.403L100.091 7.39967L110.035 7.42279ZM99.2352 8.50971L95.6507 12.6493H84.8046C84.8046 12.6493 84.2265 12.6724 83.9721 12.2561C83.7177 11.8398 84.2265 11.4467 84.2265 11.4467L88.7823 6.17399L90.6092 4.02328C90.7942 3.8614 90.9793 3.72265 91.2105 3.63014C91.488 3.53764 91.7655 3.51451 92.0431 3.53764H120.904C122.477 3.53764 124.142 4.20829 124.072 5.1102C124.049 5.45709 123.032 6.8909 121.991 7.42279C121.529 7.7003 120.997 7.86219 120.442 7.88531C118.846 8.07032 116.58 8.07032 116.071 8.07032L114.637 8.02407C114.637 8.02407 117.32 8.2322 118.962 8.69472C119.378 8.81035 119.771 9.01848 120.095 9.31912C120.349 9.52725 120.442 9.75851 120.21 10.2673C119.979 10.7761 119.679 11.0304 119.355 11.4236L118.383 12.6724H116.857L106.265 12.6261L108.624 9.75851C108.763 9.59663 108.856 9.41162 108.925 9.22662C108.948 9.04161 109.017 8.7641 108.555 8.60222C108.092 8.44033 99.2352 8.50971 99.2352 8.50971Z" fill="#000"/>
<path fill-rule="evenodd" clip-rule="evenodd" d="M15.7043 0.0693778L15.288 0.462518C15.2418 0.50877 15.2187 0.578148 15.2418 0.647526C15.2649 0.716904 15.3112 0.74003 15.4037 0.763155L15.9356 0.809407H15.9587C17.3925 0.948163 18.0632 1.29505 17.0919 2.26634L11.3335 7.65468C10.0616 8.85723 9.06717 9.01911 7.2171 9.18099L6.50019 9.25037C6.43081 9.25037 6.36144 9.2735 6.31518 9.31975L5.92204 9.68976C5.85267 9.71289 5.82954 9.78227 5.85267 9.82852C5.85267 9.85164 5.87579 9.85164 5.87579 9.87477C5.89892 9.94415 5.9683 9.96727 6.0608 9.96727H27.5679C27.6373 9.96727 27.7298 9.94415 27.776 9.8979L28.2154 9.50475C28.2617 9.4585 28.2848 9.38913 28.2617 9.31975C28.2386 9.25037 28.1692 9.22724 28.0998 9.22724L27.5448 9.18099C26.111 9.01911 25.4403 8.67222 26.4116 7.70093L28.0304 6.19775C28.0767 6.1515 28.1692 6.12837 28.2386 6.12837H39.3853L45.213 4.9027C45.3286 4.87957 45.4211 4.78707 45.4211 4.71769C45.398 4.62518 45.3286 4.53268 45.213 4.55581H30.2505C30.1811 4.55581 30.1118 4.53268 30.0655 4.4633C30.0193 4.41705 30.0193 4.34767 30.0655 4.30142C30.0655 4.30142 30.0886 4.2783 30.1118 4.2783L32.17 2.35884C32.4937 2.01196 32.9331 1.85007 33.3956 1.89633H58.0479L65.4482 0.370015C65.5638 0.346889 65.6563 0.277511 65.6563 0.185007C65.6563 0.0925037 65.5638 0 65.4713 0H65.4482H15.9124L15.7043 0.0693778Z" fill="#000"/>
<path fill-rule="evenodd" clip-rule="evenodd" d="M68.9403 7.54024H56.3829L54.2322 8.21089C53.9778 8.25715 54.0241 8.53466 54.3016 8.53466H68.0153C68.0846 8.53466 68.1771 8.58091 68.2234 8.62716C68.2696 8.69654 68.2465 8.76592 68.2003 8.81217L67.3909 9.69095C66.1883 10.9629 65.0783 11.4023 62.0719 11.4023H29.0712C28.8168 11.4023 28.7706 11.6798 29.0249 11.726L34.4133 12.8592H36.7721C49.0751 12.8592 60.2912 12.8361 72.5942 12.8592C75.6237 12.8592 79.8095 12.5123 81.6596 10.5235L82.8852 9.18218C83.0934 8.95092 83.0009 8.69654 82.6771 8.58091L82.0064 8.34965C81.8446 8.3034 81.8677 8.16464 82.0989 8.14152C82.3302 8.11839 83.1859 8.00276 83.5096 7.86401C84.0646 7.679 84.5734 7.35524 84.9666 6.93897L86.7241 5.06577C87.2329 4.51075 86.7704 3.42383 84.5503 3.42383H52.8446L47.4332 4.53387C47.1788 4.58012 47.225 4.85764 47.5026 4.85764H70.6285C71.2991 4.85764 71.7385 5.04264 71.2991 5.50516L69.7497 7.23961C69.5416 7.44774 69.2409 7.56337 68.9403 7.54024Z" fill="#000"/>
<path fill-rule="evenodd" clip-rule="evenodd" d="M139.52 26.8503C138.873 27.6366 138.341 27.9835 136.792 27.9835H130.201C130.062 27.9835 130.085 27.8447 130.131 27.7985L132.698 24.6071C133.346 23.7746 133.855 23.4277 135.45 23.4277H142.041C142.157 23.4277 142.134 23.5665 142.111 23.6127L139.52 26.8503ZM130.478 22.4102C129.021 22.4102 126.94 22.6414 125.83 24.029L122.754 27.8447C122.454 28.2379 122.569 29.001 123.633 29.001H141.741C143.221 29.001 145.302 28.7698 146.412 27.3822L149.465 23.5665C149.765 23.1733 149.673 22.4102 148.586 22.4102H130.478Z" fill="#000"/>
<path fill-rule="evenodd" clip-rule="evenodd" d="M114.637 26.8503C114.013 27.6366 113.481 27.9835 111.931 27.9835H105.317C105.202 27.9835 105.225 27.8447 105.271 27.7985L107.838 24.6071C108.486 23.7746 108.994 23.4277 110.567 23.4277H117.181C117.297 23.4277 117.273 23.5665 117.227 23.6127L114.637 26.8503ZM105.618 22.4102C104.138 22.4102 102.08 22.6414 100.947 24.029L97.8939 27.8447C97.5933 28.2379 97.6858 29.001 98.7727 29.001H116.88C118.36 29.001 120.419 28.7698 121.552 27.3822L124.604 23.5665C124.905 23.1733 124.813 22.4102 123.726 22.4102H105.618Z" fill="#000"/>
<path fill-rule="evenodd" clip-rule="evenodd" d="M82.6306 25.4165C82.5613 25.3934 82.5381 25.3471 82.5381 25.2778C82.5381 25.2546 82.5381 25.2315 82.5613 25.2315C83.5325 23.9827 83.8563 23.4277 85.7989 23.4277H92.2973C92.436 23.4277 92.4129 23.5665 92.3666 23.6127L91.0947 25.2084C91.0022 25.324 90.8403 25.4165 90.6785 25.4165H82.6306V25.4165ZM82.1681 26.0409H90.2159C90.3084 26.0409 90.3316 26.1334 90.2622 26.2259C89.2446 27.521 89.0365 27.9835 87.0477 27.9835H80.5493C80.4337 27.9835 80.4568 27.8447 80.4799 27.7985L81.7287 26.2491C81.8443 26.1103 82.0062 26.0409 82.1681 26.0409ZM80.8499 22.4102C79.3699 22.4102 77.2885 22.6414 76.1785 24.029L75.346 25.0696C75.1841 25.2778 75.2535 25.6709 75.8085 25.6709C75.161 25.7172 74.5828 26.0409 74.1897 26.5497L73.1259 27.8447C72.8252 28.2379 72.9177 29.001 74.0047 29.001H91.9966C93.4767 29.001 95.558 28.7698 96.6681 27.3822L97.5006 26.3416C97.6625 26.1334 97.6162 25.7403 97.0381 25.7403C97.5931 25.7403 98.0556 25.6478 98.4256 25.1853L99.7438 23.5665C100.044 23.1733 99.9288 22.4102 98.865 22.4102H80.8499V22.4102Z" fill="#000"/>
</svg>
