<svg width="123" height="24" viewBox="0 0 123 24" fill="none" xmlns="http://www.w3.org/2000/svg">
<path fill-rule="evenodd" clip-rule="evenodd" d="M32.545 6.02117L34.4011 4.18673C35.1133 3.45296 36.5161 2.99974 37.9836 2.99974H65.8454C67.4641 2.99974 68.9532 2.50337 69.7301 1.72643L71.3919 0.0214844H17.7832C15.8841 0.0214844 14.1144 0.604187 13.2079 1.5322L0 14.9775H20.9126C22.6391 14.9775 24.2361 14.438 25.0562 13.6179L28.5525 10.0569C29.1999 9.40948 30.4516 8.99943 31.8113 8.99943H54.9467C56.7596 8.99943 58.443 8.43831 59.3278 7.55346L60.8169 6.04275L32.545 6.02117Z" fill="black"/>
<path fill-rule="evenodd" clip-rule="evenodd" d="M76.1398 0C75.255 0.0431632 74.4133 0.431632 73.809 1.07908L71.9746 2.99984H99.7069L97.6567 5.09326C97.1171 5.67596 96.3834 6.02126 95.5848 6.04285H70.3775C69.4927 6.06443 68.651 6.4529 68.0467 7.10034L66.2123 9.02111H93.6857L91.7649 11.0066C91.2254 11.5893 90.47 11.9346 89.6715 11.9778H64.5937C63.7088 11.9994 62.8671 12.3878 62.2629 13.0353L60.3853 14.956H106.009C107.131 14.956 108.21 14.5028 109.009 13.7043L120.792 1.59704L122.346 0H76.1398V0Z" fill="black"/>
<path fill-rule="evenodd" clip-rule="evenodd" d="M72.7729 17.2874L66.8164 23.4381C66.4279 23.8266 65.91 24.0208 65.3704 23.9992H51.4287L57.8816 17.2874C58.2701 16.8989 58.788 16.7046 59.3276 16.7262H72.4276C72.7297 16.7262 72.9671 17.0931 72.7729 17.2874ZM58.7449 22.5533H61.3562C61.5936 22.5533 61.8095 22.4669 61.9821 22.2943L62.8454 21.4094C62.9317 21.3015 62.8022 21.1073 62.6511 21.1073H60.7304C60.3851 21.0857 60.0398 21.2152 59.8024 21.4742L58.7449 22.5533ZM61.5505 19.6397H64.205C64.4424 19.6397 64.6582 19.5534 64.8309 19.4023L65.7157 18.4743C65.8236 18.388 65.6941 18.1722 65.5431 18.1722H63.5144C63.1691 18.1506 62.8454 18.2801 62.608 18.5175L61.5505 19.6397Z" fill="black"/>
<path fill-rule="evenodd" clip-rule="evenodd" d="M89.2616 17.2658L83.3051 23.4381C82.9166 23.805 82.3986 24.0208 81.8591 23.9992H67.939L74.4134 17.2874C74.8019 16.8989 75.3199 16.7046 75.8594 16.7262H88.9163C89.2184 16.7262 89.4558 17.0931 89.2616 17.2658ZM81.9886 18.1722H80.0678C79.7225 18.1722 79.3988 18.2801 79.1614 18.5175L75.2767 22.5317H77.8449C78.0823 22.5317 78.3197 22.4454 78.4924 22.2727L82.1828 18.4312C82.2691 18.3664 82.1397 18.1722 81.9886 18.1722Z" fill="black"/>
<path fill-rule="evenodd" clip-rule="evenodd" d="M105.728 17.2658L99.7714 23.4381C99.3829 23.805 98.8649 24.0208 98.3254 23.9992H84.4053L90.8798 17.2874C91.2682 16.8989 91.7862 16.7046 92.3257 16.7262H105.383C105.685 16.7262 105.922 17.0931 105.728 17.2658ZM98.4549 18.1722H96.5341C96.1888 18.1722 95.8651 18.2801 95.6061 18.5175L91.743 22.5317H94.3112C94.5486 22.5533 94.786 22.4454 94.9371 22.2727L98.6491 18.4312C98.7355 18.3664 98.606 18.1722 98.4549 18.1722Z" fill="black"/>
</svg>
