<svg width="129" height="35" viewBox="0 0 129 35" fill="none" xmlns="http://www.w3.org/2000/svg">
<path d="M53.4857 4.88184C53.6235 4.88184 53.6638 4.93227 53.6067 5.03313L44.9752 18.2615H53.3395C53.8306 18.2612 54.3141 18.1396 54.7468 17.9073C55.1796 17.675 55.5483 17.3393 55.82 16.9301L60.9475 9.19378C61.7937 7.89782 62.9452 6.82962 64.3008 6.08304C65.6564 5.33646 67.1746 4.93437 68.7219 4.91209L71.1167 4.88184C71.2444 4.88184 71.2797 4.93227 71.2226 5.03313L59.6265 22.523C59.4152 22.8362 59.1296 23.0922 58.7954 23.2682C58.4611 23.4442 58.0884 23.5347 57.7107 23.5316H41.4056C41.1719 23.5317 40.9415 23.4759 40.7336 23.3689C40.5258 23.2619 40.3465 23.1067 40.2107 22.9164L37.7302 19.4265C37.5642 19.1943 37.4725 18.9172 37.467 18.6318C37.4616 18.3464 37.5428 18.0661 37.6999 17.8278L44.0626 8.06915C44.6867 7.11559 45.5354 6.32995 46.534 5.78123C47.5327 5.23251 48.6508 4.93753 49.7901 4.92218L53.4857 4.88184Z" fill="#000"/>
<path d="M110.659 4.9068C110.787 4.9068 110.822 4.95723 110.765 5.0581L106.454 11.6647L114.496 11.5991C115.166 11.5963 115.825 11.4265 116.413 11.1051C117.001 10.7837 117.5 10.3209 117.864 9.75837L118.368 8.9565C119.164 7.73252 120.249 6.72389 121.528 6.02009C122.807 5.31629 124.239 4.93908 125.699 4.92193C127.136 4.92193 128.336 4.92193 128.336 4.92193C128.473 4.92193 128.514 4.97236 128.457 5.07323L118.368 20.4651C117.746 21.4139 116.898 22.1929 115.9 22.7317C114.901 23.2705 113.785 23.5523 112.651 23.5516H109.066C108.928 23.5516 108.893 23.5011 108.96 23.4003L113.457 16.5617H104.972C104.456 16.5613 103.949 16.6898 103.495 16.9355C103.042 17.1813 102.657 17.5364 102.376 17.9687L100.949 20.097C100.285 21.1158 99.3818 21.9567 98.3185 22.5465C97.2552 23.1363 96.0638 23.4571 94.8482 23.481L91.4652 23.5516H91.4097H91.0669L100.898 8.48748C101.617 7.38359 102.601 6.47749 103.76 5.85198C104.919 5.22647 106.216 4.90151 107.533 4.9068H110.659Z" fill="#000"/>
<path d="M62.4448 23.4913L63.8918 21.353C64.565 20.3595 65.4756 19.5499 66.541 18.9977C67.6063 18.4455 68.7927 18.1682 69.9923 18.1909H83.3278C83.5499 18.1954 83.7696 18.1443 83.9668 18.0421C84.1641 17.9399 84.3326 17.7899 84.4571 17.6059L85.1831 16.4006H73.4661C72.7149 16.4006 72.4578 16.1938 71.9536 15.4625L70.2545 13.1124C70.1541 12.8598 70.1204 12.5856 70.1566 12.3162C70.1928 12.0469 70.2977 11.7913 70.4612 11.5742L73.8896 6.48562C74.4845 5.71905 75.9366 4.97266 77.5953 4.97266H99.9051L99.5118 5.54758C98.7121 6.73518 97.6279 7.70352 96.3579 8.36423C95.088 9.02493 93.6728 9.35695 92.2416 9.32999H79.4759C79.2914 9.32594 79.1088 9.36756 78.9443 9.45115C78.7799 9.53473 78.6386 9.6577 78.5331 9.8091L77.2222 11.5541L88.9393 11.5793C89.2232 11.6218 89.493 11.7308 89.7269 11.8973C89.9608 12.0638 90.1522 12.2831 90.2854 12.5375L92.2416 15.2003C92.3432 15.4018 92.3821 15.6291 92.3533 15.8529C92.3246 16.0767 92.2295 16.2868 92.0803 16.4561L88.2082 22.2558C87.9457 22.6435 87.5905 22.9596 87.175 23.1754C86.7594 23.3911 86.2966 23.4997 85.8285 23.4913H62.4448Z" fill="#000"/>
<path fill-rule="evenodd" clip-rule="evenodd" d="M82.6018 26.6787C81.7648 27.9496 80.9178 29.2004 80.0809 30.4864C79.244 31.7724 78.402 33.008 77.56 34.294C77.4202 34.5122 77.2266 34.6907 76.998 34.8126C76.7693 34.9345 76.5132 34.9955 76.2542 34.99H63.196L65.9236 30.8444C66.8312 29.4592 67.742 28.0757 68.6563 26.6939C68.7951 26.4755 68.9875 26.2964 69.2153 26.1737C69.443 26.051 69.6984 25.9887 69.957 25.9929H82.2085C82.2824 26.0061 82.3523 26.0357 82.4133 26.0795C82.4742 26.1232 82.5247 26.18 82.5609 26.2457C82.5971 26.3114 82.6182 26.3844 82.6227 26.4593C82.6272 26.5342 82.6148 26.6092 82.5866 26.6787H82.6018ZM75.8609 27.7832H74.056C73.8923 27.7805 73.7306 27.8193 73.586 27.896C73.4414 27.9727 73.3186 28.0849 73.2291 28.222L71.5956 30.7083L69.957 33.1895H72.3821C72.4944 33.1921 72.6053 33.1656 72.7043 33.1126C72.8032 33.0596 72.8868 32.9818 72.9468 32.8869C73.4644 32.0935 73.982 31.3017 74.4997 30.5116L76.0576 28.1413C76.0715 28.105 76.0774 28.0661 76.0748 28.0272C76.0722 27.9884 76.0611 27.9507 76.0424 27.9166C76.0237 27.8825 75.9977 27.8529 75.9664 27.8298C75.9351 27.8068 75.8991 27.7909 75.8609 27.7832Z" fill="#000"/>
<path fill-rule="evenodd" clip-rule="evenodd" d="M98.4329 26.6787L95.912 30.4863L93.3911 34.2939C93.2513 34.5121 93.0577 34.6907 92.8291 34.8125C92.6004 34.9344 92.3443 34.9955 92.0853 34.9899H79.0876L81.8102 30.8393C82.7177 29.4575 83.6202 28.0756 84.5327 26.6938C84.6711 26.4762 84.8627 26.2975 85.0895 26.1749C85.3163 26.0522 85.5707 25.9895 85.8285 25.9928H98.0497C98.124 26.0054 98.1945 26.0345 98.2561 26.078C98.3176 26.1215 98.3687 26.1782 98.4054 26.244C98.4422 26.3098 98.4637 26.383 98.4685 26.4582C98.4732 26.5334 98.4611 26.6088 98.4329 26.6787ZM91.7072 27.7831H89.9073C89.7442 27.7798 89.583 27.8184 89.4391 27.8952C89.2952 27.972 89.1734 28.0845 89.0855 28.2219C88.5359 29.049 87.9864 29.8811 87.4469 30.7032C86.9074 31.5252 86.3579 32.3624 85.8184 33.1895H88.2384C88.3507 33.1921 88.4616 33.1656 88.5606 33.1125C88.6595 33.0595 88.7431 32.9818 88.8031 32.8869L90.356 30.5115L91.9088 28.1412C91.9211 28.1045 91.9255 28.0656 91.9218 28.0271C91.918 27.9885 91.9063 27.9512 91.8873 27.9175C91.8683 27.8837 91.8425 27.8544 91.8115 27.8312C91.7804 27.8081 91.7449 27.7917 91.7072 27.7831Z" fill="#000"/>
<path fill-rule="evenodd" clip-rule="evenodd" d="M114.314 26.6787L111.794 30.4863C110.96 31.7572 110.12 33.0264 109.273 34.2939C109.133 34.5114 108.941 34.6895 108.713 34.8113C108.485 34.9331 108.23 34.9946 107.972 34.9899H94.9692L97.6867 30.8393C98.5943 29.4575 99.5035 28.0756 100.414 26.6938C100.553 26.4762 100.744 26.2975 100.971 26.1749C101.198 26.0522 101.452 25.9895 101.71 25.9928H113.921C113.995 26.0054 114.066 26.0345 114.128 26.078C114.189 26.1215 114.24 26.1782 114.277 26.244C114.314 26.3098 114.335 26.383 114.34 26.4582C114.345 26.5334 114.333 26.6088 114.304 26.6787H114.314ZM107.584 27.7831H105.789C105.625 27.7804 105.463 27.8192 105.319 27.8959C105.174 27.9726 105.051 28.0848 104.962 28.2219L103.334 30.7032C102.794 31.5353 102.244 32.3624 101.705 33.1895H104.125C104.237 33.1911 104.348 33.1642 104.447 33.1112C104.545 33.0583 104.629 32.9811 104.69 32.8869C105.204 32.0934 105.722 31.3016 106.243 30.5115L107.79 28.1412C107.804 28.1042 107.81 28.0646 107.807 28.0251C107.804 27.9857 107.792 27.9475 107.772 27.9132C107.752 27.879 107.725 27.8495 107.692 27.827C107.66 27.8045 107.623 27.7896 107.584 27.7831Z" fill="#000"/>
<path fill-rule="evenodd" clip-rule="evenodd" d="M66.2211 26.0029H60.8768C60.6845 26.0061 60.4958 26.0563 60.3273 26.1492L58.4265 27.1578C58.1543 27.3041 58.1442 27.7933 58.4265 27.7933H59.8886C59.927 27.8017 59.9631 27.8183 59.9945 27.8417C60.026 27.8652 60.0521 27.8951 60.0712 27.9294C60.0903 27.9637 60.1018 28.0017 60.1051 28.0408C60.1084 28.08 60.1034 28.1194 60.0903 28.1564L55.6536 35H60.297C60.5553 35.0028 60.81 34.9394 61.0368 34.8158C61.2636 34.6922 61.455 34.5125 61.5928 34.294L64.1136 30.4863L66.6345 26.6787C66.661 26.6072 66.6709 26.5306 66.6634 26.4547C66.656 26.3788 66.6315 26.3055 66.5917 26.2405C66.5519 26.1754 66.4979 26.1203 66.4337 26.0791C66.3695 26.038 66.2968 26.0119 66.2211 26.0029Z" fill="#000"/>
<path d="M41.7586 3.28314C41.0729 2.27449 40.4931 1.46758 40.0746 0.922912C39.856 0.635515 39.5738 0.402644 39.2501 0.242531C38.9265 0.0824178 38.5702 -0.000590931 38.2092 3.59648e-06H19.7664C18.5063 -0.00116538 17.2622 0.282649 16.1272 0.830223C14.9923 1.3778 13.9957 2.17496 13.2121 3.1621C12.8861 3.52106 12.5894 3.90557 12.3248 4.31195L8.8863 9.51151L0.481689 21.7816H4.07646C5.21792 21.7791 6.34174 21.4998 7.35157 20.9675C8.3614 20.4352 9.22712 19.6659 9.87448 18.7255L17.79 7.17146C18.1751 6.61232 18.6901 6.155 19.2908 5.83877C19.8914 5.52254 20.5598 5.35684 21.2386 5.3559H34.0699L31.675 9.02736C31.3543 9.52006 30.9156 9.92481 30.3987 10.2049C29.8819 10.4849 29.3033 10.6315 28.7155 10.6311H19.6404C18.2305 10.6364 16.8802 11.2004 15.8851 12.1995C14.8901 13.1987 14.3314 14.5515 14.3314 15.9618H16.9834H19.0303C19.6632 15.9652 20.2861 16.1204 20.8467 16.4144C21.4073 16.7083 21.8892 17.1325 22.252 17.6513L26.24 23.2644C27.5463 25.103 29.274 26.6019 31.2783 27.6355C33.2827 28.6691 35.5054 29.2074 37.7604 29.2053L28.3677 15.9769H32.7489C33.3398 15.9792 33.9217 15.8332 34.4414 15.5521C34.9611 15.271 35.402 14.8639 35.7236 14.3681L38.5369 10.0562L41.7787 5.08861C41.9518 4.81852 42.0422 4.50367 42.0386 4.18286C42.035 3.86204 41.9377 3.54929 41.7586 3.28314Z" fill="#000"/>
</svg>
