<svg width="132" height="34" viewBox="0 0 132 34" fill="none" xmlns="http://www.w3.org/2000/svg">
    <path d="M107.76 23.1896C106.942 22.4554 106.363 21.4921 106.098 20.4247V20.4247C105.791 19.333 105.638 18.2036 105.644 17.0695C105.667 15.3584 105.9 13.6567 106.339 12.0027V12.0027C107.058 8.93629 108.441 6.06468 110.389 3.58984V3.58984C112.259 1.26983 114.348 0.00313678 116.604 0.00313678C117.428 -0.0275773 118.244 0.167744 118.964 0.567916C119.685 0.968089 120.282 1.55784 120.691 2.27321V2.27321L120.822 2.49113L119.21 9.06525L118.452 7.88935C117.517 6.44559 116.6 5.87807 115.66 5.87807C114.688 5.87807 113.721 6.38203 112.704 7.57609C111.611 8.92496 110.843 10.5082 110.462 12.2025V12.2025C110.222 13.1036 110.092 14.0305 110.076 14.9629V14.9629C110.066 15.5784 110.155 16.1916 110.339 16.7789V16.7789C110.462 17.2316 110.715 17.6385 111.065 17.9503V17.9503C111.377 18.1925 111.765 18.3163 112.16 18.2999V18.2999C112.691 18.2893 113.212 18.154 113.681 17.9049V17.9049C114.671 17.3407 115.61 16.6904 116.486 15.9617V15.9617L117.803 14.7994L117.449 16.5883L116.178 21.6596L116.023 21.7867C114.18 23.3213 112.391 24.1476 110.648 24.1521C109.61 24.1805 108.597 23.8394 107.787 23.1896H107.76Z" fill="#000000"/>
    <path d="M27.3907 23.8647H23.3318L23.5179 23.1065L29.1386 0.750889L29.2567 0.296875H34.7638C35.7581 0.296875 37.0339 0.714567 37.5742 2.72131C37.9362 4.36124 37.8816 6.06575 37.4153 7.67914C36.9907 9.48057 36.2096 11.1787 35.118 12.6733C34.0011 14.1488 32.7571 14.898 31.4178 14.898H29.6562L27.4996 23.4016L27.3816 23.8556L27.3907 23.8647ZM30.9819 9.57238H31.5086C31.8264 9.57238 32.7844 9.57238 33.3246 7.44305C33.6107 6.30802 33.479 5.94935 33.429 5.86762C33.3337 5.69964 32.975 5.6043 32.521 5.6043H32.0034L31.0046 9.57238H30.9819Z" fill="#000000"/>
    <path d="M43.6443 23.8663H43.1721H34.8637H34.0828L34.2734 23.1081L39.8896 0.752499L40.0076 0.293945H40.4798H48.6748H49.4557L49.265 1.05215L48.2344 5.14735L48.1209 5.60591H47.6487H42.7317L41.86 9.07911H46.2185H46.9995L46.8088 9.83277L45.7782 13.9325L45.6647 14.3911H45.1879H40.5252L39.4764 18.5498H44.1982H44.9791L44.7884 19.308L43.7578 23.4032L43.6443 23.8663Z" fill="#000000"/>
    <path d="M56.057 23.8647H51.7666V23.2518C51.7666 22.5118 51.8029 21.1316 51.8665 19.0295C51.9436 16.546 51.8301 15.5971 51.7212 15.2385C51.6122 14.8798 51.4896 14.7845 51.4851 14.7845H51.1446L48.9835 23.4107L48.8654 23.8647H44.802L44.9927 23.1065L50.6134 0.750889L50.7269 0.296875H56.2386C57.192 0.296875 58.4497 0.696407 59.0081 2.61234C59.4053 4.21704 59.3676 5.89858 58.8991 7.48391C58.2998 9.84932 57.2556 11.6881 55.7846 12.9321C56.0388 13.545 56.2386 14.6619 56.1796 16.9229C56.1206 19.1838 56.0888 21.2587 56.0661 23.2473V23.8511L56.057 23.8647ZM52.4703 9.47703H53.174C53.3379 9.46686 53.4977 9.42096 53.642 9.34253C53.7863 9.2641 53.9117 9.15504 54.0094 9.02302C54.3891 8.54492 54.6533 7.98556 54.7812 7.38857C55.0763 6.20359 54.8856 5.83584 54.8175 5.74958C54.7494 5.66332 54.7131 5.61792 54.3999 5.61792H53.4555L52.4703 9.47703Z" fill="#000000"/>
    <path d="M62.0364 24.1524H61.655H60.4337H59.8208L59.8253 23.5394L60.0569 0.893243L60.066 0.293945H60.6653H63.7253H64.3428L64.3337 0.911404L64.1566 10.8543L68.9783 0.643536L69.1417 0.293945H69.5276H72.5514H73.5229L73.1007 1.16565L62.1998 23.8073L62.0364 24.1524Z" fill="#000000"/>
    <path d="M77.8088 23.8663H77.3367H69.0282H68.2473L68.438 23.1081L74.0542 0.752499L74.1722 0.293945H74.6444H82.8439H83.6248L83.4295 1.05215L82.4035 5.14735L82.2854 5.60591H81.8132H76.8963L76.0246 9.07911H80.3831H81.164L80.9733 9.83277L79.9427 13.9325L79.8292 14.3911H79.3525H74.6898L73.6455 18.5498H78.3673H79.1436L78.953 19.308L77.9269 23.4032L77.8088 23.8663Z" fill="#000000"/>
    <path d="M88.8142 23.8663H88.3375H79.7476H78.9712L79.1573 23.1081L84.778 0.752499L84.8961 0.293945H85.3682H88.1741H88.9549L88.7643 1.05215L84.3649 18.5498H89.3681H90.149L89.9583 19.308L88.9323 23.4032L88.8142 23.8663Z" fill="#000000"/>
    <path d="M95.5472 24.1519C94.0308 24.1519 92.0377 23.4845 91.1524 20.3155C90.4986 17.9592 90.5713 15.1443 91.3794 11.939C92.0996 8.94538 93.4321 6.13346 95.293 3.68044C97.1726 1.24239 99.1975 0.00292969 101.313 0.00292969C102.839 0.00292969 104.841 0.67941 105.694 3.90745C106.33 6.29556 106.253 9.09683 105.463 12.2341C104.739 15.2404 103.39 18.0605 101.504 20.5107C99.6152 22.9261 97.6085 24.1428 95.5291 24.1428L95.5472 24.1519ZM100.142 5.87787C99.2747 5.87787 98.4075 6.42723 97.5676 7.51686C96.5473 8.92807 95.8272 10.5335 95.4519 12.2341C94.9706 14.1591 94.8798 15.7209 95.1886 16.865C95.5336 18.1317 96.1874 18.2951 96.7141 18.2951C97.5767 18.2951 98.4393 17.7412 99.2792 16.6516C100.296 15.2371 101.014 13.6306 101.39 11.9299C101.876 9.99123 101.967 8.43397 101.658 7.28985C101.318 6.03223 100.669 5.86879 100.142 5.86879V5.87787Z" fill="#000000"/>
    <path d="M126.188 23.8663H125.712H117.403H116.627L116.818 23.1081L122.434 0.752499L122.552 0.293945H123.024H131.219H132L131.809 1.05215L130.779 5.14735L130.665 5.60591H130.188H125.276L124.404 9.07911H128.763H129.539L129.353 9.83277L128.322 13.9325L128.204 14.3911H127.732H123.069L122.021 18.5498H126.742H127.523L127.333 19.308L126.302 23.4032L126.188 23.8663Z" fill="#000000"/>
    <path fill-rule="evenodd" clip-rule="evenodd" d="M31.5039 4.99628L30.2236 10.1811H31.5312C32.698 10.1811 33.5016 9.31849 33.9329 7.5887C34.1781 6.61711 34.1917 5.94517 33.9738 5.5638C33.7558 5.18243 33.2746 4.99628 32.5209 4.99628H31.5039ZM29.7287 0.910156H34.7638C35.9048 0.910156 36.6464 1.56545 36.9884 2.87604C37.3234 4.41808 37.2672 6.01944 36.825 7.53422C36.4213 9.25514 35.6739 10.8767 34.6276 12.3014C33.6333 13.6271 32.5618 14.2854 31.4177 14.2854H29.1839L26.9139 23.2658H24.1035L29.7287 0.910156Z" fill="#000000"/>
    <path fill-rule="evenodd" clip-rule="evenodd" d="M44.1983 19.1577L43.1677 23.2575H34.8638L40.4799 0.901855H48.6749L47.6488 4.99706H42.2597L41.0792 9.68702H46.2187L45.188 13.7822H40.0486L38.7002 19.1577H44.1983Z" fill="#000000"/>
    <path fill-rule="evenodd" clip-rule="evenodd" d="M52.9787 4.99628L51.7029 10.0858H53.1875C53.4381 10.0773 53.6836 10.0135 53.9065 9.89888C54.1295 9.78427 54.3243 9.62173 54.4769 9.42291C54.924 8.87014 55.2351 8.2201 55.385 7.52514C55.8057 5.83923 55.4818 4.99628 54.4134 4.99628H52.9787ZM51.2035 0.910156H56.2385C57.3281 0.910156 58.0576 1.5367 58.4269 2.78977C58.7889 4.28704 58.7482 5.85348 58.3088 7.32991C57.6853 9.79067 56.5805 11.6067 54.9945 12.7781C55.4334 13.2926 55.6256 14.6683 55.5711 16.9051C55.5166 19.1418 55.4788 21.2606 55.4576 23.2613H52.3749C52.3749 22.5258 52.4081 21.1228 52.4747 19.0525C52.5413 16.9822 52.4838 15.6535 52.3022 15.0663C52.1252 14.4806 51.8482 14.1855 51.4805 14.1855H50.6541L48.3841 23.2658H45.5737L51.2035 0.910156Z" fill="#000000"/>
    <path fill-rule="evenodd" clip-rule="evenodd" d="M72.5515 0.901855L61.6551 23.5435H60.4338L60.6654 0.901855H63.7254L63.4939 13.6733L69.5277 0.901855H72.5515Z" fill="#000000"/>
    <path fill-rule="evenodd" clip-rule="evenodd" d="M78.3671 19.1577L77.3365 23.2575H69.0281L74.6442 0.901855H82.8437L81.8131 4.99706H76.424L75.2435 9.68702H80.383L79.3523 13.7822H74.2129L72.8645 19.1577H78.3671Z" fill="#000000"/>
    <path fill-rule="evenodd" clip-rule="evenodd" d="M89.3681 19.1577L88.3375 23.2575H79.7476L85.3683 0.901855H88.1741L83.5885 19.1577H89.3681Z" fill="#000000"/>
    <path fill-rule="evenodd" clip-rule="evenodd" d="M96.7141 18.9055C97.781 18.9055 98.7935 18.279 99.7605 17.0259C100.829 15.5495 101.585 13.87 101.981 12.0907C102.492 10.0386 102.58 8.38902 102.244 7.142C101.908 5.898 101.209 5.27146 100.142 5.27146C99.075 5.27146 98.0534 5.898 97.0864 7.142C96.0135 8.62168 95.2563 10.3061 94.8617 12.0907C94.3532 14.1247 94.2669 15.7698 94.6029 17.0259C94.9389 18.282 95.6426 18.9085 96.7141 18.9055V18.9055ZM101.313 0.613281C103.235 0.613281 104.5 1.76345 105.109 4.06379C105.717 6.36412 105.638 9.03977 104.873 12.0907C104.18 15.0119 102.877 17.7535 101.05 20.1359C99.2732 22.409 97.4405 23.5455 95.5518 23.5455C93.6631 23.5455 92.3934 22.415 91.7426 20.154C91.1131 17.893 91.1902 15.2053 91.9742 12.0907C92.6712 9.17714 93.9669 6.44045 95.7788 4.0547C97.5434 1.76345 99.3897 0.616308 101.318 0.613281" fill="#000000"/>
    <path fill-rule="evenodd" clip-rule="evenodd" d="M116.85 16.4368L115.624 21.3174C113.844 22.8035 112.179 23.5451 110.63 23.5421C108.626 23.5421 107.308 22.4464 106.675 20.255C106.043 18.0636 106.135 15.3623 106.952 12.1509C107.648 9.17168 108.991 6.38183 110.884 3.97862C112.7 1.73579 114.614 0.614377 116.627 0.614377C117.349 0.577769 118.067 0.742677 118.7 1.09066C119.334 1.43864 119.858 1.95597 120.214 2.5848L118.965 7.57895C117.979 6.06557 116.877 5.30888 115.66 5.30888C114.462 5.30888 113.322 5.94904 112.237 7.22028C111.084 8.64189 110.274 10.3106 109.872 12.0964C109.372 14.0789 109.336 15.7164 109.763 17.0088C110.189 18.3012 110.988 18.9459 112.16 18.9429C112.785 18.933 113.399 18.7775 113.953 18.4889C114.979 17.905 115.951 17.2319 116.859 16.4776" fill="#000000"/>
    <path fill-rule="evenodd" clip-rule="evenodd" d="M126.742 19.1577L125.712 23.2575H117.403L123.024 0.901855H131.219L130.188 4.99706H124.799L123.623 9.68702H128.763L127.732 13.7822H122.593L121.244 19.1577H126.742Z" fill="#000000"/>
    <path d="M0.145288 21.7194L0 21.4969L1.67531 14.8275L2.41082 16.2939C2.74686 17.0364 3.19557 17.7224 3.74108 18.3279V18.3279C3.90306 18.4942 4.09743 18.6256 4.31217 18.7138C4.52692 18.8021 4.75748 18.8453 4.98961 18.8409C5.16317 18.8496 5.3367 18.8231 5.49976 18.763C5.66282 18.703 5.81206 18.6106 5.9385 18.4913V18.4913C6.26287 18.141 6.483 17.707 6.57412 17.2383V17.2383C6.61743 17.0614 6.64028 16.8801 6.64222 16.698V16.698C6.6403 16.5446 6.61894 16.392 6.57866 16.244C6.34433 15.7587 5.99335 15.3391 5.55713 15.0227V15.0227C4.9312 14.4928 4.37172 13.8891 3.8909 13.2248V13.2248C3.41687 12.4835 3.13304 11.6367 3.06459 10.7595V10.7595C3.02917 10.4901 3.01249 10.2185 3.01466 9.94681C3.04086 8.91211 3.19332 7.88449 3.46867 6.88675V6.88675C3.87365 5.06863 4.72566 3.3802 5.94758 1.97433V1.97433C6.43847 1.37654 7.05211 0.891236 7.74691 0.551277C8.44171 0.211318 9.20145 0.0246463 9.97468 0.00390625C11.3821 0.00390625 12.6988 0.698547 13.8066 1.93346L14.0426 2.19225L12.5172 7.99001L11.7499 7.10922C10.6421 5.81982 9.70682 5.29317 9.1393 5.32041C8.79609 5.3155 8.46368 5.44035 8.20857 5.67V5.67C7.90908 5.94422 7.7014 6.3041 7.61381 6.70061V6.70061C7.57452 6.84874 7.55469 7.00136 7.5548 7.15462V7.15462C7.55344 7.3086 7.57642 7.46183 7.62289 7.60864V7.60864C7.86944 8.08464 8.2183 8.50016 8.64443 8.82539C9.26759 9.3649 9.82667 9.97425 10.3107 10.6414V10.6414C10.7814 11.3757 11.0708 12.2114 11.1551 13.0795V13.0795C11.1922 13.3625 11.2104 13.6476 11.2096 13.933C11.1891 14.938 11.0458 15.9367 10.7828 16.9068V16.9068C10.3657 18.8256 9.48324 20.6124 8.21311 22.1098C7.04176 23.4265 5.66156 24.1574 4.16331 24.1529H4.13607C2.52432 24.1529 1.13504 23.2449 0.131668 21.7194H0.145288Z" fill="#000000"/>
    <path fill-rule="evenodd" clip-rule="evenodd" d="M13.3209 2.34117L12.2267 6.70878C11.0644 5.37852 10.0429 4.71112 9.15304 4.71112C8.66202 4.70583 8.18704 4.88577 7.82278 5.21508C7.42852 5.5675 7.15396 6.03409 7.03733 6.54988C6.92354 6.94748 6.92354 7.36903 7.03733 7.76664C7.31048 8.3527 7.72179 8.86372 8.23593 9.2558C8.82122 9.7612 9.34949 10.3291 9.81136 10.9493C10.229 11.6176 10.4826 12.3752 10.5514 13.1603C10.6494 14.3725 10.5264 15.5925 10.1882 16.7607C9.79406 18.5831 8.95842 20.2809 7.75467 21.7049C6.65596 22.9156 5.45737 23.5209 4.15889 23.5209C2.76052 23.5209 1.58614 22.8005 0.635742 21.3598L1.84796 16.5427C2.21814 17.3478 2.71304 18.0894 3.31442 18.7402C3.53278 18.9621 3.79373 19.1376 4.08162 19.2562C4.36951 19.3748 4.6784 19.434 4.98973 19.4303C6.0945 19.4303 6.81789 18.7417 7.15992 17.3645C7.27803 16.9305 7.27803 16.4728 7.15992 16.0388C6.8987 15.4328 6.48017 14.9076 5.9477 14.5178C5.35692 14.0286 4.82653 13.4708 4.36774 12.8561C3.95325 12.1943 3.70553 11.4418 3.64586 10.6632C3.5521 9.43973 3.67975 8.20934 4.02268 7.03113C4.40822 5.31601 5.21316 3.7233 6.36539 2.39565C7.44292 1.21522 8.63546 0.625 9.94302 0.625C11.1537 0.625 12.2797 1.2016 13.3209 2.35479" fill="#000000"/>
    <path d="M15.8588 24.152C14.9392 24.2004 14.0311 23.9307 13.2869 23.3883C12.5428 22.8459 12.0081 22.0639 11.7726 21.1737C11.1733 19.3576 11.2914 16.8197 12.1313 13.4555L15.3094 0.743076L15.4275 0.289062H19.5136L19.3274 1.03365L16.0949 13.8868C15.7316 15.3305 15.6726 16.4792 15.9178 17.31C16.163 18.1409 16.6033 18.2862 16.9938 18.2862C17.6657 18.2862 18.3104 17.8912 18.9551 17.0785C19.78 15.9195 20.3565 14.6026 20.6486 13.2103L23.7813 0.743076L23.8994 0.289062H27.9537L27.7721 1.03365L24.594 13.746C23.7541 17.083 22.5963 19.6482 21.148 21.4098C19.6362 23.2258 17.861 24.1566 15.8724 24.1566L15.8588 24.152Z" fill="#000000"/>
    <path fill-rule="evenodd" clip-rule="evenodd" d="M24.3714 0.901855H27.1817L24.0036 13.5915C23.1743 16.8574 22.0604 19.3303 20.6621 21.0101C19.2637 22.69 17.6626 23.5329 15.8586 23.539C15.0657 23.5915 14.2795 23.3639 13.6372 22.8959C12.995 22.4279 12.5375 21.7492 12.3445 20.9783C11.7846 19.2713 11.9072 16.8181 12.7123 13.6188L15.8904 0.906396H18.7098L15.4954 13.7459C15.1049 15.3047 15.0474 16.5532 15.3229 17.4915C15.6044 18.4313 16.1583 18.899 16.9936 18.899C17.829 18.899 18.6689 18.4177 19.4317 17.4597C20.313 16.2379 20.9314 14.8466 21.2477 13.3736L24.3714 0.901855Z" fill="#000000"/>
    <path d="M105.744 30.6367L100.994 28.0207L100.986 30.5394L100.979 33.0581H100.129H99.278V29.6445V26.231H100.207H101.136L104.95 28.337C107.048 29.4954 108.774 30.4379 108.785 30.4316C108.797 30.4254 108.807 29.4776 108.807 28.3256V26.231H109.657H110.508V29.7437C110.508 31.6756 110.505 33.2555 110.501 33.2545C110.497 33.2535 108.356 32.0754 105.744 30.6367H105.744ZM46.0959 32.9901C46.2223 32.8248 52.4701 26.0321 52.4893 26.0391C52.5011 26.0434 53.9295 27.5957 55.6635 29.4887C57.3975 31.3817 58.8426 32.9593 58.8748 32.9943L58.9334 33.0581L57.8438 33.0561L56.7541 33.054L56.186 32.4116L55.6179 31.7692L52.4852 31.7627L49.3525 31.7562L48.7754 32.4072L48.1984 33.0582H47.1212H46.0439L46.0959 32.9901ZM54.4676 30.489C54.3369 30.3282 52.5076 28.2833 52.4885 28.2765C52.4676 28.2692 50.5481 30.4065 50.4925 30.4991C50.4737 30.5304 50.8147 30.5368 52.4882 30.5368C54.3796 30.5368 54.5041 30.5338 54.4676 30.489V30.489ZM62.9505 29.6446V26.231H63.858H64.7654V29.0353V31.8397L68.3078 31.8469L71.8501 31.8541L71.5999 32.449L71.3497 33.0439L67.1501 33.0511L62.9505 33.0582V29.6446ZM75.7686 29.6436V26.2293L80.0437 26.238C84.8136 26.2477 84.5224 26.2356 85.1608 26.4476C86.1485 26.7754 86.6584 27.4783 86.6578 28.5112C86.6575 29.1192 86.4631 29.6326 86.0939 30.0008C85.8297 30.2643 85.5734 30.4185 85.1837 30.5483C84.565 30.7544 84.7803 30.7435 81.0008 30.7614L77.5978 30.7775L77.5904 31.9177L77.5829 33.0579H76.6758H75.7686L75.7686 29.6436ZM83.7753 29.5032C84.1661 29.4205 84.4419 29.2369 84.5816 28.9663C84.6422 28.8488 84.6578 28.7736 84.6676 28.5506C84.6888 28.0692 84.5568 27.7958 84.2228 27.6287C83.8858 27.4602 83.9497 27.4631 80.6322 27.4631H77.5978L77.5903 28.5042L77.5829 29.5452L80.5822 29.5446C83.091 29.5442 83.6132 29.5374 83.7753 29.503V29.5032ZM91.5361 29.6444V26.2308H92.4577H93.3794V29.6444V33.0579H92.4577H91.5361V29.6444ZM116.407 29.6445V26.2308H121.086H125.765V26.8399V27.4489H122.008H118.25V28.2138V28.9787H122.008H125.765V29.5877V30.1968H122.008H118.25V31.0183V31.8398H122.121C124.25 31.8398 125.991 31.8494 125.991 31.8611C125.99 31.8727 125.916 32.1436 125.826 32.463L125.663 33.0438L121.035 33.0509L116.407 33.0581V29.6446V29.6445Z" fill="#000000"/>
</svg>
