<svg width="417" height="28" viewBox="0 0 417 28" fill="none" xmlns="http://www.w3.org/2000/svg">
<path fill-rule="evenodd" clip-rule="evenodd" d="M94.1022 10.0333H101.467C102.35 8.87541 103.365 7.70803 104.201 6.54065C105.036 5.37327 106.051 4.21538 106.981 3.048H100.698C100.387 3.03083 100.077 3.08719 99.7913 3.2125C99.506 3.33782 99.2543 3.52857 99.0565 3.76931C98.2213 4.81331 97.3386 5.85731 96.5414 6.90131C95.7442 7.9453 94.909 8.9893 94.1022 10.0333V10.0333ZM60.3526 3.03851H54.0981C53.7796 3.01679 53.4604 3.07083 53.1668 3.1962C52.8731 3.32158 52.6134 3.51472 52.4087 3.75982L50.7004 5.90476L48.992 8.04021C48.8669 8.15942 48.7168 8.24935 48.5527 8.30352C48.3885 8.35768 48.2144 8.37472 48.0429 8.35341H33.8066C33.4744 8.35341 33.2276 8.20156 33.4269 7.91683C34.0533 7.10061 34.7177 6.2844 35.3251 5.47767C35.9325 4.67094 36.5874 3.83575 37.2518 3.03851H31.0162C30.6971 3.01945 30.3779 3.07566 30.0845 3.2026C29.791 3.32954 29.5315 3.52366 29.3269 3.76931C28.7859 4.42418 28.2544 5.05058 27.7609 5.71494C27.2673 6.37931 26.8118 7.00571 26.2803 7.61312C24.5245 9.87196 27.3433 9.97636 28.8333 9.97636H51.7823C52.9877 9.97636 54.8669 9.97636 55.8919 8.61916C56.6037 7.67007 57.3914 6.72098 58.1033 5.77189C58.8151 4.8228 59.6028 3.97811 60.3526 3.03851ZM116.653 5.73393C115.779 5.73393 116.425 5.136 116.529 5.05058C116.654 4.93023 116.804 4.83956 116.968 4.78532C117.132 4.73109 117.307 4.7147 117.478 4.73738H133.518C133.812 4.73738 134.059 4.86076 133.964 5.08854H141.272C142.506 3.19037 139.896 3.07647 138.425 3.07647H113.748C112.543 3.07647 110.664 3.07647 109.639 4.44316C109.402 4.72789 109.155 5.01262 108.918 5.30684C107.579 7.29992 110.275 7.39483 111.765 7.39483H131.345C132.085 7.39483 131.629 7.91683 131.515 8.07818C131.378 8.20239 131.215 8.29484 131.038 8.34897C130.861 8.4031 130.674 8.41757 130.49 8.39138H114.574C114.28 8.39138 114.043 8.27749 114.175 8.04021H106.82C105.586 9.93839 108.234 10.0523 109.667 10.0523H134.277C135.435 10.0523 137.314 10.0523 138.377 8.69508L138.909 7.99276C140.465 5.89527 137.931 5.73393 136.185 5.73393H116.653ZM190.682 5.05058C190.809 4.93456 190.959 4.8467 191.123 4.79273C191.286 4.73876 191.459 4.7199 191.631 4.73738H205.952C206.247 4.73738 206.541 4.88924 206.294 5.16447C205.914 5.658 205.525 6.11356 205.136 6.62607L204.054 8.04021C203.927 8.15623 203.777 8.2441 203.613 8.29807C203.45 8.35203 203.276 8.37089 203.105 8.35341H188.726C188.432 8.35341 188.138 8.21105 188.385 7.92632C188.764 7.44229 189.154 6.97723 189.543 6.47422L190.682 5.05058ZM181.153 7.6321C179.397 9.86246 182.263 9.98585 183.763 9.98585H206.788C207.955 9.98585 209.872 9.98585 210.888 8.62865C211.343 8.07818 211.751 7.5372 212.159 7.00571C212.568 6.47422 213.023 5.92374 213.479 5.37327C215.254 3.13342 212.397 3.01004 210.897 3.01004H187.92C186.762 3.01004 184.835 3.01004 183.82 4.37673C183.364 4.91771 182.871 5.45869 182.425 5.99967C181.978 6.54065 181.561 7.1196 181.153 7.6321ZM39.2354 0.0393877H2.05003C1.80735 0.0202202 1.5636 0.0593145 1.33908 0.153414C1.11456 0.247514 0.91577 0.393896 0.759272 0.580369C0.484036 0.922041 0.227781 1.28269 0 1.62437H13.1259C11.9775 3.02902 10.8766 4.47164 9.76613 5.82883L6.43483 10.0333H17.4158C18.2795 8.92287 19.1811 7.81243 20.0448 6.69251C20.9084 5.57258 21.8291 4.46215 22.7117 3.34222C23.2009 2.76557 23.8173 2.3103 24.5122 2.01221C25.2072 1.71413 25.9619 1.58137 26.7169 1.62437H37.9636C38.3527 1.10237 38.7703 0.570878 39.2354 0.0393877ZM227.952 10.0333H235.184C236.883 9.22657 238.658 8.41036 240.433 7.59414L248.339 3.79778C250.968 2.53549 253.597 1.2827 256.273 0.00142408H249.962C249.21 -0.0165572 248.463 0.135946 247.779 0.447496C245.311 1.5864 242.806 2.71582 240.376 3.84524C237.946 4.97465 235.488 6.11356 233.106 7.24298C232.413 6.36032 231.711 5.46818 231.056 4.57604L229.082 1.93757C228.661 1.36439 228.115 0.895244 227.485 0.566184C226.855 0.237125 226.157 0.0569099 225.447 0.0393877H218.718C219.316 0.884077 219.961 1.72877 220.559 2.56397C221.157 3.39916 221.84 4.25335 222.457 5.09804L223.748 6.8064L225.039 8.51476C225.38 8.96995 225.818 9.34274 226.323 9.60557C226.827 9.86841 227.384 10.0146 227.952 10.0333ZM325.063 5.01262C325.188 4.89227 325.338 4.80159 325.502 4.74736C325.666 4.69312 325.841 4.67673 326.012 4.69942H340.249C340.581 4.69942 340.885 4.85127 340.638 5.12651C340.258 5.62003 339.86 6.0756 339.489 6.58811C339.119 7.10061 338.768 7.5372 338.379 8.04021C338.243 8.16422 338.082 8.25663 337.906 8.31078C337.731 8.36494 337.545 8.3795 337.363 8.35341H323.127C322.842 8.35341 322.539 8.20156 322.785 7.92632C323.165 7.4328 323.554 6.97723 323.934 6.46472L325.063 5.01262ZM315.563 7.6321C313.826 9.86246 316.692 9.98585 318.192 9.98585H341.141C342.299 9.98585 344.178 9.98585 345.231 8.62865C345.63 8.07818 346.086 7.5372 346.494 6.99621C346.902 6.45523 347.348 5.92374 347.794 5.37327C349.559 3.13342 346.693 3.01953 345.155 3.01953H322.263C321.096 3.01953 319.179 3.01953 318.173 4.37673C317.727 4.91771 317.224 5.45869 316.825 5.99967C316.426 6.54065 315.971 7.1196 315.563 7.6321ZM181.153 3.048C180.204 4.21538 179.255 5.37327 178.381 6.54065C177.508 7.70803 176.54 8.87541 175.667 10.0333H169.469C170.143 9.13167 170.893 8.23003 171.567 7.3189C172.241 6.40778 172.991 5.51563 173.702 4.60451C171.576 5.5536 169.412 6.41727 167.324 7.3189C165.236 8.22054 163.12 9.13167 161.032 10.0333H156.334C155.565 9.16963 154.834 8.30596 154.104 7.44229C153.373 6.57862 152.661 5.69596 151.921 4.84178C151.845 4.74838 151.736 4.68732 151.617 4.67095C151.569 4.66117 151.52 4.66389 151.473 4.67885C151.426 4.69382 151.385 4.72051 151.351 4.75636C150.63 5.63902 149.909 6.52167 149.225 7.39483C148.542 8.26799 147.868 9.16014 147.185 10.0333H141.244C142.041 8.9893 142.876 7.9453 143.673 6.90131C144.47 5.85731 145.315 4.78484 146.16 3.76931C146.358 3.52916 146.61 3.33881 146.895 3.21355C147.18 3.08829 147.491 3.03159 147.802 3.048H155.48C156.173 3.93066 156.903 4.80382 157.596 5.68647C158.289 6.56912 159.067 7.44229 159.798 8.32494L165.588 5.73393L171.406 3.20935C171.8 3.07517 172.214 3.01093 172.63 3.01953L181.153 3.048ZM58.4734 10.0143H66.5407L68.5053 7.49923L70.4699 4.98414C70.7072 4.68993 70.8306 4.53807 71.5803 4.53807H84.7062C85.1713 4.53807 85.3611 4.74687 85.2188 4.96516C85.0391 5.17731 84.8712 5.3991 84.7157 5.62953C84.2602 6.17051 83.6433 6.18949 82.8176 6.18949H72.3396C72.3268 6.18796 72.3138 6.18937 72.3016 6.1936C72.2893 6.19783 72.2783 6.20477 72.2691 6.21391C72.26 6.22305 72.253 6.23414 72.2488 6.24635C72.2446 6.25856 72.2432 6.27157 72.2447 6.2844C72.2447 6.34134 72.3206 6.3888 72.3681 6.40778L77.9108 8.23003L83.5104 10.0333H91.8244C89.613 9.21708 87.4396 8.39138 85.2757 7.56567C85.2192 7.53864 85.1751 7.49114 85.1523 7.4328C85.1523 7.37585 85.2093 7.33789 85.2472 7.33789H88.1514C90.3913 7.33789 91.8339 7.40432 92.6976 6.29389C92.9254 5.9712 93.2006 5.64851 93.4758 5.3448C95.374 2.95309 91.3973 3.06698 90.5242 3.06698H64.9652C64.6812 3.04939 64.3971 3.0996 64.1364 3.21347C63.8756 3.32734 63.6457 3.5016 63.4656 3.72186C62.6399 4.78484 61.7478 5.80985 60.9505 6.86334C60.1533 7.91683 59.2706 8.96083 58.4734 10.0143ZM285.107 10.0143H313.911C313.615 9.8585 313.371 9.61863 313.211 9.32483C313.051 9.03102 312.981 8.69638 313.01 8.3629H293.8L295.822 5.73393C296.486 4.85127 297.207 3.95913 297.919 3.07647H291.598C291.316 3.05806 291.033 3.10795 290.773 3.22193C290.514 3.33591 290.286 3.51064 290.108 3.73135C289.292 4.79433 288.466 5.84782 287.631 6.89181C286.777 7.92632 285.932 8.97032 285.107 10.0238V10.0143ZM383.252 10.0143H406.41C408.974 10.0683 411.504 9.4113 413.718 8.11614H406.856C405.854 8.46151 404.802 8.64103 403.743 8.64763H387.95C387.618 8.64763 387.361 8.49578 387.561 8.21105C387.76 7.92632 388.073 7.60363 388.329 7.26196H403.249C403.514 7.28571 403.781 7.24552 404.027 7.14477C404.273 7.04403 404.491 6.88567 404.663 6.68301C404.78 6.48457 404.91 6.29431 405.052 6.11356C405.061 6.10559 405.067 6.09601 405.072 6.08541C405.076 6.07481 405.079 6.0634 405.079 6.05187C405.079 6.04034 405.076 6.02893 405.072 6.01833C405.067 6.00773 405.061 5.99815 405.052 5.99018C405.038 5.96543 405.017 5.94517 404.992 5.93174C404.967 5.91832 404.939 5.91225 404.91 5.91425H389.364C389.649 5.52513 390.038 5.05058 390.266 4.72789C390.413 4.6082 390.583 4.5189 390.766 4.46515C390.948 4.4114 391.14 4.39425 391.329 4.41469H406.865C407.679 4.35789 408.491 4.5428 409.2 4.94618H416.062C416.242 3.83575 414.429 3.048 411.649 3.048H387.295C386.213 3.048 384.59 3.048 383.546 3.99709C383.309 4.28182 383.062 4.56655 382.863 4.85127C382.692 5.02875 382.559 5.23862 382.471 5.46848C382.383 5.69833 382.342 5.9435 382.35 6.18949C381.831 6.37259 381.376 6.70225 381.04 7.13858C380.775 7.45178 380.537 7.76498 380.31 8.08767C379.313 9.9289 381.838 10.0333 383.252 10.0333V10.0143ZM253.483 10.0143H276.593C279.161 10.0735 281.695 9.41625 283.911 8.11614H277.049C276.048 8.4647 274.996 8.64432 273.936 8.64763H258.152C257.811 8.64763 257.564 8.49578 257.763 8.21105C257.963 7.92632 258.276 7.60363 258.532 7.26196H273.414C273.685 7.29642 273.961 7.26137 274.215 7.1601C274.469 7.05883 274.693 6.89466 274.866 6.68301C275.022 6.50144 275.168 6.31133 275.302 6.11356C275.302 6.11356 275.302 6.03763 275.302 5.99018C275.287 5.96466 275.264 5.94404 275.237 5.93063C275.21 5.91722 275.18 5.91154 275.151 5.91425H259.614C259.908 5.52513 260.297 5.05058 260.563 4.72789C260.691 4.61335 260.842 4.52643 261.005 4.47255C261.168 4.41867 261.341 4.39897 261.512 4.41469H277.134C277.948 4.35265 278.762 4.5379 279.469 4.94618H286.321C286.511 3.83575 284.708 3.048 281.927 3.048H257.564C256.482 3.048 254.859 3.048 253.768 3.99709C253.53 4.28182 253.284 4.56655 253.084 4.85127C252.902 5.02257 252.757 5.23003 252.659 5.46043C252.561 5.69083 252.512 5.93912 252.515 6.18949C252.017 6.38861 251.582 6.71611 251.252 7.13858C250.977 7.45178 250.74 7.76498 250.512 8.08767C249.535 9.9289 252.069 10.0333 253.483 10.0333V10.0143ZM349.265 7.6321C347.528 9.86246 350.394 9.98585 351.894 9.98585H373.381C374.587 9.98585 376.466 9.98585 377.472 8.62865C377.539 8.51855 377.619 8.41662 377.709 8.32494H356.858C356.563 8.32494 356.269 8.17308 356.469 7.89785C356.848 7.40432 357.237 6.94876 357.617 6.43625C357.997 5.92374 358.386 5.48716 358.813 4.98414C358.937 4.8638 359.087 4.77312 359.251 4.71888C359.416 4.66465 359.59 4.64826 359.762 4.67095H380.537C381.192 3.10495 378.791 3.01953 377.462 3.01953H355.966C354.798 3.01953 352.881 3.01953 351.875 4.37673C351.429 4.91771 350.926 5.45869 350.527 5.99967C350.129 6.54065 349.683 7.1196 349.265 7.6321Z" fill="#000"/>
<path fill-rule="evenodd" clip-rule="evenodd" d="M343.191 16.1738H341.387C341.1 16.1864 340.822 16.2748 340.581 16.4301C340.307 16.5779 340.07 16.7855 339.888 17.0375L334.193 24.7631C334.096 24.8889 334.028 25.0348 333.994 25.1902C333.994 25.4749 334.098 25.6173 334.43 25.6173H336.234C336.513 25.601 336.783 25.5163 337.021 25.3705C337.293 25.2199 337.529 25.0127 337.714 24.7631L343.409 17.0375C343.506 16.9117 343.574 16.7658 343.608 16.6104C343.646 16.2877 343.513 16.1738 343.191 16.1738Z" fill="#000"/>
<path fill-rule="evenodd" clip-rule="evenodd" d="M400.734 16.1738H398.931C398.647 16.188 398.373 16.2764 398.134 16.4301C397.86 16.5779 397.623 16.7855 397.441 17.0375L391.746 24.7631C391.652 24.8893 391.587 25.0353 391.557 25.1902C391.557 25.4749 391.661 25.6173 391.993 25.6173H393.872C394.148 25.6007 394.416 25.5159 394.651 25.3705C394.922 25.2199 395.159 25.0127 395.343 24.7631L401.038 17.0375C401.133 16.9113 401.198 16.7653 401.228 16.6104C401.199 16.2877 401.057 16.1738 400.734 16.1738Z" fill="#000"/>
<path fill-rule="evenodd" clip-rule="evenodd" d="M314.718 13.6113L304.145 27.9995H401.465L412.019 13.6113H314.718ZM323.089 19.3628C322.7 19.3628 322.529 19.192 322.586 18.8598C322.619 18.6804 322.694 18.5113 322.804 18.3663L323.545 17.3602C323.655 17.2152 323.73 17.0461 323.763 16.8667C323.82 16.5345 323.659 16.3637 323.279 16.3637C322.942 16.3757 322.614 16.4773 322.33 16.6579C322.013 16.8345 321.735 17.0734 321.514 17.3602L315.648 25.3516C315.432 25.6429 315.157 25.8854 314.842 26.0634C314.556 26.2416 314.229 26.3429 313.892 26.3576H308.91C308.521 26.3576 308.359 26.1868 308.407 25.8546C308.444 25.6748 308.522 25.5059 308.634 25.3611L315.221 16.3637C315.435 16.0728 315.71 15.8329 316.028 15.6614C316.313 15.4808 316.64 15.3792 316.977 15.3671H330.967C331.337 15.3671 331.498 15.5285 331.451 15.8702C331.409 16.0486 331.332 16.2166 331.223 16.3637L329.752 18.3663C329.538 18.6572 329.263 18.8971 328.945 19.0686C328.66 19.2492 328.333 19.3508 327.996 19.3628H323.089ZM342.707 26.0634C342.436 26.2362 342.126 26.3374 341.805 26.3576H327.816C327.426 26.3576 327.256 26.1868 327.313 25.8546C327.345 25.6752 327.42 25.5061 327.531 25.3611L334.127 16.3637C334.338 16.0708 334.614 15.8305 334.934 15.6614C335.218 15.4808 335.546 15.3792 335.883 15.3671H349.863C350.243 15.3671 350.404 15.5285 350.347 15.8702C350.314 16.0496 350.239 16.2187 350.129 16.3637L343.532 25.3611C343.316 25.6562 343.033 25.8967 342.707 26.0634V26.0634ZM361.603 16.3637C361.266 16.3757 360.939 16.4773 360.654 16.6579C360.337 16.8345 360.06 17.0734 359.838 17.3602L358.376 19.3533C358.259 19.4991 358.181 19.6722 358.148 19.8563C358.092 20.198 358.262 20.3594 358.652 20.3594H365.646C366.035 20.3594 366.197 20.5302 366.149 20.8624C366.111 21.0453 366.026 21.2152 365.903 21.3559L362.979 25.3611C362.766 25.652 362.49 25.8918 362.173 26.0634C361.888 26.244 361.56 26.3455 361.224 26.3576H347.272C346.883 26.3576 346.721 26.1868 346.769 25.8546C346.806 25.6748 346.884 25.5059 346.997 25.3611L348.468 23.3585C348.681 23.065 348.957 22.822 349.274 22.6467C349.561 22.4722 349.888 22.3742 350.224 22.3619H355.216C355.595 22.3619 355.757 22.5233 355.7 22.8555C355.667 23.0378 355.592 23.21 355.482 23.3585L354.741 24.355C354.63 24.5035 354.556 24.6757 354.523 24.858C354.466 25.1902 354.627 25.3611 355.007 25.3611C355.343 25.3451 355.67 25.2438 355.956 25.0668C356.274 24.8918 356.55 24.6487 356.763 24.355L358.234 22.3619C358.345 22.2134 358.419 22.0412 358.452 21.8589C358.509 21.5267 358.338 21.3559 357.949 21.3559H350.954C350.584 21.3559 350.423 21.1946 350.47 20.8624C350.507 20.6795 350.585 20.5075 350.698 20.3594L353.621 16.3637C353.835 16.0728 354.11 15.8329 354.428 15.6614C354.713 15.4808 355.04 15.3792 355.377 15.3671H369.367C369.737 15.3671 369.898 15.5285 369.851 15.8702C369.81 16.0486 369.732 16.2166 369.623 16.3637L368.152 18.3663C367.938 18.6572 367.663 18.8971 367.345 19.0686C367.061 19.2492 366.733 19.3508 366.396 19.3628H361.404C361.015 19.3628 360.844 19.192 360.901 18.8598C360.934 18.6804 361.008 18.5113 361.119 18.3663L361.859 17.3602C361.97 17.2152 362.045 17.0461 362.078 16.8667C362.116 16.5345 361.954 16.3637 361.603 16.3637ZM380.651 16.3637C380.314 16.3719 379.985 16.4738 379.702 16.6579C379.386 16.8345 379.108 17.0734 378.886 17.3602L377.415 19.3533C377.306 19.5037 377.228 19.6749 377.187 19.8563C377.14 20.198 377.301 20.3594 377.69 20.3594H384.685C385.074 20.3594 385.245 20.5302 385.188 20.8624C385.153 21.0446 385.071 21.2147 384.951 21.3559L382.018 25.3611C381.807 25.654 381.531 25.8943 381.211 26.0634C380.927 26.244 380.599 26.3455 380.262 26.3576H366.349C365.959 26.3576 365.789 26.1868 365.846 25.8546C365.878 25.6752 365.953 25.5061 366.064 25.3611L367.535 23.3585C367.751 23.0672 368.026 22.8246 368.342 22.6467C368.629 22.4722 368.955 22.3742 369.291 22.3619H374.292C374.663 22.3619 374.824 22.5233 374.777 22.8555C374.736 23.0369 374.658 23.208 374.549 23.3585L373.818 24.355C373.705 24.5032 373.627 24.6752 373.59 24.858C373.543 25.1902 373.704 25.3611 374.074 25.3611C374.41 25.3451 374.737 25.2438 375.023 25.0668C375.343 24.8945 375.619 24.6509 375.83 24.355L377.311 22.3619C377.418 22.2113 377.492 22.0399 377.529 21.8589C377.576 21.5267 377.415 21.3559 377.026 21.3559H370.031C369.651 21.3559 369.49 21.1946 369.547 20.8624C369.58 20.6801 369.655 20.5079 369.765 20.3594L372.698 16.3637C372.909 16.0708 373.186 15.8305 373.505 15.6614C373.789 15.4808 374.117 15.3792 374.454 15.3671H388.434C388.814 15.3671 388.975 15.5285 388.918 15.8702C388.885 16.0496 388.81 16.2187 388.7 16.3637L387.229 18.3663C387.015 18.6572 386.739 18.8971 386.422 19.0686C386.137 19.2492 385.81 19.3508 385.473 19.3628H380.481C380.091 19.3628 379.921 19.192 379.968 18.8598C380.009 18.6813 380.087 18.5133 380.196 18.3663L380.927 17.3602C381.039 17.2154 381.117 17.0465 381.154 16.8667C381.154 16.5345 380.993 16.3637 380.585 16.3637H380.651ZM401.095 25.3611C400.881 25.652 400.606 25.8918 400.288 26.0634C400.003 26.244 399.676 26.3455 399.339 26.3576H385.33C384.941 26.3576 384.78 26.1868 384.827 25.8546C384.864 25.6748 384.942 25.5059 385.055 25.3611L391.642 16.3637C391.855 16.0728 392.131 15.8329 392.449 15.6614C392.733 15.4808 393.061 15.3792 393.398 15.3671H407.387C407.757 15.3671 407.919 15.5285 407.871 15.8702C407.834 16.05 407.756 16.2188 407.644 16.3637L401.095 25.3611Z" fill="#000"/>
</svg>
