<svg width="378" height="26" viewBox="0 0 378 26" fill="none" xmlns="http://www.w3.org/2000/svg">
<path fill-rule="evenodd" clip-rule="evenodd" d="M108.201 11.6318H116.696L120.273 7.60783L123.85 3.43478H116.547C116.177 3.42312 115.809 3.49786 115.473 3.65307C115.137 3.80829 114.841 4.03972 114.61 4.329L111.331 7.9059L108.201 11.6318Z" fill="black"/>
<path fill-rule="evenodd" clip-rule="evenodd" d="M69.7498 3.43443H62.596C62.204 3.42189 61.814 3.49546 61.4535 3.64996C61.093 3.80447 60.7708 4.03614 60.5095 4.32865L58.423 6.86229L56.1874 9.24689C56.0286 9.39718 55.8412 9.51416 55.6365 9.59094C55.4317 9.66773 55.2136 9.70277 54.9951 9.69401H38.4519C38.1539 9.69401 37.8558 9.54497 38.0048 9.09786C38.9262 8.2256 39.7736 7.27845 40.5385 6.26614L43.0721 3.43443H35.7693C35.3974 3.41017 35.0253 3.47928 34.6869 3.63545C34.3486 3.79163 34.0546 4.02992 33.8318 4.32865L31.7453 6.56422L29.8078 8.79978C27.5722 11.4825 30.851 11.6315 32.6395 11.6315H59.1682C60.0585 11.7462 60.9632 11.6583 61.8148 11.3744C62.6664 11.0905 63.443 10.618 64.0864 9.99208L66.9181 6.71326C67.8124 5.66999 68.8556 4.62673 69.7498 3.43443Z" fill="black"/>
<path fill-rule="evenodd" clip-rule="evenodd" d="M134.879 6.56402C133.836 6.56402 134.581 5.81883 134.73 5.81883C134.889 5.66855 135.076 5.55157 135.281 5.47478C135.486 5.398 135.704 5.36295 135.922 5.37172H154.552C154.85 5.37172 155.148 5.52076 154.999 5.81883H163.494C165.133 3.58327 162.004 3.43423 160.364 3.43423H131.749C130.858 3.30825 129.95 3.39075 129.097 3.67523C128.244 3.95971 127.468 4.43841 126.831 5.07364L125.937 6.11691C124.148 8.35247 127.278 8.50151 128.917 8.50151H151.571C152.465 8.50151 151.869 9.09766 151.72 9.2467H151.869C151.488 9.5473 151.013 9.70542 150.528 9.69381H132.196C131.699 9.69381 131.55 9.54477 131.749 9.2467H123.105C121.614 11.4823 124.595 11.6313 126.235 11.6313H154.85C155.717 11.745 156.6 11.6562 157.427 11.3717C158.254 11.0873 159.005 10.615 159.619 9.99188L160.364 9.2467C162.451 6.86209 159.47 6.56402 157.533 6.56402H134.879Z" fill="black"/>
<path fill-rule="evenodd" clip-rule="evenodd" d="M209.398 8.79895C207.162 11.4816 210.441 11.6307 212.229 11.6307H238.907C239.797 11.7453 240.702 11.6574 241.554 11.3736C242.405 11.0897 243.182 10.6172 243.825 9.99125L245.465 8.05376L247.104 6.26531C249.34 3.58263 246.061 3.4336 244.272 3.4336H217.744C216.853 3.31894 215.949 3.40682 215.097 3.69069C214.245 3.97456 213.469 4.44709 212.825 5.07301C212.154 5.645 211.554 6.29547 211.037 7.0105L209.398 8.79895ZM220.724 5.8182C220.883 5.66792 221.071 5.55094 221.275 5.47415C221.48 5.39737 221.698 5.36232 221.917 5.37109H238.46C238.758 5.37109 239.205 5.52012 238.758 5.96724L237.268 7.60665L235.777 9.24606C235.628 9.54414 235.032 9.69318 234.734 9.69318H218.042C217.744 9.69318 217.446 9.54414 217.744 9.09703L219.234 7.45761L220.724 5.8182Z" fill="black"/>
<path fill-rule="evenodd" clip-rule="evenodd" d="M45.6055 0.00643826H2.53364C2.25595 -0.0171877 1.97658 0.0244112 1.71781 0.127916C1.45905 0.231421 1.22806 0.393968 1.04326 0.602589L0 1.79489H15.2018L10.8797 6.71313L6.55765 11.6314H19.3749L22.6537 7.75639L26.2306 3.88142C26.816 3.1956 27.5494 2.6515 28.3754 2.29009C29.2015 1.92868 30.0988 1.75936 30.9998 1.79489H43.9661L45.6055 0.00643826Z" fill="black"/>
<path fill-rule="evenodd" clip-rule="evenodd" d="M209.845 3.43419L206.268 7.60724L202.841 11.6313H195.538L198.369 8.50147C199.115 7.4582 200.158 6.41494 201.052 5.37168L193.451 8.50147L185.85 11.6313H180.336L178.1 8.65051L175.716 5.52072H175.12L172.437 8.50147L169.754 11.6313H162.898L166.028 7.90532L169.158 4.32842C169.412 4.02736 169.733 3.78978 170.096 3.63455C170.458 3.47931 170.851 3.41071 171.245 3.43419H180.038L182.273 6.56398L184.509 9.54473L191.514 6.71302L198.518 3.73226L200.009 3.43419H209.845Z" fill="black"/>
<path fill-rule="evenodd" clip-rule="evenodd" d="M66.9175 11.632H76.3068L78.8405 8.65126C79.7347 7.75704 80.4799 6.71377 81.3741 5.67051C82.2684 4.62725 81.8212 5.2234 82.7155 5.2234H97.9173C98.3644 5.2234 98.6625 5.52147 98.5135 5.67051L97.7683 6.4157C97.4839 6.71172 97.1318 6.93421 96.7424 7.06401C96.353 7.19382 95.9378 7.22707 95.5327 7.16089H83.4607C83.3116 7.16089 83.3116 7.16089 83.3116 7.30993H83.4607L89.7202 9.39645L95.9798 11.483H105.518L98.2154 8.8003C98.2154 8.76077 98.1997 8.72287 98.1717 8.69492C98.1438 8.66697 98.1059 8.65126 98.0663 8.65126H101.643C104.177 8.65126 105.816 8.65126 107.009 7.45896L108.052 6.26666C110.436 3.58398 105.816 3.58398 104.773 3.58398H75.1145C74.4432 3.58563 73.8 3.85364 73.3261 4.32917L70.1963 7.90608C69.153 9.09838 67.9607 10.2907 66.9175 11.632Z" fill="black"/>
<path fill-rule="evenodd" clip-rule="evenodd" d="M209.845 3.43419L206.268 7.60724L202.841 11.6313H195.538L198.369 8.50147C199.115 7.4582 200.158 6.41494 201.052 5.37168L193.451 8.50147L185.85 11.6313H180.336L178.1 8.65051L175.716 5.52072H175.12L172.437 8.50147L169.754 11.6313H162.898L166.028 7.90532L169.158 4.32842C169.412 4.02736 169.733 3.78978 170.096 3.63455C170.458 3.47931 170.851 3.41071 171.245 3.43419H180.038L182.273 6.56398L184.509 9.54473L191.514 6.71302L198.518 3.73226L200.009 3.43419H209.845Z" fill="black"/>
<path d="M373.637 3.43189H321.325C320.851 3.40225 320.377 3.48078 319.938 3.66152C319.499 3.84227 319.107 4.1205 318.791 4.47515L306.868 22.6577C306.123 23.701 306.719 25.3404 307.762 25.3404H360.82C361.338 25.3648 361.855 25.285 362.341 25.1058C362.828 24.9266 363.273 24.6516 363.651 24.2972L364.397 23.1049L367.377 18.9318C367.974 18.1866 366.185 18.1866 366.185 18.1866H348.599L345.469 22.5087H328.628L339.358 6.2636H357.094L354.262 10.2876H373.637C374.899 8.68281 376.045 6.98936 377.065 5.22034C377.81 3.43189 373.637 3.43189 373.637 3.43189Z" fill="black"/>
<path d="M267.075 15.3581L259.623 25.3436H240.546C240.261 25.3389 239.982 25.2521 239.744 25.0935C239.507 24.935 239.319 24.7114 239.205 24.4494C239.213 23.7596 239.42 23.0867 239.801 22.5119L249.191 9.8437L253.066 4.62738C253.349 4.26195 253.704 3.95776 254.109 3.73316C254.556 3.46279 255.083 3.35733 255.599 3.43508H306.421C309.253 3.43508 311.935 5.07449 311.637 7.31006C310.703 9.45282 309.273 11.3429 307.464 12.8245C306.626 13.4093 305.65 13.7686 304.633 13.8677C302.012 14.1906 299.374 14.34 296.734 14.3148H294.349C296.89 14.5611 299.391 15.1115 301.801 15.9542C302.525 16.1988 303.152 16.6689 303.589 17.2956C304.036 17.8917 304.036 18.4879 303.589 19.6802L301.801 22.3629L299.714 25.4927H278.402L283.32 18.4879C283.584 18.1264 283.785 17.7234 283.916 17.2956C283.993 17.1704 284.043 17.0304 284.062 16.8847C284.081 16.739 284.069 16.591 284.026 16.4503C283.984 16.3096 283.913 16.1795 283.817 16.0683C283.721 15.9571 283.602 15.8675 283.469 15.8052C282.873 15.2091 267.075 15.3581 267.075 15.3581ZM286.301 12.8245C287.223 12.8255 288.117 12.5098 288.835 11.9302C289.503 11.2454 290.102 10.4966 290.623 9.69466C292.262 7.4591 292.113 6.2668 290.772 6.2668H273.633L268.864 12.8245H286.301Z" fill="black"/>
<path fill-rule="evenodd" clip-rule="evenodd" d="M159.619 22.6583C157.384 25.341 160.663 25.49 162.451 25.49H187.638C188.529 25.616 189.437 25.5335 190.29 25.249C191.144 24.9646 191.92 24.4859 192.557 23.8506L192.855 23.5526H168.413C168.114 23.5526 167.667 23.2545 167.965 22.9564L169.456 21.317L170.946 19.6776C171.105 19.5273 171.292 19.4103 171.497 19.3335C171.702 19.2567 171.92 19.2217 172.138 19.2305H196.581C197.475 17.442 194.643 17.293 193.153 17.293H167.965C167.075 17.1783 166.17 17.2662 165.319 17.5501C164.467 17.8339 163.691 18.3065 163.047 18.9324L161.259 20.8699L159.619 22.6583Z" fill="black"/>
<path fill-rule="evenodd" clip-rule="evenodd" d="M16.8414 25.0448H24.7404L30.5529 23.1073L39.3461 19.9776L48.2883 16.8478H41.4326C40.6158 16.8359 39.805 16.988 39.048 17.2949L30.8509 20.1266L22.6539 22.8093L20.7164 20.7227L18.6299 18.4872C18.1752 17.9475 17.603 17.5192 16.9572 17.235C16.3113 16.9508 15.6089 16.8184 14.9039 16.8478H7.60107L9.38953 18.9343L11.327 21.0208L12.6684 22.5112L13.8607 23.8525C14.6724 24.6053 15.7345 25.0301 16.8414 25.0448Z" fill="black"/>
<path fill-rule="evenodd" clip-rule="evenodd" d="M120.124 22.6583C117.889 25.341 121.167 25.49 122.956 25.49H149.783C150.673 25.616 151.581 25.5335 152.435 25.249C153.288 24.9646 154.064 24.4859 154.701 23.8506L156.489 21.9131L158.129 20.1247C160.364 17.442 157.085 17.293 155.297 17.293H128.47C127.129 17.293 124.744 17.293 123.552 18.9324C122.881 19.5044 122.28 20.1548 121.764 20.8699L120.124 22.6583ZM131.451 19.6776C131.61 19.5273 131.797 19.4103 132.002 19.3335C132.207 19.2567 132.425 19.2217 132.643 19.2305H149.336C149.783 19.2305 150.081 19.3795 149.783 19.8266C149.21 20.2989 148.708 20.851 148.292 21.466L146.802 23.1054C146.643 23.2557 146.456 23.3727 146.251 23.4495C146.046 23.5263 145.828 23.5613 145.61 23.5525H128.917C128.47 23.5525 128.172 23.2545 128.47 22.9564L129.961 21.317L131.451 19.6776Z" fill="black"/>
<path fill-rule="evenodd" clip-rule="evenodd" d="M84.2061 25.4909H117.889C117.579 25.2783 117.332 24.9861 117.175 24.6451C117.018 24.3041 116.955 23.9269 116.994 23.5534H94.4897L97.1723 20.4236L99.855 17.2938H92.5522C92.1803 17.2695 91.8082 17.3386 91.4698 17.4948C91.1315 17.651 90.8375 17.8893 90.6147 18.188L87.4849 21.7649C86.314 22.9361 85.2189 24.1806 84.2061 25.4909Z" fill="black"/>
<path fill-rule="evenodd" clip-rule="evenodd" d="M199.263 25.4884H226.388C229.459 25.4792 232.479 24.7113 235.181 23.2528H227.133C225.919 23.5956 224.668 23.7957 223.407 23.849H204.927C204.48 23.849 204.182 23.6999 204.48 23.2528L205.374 22.2096H222.96C223.26 22.2344 223.562 22.194 223.845 22.091C224.128 21.9881 224.386 21.8252 224.6 21.6134L225.196 21.0173H206.715L207.907 19.6759C208.289 19.3753 208.763 19.2172 209.249 19.2288H227.431C228.363 19.1766 229.292 19.3829 230.114 19.825H238.162C238.46 18.6327 236.523 17.5894 233.244 17.5894H204.629C203.043 17.4303 201.453 17.8542 200.157 18.7817L199.263 19.825C198.832 20.2072 198.565 20.7411 198.518 21.3153C197.882 21.572 197.319 21.9815 196.879 22.5076L195.984 23.5509C194.643 25.3394 197.624 25.4884 199.263 25.4884Z" fill="black"/>
<path fill-rule="evenodd" clip-rule="evenodd" d="M47.0958 25.4916H74.2206C77.2911 25.4824 80.3118 24.7145 83.0139 23.256H74.9658C73.7512 23.5988 72.5008 23.7988 71.2399 23.8522H52.7592C52.3121 23.8522 52.014 23.7031 52.3121 23.256C52.6964 22.9468 53.0461 22.597 53.3554 22.2127H70.7928C71.0929 22.2376 71.3948 22.1971 71.6778 22.0942C71.9608 21.9913 72.2181 21.8284 72.4322 21.6166L73.0283 21.0204H54.6967L55.889 19.6791C56.0479 19.5288 56.2352 19.4118 56.44 19.3351C56.6447 19.2583 56.8628 19.2232 57.0813 19.232H75.2639C76.196 19.1798 77.1243 19.3861 77.9466 19.8281H85.9946C86.4417 18.6358 84.3552 17.5926 81.0764 17.5926H52.6102C51.0233 17.4193 49.4289 17.8445 48.139 18.7849C47.7235 19.0117 47.4054 19.3828 47.2448 19.8281C46.9974 19.9977 46.7895 20.2186 46.6351 20.4758C46.4808 20.733 46.3838 21.0204 46.3506 21.3185C45.7587 21.5798 45.2451 21.9907 44.8602 22.5108L43.817 23.5541C42.4756 25.3425 45.4564 25.4916 47.0958 25.4916Z" fill="black"/>
</svg>
