<svg width="386" height="42" viewBox="0 0 386 42" fill="none" xmlns="http://www.w3.org/2000/svg">
<path d="M274.316 27.9512H304.472C303.787 28.0827 303.144 28.377 302.597 28.8093C302.049 29.2416 301.614 29.7992 301.328 30.435H275.48C275.337 30.4401 275.198 30.4868 275.081 30.5696C274.964 30.6523 274.873 30.7674 274.82 30.9008C274.549 31.5994 274.161 32.2979 273.889 32.9577C273.617 33.6175 273.889 33.4623 274.161 33.4623H290.461C293.566 33.4623 295.545 33.6951 296.438 34.1609C297.331 34.6266 297.525 35.4804 296.981 36.7223C296.438 37.9643 296.399 38.0031 296.127 38.6241C295.901 39.2304 295.538 39.7767 295.067 40.2208C294.596 40.6648 294.029 40.9949 293.411 41.1855C292.13 41.6513 289.995 41.9229 286.891 41.9229L273.85 42.0006H259.956C260.305 41.1467 260.849 40.2541 261.198 39.3615H285.881C286.025 39.3564 286.164 39.3097 286.281 39.2269C286.398 39.1442 286.488 39.0291 286.541 38.8957L287.434 36.6835C287.55 36.4119 287.434 36.2178 287.201 36.2178H270.862C267.796 36.2178 265.778 35.9849 264.885 35.5192C263.992 35.0535 263.759 34.1609 264.264 32.9189C264.458 32.3756 264.73 31.871 264.924 31.3665C265.171 30.7504 265.548 30.1953 266.031 29.7396C266.513 29.2839 267.089 28.9385 267.718 28.7274C268.999 28.2228 271.211 27.99 274.316 27.99" fill="#F0F0F0"/>
<path d="M347.628 27.9922H373.398C372.972 28.8072 372.583 29.6222 372.195 30.4372H348.56C348.419 30.4509 348.284 30.501 348.168 30.5826C348.052 30.6643 347.96 30.7747 347.9 30.903L346.969 32.9211C346.852 33.1928 346.969 33.4257 347.201 33.4257H363.036C366.063 33.4257 368.004 33.6585 368.858 34.1242C369.673 34.5512 369.828 35.405 369.207 36.6469C368.896 37.2679 368.625 37.8889 368.314 38.5486C368.04 39.1404 367.646 39.6696 367.159 40.1035C366.672 40.5374 366.101 40.8668 365.481 41.0713C364.187 41.5371 362.053 41.7699 359.077 41.7699L340.759 41.8475H332.647L333.851 39.092H358.301C358.445 39.0869 358.583 39.0402 358.701 38.9575C358.818 38.8748 358.908 38.7597 358.961 38.6263C359.31 37.8889 359.621 37.3455 359.97 36.6081C360.319 35.8707 359.97 36.1424 359.737 36.1424H343.903C340.914 36.1424 338.974 35.9095 338.12 35.4438C337.266 34.9781 337.111 34.1242 337.693 32.8823L338.391 31.3299C338.651 30.7263 339.034 30.1834 339.515 29.7357C339.996 29.288 340.565 28.9454 341.186 28.7296C342.467 28.2639 344.64 28.031 347.628 28.031" fill="black"/>
<path d="M341.458 27.9136C338.974 28.4957 338.275 29.466 337.81 30.4362H311.341C311.066 30.4698 310.804 30.573 310.58 30.736C310.356 30.899 310.177 31.1164 310.06 31.3677C309.09 33.6575 307.809 35.8697 306.839 38.1595C306.606 38.6641 306.839 39.091 307.305 39.091L333.114 39.0134L331.872 41.8077H300.396C298.689 41.8077 297.951 40.2941 298.689 38.5088C299.698 36.1026 301.056 33.6575 302.104 31.1348C302.88 29.3107 304.898 27.8359 306.606 27.8359H341.458V27.9136Z" fill="black"/>
<path d="M274.316 27.9512H304.472C303.787 28.0827 303.144 28.377 302.597 28.8093C302.049 29.2416 301.614 29.7992 301.328 30.435H275.48C275.337 30.4401 275.198 30.4868 275.081 30.5696C274.964 30.6523 274.873 30.7674 274.82 30.9008C274.549 31.5994 274.161 32.2979 273.889 32.9577C273.617 33.6175 273.889 33.4623 274.161 33.4623H290.461C293.566 33.4623 295.545 33.6951 296.438 34.1609C297.331 34.6266 297.525 35.4804 296.981 36.7223C296.438 37.9643 296.399 38.0031 296.127 38.6241C295.901 39.2304 295.538 39.7767 295.067 40.2208C294.596 40.6648 294.029 40.9949 293.411 41.1855C292.13 41.6513 289.995 41.9229 286.891 41.9229L273.85 42.0006H259.956C260.305 41.1467 260.849 40.2541 261.198 39.3615H285.881C286.025 39.3564 286.164 39.3097 286.281 39.2269C286.398 39.1442 286.488 39.0291 286.541 38.8957L287.434 36.6835C287.55 36.4119 287.434 36.2178 287.201 36.2178H270.862C267.796 36.2178 265.778 35.9849 264.885 35.5192C263.992 35.0535 263.759 34.1609 264.264 32.9189C264.458 32.3756 264.73 31.871 264.924 31.3665C265.171 30.7504 265.548 30.1953 266.031 29.7396C266.513 29.2839 267.089 28.9385 267.718 28.7274C268.999 28.2228 271.211 27.99 274.316 27.99" fill="black"/>
<path fill-rule="evenodd" clip-rule="evenodd" d="M327.214 20.8889C327.253 20.8889 327.408 20.8889 327.37 21.0053C327.331 21.1217 326.555 21.9756 326.166 22.1696C325.778 22.3637 325.429 22.3248 324.692 22.3248H314.329C314.174 22.5965 314.252 23.0622 314.911 23.0622H328.185C329.194 23.0622 330.591 22.907 331.406 21.8591L331.794 21.3546C332.221 20.8112 331.872 20.4231 331.406 20.4231H320.539C320.518 20.4283 320.497 20.425 320.478 20.4141C320.46 20.4032 320.447 20.3855 320.442 20.3649C320.437 20.3443 320.44 20.3225 320.451 20.3043C320.462 20.2862 320.479 20.273 320.5 20.2679C320.803 19.8032 321.2 19.4067 321.664 19.1036C322.14 18.9514 322.642 18.8986 323.139 18.9483H334.006C334.161 18.6767 334.045 18.2109 333.424 18.2109H319.646C318.637 18.2109 317.24 18.3662 316.425 19.4141L316.037 19.8798C315.455 20.656 316.153 20.8889 316.658 20.8889H327.214Z" fill="black"/>
<path fill-rule="evenodd" clip-rule="evenodd" d="M297.447 18.2109C296.438 18.2109 295.04 18.3662 294.225 19.4141L293.643 20.1515L293.216 20.7336L292.712 21.3546L292.013 22.2084C291.78 22.4801 291.819 23.0622 292.557 23.0622H306.024C307.033 23.0622 308.43 22.907 309.206 21.8591L309.788 21.1217L310.254 20.5396L310.72 19.9186L311.457 19.0648C311.651 18.7931 311.613 18.2109 310.875 18.2109H307.188L306.528 19.026L305.907 19.841L305.248 20.6948L304.588 21.5098C304.161 22.0532 303.773 22.3248 302.764 22.3248H297.02C296.942 22.3248 296.942 22.2084 296.981 22.1696L297.757 21.1993C297.99 20.85 298.301 20.5396 298.533 20.1903L299.31 19.22L300.125 18.2109H297.447Z" fill="black"/>
<path fill-rule="evenodd" clip-rule="evenodd" d="M275.014 18.2109C274.005 18.2109 272.608 18.3662 271.793 19.4141L271.211 20.1515L270.745 20.7336L270.279 21.3546L269.581 22.2084C269.387 22.5189 269.426 23.0622 270.124 23.0622H288.016C288.241 23.0969 288.472 23.0438 288.659 22.9139C288.847 22.7839 288.978 22.587 289.025 22.3637H274.626C274.471 22.3637 274.471 22.286 274.51 22.2084L276.062 20.2291L277.653 18.2497H275.014" fill="black"/>
<path fill-rule="evenodd" clip-rule="evenodd" d="M350.035 20.8889C350.074 20.8889 350.229 20.8889 350.151 21.0053C349.848 21.47 349.452 21.8665 348.987 22.1696C348.498 22.3207 347.983 22.3735 347.473 22.3248H337.111C336.956 22.5965 337.072 23.0622 337.732 23.0622H351.005C351.976 23.0622 353.411 22.907 354.188 21.8591C354.338 21.7083 354.469 21.5387 354.576 21.3546C355.042 20.8112 354.692 20.4231 354.227 20.4231H343.321C343.243 20.4231 343.204 20.3455 343.243 20.2679C343.557 19.8121 343.952 19.4175 344.407 19.1036C344.757 18.9483 345.184 18.9483 345.96 18.9483H356.827C356.982 18.6767 356.866 18.2109 356.206 18.2109H342.428C341.419 18.2109 340.022 18.3662 339.207 19.4141L338.819 19.8798C338.237 20.656 338.935 20.85 339.44 20.8889H350.035Z" fill="black"/>
<path fill-rule="evenodd" clip-rule="evenodd" d="M367.422 19.7634C367.849 19.22 368.237 18.9483 369.246 18.9483H374.757C374.835 18.9483 374.835 19.0648 374.796 19.1036C374.461 19.4855 374.15 19.8872 373.864 20.3067C373.554 20.6948 373.205 21.0829 372.894 21.5098C372.584 21.9367 372.001 22.3248 370.992 22.3248H365.598C365.52 22.3248 365.52 22.2084 365.559 22.1696L366.49 20.9665L367.422 19.7634ZM365.947 18.2109C364.977 18.2109 363.58 18.3662 362.803 19.4141L362.221 20.1515L361.755 20.7336L361.29 21.3546L360.63 22.2084C360.397 22.4801 360.436 23.0622 361.173 23.0622H374.369C375.378 23.0622 376.775 22.907 377.551 21.8591L378.133 21.1217L378.56 20.5396L379.065 19.9186L379.725 19.0648C379.958 18.7931 379.919 18.2109 379.181 18.2109H365.947Z" fill="black"/>
<path fill-rule="evenodd" clip-rule="evenodd" d="M319.025 12.6214C317.744 13.6304 316.114 13.8245 314.407 13.8245H234.574L233.293 13.7469C231.857 13.6304 230.421 13.2035 229.722 11.8452C229.024 10.4868 229.257 9.59416 229.839 8.54628L229.916 8.46865C229.916 8.42984 229.916 8.39103 229.955 8.39103L223.707 11.3794L218.933 13.6304L218.622 13.7857L218.312 13.8633H211.326C210.447 13.8483 209.583 13.6303 208.802 13.2264C208.021 12.8225 207.344 12.2435 206.824 11.5347C206.436 10.9913 206.048 10.4868 205.621 9.98226L204.457 8.42984C203.874 7.61482 203.254 6.83861 202.671 6.0624L201.003 3.73377L199.14 1.13347C199.06 1.02844 199.014 0.90211 199.007 0.77071C199 0.639309 199.033 0.508842 199.101 0.396072C199.158 0.280257 199.247 0.182658 199.356 0.114137C199.466 0.0456167 199.592 0.00886318 199.722 0.00796731H209.036C210.061 0.019948 211.069 0.271941 211.979 0.743734C212.889 1.21553 213.675 1.89399 214.276 2.7247L216.061 5.13095L216.371 5.55787C216.476 5.68705 216.619 5.77938 216.779 5.8213C216.94 5.86321 217.11 5.8525 217.264 5.79073L221.65 3.73377L228.403 0.628935C229.342 0.207816 230.362 -0.00406507 231.391 0.00796731H244.509C244.683 -0.0185929 244.861 0.0217953 245.007 0.121023C245.153 0.220251 245.256 0.370973 245.295 0.542928C245.335 0.714883 245.307 0.895341 245.219 1.04807C245.131 1.2008 244.988 1.3145 244.82 1.36633H244.781C244.633 1.42691 244.512 1.53893 244.441 1.68165C244.37 1.82437 244.353 1.98811 244.393 2.14254C244.42 2.307 244.506 2.45608 244.634 2.56285C244.762 2.66962 244.924 2.72703 245.091 2.7247H260.421C262.013 2.7247 264.07 2.99638 265.389 3.96664C265.533 4.07375 265.71 4.12494 265.889 4.11066C266.067 4.09637 266.235 4.01759 266.359 3.88902C266.747 3.50586 267.208 3.20517 267.715 3.00506C268.222 2.80496 268.764 2.70959 269.309 2.7247H278.507C278.64 2.73042 278.77 2.76881 278.885 2.83648C279 2.90415 279.097 2.99904 279.167 3.11281C279.227 3.23897 279.249 3.38041 279.228 3.51881C279.207 3.65721 279.145 3.78618 279.05 3.88902L277.032 6.4117C276.951 6.51494 276.901 6.63885 276.888 6.76925C276.874 6.89965 276.897 7.03129 276.955 7.1491C277.004 7.27125 277.09 7.37467 277.202 7.44442C277.313 7.51418 277.444 7.54667 277.576 7.5372H289.102C289.214 7.5418 289.325 7.51953 289.426 7.47225C289.528 7.42498 289.616 7.35409 289.684 7.26553L290.383 6.37289L291.625 4.85928C293.022 3.03519 295.079 2.7247 297.214 2.7247H318.055L319.375 2.80232C320.451 2.83007 321.487 3.21204 322.324 3.88902C322.447 4.00903 322.611 4.07936 322.782 4.08652C322.954 4.09368 323.123 4.03718 323.256 3.92783C324.536 2.91875 326.205 2.7247 327.913 2.7247H347.473L348.793 2.80232C349.722 2.84191 350.622 3.1374 351.393 3.65615C351.516 3.73171 351.657 3.77173 351.801 3.77173C351.945 3.77173 352.086 3.73171 352.208 3.65615C353.45 2.87994 354.925 2.76351 356.439 2.76351H378.599C380.967 2.76351 384.46 3.38448 384.964 6.21765C385.469 9.05081 383.916 10.1763 381.859 11.6511C379.802 13.1259 376.426 13.8633 373.826 13.8633H352.752L351.471 13.7857C350.518 13.7464 349.593 13.4515 348.793 12.9319C348.678 12.8551 348.543 12.8141 348.405 12.8141C348.267 12.8141 348.132 12.8551 348.017 12.9319C346.814 13.6693 345.3 13.8245 343.786 13.8245H322.867C321.82 13.7081 320.733 13.4364 319.957 12.699C319.83 12.5862 319.668 12.5208 319.498 12.5137C319.328 12.5066 319.161 12.5584 319.025 12.6602V12.6214ZM127.689 13.7469C127.136 13.8114 126.578 13.8373 126.021 13.8245H102.269C101.182 13.7081 100.056 13.3976 99.2802 12.6602C99.1369 12.5139 98.9416 12.4302 98.7368 12.4273C98.6389 12.4366 98.5438 12.4655 98.4571 12.5121C98.3705 12.5588 98.294 12.6223 98.2323 12.699L98.0383 12.9707L97.5337 13.5916C97.4759 13.6843 97.396 13.7612 97.3012 13.8154C97.2064 13.8696 97.0996 13.8994 96.9904 13.9021H79.3316L79.0599 13.8245L73.9757 12.1557L68.9304 10.5256H68.8528C68.8425 10.5256 68.8326 10.5215 68.8253 10.5142C68.818 10.507 68.8139 10.4971 68.8139 10.4868H68.7363L68.3482 10.2927L67.9989 10.7585L66.2136 13.0483L65.7091 13.6693C65.6523 13.7602 65.5716 13.8337 65.4757 13.8816C65.3798 13.9295 65.2726 13.9501 65.1658 13.9409H28.7227C27.3255 13.8245 25.9284 13.3588 25.191 12.078C24.9742 11.6966 24.8419 11.2731 24.8029 10.8361C24.7984 10.6916 24.7466 10.5526 24.6554 10.4404C24.5643 10.3282 24.4388 10.2491 24.2983 10.2151C24.1629 10.1684 24.0156 10.17 23.8812 10.2195C23.7468 10.269 23.6336 10.3634 23.5609 10.4868C22.8623 11.3406 22.1637 12.1945 21.504 13.0871L20.9994 13.7081C20.9332 13.8015 20.8461 13.8782 20.745 13.9321C20.644 13.9859 20.5317 14.0156 20.4173 14.0186H6.21262C6.07252 14.0218 5.93467 13.9828 5.81701 13.9067C5.69935 13.8305 5.60731 13.7208 5.55285 13.5916C5.49951 13.4728 5.4786 13.342 5.49223 13.2125C5.50587 13.0829 5.55356 12.9593 5.63047 12.8542L7.76504 10.0211L9.86081 7.34315C9.95743 7.24841 10.018 7.12298 10.0322 6.98841C10.0464 6.85383 10.0132 6.71853 9.93843 6.60575C9.89089 6.47971 9.8059 6.37124 9.69489 6.29492C9.58388 6.2186 9.45217 6.17809 9.31746 6.17884H0.701533C0.576948 6.17781 0.454653 6.14524 0.346065 6.08416C0.237476 6.02308 0.146134 5.93548 0.0805648 5.82954C0.0216428 5.71406 -0.00579439 5.58509 0.00101937 5.45563C0.00783312 5.32617 0.0486569 5.2008 0.119375 5.09214L1.78823 2.53065C2.03353 2.12474 2.30582 1.73576 2.60325 1.36633C2.97054 0.923707 3.43437 0.571124 3.95913 0.335654C4.4839 0.100183 5.05564 -0.0119143 5.63047 0.00796731H43.1214C43.2615 0.00473729 43.3994 0.0437222 43.517 0.119856C43.6347 0.19599 43.7267 0.305753 43.7812 0.434883C43.8385 0.555176 43.8581 0.690009 43.8373 0.821633C43.8165 0.953258 43.7564 1.0755 43.6647 1.17228C42.2288 2.84113 41.3361 4.35474 39.6673 6.4117C39.5735 6.51602 39.5154 6.64752 39.5015 6.7871C39.4875 6.92668 39.5184 7.06708 39.5896 7.18791C39.6471 7.30372 39.7356 7.40132 39.8452 7.46984C39.9548 7.53836 40.0813 7.57512 40.2106 7.57601H46.692C46.7977 7.57757 46.9022 7.55371 46.9968 7.50643C47.0913 7.45915 47.1731 7.38984 47.2353 7.30434L48.0891 6.25646L49.6416 4.27712C50.055 3.77537 50.5777 3.3747 51.1696 3.10565C51.7615 2.83661 52.407 2.70631 53.0569 2.7247H86.2011C86.823 2.71177 87.4452 2.73769 88.0639 2.80232C89.1895 2.95756 90.315 3.34567 91.0135 4.1995C91.0818 4.28806 91.1702 4.35895 91.2716 4.40623C91.3728 4.4535 91.484 4.47577 91.5957 4.47117C91.8005 4.46826 91.9957 4.38456 92.1391 4.23831C92.5425 3.75 93.0542 3.36246 93.6336 3.10645C94.213 2.85044 94.8441 2.73303 95.4768 2.76351H106.033L107.353 2.68589H129.863L131.105 2.76351C132.269 2.84113 133.433 3.15162 134.21 3.96664C134.275 4.03277 134.354 4.08426 134.441 4.11771C134.528 4.15115 134.621 4.1658 134.714 4.16069C134.912 4.16101 135.104 4.09241 135.258 3.96664C135.66 3.56606 136.139 3.24989 136.665 3.03663C137.192 2.82338 137.756 2.71733 138.324 2.7247H146.124C146.231 2.71557 146.339 2.73611 146.434 2.78405C146.53 2.83198 146.611 2.90546 146.668 2.99638L147.172 3.61734C147.832 4.43236 148.492 5.20857 149.113 6.02359L149.579 6.60575C149.677 6.73057 149.816 6.81785 149.971 6.85315C150.127 6.88844 150.289 6.86962 150.432 6.7998L153.615 5.40263L158.893 3.11281C159.549 2.86266 160.248 2.74398 160.95 2.76351H173.563L174.883 2.68589H195.802L197.121 2.76351C198.519 2.87994 199.955 3.34567 200.653 4.66523C201.352 5.98478 200.925 7.5372 199.993 8.70152L198.829 10.1375L197.665 11.6511C196.268 13.4752 194.211 13.7857 192.076 13.7857H169.76C168.676 13.7302 167.64 13.3213 166.81 12.6214C166.654 12.5008 166.464 12.4329 166.267 12.4273C166.165 12.4362 166.066 12.4688 165.978 12.5228C165.89 12.5767 165.817 12.6503 165.763 12.7378C165.685 12.7766 165.646 12.8542 165.607 12.8931L165.103 13.5528C165.048 13.6481 164.969 13.727 164.873 13.7815C164.778 13.8361 164.669 13.8643 164.559 13.8633H154.779C154.644 13.8641 154.513 13.8235 154.402 13.7472C154.291 13.6709 154.206 13.5624 154.158 13.4364C154.099 13.3209 154.072 13.192 154.079 13.0625C154.086 12.933 154.126 12.8077 154.197 12.699L154.546 12.2721L151.325 13.6693L151.015 13.7857L150.743 13.8633H145.387C145.282 13.8592 145.18 13.8329 145.086 13.786C144.992 13.7392 144.91 13.6729 144.844 13.5916L144.339 13.0483L142.399 10.7973C142.333 10.7163 142.25 10.6509 142.156 10.606C142.062 10.5611 141.959 10.5378 141.855 10.5378C141.751 10.5378 141.648 10.5611 141.554 10.606C141.46 10.6509 141.377 10.7163 141.312 10.7973L139.682 12.9319L139.177 13.5528C139.111 13.6462 139.024 13.7229 138.923 13.7768C138.822 13.8307 138.71 13.8603 138.595 13.8633H127.573L127.689 13.7469Z" fill="#F0F0F0"/>
<path fill-rule="evenodd" clip-rule="evenodd" d="M178.221 7.80758L177.445 8.77784H188.738C188.976 8.43771 189.235 8.11359 189.515 7.80758H178.221ZM299.814 8.77784H311.108L311.807 7.80758H300.551C300.319 8.11807 300.047 8.42855 299.814 8.77784ZM102.657 5.59538C103.821 4.08177 105.568 3.92653 107.353 3.92653H131.027C131.997 4.00415 133.162 4.27583 133.666 5.20728C133.849 5.57837 133.924 5.99329 133.883 6.40491C133.842 6.81652 133.686 7.20836 133.433 7.53591L133.084 8.07925H131.803C131.997 8.85546 131.648 9.63167 131.182 10.2526L130.678 10.9124C129.514 12.426 127.767 12.6201 126.021 12.6201H103.588L102.385 12.5425C101.415 12.4648 100.289 12.1932 99.7848 11.3005C99.2802 10.4079 99.5907 9.67048 100.018 8.93309L100.367 8.38974H101.492C101.424 8.05188 101.43 7.70318 101.511 7.36801C101.591 7.03283 101.744 6.71926 101.958 6.44921V6.37159H101.997L102.657 5.59538ZM170.226 5.59538C171.351 4.08177 173.137 3.92653 174.883 3.92653H197.005C198.014 4.04296 199.14 4.27583 199.644 5.20728C200.149 6.13873 199.683 7.18661 199.062 7.96282L197.898 9.43762L196.733 10.9124C195.608 12.426 193.823 12.6201 192.076 12.6201H171.08L169.877 12.5425C168.906 12.4648 167.781 12.1932 167.276 11.2617C166.772 10.3303 167.16 9.32119 167.781 8.58379L168.945 7.07018C169.333 6.60446 169.799 6.13873 170.226 5.59538ZM158.195 9.39881L156.603 10.0974L150.859 12.5813L150.627 12.6589H145.581L145.232 12.2708C144.533 11.4946 143.873 10.6796 143.175 9.86454L141.817 8.2345L140.575 9.78692L138.712 12.1932L138.362 12.6589H129.979L131.454 10.7572C132.153 9.78692 132.929 8.85546 133.628 7.92401C134.326 6.99256 135.141 6.0223 135.917 5.05204C136.2 4.68696 136.566 4.39449 136.985 4.19878C137.403 4.00307 137.862 3.90975 138.324 3.92653H145.892L146.241 4.39226C146.901 5.20728 147.56 5.98349 148.181 6.79851L149.579 8.50617L154.081 6.48802L159.359 4.1982C159.869 4.01414 160.408 3.92216 160.95 3.92653H171.157L169.644 5.86706C168.829 6.91494 167.936 7.92401 167.16 9.01071C166.384 10.0974 165.491 11.1065 164.676 12.1932L164.327 12.6589H155.711L157.147 10.7572L158.195 9.39881ZM350.112 7.80758H331.251C330.971 8.11359 330.711 8.43771 330.474 8.77784H349.336L349.802 8.15688L350.112 7.80758ZM264.574 8.07925H257.782L257.472 7.80758C257.2 7.61353 256.385 7.57472 256.075 7.57472H255.609C255.65 7.7385 255.658 7.90902 255.631 8.07586C255.605 8.24269 255.544 8.40232 255.454 8.54498C255.454 8.57511 255.447 8.60482 255.433 8.63176C255.42 8.65871 255.4 8.68215 255.376 8.70022L255.648 8.6226L255.842 8.54498H264.186L264.574 8.07925ZM234.108 5.12966L230.421 6.87613L223.202 10.3303L218.428 12.5425L218.196 12.6589H211.326C210.628 12.641 209.944 12.4639 209.325 12.141C208.706 11.8181 208.169 11.3581 207.756 10.796L206.591 9.24357L205.427 7.69115C204.806 6.91494 204.185 6.17754 203.642 5.36252L201.973 3.0727L200.614 1.2098H209.036C209.872 1.21412 210.695 1.41693 211.437 1.80154C212.18 2.18614 212.82 2.74154 213.305 3.422L215.13 5.82825C215.518 6.4104 215.945 6.95375 216.372 7.4971L222.154 4.81917L228.868 1.71433C229.66 1.35496 230.523 1.18233 231.391 1.2098H242.413L237.64 3.46081L236.32 4.08177C236.974 3.9708 237.636 3.91884 238.299 3.92653H260.421C262.129 3.92653 265.234 4.31464 265.622 6.4104C265.622 6.52683 265.661 6.60446 265.661 6.72089L266.98 5.01323C267.255 4.66138 267.61 4.37954 268.014 4.19069C268.419 4.00183 268.863 3.91132 269.309 3.92653H277.537L275.984 5.86706C275.325 6.64327 274.704 7.45829 274.083 8.27331C273.944 8.43413 273.814 8.60257 273.695 8.77784H289.917V8.9719L290.15 8.6226L291.315 7.10899C291.703 6.60446 292.13 6.09992 292.556 5.63419C293.682 4.08177 295.467 3.92653 297.214 3.92653H319.258C320.267 4.00415 321.432 4.27583 321.936 5.24609C322.104 5.58301 322.179 5.95906 322.151 6.33469C322.124 6.71032 321.996 7.07164 321.781 7.38067L322.014 7.07018C322.402 6.56565 322.829 6.09992 323.256 5.59538C324.381 4.04296 326.166 3.88772 327.913 3.88772H348.676C349.686 4.00415 350.811 4.23702 351.316 5.16847C351.434 5.39957 351.512 5.64881 351.548 5.90587C351.707 5.64445 351.889 5.39768 352.092 5.16847H352.208C353.373 4.04296 354.925 3.92653 356.439 3.92653H378.599C380.307 3.92653 383.412 4.31464 383.8 6.4104C383.839 6.62858 383.839 6.85201 383.8 7.07018L383.645 8.07925H375.999L375.689 7.84639C375.417 7.61353 374.602 7.57472 374.253 7.57472H373.787C373.827 7.76203 373.827 7.95569 373.787 8.14297C373.747 8.33025 373.667 8.50693 373.554 8.66141H373.515C373.637 8.64017 373.754 8.60093 373.864 8.54498H384.188L381.2 10.6796C379.298 12.0379 376.154 12.6589 373.826 12.6589H351.548C350.578 12.5813 349.414 12.3096 348.909 11.3781C348.797 11.1581 348.719 10.9227 348.676 10.6796L348.599 10.796H348.521L348.444 10.8736C347.318 12.426 345.533 12.6201 343.786 12.6201H324.226L322.984 12.5425C322.014 12.4648 320.888 12.1932 320.384 11.2617C319.879 10.3303 320.19 9.59286 320.616 8.89427L320.228 9.39881L319.064 10.9124C317.9 12.426 316.153 12.6201 314.407 12.6201H260.965L262.051 11.2229C260.15 12.1932 257.588 12.6201 255.609 12.6201H233.37C232.4 12.5425 231.275 12.2708 230.731 11.3393C230.188 10.4079 230.499 9.86454 230.887 9.16595V9.08833H230.925L231.624 8.19569C231.899 7.84926 232.226 7.54806 232.594 7.30304C232.75 6.86208 232.987 6.45408 233.293 6.09992L233.953 5.2849H234.03C234.069 5.12966 234.069 5.12966 234.108 5.12966ZM36.8342 8.04044L36.2908 8.77784H47.5847L49.0207 6.99256L50.5731 5.01323C50.8741 4.65148 51.2554 4.3649 51.6866 4.17627C52.1177 3.98763 52.5869 3.90212 53.0569 3.92653H61.1683L59.6547 5.86706C58.9561 6.68208 58.2576 7.53591 57.5978 8.38974C56.938 9.24357 56.2394 10.0586 55.6184 10.9512C54.4541 12.4648 52.6688 12.6589 50.9224 12.6589H30.0035L28.8392 12.5813C27.8689 12.5037 26.7434 12.2708 26.2389 11.3393C25.7344 10.4079 26.1613 9.36 26.7434 8.58379L28.1018 6.83732L29.5378 5.01323H28.1018C27.0151 5.01323 26.0448 5.2849 25.3463 6.13873L22.94 9.16595L20.5338 12.1932L20.1845 12.6589H7.18295L8.69656 10.7572L11.7238 6.91494L13.2374 5.01323H1.59424L2.75855 3.18913C2.98567 2.81749 3.24543 2.46681 3.53476 2.14125C3.78352 1.82899 4.10389 1.5813 4.46871 1.41916C4.83353 1.25702 5.23206 1.1852 5.63053 1.2098H42.0736L36.8342 8.04044ZM88.5686 10.6796C89.3059 9.74811 90.0045 8.81665 90.7419 7.92401C91.4793 7.03137 92.2555 5.98349 93.0318 5.01323C93.3307 4.65908 93.706 4.37731 94.1295 4.18909C94.553 4.00087 95.0136 3.9111 95.4768 3.92653H103.627L102.113 5.86706C101.26 6.91494 100.406 7.92401 99.5907 9.01071C98.7757 10.0974 97.9219 11.1065 97.1069 12.1932L96.7576 12.6589H79.4481L74.3251 10.99L69.2797 9.36H69.2021C68.9858 9.27293 68.7964 9.13008 68.6532 8.94601C68.5101 8.76194 68.4182 8.54322 68.3871 8.31212C67.9214 8.85546 67.4945 9.43762 67.0675 9.98097L65.2823 12.2708L64.933 12.7365H54.6094L56.0454 10.8348C56.7828 9.86454 57.5978 8.93309 58.3352 7.96282C59.0726 6.99256 59.8488 6.0223 60.625 5.05204C60.8959 4.70798 61.245 4.43346 61.6432 4.25122C62.0414 4.06899 62.4773 3.98429 62.9148 4.00415H86.2011C86.7714 3.99126 87.342 4.01719 87.9088 4.08177C88.8402 4.1982 89.8493 4.50869 90.315 5.40133C90.7807 6.29397 90.3926 7.26423 89.8105 8.00163H89.7717L89.1119 8.81665C88.5698 9.49657 87.7959 9.9526 86.9385 10.0974L87.7923 10.4079L88.5686 10.6796Z" fill="black"/>
<path fill-rule="evenodd" clip-rule="evenodd" d="M89.4611 11.4972H96.1366C96.9516 10.4105 97.8442 9.36265 98.6592 8.31476C99.4743 7.26688 100.328 6.18019 101.182 5.1323H95.4768C95.1896 5.10891 94.9012 5.1569 94.6371 5.27202C94.373 5.38714 94.1415 5.5658 93.9632 5.79208L91.6733 8.62525L89.4611 11.4972ZM58.7232 5.09349H53.0569C52.7648 5.07664 52.4728 5.12741 52.2035 5.24184C51.9343 5.35628 51.6951 5.53129 51.5045 5.75327L49.9521 7.7326L48.3996 9.67313C48.2789 9.77961 48.1368 9.85896 47.9828 9.90583C47.8288 9.95269 47.6666 9.96598 47.507 9.9448H34.5055C34.195 9.9448 33.9621 9.82837 34.1562 9.5567L35.9027 7.3445L37.688 5.09349H31.9828C31.6968 5.07973 31.4114 5.1321 31.1489 5.24653C30.8864 5.36095 30.6538 5.53436 30.4692 5.75327L29.0332 7.53855L27.6748 9.32384C26.0836 11.3808 28.6451 11.4584 30.0035 11.4584H50.9223C52.009 11.4584 53.7167 11.4972 54.6481 10.2165L56.6663 7.65498L58.7232 5.09349ZM109.992 7.53855C109.177 7.53855 109.759 6.99521 109.875 6.91758C109.991 6.80196 110.132 6.71398 110.286 6.66022C110.441 6.60646 110.606 6.5883 110.768 6.6071H125.361C125.633 6.6071 125.865 6.72353 125.788 6.9564H132.424C133.55 5.20992 131.182 5.09349 129.863 5.09349H107.353C106.227 5.09349 104.52 5.09349 103.588 6.33543L102.928 7.15045C101.725 8.93573 104.17 9.05216 105.49 9.05216H123.343C124.002 9.05216 123.576 9.51789 123.498 9.67313H123.537C123.409 9.7806 123.26 9.86025 123.1 9.90703C122.939 9.9538 122.771 9.96666 122.605 9.9448H108.09C107.819 9.9448 107.586 9.82837 107.741 9.63432H101.027C99.9012 11.3808 102.307 11.4584 103.588 11.4584H126.021C127.069 11.4584 128.776 11.4972 129.746 10.2165C129.903 10.0002 130.071 9.79285 130.251 9.59551C131.648 7.69379 129.358 7.53855 127.767 7.53855H109.992ZM177.406 6.91758C177.526 6.80826 177.667 6.72438 177.82 6.67102C177.974 6.61766 178.136 6.59592 178.298 6.6071H191.339C191.61 6.6071 191.843 6.76234 191.649 6.99521L190.601 8.35357C190.213 8.78049 189.864 9.2074 189.515 9.67313C189.394 9.77961 189.252 9.85896 189.098 9.90583C188.944 9.95269 188.782 9.96598 188.622 9.9448H175.62C175.349 9.9448 175.077 9.82837 175.31 9.5567L176.358 8.23714L177.406 6.91758ZM168.712 9.32384C167.121 11.342 169.721 11.4584 171.08 11.4584H192.076C193.124 11.4584 194.87 11.4972 195.802 10.2165L196.966 8.74168C197.315 8.23714 197.742 7.77142 198.169 7.26688C199.761 5.20992 197.16 5.09349 195.802 5.09349H174.883C173.835 5.09349 172.089 5.09349 171.157 6.33543C170.73 6.83996 170.265 7.3445 169.876 7.84904L168.712 9.32384ZM39.4732 2.37676H5.63048C5.40965 2.35623 5.1872 2.3917 4.9837 2.47988C4.78019 2.56807 4.6022 2.70612 4.46617 2.88129C4.20886 3.17267 3.97526 3.48415 3.76758 3.81275H15.7212L12.6552 7.65498L9.62796 11.4972H19.6023L22.0085 8.43119C22.7847 7.42212 23.6385 6.41305 24.4536 5.40398C25.2686 4.3949 26.5105 3.81275 28.1018 3.81275H38.3089L39.4732 2.37676ZM211.326 11.4972H217.924C219.476 10.721 221.068 9.98361 222.698 9.24621L229.877 5.83089L237.135 2.37676H231.391C230.694 2.35196 230.001 2.49854 229.373 2.80367L222.659 5.8697L216.022 8.97454C215.401 8.15952 214.741 7.3445 214.159 6.52948L212.374 4.12323C211.99 3.59407 211.489 3.16099 210.91 2.85798C210.331 2.55496 209.69 2.39025 209.036 2.37676H202.943L204.612 4.66658C205.155 5.44279 205.776 6.219 206.358 6.99521L207.523 8.54763L208.687 10.1C208.994 10.5155 209.391 10.8568 209.848 11.0986C210.304 11.3404 210.81 11.4766 211.326 11.4972ZM299.775 6.91758C299.889 6.79953 300.029 6.70992 300.185 6.65599C300.34 6.60206 300.505 6.58532 300.668 6.6071H313.592C313.902 6.6071 314.174 6.76234 313.941 6.99521L312.893 8.35357L311.884 9.67313C311.757 9.78273 311.609 9.86373 311.448 9.91061C311.287 9.9575 311.118 9.96916 310.953 9.9448H297.99C297.718 9.9448 297.447 9.82837 297.679 9.5567L298.727 8.23714L299.775 6.91758ZM291.12 9.32384C289.529 11.342 292.13 11.4584 293.527 11.4584H314.407C315.455 11.4584 317.162 11.4972 318.133 10.2165C318.482 9.71194 318.909 9.24621 319.258 8.74168L320.461 7.26688C322.052 5.20992 319.452 5.09349 318.055 5.09349H297.214C296.166 5.09349 294.419 5.09349 293.488 6.33543L292.246 7.84904C291.897 8.31476 291.47 8.8193 291.12 9.32384ZM168.712 5.1323C167.858 6.18019 167.005 7.22807 166.189 8.31476C165.374 9.40146 164.521 10.4105 163.706 11.4972H158.078C158.699 10.6434 159.359 9.82837 159.98 9.01335L161.92 6.52948L156.138 9.01335L150.394 11.4972H146.124L144.106 9.12978C143.408 8.31476 142.787 7.53855 142.088 6.76234C142.061 6.71473 142.021 6.67527 141.973 6.648C141.926 6.62072 141.871 6.60661 141.816 6.6071C141.775 6.59122 141.729 6.59027 141.686 6.60442C141.644 6.61856 141.608 6.64693 141.584 6.68472C140.924 7.46093 140.264 8.27595 139.643 9.09097L137.78 11.4972H132.386C133.084 10.527 133.86 9.59551 134.598 8.62525C135.335 7.65498 136.073 6.72353 136.849 5.79208C137.029 5.57553 137.254 5.40086 137.509 5.28022C137.764 5.15958 138.042 5.09586 138.324 5.09349H145.309C145.969 5.90851 146.629 6.68472 147.25 7.49974L149.268 9.90599L154.546 7.57736L159.825 5.28754C160.188 5.17332 160.569 5.12085 160.95 5.1323H168.712ZM57.0156 11.4584H64.3508L66.136 9.16859L67.9213 6.87877C68.1542 6.6071 68.2706 6.49067 68.9304 6.49067H80.884C81.3109 6.49067 81.4662 6.64591 81.3498 6.87877L80.884 7.46093C80.4959 7.96547 79.9138 7.96547 79.2152 7.96547H69.629L69.5514 8.04309C69.5514 8.12071 69.629 8.15952 69.6678 8.19833L74.7132 9.82837L79.7973 11.4972H87.3654L81.4274 9.24621C81.3498 9.2074 81.3109 9.16859 81.3109 9.09097C81.3109 9.01335 81.3498 9.01335 81.3886 9.01335H84.0277C86.0846 8.97454 87.3654 9.09097 88.1804 8.0819C88.3745 7.77142 88.6461 7.49974 88.879 7.18926C90.6255 5.01587 86.9773 5.1323 86.2011 5.1323H62.9148C62.6589 5.11852 62.4032 5.16387 62.1676 5.26482C61.9321 5.36578 61.7229 5.51963 61.5564 5.71446C60.7802 6.68472 60.004 7.61617 59.2666 8.58644L57.0156 11.4584ZM263.371 11.4584H289.607C288.869 11.1091 288.831 10.4105 288.792 9.9448H271.288L273.151 7.53855C273.733 6.72353 274.393 5.94732 275.053 5.1323H269.309C269.052 5.1088 268.793 5.14973 268.556 5.25137C268.319 5.35302 268.111 5.51218 267.951 5.71446C267.174 6.68472 266.437 7.65498 265.661 8.58644C264.885 9.51789 264.147 10.527 263.371 11.4584ZM352.752 11.4972H373.826C376.387 11.4972 379.065 10.721 380.501 9.71194H374.253C373.343 10.0392 372.385 10.2098 371.419 10.2165H357.021C356.71 10.2165 356.477 10.0612 356.671 9.82837L357.37 8.93573H370.954C371.575 8.93573 371.963 8.8193 372.234 8.47L372.622 7.92666V7.81023H358.301L359.155 6.72353C359.283 6.61607 359.432 6.53641 359.592 6.48964C359.753 6.44286 359.921 6.43 360.087 6.45186H374.253C375.223 6.45186 375.999 6.6071 376.387 6.91758H382.636C382.791 5.90851 381.161 5.17111 378.599 5.17111H356.439C355.468 5.17111 353.955 5.1323 353.023 6.06375C352.795 6.30503 352.588 6.56464 352.402 6.83996C352.014 7.3445 351.859 7.77142 351.936 8.04309C351.46 8.222 351.043 8.5313 350.733 8.93573L350.074 9.75075C349.181 11.3808 351.471 11.4972 352.752 11.4972ZM234.574 11.4972H255.609C258.17 11.4972 260.926 10.721 262.284 9.71194H256.036C255.129 10.046 254.169 10.2169 253.203 10.2165H238.882C238.571 10.2165 238.338 10.0612 238.532 9.82837L239.231 8.93573H252.776C253.011 8.96364 253.249 8.93604 253.471 8.85516C253.694 8.77428 253.894 8.64236 254.056 8.47L254.445 7.92666C254.483 7.92666 254.445 7.88785 254.406 7.81023H240.162L240.977 6.72353C241.099 6.61914 241.242 6.54112 241.395 6.49437C241.549 6.44761 241.71 6.43314 241.87 6.45186H256.075C257.045 6.45186 257.86 6.6071 258.209 6.91758H264.458C264.613 5.90851 262.983 5.17111 260.421 5.17111H238.299C237.329 5.17111 235.854 5.1323 234.884 6.06375C234.656 6.30503 234.448 6.56464 234.263 6.83996C233.836 7.3445 233.681 7.77142 233.72 8.04309C233.272 8.23589 232.884 8.54391 232.594 8.93573L231.896 9.78956C231.003 11.3808 233.293 11.4972 234.574 11.4972ZM321.82 9.32384C320.228 11.342 322.829 11.4584 324.226 11.4584H343.786C344.873 11.4584 346.581 11.4972 347.512 10.2165L347.706 9.9448H328.689C328.417 9.9448 328.146 9.82837 328.34 9.5567L329.349 8.23714C329.698 7.81023 330.047 7.3445 330.435 6.91758C330.554 6.8063 330.695 6.72118 330.849 6.6677C331.003 6.61422 331.166 6.59358 331.328 6.6071H350.268C350.85 5.20992 348.676 5.09349 347.473 5.09349H327.913C326.826 5.09349 325.08 5.09349 324.187 6.33543L322.945 7.84904C322.596 8.31476 322.169 8.8193 321.82 9.32384Z" fill="#F0F0F0"/>
<path fill-rule="evenodd" clip-rule="evenodd" d="M256.307 21.5859L258.209 18.7527C258.209 18.7139 258.209 18.6751 258.17 18.6751H252.115C251.533 18.6751 250.796 18.7139 250.291 19.102C250.095 19.2594 249.936 19.4582 249.826 19.6842L247.924 22.4397C247.924 22.4785 247.924 22.5173 247.963 22.5173H254.017C254.599 22.5173 255.337 22.4785 255.841 22.0904L256.307 21.5471V21.5859ZM247.652 22.2069L249.515 19.4513C250.214 18.4422 250.951 18.287 252.115 18.287H258.17C258.257 18.2834 258.343 18.3064 258.416 18.353C258.49 18.3996 258.547 18.4676 258.581 18.5479C258.615 18.6281 258.623 18.7168 258.605 18.8019C258.587 18.8871 258.544 18.9647 258.48 19.0244L256.579 21.7799C255.919 22.789 255.143 22.9054 254.017 22.9054H247.963C247.883 22.9126 247.804 22.8952 247.735 22.8556C247.666 22.816 247.611 22.7562 247.577 22.6842C247.543 22.6121 247.532 22.5315 247.545 22.453C247.559 22.3746 247.596 22.3022 247.652 22.2457V22.2069ZM247.458 18.0541C246.216 18.0541 244.392 18.2094 243.655 19.3349L241.404 22.6726C241.326 22.7502 241.365 22.8666 241.404 22.9443C241.497 23.0305 241.607 23.0959 241.728 23.1361C241.848 23.1762 241.976 23.1902 242.102 23.1771H258.674C259.916 23.1771 261.74 23.0219 262.478 21.8964L264.729 18.5975C264.806 18.5199 264.768 18.4034 264.729 18.3258C264.636 18.2395 264.525 18.1741 264.405 18.134C264.284 18.0938 264.157 18.0798 264.03 18.0929L247.458 18.0541ZM233.486 21.5471L235.427 18.7139C235.427 18.6751 235.427 18.6363 235.388 18.6363H229.334C228.695 18.5766 228.055 18.7265 227.51 19.0632C227.313 19.2206 227.154 19.4194 227.044 19.6454L225.142 22.4009C225.103 22.4397 225.142 22.4785 225.181 22.4785H231.235C231.818 22.4785 232.555 22.4397 233.059 22.0516C233.218 21.9121 233.361 21.756 233.486 21.5859V21.5471ZM224.832 22.2069L226.733 19.4513C227.432 18.4422 228.169 18.287 229.334 18.287H235.388C235.467 18.2904 235.544 18.316 235.61 18.3607C235.676 18.4054 235.727 18.4675 235.76 18.5401C235.792 18.6127 235.803 18.6929 235.793 18.7716C235.782 18.8503 235.749 18.9244 235.699 18.9856L233.797 21.7411C233.137 22.7502 232.361 22.8666 231.235 22.8666H225.181C225.111 22.8616 225.042 22.8392 224.983 22.8014C224.923 22.7636 224.874 22.7116 224.839 22.6501C224.805 22.5886 224.786 22.5194 224.785 22.4488C224.783 22.3783 224.799 22.3085 224.832 22.2457V22.2069ZM224.638 18.0541C223.434 18.0541 221.61 18.2094 220.873 19.3349L218.583 22.6338C218.571 22.6793 218.568 22.7269 218.575 22.7736C218.581 22.8203 218.598 22.8651 218.622 22.9054C218.715 22.9917 218.826 23.0571 218.946 23.0973C219.067 23.1374 219.194 23.1514 219.321 23.1383H235.893C237.135 23.1383 238.92 22.9831 239.696 21.8576L241.947 18.5587C242.025 18.481 241.986 18.3646 241.947 18.287C241.854 18.2007 241.743 18.1353 241.623 18.0952C241.502 18.055 241.375 18.041 241.248 18.0541H224.638ZM203.68 21.0425C203.525 21.0425 203.408 21.0814 203.369 21.1978L202.438 22.5561C202.399 22.595 202.438 22.6338 202.477 22.6338H208.415C208.997 22.6338 209.734 22.595 210.2 22.2457C210.539 21.9056 210.839 21.528 211.093 21.1202C211.093 21.0814 211.093 21.0425 211.054 21.0425H203.68ZM203.99 20.1887H211.364C211.425 20.1921 211.486 20.1796 211.54 20.1524C211.595 20.1252 211.641 20.0842 211.675 20.0335L212.645 18.6363C212.643 18.6064 212.629 18.5786 212.606 18.5587H206.63C206.009 18.5587 205.31 18.5975 204.805 19.0244C204.479 19.3517 204.192 19.7164 203.952 20.1111C203.952 20.1887 203.952 20.2275 203.99 20.2275V20.1887ZM202.128 22.3233L203.059 21.0037C203.118 20.8922 203.208 20.8 203.318 20.7381C203.428 20.6761 203.554 20.6471 203.68 20.6544H211.054C211.127 20.6623 211.196 20.6887 211.256 20.7312C211.316 20.7737 211.363 20.8309 211.395 20.8971C211.426 20.9634 211.439 21.0366 211.434 21.1096C211.429 21.1826 211.405 21.2531 211.364 21.3142C211.12 21.7625 210.806 22.1687 210.433 22.5173C209.89 22.9443 209.113 22.9831 208.415 22.9831H202.477C202.406 22.978 202.338 22.9556 202.279 22.9178C202.219 22.88 202.17 22.8281 202.135 22.7665C202.101 22.705 202.082 22.6359 202.08 22.5653C202.079 22.4947 202.095 22.4249 202.128 22.3621V22.3233ZM212.917 18.8692L211.985 20.2275C211.915 20.3263 211.822 20.4063 211.714 20.4604C211.605 20.5146 211.485 20.5412 211.364 20.538H203.99C203.92 20.533 203.852 20.5106 203.792 20.4728C203.733 20.435 203.683 20.383 203.649 20.3215C203.614 20.2599 203.595 20.1908 203.594 20.1202C203.593 20.0496 203.609 19.9798 203.641 19.917C203.898 19.477 204.211 19.0725 204.573 18.7139C205.155 18.2482 205.931 18.2094 206.63 18.2094H212.606C212.686 18.2128 212.763 18.2383 212.828 18.283C212.894 18.3278 212.946 18.3899 212.978 18.4625C213.01 18.5351 213.022 18.6152 213.011 18.6939C213 18.7726 212.967 18.8468 212.917 18.908V18.8692ZM217.496 21.0037C217.458 20.9261 217.264 20.8873 217.186 20.8873L216.177 20.5768L217.225 20.3828C217.574 20.344 217.962 20.344 218.195 19.9947L219.165 18.5975C219.188 18.5539 219.197 18.5041 219.19 18.4553C219.183 18.4065 219.161 18.3611 219.127 18.3258C219.01 18.1318 218.661 18.0929 218.467 18.0929H201.933C200.73 18.0929 198.906 18.2482 198.169 19.3737L197.548 20.2275C197.548 20.2378 197.552 20.2477 197.559 20.255C197.567 20.2622 197.576 20.2663 197.587 20.2663L197.858 20.3828L198.751 20.7321L197.82 20.8873C197.587 20.8977 197.361 20.9629 197.158 21.0775C196.956 21.1922 196.784 21.3531 196.655 21.5471L195.879 22.6726C195.867 22.7181 195.864 22.7657 195.871 22.8124C195.877 22.8591 195.893 22.9039 195.918 22.9443C196.011 23.0305 196.122 23.0959 196.242 23.1361C196.362 23.1762 196.49 23.1902 196.616 23.1771H213.111C214.353 23.1771 216.138 23.0219 216.914 21.8964L217.496 21.0037ZM247.458 17.666H264.03C264.214 17.6553 264.398 17.6884 264.567 17.7627C264.735 17.8369 264.884 17.9501 265.001 18.0929C265.079 18.1834 265.125 18.297 265.132 18.4163C265.139 18.5355 265.106 18.6538 265.039 18.7527L262.788 22.1292C261.934 23.3324 260.072 23.5652 258.674 23.5652H242.102C241.918 23.5759 241.734 23.5428 241.566 23.4686C241.397 23.3944 241.248 23.2812 241.132 23.1383C241.054 23.0479 241.008 22.9343 241.001 22.815C240.994 22.6957 241.026 22.5775 241.093 22.4785L243.344 19.1408C244.198 17.9377 246.061 17.7048 247.458 17.7048V17.666ZM224.638 17.666H241.248C241.432 17.6553 241.616 17.6884 241.785 17.7627C241.954 17.8369 242.102 17.9501 242.219 18.0929C242.297 18.1834 242.343 18.297 242.35 18.4163C242.357 18.5355 242.325 18.6538 242.258 18.7527L240.007 22.1292C239.153 23.3324 237.251 23.5652 235.893 23.5652H219.321C219.131 23.5731 218.943 23.5389 218.768 23.4651C218.594 23.3913 218.438 23.2797 218.312 23.1383C218.245 23.0412 218.209 22.9262 218.209 22.8084C218.209 22.6906 218.245 22.5756 218.312 22.4785L220.563 19.1408C221.378 17.9377 223.279 17.7048 224.638 17.7048V17.666ZM197.431 20.5768L197.276 20.4216C197.226 20.3711 197.195 20.305 197.188 20.2344C197.181 20.1638 197.199 20.0929 197.237 20.0335L197.858 19.102C198.673 17.8601 200.575 17.666 201.933 17.666H218.467C218.65 17.6584 218.833 17.6929 219.001 17.7669C219.17 17.8409 219.319 17.9524 219.437 18.0929C219.51 18.186 219.552 18.299 219.559 18.4168C219.566 18.5346 219.537 18.6518 219.476 18.7527L218.506 20.2275C218.407 20.3641 218.279 20.4768 218.132 20.5574C217.984 20.638 217.82 20.6844 217.652 20.6932L217.807 20.8097C217.845 20.8671 217.866 20.9346 217.866 21.0037C217.866 21.0728 217.845 21.1403 217.807 21.1978L217.186 22.1292C216.371 23.3324 214.469 23.5652 213.111 23.5652H196.616C196.427 23.5731 196.238 23.5389 196.064 23.4651C195.889 23.3913 195.734 23.2797 195.607 23.1383C195.541 23.0412 195.505 22.9262 195.505 22.8084C195.505 22.6906 195.541 22.5756 195.607 22.4785L196.384 21.3142C196.503 21.1341 196.657 20.9796 196.837 20.8596C197.017 20.7397 197.219 20.6568 197.431 20.6156V20.5768Z" fill="black"/>
</svg>
