<svg width="115" height="14" viewBox="0 0 115 14" fill="none" xmlns="http://www.w3.org/2000/svg">
<path fill-rule="evenodd" clip-rule="evenodd" d="M30.4207 5.6276L32.1556 3.9129C32.8213 3.22702 34.1325 2.80339 35.5043 2.80339H61.5475C63.0605 2.80339 64.4524 2.33941 65.1786 1.61319L66.7319 0.0195312H16.6225C14.8473 0.0195312 13.1931 0.564199 12.3458 1.43163L0 13.9993H19.5475C21.1614 13.9993 22.6542 13.495 23.4207 12.7285L26.6887 9.39993C27.2939 8.79474 28.464 8.41146 29.7348 8.41146H51.3602C53.0547 8.41146 54.6282 7.88696 55.4553 7.05987L56.8472 5.64777L30.4207 5.6276Z" fill="black"/>
<path fill-rule="evenodd" clip-rule="evenodd" d="M71.1702 0C70.3392 0.0351018 69.5559 0.397737 68.9915 1.00864L67.2768 2.80403H93.199L91.2826 4.7608C90.7803 5.30173 90.0837 5.62101 89.346 5.64841H65.784C64.955 5.67384 64.1705 6.02976 63.6054 6.63688L61.8907 8.43227H87.5708L85.7754 10.2882C85.2689 10.8378 84.5653 11.1642 83.8186 11.196H60.3777C59.5487 11.2214 58.7642 11.5773 58.199 12.1844L56.444 13.9798H99.0895C100.142 13.9766 101.151 13.5558 101.894 12.8098L112.908 1.49279L114.36 0H71.1702Z" fill="black"/>
</svg>
