<svg width="123" height="28" viewBox="0 0 123 28" fill="none" xmlns="http://www.w3.org/2000/svg">
<path d="M50.8312 4.68042C50.9634 4.68042 51.0021 4.72877 50.9473 4.82547L42.6696 17.5079H50.691C51.162 17.5077 51.6257 17.391 52.0407 17.1683C52.4557 16.9456 52.8093 16.6238 53.0699 16.2314L57.9872 8.81442C58.7987 7.57194 59.903 6.54782 61.203 5.83205C62.5031 5.11628 63.959 4.73078 65.4429 4.70943L67.7395 4.68042C67.862 4.68042 67.8959 4.72877 67.8411 4.82547L56.7204 21.5936C56.5177 21.8938 56.2438 22.1393 55.9233 22.308C55.6027 22.4768 55.2453 22.5635 54.883 22.5606H39.2464C39.0222 22.5606 38.8012 22.5072 38.6019 22.4046C38.4026 22.3019 38.2306 22.1532 38.1004 21.9707L35.7216 18.6248C35.5624 18.4022 35.4744 18.1366 35.4692 17.8629C35.4641 17.5893 35.5419 17.3206 35.6926 17.0921L41.7945 7.73619C42.393 6.82199 43.2068 6.06877 44.1645 5.5427C45.1223 5.01663 46.1945 4.73381 47.2871 4.7191L50.8312 4.68042Z" fill="black"/>
<path d="M105.661 4.70441C105.784 4.70441 105.818 4.75276 105.763 4.84946L101.629 11.1834L109.341 11.1206C109.983 11.1178 110.615 10.9551 111.179 10.6469C111.743 10.3388 112.221 9.89506 112.571 9.35576L113.054 8.58698C113.817 7.41351 114.858 6.4465 116.084 5.77175C117.311 5.09699 118.685 4.73536 120.084 4.71891C121.462 4.71891 122.613 4.71891 122.613 4.71891C122.745 4.71891 122.784 4.76726 122.729 4.86396L113.054 19.6207C112.458 20.5303 111.644 21.2771 110.687 21.7937C109.73 22.3103 108.659 22.5804 107.571 22.5797H104.133C104.001 22.5797 103.967 22.5314 104.032 22.4347L108.345 15.8783H100.207C99.7127 15.8779 99.2258 16.0011 98.791 16.2367C98.3561 16.4723 97.987 16.8128 97.7172 17.2273L96.3488 19.2677C95.7121 20.2445 94.8461 21.0507 93.8264 21.6162C92.8067 22.1816 91.6642 22.4892 90.4984 22.512L87.254 22.5797H87.2009H86.8721L96.3005 8.13732C96.9898 7.07898 97.9333 6.21027 99.0448 5.61058C100.156 5.01088 101.4 4.69934 102.663 4.70441H105.661Z" fill="black"/>
<path d="M59.4233 22.5218L60.8109 20.4717C61.4565 19.5192 62.3298 18.743 63.3515 18.2136C64.3732 17.6841 65.5109 17.4183 66.6614 17.4401H79.4502C79.6632 17.4444 79.8739 17.3954 80.0631 17.2974C80.2522 17.1994 80.4139 17.0557 80.5333 16.8792L81.2295 15.7236H69.9928C69.2724 15.7236 69.0258 15.5254 68.5423 14.8243L66.9128 12.5712C66.8165 12.329 66.7842 12.0661 66.8189 11.8079C66.8536 11.5496 66.9542 11.3046 67.1111 11.0965L70.3989 6.21786C70.9695 5.48293 72.362 4.76733 73.9527 4.76733H95.348L94.9708 5.31853C94.204 6.45712 93.1641 7.3855 91.9462 8.01894C90.7283 8.65238 89.3712 8.9707 87.9987 8.94485H75.7562C75.5793 8.94096 75.4042 8.98086 75.2465 9.061C75.0887 9.14114 74.9532 9.25903 74.852 9.40418L73.5949 11.0771L84.8317 11.1013C85.1039 11.1421 85.3627 11.2466 85.5871 11.4062C85.8114 11.5658 85.9949 11.7761 86.1226 12.02L87.9987 14.5729C88.0961 14.7661 88.1334 14.984 88.1058 15.1986C88.0782 15.4132 87.987 15.6146 87.8439 15.7768L84.1306 21.3372C83.8788 21.7089 83.5382 22.012 83.1397 22.2188C82.7412 22.4257 82.2973 22.5298 81.8484 22.5218H59.4233Z" fill="black"/>
<path d="M39.5849 3.14765C38.9273 2.18063 38.3713 1.40701 37.9699 0.884824C37.7603 0.609288 37.4896 0.386027 37.1793 0.232522C36.8689 0.0790165 36.5272 -0.000566544 36.181 3.44805e-06H18.4942C17.2858 -0.00111729 16.0927 0.270985 15.0042 0.795961C13.9157 1.32094 12.9601 2.0852 12.2086 3.0316C11.8959 3.37575 11.6114 3.7444 11.3576 4.134L8.06009 9.11898L0 20.8827H3.44742C4.54208 20.8803 5.61984 20.6125 6.58827 20.1022C7.55671 19.5919 8.38694 18.8543 9.00777 17.9527L16.5989 6.8755C16.9681 6.33943 17.462 5.90099 18.038 5.59781C18.6141 5.29463 19.2551 5.13577 19.9061 5.13487H32.2114L29.9147 8.65481C29.6071 9.12718 29.1863 9.51523 28.6907 9.78374C28.195 10.0522 27.6402 10.1927 27.0765 10.1924H18.3733C17.0212 10.1975 15.7263 10.7382 14.772 11.6961C13.8178 12.654 13.282 13.951 13.282 15.3031H15.8252H17.7883C18.3953 15.3063 18.9926 15.4551 19.5302 15.7369C20.0678 16.0188 20.53 16.4254 20.8779 16.9228L24.7025 22.3043C25.9552 24.067 27.612 25.5041 29.5342 26.495C31.4564 27.486 33.588 28.002 35.7506 28L26.7429 15.3176H30.9446C31.5112 15.3198 32.0693 15.1798 32.5677 14.9103C33.0661 14.6408 33.4889 14.2505 33.7973 13.7752L36.4952 9.64117L39.6042 4.87861C39.7702 4.61967 39.8569 4.31781 39.8534 4.01023C39.85 3.70266 39.7566 3.40281 39.5849 3.14765Z" fill="black"/>
</svg>
