<svg fill="none" height="24" viewBox="0 0 174 24" width="174" xmlns="http://www.w3.org/2000/svg"><path clip-rule="evenodd" d="m170.774 0h-41.138c-2.186 0-3.445.529963-4.968 2.71606-1.524 2.1861-3.909 5.56461-4.571 6.49204-.663.9274-.994 2.1861.795 2.1861h23.848c1.391 0 2.782.3975 1.722 2.0536-.369.5539-.779 1.1642-1.169 1.7467-.731 1.0893-1.397 2.0814-1.613 2.4268-.331.5299-1.06.9274-2.716.9274h-7.486l1.988-3.511h-14.972c-2.319 0-4.306.1325-5.631 2.0536-1.06 1.5236-3.445 5.1009-4.504 6.757h.265 43.125c1.458.1325 4.77-.1325 6.095-2.3186 1.119-1.7655 3.303-4.9305 5.221-7.712l.001-.0007c1.033-1.4973 1.989-2.8834 2.661-3.8802.53-.66245 1.192-2.0536-.331-2.0536h-25.041c-1.259 0-1.789-.26499-1.259-1.05993.247-.36946.35-.53859.436-.6803.1-.1632.177-.29004.426-.64461.333-.55511.619-.55202 2.068-.53645.28.00301.603.00649.979.00649h19.873 6.294c.397-.46372 1.258-1.65613 1.722-2.45108.596-1.05992.596-2.51732-2.12-2.51732zm-105.5913 11.3962c1.5899-1.5236 3.0473-2.2523 4.3059-2.2523 1.2587 0 1.7887.79494 1.7224 2.3186-.1325 1.4574-.7287 3.1798-1.9211 5.1671-1.1262 1.8549-2.5173 3.6435-4.2397 5.1672-1.6561 1.4574-3.0473 2.1861-4.3059 2.1861-1.2587 0-1.7887-.7287-1.7224-2.1861.0662-1.5237.7287-3.2461 1.9211-5.2334 1.1262-1.8549 2.5173-3.6435 4.2397-5.1672zm2.2523 5.1672c.795-1.3249 1.1925-2.3849 1.2587-3.1798 0-.7949-.265-1.1924-.9274-1.1924-.6625 0-1.4574.3975-2.3849 1.1924-.9937.9274-1.8548 2.0536-2.5173 3.1798-.7949 1.3249-1.1924 2.3848-1.2587 3.1798-.0662.7949.265 1.1924.9275 1.1924.6624 0 1.4574-.3975 2.3848-1.1924.9937-.9275 1.8549-2.0537 2.5173-3.1798zm-40.942-7.22029h-3.246l-8.5456 14.44149h1.8548l3.4448-5.7633h1.4574c.7287 0 1.5899-.3975 2.5173-1.2587.9937-.9274 1.8549-1.9874 2.4511-3.0473.5962-.9937.9937-1.9874 1.1262-2.981 0-.92747-.3313-1.39119-1.06-1.39119zm-1.9873 4.30599c-.6625 1.1261-1.3912 1.6561-2.1199 1.6561h-.8612l1.9874-3.3123h.6624c.4638 0 .7287.1325.795.3975.0662.1987-.0663.6625-.4637 1.2587zm9.4109-1.6562 1.5899-2.64979h-5.2996l-8.5457 14.44149h5.3659l1.5237-2.6498h-3.511l2.0536-3.4448h3.3122l1.5899-2.6498h-3.3122l1.7886-3.0473zm3.1809-2.64979h3.246c.7287 0 1.0599.39748.8612 1.32489-.0662.9275-.4637 1.9874-1.0599 2.9148-.9275 1.5899-2.0536 2.7823-3.3123 3.511.1987.3312 0 1.1924-.5299 2.6498-.2556.7028-.4957 1.3901-.7279 2.0546-.2493.7136-.4894 1.4009-.7295 2.0526h-1.9874c.1325-.4637.4637-1.3911.9937-2.716.5299-1.3249.7949-2.1861.7949-2.5836s-.0662-.5962-.3312-.5962h-.53l-3.4447 5.8296h-1.7887zm.265 5.49839c.3974-.3312.7287-.7287.9937-1.1924.6624-1.1262.5962-1.6562-.0663-1.6562h-.9274l-1.9211 3.3123h.9274c.1573 0 .273-.0415.413-.0916.0369-.0132.0755-.0271.117-.0409.1324-.0662.3312-.1987.4637-.3312zm11.5906-5.49839-6.6908 8.28069 2.9148-8.28069h-1.9874l-5.1009 14.64019h.795l11.9904-14.64019zm8.5418 0-1.5237 2.64979h-3.511l-1.7886 3.0473h3.3123l-1.5237 2.6498h-3.3122l-2.0537 3.4448h3.5111l-1.5237 2.6498h-5.3659l8.5457-14.44149zm3.4458 0h-1.7886l-8.5457 14.44149h5.5646l1.5237-2.6498h-3.7098zm19.6783.13201c-.3312-.19873-.7286-.33122-1.2586-.33122-1.3249 0-2.7823.72869-4.4385 2.1861-1.7223 1.5236-3.246 3.3785-4.3059 5.2996-1.2587 2.0536-1.9211 3.8423-1.9874 5.2334-.0662 1.3912.53 2.1199 1.8549 2.1199.9937 0 2.2523-.4638 3.7097-1.4574l1.8549-3.1136c-.7287.4637-1.5236.9275-2.3186 1.2587-.3974.1987-.8612.265-1.2586.265-.7287 0-1.1262-.3975-1.1262-1.2587s.3975-1.9211 1.1262-3.1798c.6624-1.1261 1.5236-2.2523 2.5835-3.1135.9937-.7949 1.8549-1.2587 2.6498-1.2587.795 0 1.325.4638 1.6562 1.4574l1.9211-3.246c-.1325-.265-.3312-.5962-.6625-.86118zm8.0843-.13201-1.5237 2.64979h-3.511l-1.7886 3.0473h3.3123l-1.5237 2.6498h-3.3122l-2.0536 3.4448h3.511l-1.5237 2.6498h-5.3658l8.5456-14.44149zm-78.104-.13705c-.86123 0-1.72242.39747-2.7161 1.12614-1.05993.8612-1.92112 1.8549-2.51733 2.9811-.46371.7287-.86119 1.5236-1.05992 2.3186-.13249.5299-.13249.9936 0 1.3911s.39747.7287.66245 1.0599c.26498.265.39747.5962.46372.9937 0 .265-.13249.5962-.26498.8612-.52996.8612-1.12617 1.3249-1.85487 1.3249-.19874 0-.39747-.0662-.52996-.1325-.1325-.0662-.26499-.1987-.39748-.3312-.26498-.3975-.39747-.9274-.46371-1.3912l-1.92112 3.1136c.264981.9274.927435 1.3911 1.78862 1.3911.86119 0 1.72238-.3974 2.71606-1.1924 1.05993-.9274 1.98737-1.9874 2.64982-3.1798.46372-.7287.79494-1.5236.99368-2.3186.13249-.5299.13249-.9936 0-1.4574-.13249-.3974-.39747-.7949-.66245-1.0599s-.39748-.5962-.46372-.9274c0-.265.13249-.53.26498-.795.19874-.3312.46372-.6624.79494-.8611.33123-.1988.66246-.3313.99368-.3313.59621 0 1.05989.3975 1.52369 1.2587l1.6561-2.7823c-.3312-.72872-.9274-1.05994-1.6561-1.05994zm4.4339 8.15274 4.7696-8.01569h1.7224l-4.8359 8.21439c-1.2587 2.1199-2.5173 3.7098-3.776 4.7697-1.2586 1.1262-2.4511 1.6561-3.64348 1.6561-.46372.0663-.92743-.0662-1.25866-.3974-.26498-.3313-.46372-.7287-.39747-1.2587 0-1.1262.66245-2.7161 1.85487-4.7697l4.83594-8.21439h1.7886l-4.9022 8.28069c-.5962.9937-.9274 1.7886-.9274 2.3848s.1987.9275.7949.9275c.5963 0 1.1925-.3313 1.9212-.9275.7949-.7949 1.5236-1.7224 2.0536-2.6498zm64.5959-17.3588h39.3499c2.451 0 4.107.927435 2.053 3.70974-1.715 2.19774-7.811 11.50886-10.637 15.82486-.666 1.0179-1.151 1.758-1.353 2.0614-1.126 1.5899-2.451 2.2523-6.028 2.2523h-13.7793c2.0963-3.3293 5.5697-8.801 8.0626-12.7279 1.5248-2.40204 2.6827-4.22608 2.9337-4.62836.862-1.39115.53-2.45107-1.5232-2.45107h-4.2397c-1.7886 0-2.7161 0-3.5773 1.45739-.6624.92744-.9936 1.39116-.9936 1.4574h-18.0188c.795-1.3249 2.4511-4.10721 2.9148-5.10089.5962-1.192416.9937-1.85487 4.8359-1.85487z" fill="#f1f1f1" fill-rule="evenodd"/></svg>