<svg width="75" height="50" viewBox="0 0 75 50" fill="none" xmlns="http://www.w3.org/2000/svg">
<path fill-rule="evenodd" clip-rule="evenodd" d="M46.9854 29.919L49.6039 24.3731L71.6411 24.2455L46.9854 29.919ZM55.8733 29.2606L53.6406 29.9808L53.6228 29.986L53.6198 30.0051L53.5813 30.2708C53.3979 31.5291 53.0673 32.7672 52.5998 33.951L52.4947 34.2175L52.4873 34.2374L52.5023 34.2516L54.1324 35.8257C53.6845 36.7719 53.1534 37.6876 52.5548 38.545L50.3766 37.925L50.3567 37.9196L50.3438 37.9356L50.1641 38.1613C49.3714 39.1576 48.4611 40.0662 47.4567 40.8615L47.2304 41.04L47.2138 41.0528L47.2195 41.073L47.8414 43.242C46.9813 43.8386 46.0635 44.3684 45.1127 44.8153L43.5359 43.1913L43.5214 43.1763L43.502 43.184L43.234 43.2902C42.0471 43.7576 40.8026 44.0877 39.5356 44.2719L39.2488 44.3133L39.2283 44.316L39.2233 44.3362L38.6706 46.5352C38.1496 46.5794 37.619 46.6023 37.0947 46.6023C36.5723 46.6023 36.0419 46.5794 35.5195 46.5352L34.9651 44.3299L34.96 44.3098L34.94 44.307L34.6539 44.264C33.402 44.0787 32.1638 43.7448 30.9753 43.2728L30.7061 43.1657L30.6865 43.1583L30.672 43.1733L29.0788 44.8153C28.1264 44.3678 27.208 43.838 26.349 43.242L26.9826 41.0324L26.9884 41.0122L26.9723 40.9999L26.7468 40.8206C26.0682 40.2805 25.4176 39.6681 24.8116 39.0028L25.5542 36.3591C27.8643 39.4776 31.3826 41.554 35.2206 42.0598L35.2957 43.2058L35.2985 43.2472L35.3378 43.2319L38.1403 42.1503C45.1274 41.6622 50.7089 36.2776 51.419 29.342L55.9212 28.2865C55.9157 28.6299 55.9012 28.9327 55.8733 29.2606ZM33.0813 31.2503L34.3414 28.6648L34.5326 31.5849L33.0813 31.2503ZM27.3602 29.9302L27.6873 28.7662L28.2324 30.1318L27.3602 29.9302ZM28.4381 30.6472L30.634 36.1514L30.66 36.2163L30.6906 36.1536L32.8673 31.6888L34.5668 32.0875L35.1878 41.5589C31.3796 41.0261 27.9302 38.9034 25.7244 35.7554L27.2376 30.3662L28.4381 30.6472ZM21.9078 47.5913L18.681 48.7664L27.2673 19.1138L31.0078 28.643L36.6075 15.6151L38.2843 41.5657L35.7201 42.5558L34.6903 26.8593L30.702 35.0389L27.611 27.2896L21.9078 47.5913ZM20.0578 35.8257L21.731 34.2102L21.7463 34.1957L21.7386 34.1767L21.6337 33.9096C21.1712 32.7347 20.8455 31.5146 20.6638 30.2842L20.625 30.0195L20.6223 30.0005L20.6042 29.995L18.3151 29.2521C18.2878 28.9248 18.2742 28.6245 18.2684 28.2587L22.8239 29.3287C22.8977 30.0498 23.0291 30.7755 23.216 31.4716L21.3097 38.0553C20.834 37.3279 20.4135 36.5779 20.0578 35.8257ZM23.772 29.5516L23.4979 30.4981C23.4335 30.1664 23.3794 29.8146 23.337 29.4489L23.772 29.5516ZM2.71214 24.2455L25.2712 24.3741L23.8936 29.1306L2.71214 24.2455ZM27.0059 18.3829L25.4009 23.9256H23.8119C24.4217 21.8699 25.5244 19.9562 27.0059 18.3829ZM32.3356 24.4148L31.0272 27.4589L29.8266 24.3998L32.3356 24.4148ZM29.6406 23.9256L27.3315 18.0433C29.869 15.5236 33.2318 14.0944 36.8064 14.0135L32.5455 23.9256H29.6406ZM21.6373 21.7677L21.7427 21.4993L21.7501 21.4802L21.7351 21.4657L20.0578 19.8488C20.5056 18.9002 21.0362 17.9858 21.6359 17.1293L23.8755 17.7659L23.896 17.7714L23.9086 17.7553L24.0884 17.5296C24.8698 16.5491 25.766 15.6544 26.752 14.8698L26.9774 14.6904L26.9936 14.6776L26.9878 14.658L26.349 12.4326C27.2151 11.8322 28.1329 11.3024 29.0788 10.8587L30.6892 12.5181L30.7039 12.5331L30.7233 12.5258L30.9922 12.4192C32.1731 11.9529 33.4026 11.6229 34.6463 11.4378L34.9324 11.3945L34.9526 11.392L34.9578 11.3716L35.5187 9.13879C36.0498 9.09464 36.5799 9.07229 37.0947 9.07229C37.6108 9.07229 38.1408 9.09464 38.6706 9.13879L39.2302 11.3675L39.2354 11.3871L39.2556 11.3904L39.5427 11.4318C40.7906 11.6133 42.0247 11.9417 43.2108 12.408L43.4794 12.514L43.499 12.5214L43.5135 12.5064L45.1121 10.8587C46.0616 11.3051 46.9794 11.8344 47.84 12.4326L47.2091 14.6346L47.2034 14.6547L47.2201 14.6675L47.4463 14.8463C48.1105 15.3734 48.7529 15.971 49.3537 16.6221L48.3007 18.8497C46.8925 17.1113 45.0764 15.7081 43.0411 14.7883L42.9247 12.9978L42.922 12.9564L42.8832 12.9708L40.3794 13.8889C39.3053 13.6398 38.2089 13.5131 37.1209 13.5131C30.7182 13.5131 25.0354 17.7943 23.2933 23.9256H20.9578C21.1425 23.1677 21.3712 22.4417 21.6373 21.7677ZM45.6818 24.3954L44.3635 27.1869C44.2198 27.497 44.0692 27.8399 43.9173 28.2083L43.669 24.4071L45.6818 24.3954ZM43.6381 23.9256L43.078 15.3516C45.0132 16.2746 46.7359 17.6574 48.0619 19.3542L45.9037 23.9256H43.6381ZM40.6739 31.8613L41.305 41.0523C40.4802 41.312 39.6212 41.4965 38.7488 41.5987L38.158 32.451L40.6739 31.8613ZM37.8449 27.612L36.9668 14.0102L37.105 14.0097C37.3769 14.0097 37.7867 14.0159 38.199 14.0465C38.6933 14.0832 39.1944 14.1631 39.4649 14.2108L40.2299 25.2312L37.8449 27.612ZM40.2641 25.8943L40.6411 31.3781L38.1258 31.958L37.8772 28.2775L40.2641 25.8943ZM46.7242 30.4428L50.905 29.4622C50.3039 34.6413 46.7408 39.1124 41.8072 40.8819L46.7242 30.4428ZM50.4253 23.9256H49.8149L50.1761 23.1617C50.2559 23.3816 50.3359 23.6274 50.4253 23.9256ZM53.1201 9.69611L56.6069 8.42559L41.6993 39.9913L39.949 14.4978L42.499 13.5684L43.5925 30.3261C43.5925 30.3261 44.1449 28.7223 44.7829 27.349L53.1201 9.69611ZM54.1324 19.8488L52.4832 21.4382L52.4682 21.4527L52.4758 21.4717L52.5829 21.7399C52.855 22.4234 53.0881 23.1584 53.2766 23.9256H50.9417C50.8048 23.447 50.6438 22.9774 50.4632 22.5545L52.8299 17.543C53.3269 18.2952 53.7646 19.071 54.1324 19.8488ZM74.2529 23.9256H53.7843C53.5892 23.1031 53.3419 22.3133 53.0501 21.5777L54.7124 19.9756L54.7288 19.96L54.7195 19.9404C54.2679 18.9419 53.7143 17.9608 53.075 17.0246L57.4742 7.70802L57.5059 7.63989L57.4354 7.66606L52.7761 9.37344L49.5791 16.143C48.9979 15.5266 48.3897 14.9657 47.7703 14.4743L48.4064 12.2538L48.4121 12.2331L48.3941 12.2197C47.3384 11.4591 46.2031 10.8047 45.0192 10.2741L44.9993 10.2657L44.984 10.281L43.3733 11.9423C42.1608 11.4675 40.9029 11.1331 39.6345 10.9476L39.0709 8.70084L39.066 8.67931L39.0441 8.67795C38.387 8.61281 37.7315 8.57929 37.0947 8.57929C36.4589 8.57929 35.8037 8.61281 35.1468 8.67795L35.125 8.67931L35.1198 8.70084L34.5537 10.9527C33.2873 11.1432 32.034 11.4793 30.8296 11.9535L29.2056 10.281L29.19 10.2657L29.1703 10.2741C27.9873 10.8053 26.8512 11.4596 25.7947 12.2197L25.7769 12.2331L25.7826 12.2538L26.4266 14.4978C25.4264 15.2957 24.5141 16.2071 23.7149 17.2075L21.4567 16.5646L21.4359 16.5589L21.4225 16.5763C20.6608 17.6269 20.0042 18.7587 19.4706 19.9404L19.4621 19.96L19.4777 19.9756L21.1695 21.6064C20.8845 22.3296 20.6425 23.1096 20.4498 23.9256H0.0883736L0.081543 23.9866L17.772 28.1418C17.7777 28.6858 17.7996 29.0965 17.8509 29.6001L17.8526 29.6203L17.8717 29.6268L20.1777 30.3746C20.3632 31.6277 20.696 32.871 21.1654 34.0701L19.4777 35.6979L19.4621 35.7134L19.4706 35.7331C19.9239 36.7376 20.4851 37.7312 21.1348 38.6595L17.9996 49.4883L17.9829 49.5466L18.04 49.5254L22.275 47.9829L22.29 47.9777L22.2944 47.9622L24.6559 39.5564C25.228 40.1627 25.822 40.7135 26.4217 41.1926L25.7826 43.4213L25.7769 43.4426L25.7947 43.4554C26.8518 44.2144 27.9878 44.869 29.1703 45.3999L29.19 45.4083L29.2056 45.3928L30.8121 43.738C32.022 44.2182 33.2832 44.5572 34.5611 44.7488L35.1198 46.9737L35.125 46.995L35.1468 46.9966C35.7881 47.0615 36.4433 47.0945 37.0947 47.0945C37.7468 47.0945 38.4026 47.0615 39.0441 46.9966L39.066 46.995L39.0709 46.9737L39.6274 44.7567C40.9119 44.5689 42.1796 44.2329 43.3958 43.756L44.9851 45.3928L45.0007 45.4083L45.0203 45.3999C46.2018 44.8695 47.3378 44.2149 48.3955 43.4554L48.4135 43.4426L48.4075 43.4213L47.7802 41.2338C48.8004 40.4241 49.728 39.4988 50.5384 38.4834L52.7335 39.1089L52.7542 39.114L52.7676 39.0966C53.5285 38.0474 54.1856 36.9153 54.7195 35.7331L54.7283 35.7134L54.7124 35.6979L53.0682 34.1124C53.5438 32.9023 53.8799 31.6408 54.0673 30.3613L56.3173 29.6353L56.3365 29.629L56.3381 29.6091C56.3889 29.1041 56.4119 28.6852 56.4182 28.1699L74.2597 23.9866L74.2529 23.9256Z" fill="black"/>
<path fill-rule="evenodd" clip-rule="evenodd" d="M45.4432 6.97028L46.2383 7.3014L46.438 5.71992L45.4432 6.97028ZM46.8809 9.09026L46.0697 8.75233L46.1593 8.0146L45.0003 7.53141L44.5355 8.11407L43.7243 7.77668L46.1995 4.83257L47.2394 5.26535L46.8809 9.09026ZM43.4126 4.66388L42.6825 7.50579L41.8645 7.29704L42.5945 4.45512L41.617 4.20603L41.7989 3.49719L44.5719 4.20413L44.3894 4.91351L43.4126 4.66388ZM39.1874 6.91332C38.7558 6.86862 38.3109 6.72909 38.0055 6.55413L38.212 5.93277C38.5432 6.0723 38.8839 6.1794 39.2705 6.21865C39.7019 6.26334 39.7945 6.19003 39.8268 5.88344C39.8607 5.5545 39.8478 5.51444 39.2508 5.32067C38.3678 5.03588 38.2514 4.84702 38.3331 4.0586C38.4088 3.33068 38.7022 3.06769 39.7284 3.17234C40.0533 3.20586 40.4424 3.2789 40.8486 3.40944L40.6926 4.09021C40.2738 3.97575 40.003 3.91443 39.6664 3.88036C39.2902 3.84167 39.2 3.89862 39.1719 4.16679C39.1355 4.51699 39.1514 4.52435 39.726 4.72138C40.7109 5.06095 40.7415 5.25744 40.6672 5.97501C40.5918 6.6972 40.3139 7.02887 39.1874 6.91332ZM37.1683 3.04834L37.309 5.64334C37.3394 6.19902 37.0153 6.78387 35.9577 6.84083C34.9003 6.89778 34.515 6.35028 34.4855 5.79514L34.3445 3.19959L35.1885 3.15435L35.3249 5.6725C35.3407 5.96956 35.4959 6.13253 35.9183 6.10964C36.3402 6.08729 36.4773 5.90878 36.4609 5.612L36.3243 3.09303L37.1683 3.04834ZM32.3869 7.34337C31.4973 7.54885 30.9437 7.20819 30.7929 6.55931L30.4459 5.06804C30.2926 4.40798 30.6415 3.86919 31.5309 3.66316C31.9536 3.56532 32.3997 3.51899 32.7268 3.5051L32.7907 4.23056C32.4615 4.25618 31.9642 4.33167 31.7003 4.39299C31.2885 4.48837 31.2328 4.72138 31.2981 5.00018L31.5839 6.22873C31.6486 6.5078 31.8066 6.71437 32.2186 6.61899C32.3831 6.58056 32.4915 6.55031 32.6995 6.47373L32.4448 5.37926L33.2189 5.19994L33.6096 6.87871C33.235 7.08474 32.8098 7.24498 32.3869 7.34337ZM27.9981 7.27796L28.7918 6.94193L27.7948 5.69485L27.9981 7.27796ZM30.5257 7.73417L29.7161 8.07646L29.2486 7.4968L28.0918 7.98598L28.1855 8.72372L27.3768 9.06574L26.9907 5.24573L28.0279 4.80723L30.5257 7.73417Z" fill="black"/>
<path fill-rule="evenodd" clip-rule="evenodd" d="M37.0953 7.44135C41.1259 7.44135 45.0196 8.62875 48.3589 10.8757L50.7259 4.40213C49.6772 3.80475 48.5707 3.26814 47.4379 2.80512L46.4264 4.19446L46.413 4.21354L46.3906 4.20509L46.083 4.09118C44.1059 3.35835 42.0439 2.87216 39.9535 2.64706L39.6133 2.61026L39.589 2.60781L39.586 2.58383L39.3436 0.621907C39.1461 0.605283 37.8108 0.493546 37.1373 0.493546C36.4619 0.493546 35.1261 0.605283 34.9278 0.621907L34.6873 2.58383L34.6843 2.60781L34.66 2.61026L34.3188 2.64706C32.23 2.87162 30.1679 3.35726 28.1892 4.09118L27.8813 4.20509L27.8592 4.21354L27.8455 4.19446L26.8357 2.80512C25.6944 3.27196 24.5882 3.80911 23.5474 4.40213L25.8983 10.8319C29.2226 8.61349 33.0931 7.44135 37.0953 7.44135ZM48.6032 11.6464L48.5696 11.6225C45.2021 9.20896 41.2341 7.93435 37.0953 7.93435C32.9838 7.93435 29.0384 9.1937 25.6868 11.5767L25.6532 11.6001L25.6395 11.5622L22.9502 4.20836L22.9412 4.18384L22.9633 4.17103C24.2291 3.42485 25.583 2.76642 26.9865 2.21319L27.0086 2.20474L27.0229 2.22382L28.039 3.62161C30.0387 2.88143 32.1256 2.38952 34.2409 2.16005L34.4816 0.200307L34.4843 0.17687L34.5086 0.1736L34.8898 0.13054C35.6253 0.0441494 36.3813 0 37.1373 0C37.892 0 38.648 0.0441494 39.3835 0.13054L39.7636 0.1736L39.7879 0.17687L39.7906 0.200307L40.0319 2.16005C42.1472 2.38952 44.2341 2.88143 46.2338 3.62161L47.2505 2.22382L47.2649 2.20474L47.2868 2.21319C48.6849 2.76424 50.0379 3.42267 51.3092 4.17103L51.3313 4.18384L51.3223 4.20836L48.6168 11.608L48.6032 11.6464Z" fill="black"/>
</svg>
