<svg width="249" height="33" viewBox="0 0 249 33" fill="none" xmlns="http://www.w3.org/2000/svg">
<path d="M13.484 8.45248L11.3071 12.1082H23.3962C30.4023 12.0448 32.4841 8.45248 25.5942 8.45248H13.484ZM15.0162 5.89561H25.7738C31.7866 5.89561 33.8156 2.6097 27.7288 2.6097H16.9712L15.0162 5.84278V5.89561ZM0 8.45248L1.53227 5.84278H7.06957L10.5568 0H36.6265C42.1955 0 40.9486 1.29957 39.3952 3.90927C38.5815 5.2828 36.2038 6.33936 33.1815 6.81481C36.6582 7.30083 38.6766 8.51588 37.567 10.3649C36.0136 12.9746 35.4535 14.5911 29.1131 14.5911H1.83872L5.54787 8.45248H0ZM54.0732 5.84278L56.0388 2.56744H66.7329C73.0734 2.56744 70.9599 5.85334 64.778 5.85334L54.0732 5.84278ZM40.8957 14.6017H48.8424L52.541 8.45248H58.0254L63.4888 14.6545H72.6507L66.7012 8.3257C73.7708 7.9559 77.2686 6.13862 78.3887 4.21568C79.8999 1.67993 81.1363 0.0422624 73.1051 0.0422624L49.6244 0L46.1371 5.84278H41.7834L40.2617 8.45248H44.6049L40.8957 14.6545V14.6017ZM79.0545 8.5687L84.1797 0H92.1158L87.2865 8.07212C85.7542 10.6396 88.7342 12.2244 93.6269 12.2984C98.6992 12.1821 103.507 10.5973 105.05 8.07212L109.837 0H117.784L112.616 8.65323C110.598 12.0237 102.43 14.9081 92.6758 14.9081H87.5507C77.7864 14.9081 76.9833 12.0237 79.0122 8.65323V8.5687H79.0545ZM121.726 14.6017L128.922 2.55688H118.238L119.771 0H149.084L147.552 2.55688H136.858L129.662 14.6017H121.726ZM163.826 9.44565H154.4L161.913 4.81791L163.826 9.45621V9.44565ZM137.735 14.6122H146.136L150.564 11.8757H164.809L165.961 14.6228H174.414L167.651 0H151.346L149.898 2.41952H158.267L137.735 14.6122ZM176.834 14.6122H205.852L208.219 10.6396H200.283L199.438 12.0554H186.229L193.415 0H185.478L176.76 14.6017L176.834 14.6122ZM211.273 14.6122H240.239L242.606 10.6396H234.67L233.835 12.0554H220.668L222.845 8.45248H231.785L233.306 5.89561H224.388L226.364 2.6097H239.488L238.643 4.02549H246.579L248.936 0H219.928L216.43 5.83221H212.087L210.555 8.38909H214.877L211.273 14.6122Z" fill="white"/>
<path fill-rule="evenodd" clip-rule="evenodd" d="M102.477 26.3223C102.058 26.9675 101.639 27.6127 101.188 28.2256C100.833 28.7629 100.385 29.2327 99.8658 29.6128H106.765L102.477 26.3223ZM125.43 32.4839H132.457L127.203 27.3546C133.457 27.032 136.487 25.5481 137.519 23.9674C138.55 22.3866 136.261 20.5156 129.137 20.5156H123.657C123.634 20.8504 123.522 21.1732 123.334 21.4511C123.003 21.9007 122.6 22.293 122.142 22.6125H123.044C128.621 22.6125 126.848 25.29 121.336 25.29H116.017L125.43 32.4839Z" fill="white"/>
<path fill-rule="evenodd" clip-rule="evenodd" d="M109.182 30.0006H116.21L111.503 24.839C117.757 24.5164 120.82 23.0325 121.851 21.4518C123.173 19.3549 120.562 18 113.437 18H88.5827C88.7798 18.3907 88.8689 18.8271 88.8405 19.264C88.8122 19.7008 88.6675 20.122 88.4215 20.484L84.8432 25.7423C84.4968 26.2772 84.0475 26.7377 83.5215 27.0972H93.0636L97.5768 20.0968H107.312C112.921 20.0968 111.116 22.8067 105.604 22.7744H99.7044L109.182 30.0006Z" fill="white"/>
<path d="M154.349 17.897H165.487C169.196 17.897 176.171 17.897 179.88 17.897C179.301 18.013 178.759 18.2652 178.298 18.6327C177.836 19.0002 177.47 19.4724 177.227 20.0101H155.353C155.233 20.0191 155.118 20.0615 155.021 20.1325C154.924 20.2034 154.848 20.3001 154.803 20.4116C154.571 20.9927 154.233 21.5738 154 22.155C153.916 22.3768 154 22.567 154.233 22.567H168.044C170.654 22.567 172.335 22.7572 173.095 23.1587C173.856 23.5602 174.004 24.2786 173.56 25.3352C173.328 25.874 173.053 26.3918 172.831 26.9517C172.63 27.4574 172.322 27.9136 171.928 28.2892C171.534 28.6648 171.063 28.951 170.549 29.1283C168.748 29.6128 166.885 29.8194 165.022 29.7411H142.207C142.492 29.0015 142.989 28.2513 143.264 27.5117H164.145C164.264 27.5015 164.379 27.4587 164.476 27.3879C164.573 27.3171 164.648 27.221 164.694 27.1102C164.948 26.4974 165.212 25.874 165.466 25.2507C165.561 25.0288 165.466 24.8492 165.244 24.8492H151.422C148.822 24.8492 147.131 24.659 146.36 24.2575C145.589 23.856 145.43 23.127 145.853 22.0493C146.022 21.6161 146.244 21.1829 146.413 20.7392C146.621 20.2195 146.94 19.7511 147.347 19.3663C147.754 18.9814 148.239 18.6893 148.769 18.5098C150.581 18.01 152.461 17.8031 154.338 17.897" fill="white"/>
<path d="M216.422 17.9607H238.212C237.884 18.658 237.556 19.3448 237.218 20.021H217.214C217.094 20.0326 216.979 20.0759 216.88 20.1464C216.782 20.2169 216.704 20.3122 216.654 20.4225L215.862 22.1447C215.756 22.356 215.862 22.5356 216.052 22.5356H229.472C232.019 22.5356 233.699 22.7258 234.376 23.1167C235.052 23.5076 235.2 24.2261 234.693 25.2298C234.439 25.7581 234.185 26.2864 233.921 26.8252C233.689 27.3201 233.358 27.7626 232.949 28.1258C232.541 28.4891 232.062 28.7655 231.544 28.9384C229.787 29.4259 227.966 29.6432 226.144 29.5829H203.751L204.745 27.2479H225.467C225.587 27.2332 225.701 27.1888 225.799 27.1186C225.897 27.0485 225.975 26.9548 226.027 26.8464C226.313 26.2336 226.556 25.7898 226.852 25.1347C226.957 24.9234 226.852 24.7438 226.662 24.7438H213.273C210.737 24.7438 209.099 24.5536 208.38 24.1627C207.661 23.7718 207.535 23.0427 208.01 21.9862L208.591 20.6866C208.815 20.1768 209.14 19.7181 209.547 19.3384C209.954 18.9586 210.434 18.666 210.958 18.4784C212.741 18.0191 214.585 17.8444 216.422 17.9607Z" fill="white"/>
<path fill-rule="evenodd" clip-rule="evenodd" d="M205.146 27.912L204.671 28.9686H210.599L226.143 28.9475C227.901 29.0111 229.659 28.8226 231.364 28.3875C231.808 28.2338 232.218 27.9917 232.566 27.6757C232.915 27.3598 233.196 26.9765 233.393 26.5491C233.657 26.0208 233.91 25.4925 234.164 24.9537C234.418 24.4148 234.64 23.8971 234.101 23.6013C233.202 23.1047 230.508 23.0941 229.504 23.0941H216.073C215.924 23.0963 215.778 23.0593 215.648 22.987C215.519 22.9146 215.411 22.8095 215.335 22.682C215.258 22.5546 215.217 22.4094 215.215 22.2611C215.213 22.1127 215.25 21.9664 215.322 21.8368L216.115 20.1146C216.213 19.8964 216.369 19.7097 216.567 19.5754C216.765 19.441 216.996 19.3644 217.235 19.3539H236.859L237.271 18.5087H216.421C214.642 18.4324 212.862 18.6211 211.138 19.0686C210.691 19.228 210.281 19.4783 209.936 19.8038C209.59 20.1294 209.316 20.523 209.13 20.9599C208.929 21.3931 208.739 21.8263 208.549 22.2594C208.359 22.6926 208.094 23.316 208.644 23.6435C209.553 24.1401 212.226 24.1507 213.251 24.1507H226.64C226.789 24.1493 226.936 24.1874 227.065 24.2611C227.195 24.3347 227.303 24.4413 227.378 24.57C227.453 24.6987 227.493 24.845 227.493 24.994C227.493 25.143 227.454 25.2895 227.38 25.4186C227.116 25.9891 226.82 26.5596 226.556 27.1302C226.458 27.3349 226.31 27.5112 226.125 27.6425C225.94 27.7738 225.724 27.8556 225.499 27.8803H205.178" fill="white"/>
<path d="M211.201 17.8659C209.088 18.3519 208.496 19.1549 208.116 19.979H185.702C185.471 20.0046 185.251 20.0915 185.066 20.2309C184.88 20.3702 184.735 20.5569 184.645 20.7713C183.811 22.7154 182.733 24.5644 181.898 26.5084C181.718 26.9416 181.898 27.2903 182.321 27.2903L204.142 27.2375L203.085 29.5936H176.435C175.008 29.5936 174.321 28.3046 175.008 26.8043C175.864 24.7651 176.995 22.6944 177.893 20.5494C178.222 19.7901 178.748 19.1328 179.417 18.646C180.086 18.1591 180.873 17.8606 181.697 17.7812H193.437L211.201 17.8659Z" fill="white"/>
<path d="M154.349 17.897H165.487C169.196 17.897 176.171 17.897 179.88 17.897C179.301 18.013 178.759 18.2652 178.298 18.6327C177.836 19.0002 177.47 19.4724 177.227 20.0101H155.353C155.233 20.0191 155.118 20.0615 155.021 20.1325C154.924 20.2034 154.848 20.3001 154.803 20.4116C154.571 20.9927 154.233 21.5738 154 22.155C153.916 22.3768 154 22.567 154.233 22.567H168.044C170.654 22.567 172.335 22.7572 173.095 23.1587C173.856 23.5602 174.004 24.2786 173.56 25.3352C173.328 25.874 173.053 26.3918 172.831 26.9517C172.63 27.4574 172.322 27.9136 171.928 28.2892C171.534 28.6648 171.063 28.951 170.549 29.1283C168.748 29.6128 166.885 29.8194 165.022 29.7411H142.207C142.492 29.0015 142.989 28.2513 143.264 27.5117H164.145C164.264 27.5015 164.379 27.4587 164.476 27.3879C164.573 27.3171 164.648 27.221 164.694 27.1102C164.948 26.4974 165.212 25.874 165.466 25.2507C165.561 25.0288 165.466 24.8492 165.244 24.8492H151.422C148.822 24.8492 147.131 24.659 146.36 24.2575C145.589 23.856 145.43 23.127 145.853 22.0493C146.022 21.6161 146.244 21.1829 146.413 20.7392C146.621 20.2195 146.94 19.7511 147.347 19.3663C147.754 18.9814 148.239 18.6893 148.769 18.5098C150.581 18.01 152.461 17.8031 154.338 17.897" fill="white"/>
<path fill-rule="evenodd" clip-rule="evenodd" d="M143.718 28.1374C143.559 28.4861 143.38 28.8136 143.2 29.194C146.814 29.194 150.418 29.194 154.021 29.194H165.064C166.845 29.2545 168.625 29.0551 170.348 28.6023C170.788 28.4408 171.187 28.1836 171.516 27.8492C171.845 27.5149 172.096 27.1117 172.25 26.6688C172.472 26.1194 172.746 25.6122 172.979 25.0522C173.211 24.4923 173.37 23.9957 172.789 23.647C171.827 23.1399 169.101 23.1293 168.023 23.1293H154.211C154.064 23.1308 153.92 23.095 153.791 23.0253C153.661 22.9555 153.552 22.8541 153.473 22.7305C153.394 22.607 153.347 22.4653 153.338 22.3188C153.328 22.1723 153.356 22.0259 153.419 21.8931C153.651 21.3015 153.979 20.7415 154.211 20.1498C154.302 19.9242 154.456 19.7295 154.655 19.589C154.854 19.4485 155.088 19.3681 155.331 19.3574H176.825C177.001 19.0297 177.226 18.7305 177.491 18.4699H154.349C152.544 18.3917 150.737 18.5876 148.991 19.051C148.542 19.2008 148.13 19.4467 147.785 19.7714C147.44 20.0962 147.17 20.4921 146.994 20.9317C146.814 21.3754 146.603 21.798 146.434 22.2418C146.265 22.6856 146.064 23.3829 146.656 23.6893C147.628 24.1964 150.344 24.207 151.432 24.207H165.254C165.403 24.2034 165.549 24.2385 165.68 24.3088C165.811 24.3791 165.921 24.4821 166 24.6079C166.079 24.7336 166.124 24.8777 166.13 25.026C166.136 25.1743 166.104 25.3217 166.036 25.4537L165.275 27.3133C165.183 27.5353 165.03 27.7267 164.834 27.8652C164.638 28.0036 164.406 28.0833 164.166 28.0951H143.676" fill="white"/>
</svg>
